<?xml version="1.0" encoding="utf-8"?>
<!-- Generator: Adobe Illustrator 22.1.0, SVG Export Plug-In . SVG Version: 6.00 Build 0)  -->
<svg version="1.1" xmlns="http://www.w3.org/2000/svg" xmlns:xlink="http://www.w3.org/1999/xlink" x="0px" y="0px"
	 viewBox="0 0 130 68.2" style="enable-background:new 0 0 130 68.2;" xml:space="preserve">
<style type="text/css">
	.st0{fill:none;stroke:#FFFFFF;stroke-width:3;stroke-miterlimit:10;}
	.st1{fill:#FFFFFF;}
</style>
<g id="Layer_2_1_">
	<title>IECS_illustrated_assets</title>
</g>
<g id="Layer_4">
	<g>
		<path class="st0" d="M65,1.5C29.9,1.5,1.5,29.9,1.5,65c0-25.7,20.8-46.5,46.5-46.5S94.5,39.3,94.5,65h34
			C128.5,29.9,100.1,1.5,65,1.5z"/>
		<g>
			<path class="st1" d="M20.9,37.4l29.7,28.3c0.6,0.6,0.6,1.5,0.1,2.1c-0.6,0.6-1.5,0.6-2.1,0.1c0,0,0,0-0.1-0.1L20.2,38.1
				c-0.2-0.2-0.2-0.5,0-0.7C20.5,37.2,20.8,37.2,20.9,37.4z"/>
		</g>
	</g>
</g>
</svg>
