<?xml version="1.0" encoding="utf-8"?>
<!-- Generator: Adobe Illustrator 22.1.0, SVG Export Plug-In . SVG Version: 6.00 Build 0)  -->
<svg version="1.1" id="Layer_2_1_" xmlns="http://www.w3.org/2000/svg" xmlns:xlink="http://www.w3.org/1999/xlink" x="0px" y="0px"
	 viewBox="0 0 52.9 1127" style="enable-background:new 0 0 52.9 1127;" xml:space="preserve">
<style type="text/css">
	.st0{fill:none;stroke:#000000;stroke-width:2;stroke-miterlimit:10;}
</style>
<title>IECS_illustrated_scale</title>
<line class="st0" x1="0" y1="1" x2="52.9" y2="1"/>
<line class="st0" x1="0" y1="61" x2="26.4" y2="61"/>
<line class="st0" x1="0" y1="121" x2="52.9" y2="121"/>
<line class="st0" x1="0" y1="181" x2="26.4" y2="181"/>
<line class="st0" x1="0" y1="237.2" x2="52.9" y2="237.2"/>
<line class="st0" x1="0" y1="297.2" x2="26.4" y2="297.2"/>
<line class="st0" x1="0" y1="357.2" x2="52.9" y2="357.2"/>
<line class="st0" x1="0" y1="417.2" x2="26.4" y2="417.2"/>
<line class="st0" x1="0" y1="473.5" x2="52.9" y2="473.5"/>
<line class="st0" x1="0" y1="533.5" x2="26.4" y2="533.5"/>
<line class="st0" x1="0" y1="593.5" x2="52.9" y2="593.5"/>
<line class="st0" x1="0" y1="653.5" x2="26.4" y2="653.5"/>
<line class="st0" x1="0" y1="709.8" x2="52.9" y2="709.8"/>
<line class="st0" x1="0" y1="769.8" x2="26.4" y2="769.8"/>
<line class="st0" x1="0" y1="829.8" x2="52.9" y2="829.8"/>
<line class="st0" x1="0" y1="889.8" x2="26.4" y2="889.8"/>
<line class="st0" x1="0" y1="946" x2="52.9" y2="946"/>
<line class="st0" x1="0" y1="1006" x2="26.4" y2="1006"/>
<line class="st0" x1="0" y1="1066" x2="52.9" y2="1066"/>
<line class="st0" x1="0" y1="1126" x2="26.4" y2="1126"/>
</svg>
