<svg id="Layer_1" data-name="Layer 1" xmlns="http://www.w3.org/2000/svg" viewBox="0 0 90.32 95.77"><defs><style>.cls-1{fill:none;stroke-linecap:round;stroke-width:3px;}.cls-1,.cls-2{stroke:#fff;stroke-miterlimit:10;}.cls-2{stroke-width:2px;}</style></defs><title>IECS_illustrated_money_icon_white</title><g id="Layer_4" data-name="Layer 4"><path class="cls-1" d="M10.4,45.6A54.09,54.09,0,0,0,5,52.8c-6.2,10.4-4,21.8,5,29.8,14.6,12.9,42,15.5,61.3,5.8,10.9-5.5,20.9-16.9,16.4-29.9C83.8,47.1,71.9,39.8,66.5,29a40.43,40.43,0,0,1-3.6-9.5C62.3,16.7,68,4.6,69.4,2a.38.38,0,0,0-.3-.5c-4.4.3-10.7,3.8-15,3.8-4.5,0-4.5-3.4-9-3.4s-4.5,3.4-9,3.4c-4.3,0-9.3-3.2-13.6-3.4-.2,0-.4.2-.3.4,1.3,4,5.8,14.1,5,17.6A42.56,42.56,0,0,1,23.7,29,44.62,44.62,0,0,1,17,38.4" transform="translate(0.02)"/><line class="cls-1" x1="25.62" y1="17.3" x2="65.32" y2="17.3"/><line class="cls-1" x1="25.62" y1="21.6" x2="65.32" y2="21.6"/><path class="cls-2" d="M47.3,41.5c5.7.7,7.8,4.7,8.1,8.2H53.9a7.4,7.4,0,0,0-7.3-6.8,7.23,7.23,0,0,0-7.1,7.3c0,5.1,3.9,6.2,8.2,7.4,2.6.8,8.5,2.4,8.5,9.4a9.48,9.48,0,0,1-8.9,9.4v4.8H45.8V76.4a9.86,9.86,0,0,1-9.2-9.5H38A8.4,8.4,0,0,0,46.6,75a8,8,0,0,0,8.1-8c0-5.9-4.6-7.2-9.2-8.5-2.9-.8-7.5-2.6-7.5-8.3a8.51,8.51,0,0,1,7.8-8.6v-4h1.5Z" transform="translate(0.02)"/></g></svg>