<?xml version="1.0" encoding="utf-8"?>
<!-- Generator: Adobe Illustrator 22.1.0, SVG Export Plug-In . SVG Version: 6.00 Build 0)  -->
<svg version="1.1" id="Layer_2_1_" xmlns="http://www.w3.org/2000/svg" xmlns:xlink="http://www.w3.org/1999/xlink" x="0px" y="0px"
	 viewBox="0 0 1023.8 599.9" style="enable-background:new 0 0 1023.8 599.9;" xml:space="preserve">
<style type="text/css">
	.st0{fill:#CCE3F2;}
	.st1{fill:#F2F2F2;}
	.st2{opacity:0.6;}
	.st3{opacity:0.6;fill:#99C6E4;enable-background:new    ;}
	.st4{fill:#EDDBD0;}
	.st5{fill:#4EAE48;}
	.st6{fill:none;stroke:#017439;stroke-width:0.6457;stroke-linecap:round;stroke-linejoin:round;stroke-miterlimit:10;}
	.st7{fill:none;stroke:#017439;stroke-width:0.4848;stroke-linejoin:round;stroke-miterlimit:10;}
	.st8{fill:none;stroke:#017439;stroke-width:0.5542;stroke-linecap:round;stroke-linejoin:round;stroke-miterlimit:10;}
	.st9{fill:none;stroke:#017439;stroke-width:0.566;stroke-linecap:round;stroke-linejoin:round;stroke-miterlimit:10;}
</style>
<title>IECS_illustrated_cityscape_</title>
<rect class="st0" width="1024" height="574.7"/>
<rect x="-0.1" y="390.2" class="st1" width="1024" height="209.8"/>
<g class="st2">
	<path class="st3" d="M1023.9,316.1h-3.8v-1.7h3.8v-6h-11.5v-36.9h-18v-55.4h-30.2v54.2h-50v106.8h-66.8v-28h-42.7v-46.4h-38.9v-14
		h-63.5v80.9h-30.8v-59.3c0-6.4-5.2-11.7-11.7-11.7c-0.3,0-0.6,0-0.9,0c-6.1,0.6-10.7,5.7-10.7,11.9v21.2h-31.1v20.6h-12.8V312
		h-46.2v40.3h-12.8v-20.6h-31.1v-21.2c0.1-6.1-4.6-11.3-10.7-11.9c-6.4-0.5-12,4.3-12.5,10.7c0,0.3,0,0.6,0,0.9v59.3h-30.8v-80.9
		H397v14h-38.9v46.5h-42.8v28h-66.8V270.3h-50v-54.2h-30.1v174h855.5L1023.9,316.1z M234.4,281.5h-24.6v-2.4h24.6V281.5z
		 M563.6,318.3h-2.4v-2.4h2.4V318.3z M578.1,338.8h-2.4v-2.4h2.4V338.8z M587.1,338.8h-2.4v-2.4h2.4V338.8z M601.6,318.3h-2.4v-2.4
		h2.4V318.3z M953.1,281.5h-24.6v-2.4h24.6V281.5z"/>
	<path class="st3" d="M145.1,352.3h-12.8v-20.6h-31.1v-21.2c0.1-6.1-4.6-11.3-10.7-11.9c-6.4-0.5-12,4.3-12.5,10.7
		c0,0.3,0,0.6,0,0.9v59.3H47.3v-80.9H-0.1v101.5h168.5V312h-23.2V352.3z M162.5,336.3h2.5v2.4h-2.4L162.5,336.3z M148,315.9h2.4v2.4
		H148V315.9z"/>
</g>
<path class="st4" d="M1023.9,585.5C1023.9,585.5,1024.1,585.4,1023.9,585.5c-16.2-0.4-34.8-0.1-53.3-0.1c-16.5,0-32.3,0.1-47.1,0.4
	l0,0c-14.8-0.3-30.6-0.4-47-0.4c-38.2,0-77.2,0-114.3,2.8c-94.8,7.3-196.8,0.3-293.2,0.7c-8.6,0-17.2,0.1-25.7-0.1
	c-10.7-0.3-21.1-1-31.7-1.5c-48.4-2.5-99.4-2.5-148.4-1.5c0,0-58.9,2.3-73.7,4c-0.1,0-0.2,0-0.3,0c-20.5-3-74-5.1-136.7-5.1
	c-18.4,0-36.4,0.2-52.7,0.5c-0.2,0,0,0,0,0.1V600c0,0-0.2,0,0,0h1023.9c0.2,0,0,0,0,0V585.5z"/>
<g>
	<path class="st5" d="M278.5,580.9c0.2,3.8-3.2,6.9-7.6,7.1c-4.3,0.1-8-2.8-8.2-6.6c0-0.2,0-0.3,0-0.5c0-3.8,3.5-18.5,7.9-18.5
		S278.5,577.2,278.5,580.9z"/>
	<line class="st6" x1="270.6" y1="583.5" x2="270.6" y2="594.4"/>
</g>
<g>
	
		<ellipse transform="matrix(3.327791e-02 -0.9994 0.9994 3.327791e-02 -440.0373 657.1137)" class="st5" cx="119.7" cy="556" rx="6.4" ry="6.4"/>
	<g>
		
			<ellipse transform="matrix(3.327791e-02 -0.9994 0.9994 3.327791e-02 -450.0318 666.7809)" class="st5" cx="119.7" cy="566" rx="10" ry="10"/>
		<line class="st7" x1="119.7" y1="571.7" x2="119.7" y2="593.2"/>
	</g>
</g>
<g>
	<circle class="st5" cx="893.7" cy="572.9" r="6.9"/>
	<line class="st8" x1="893.7" y1="576.8" x2="893.7" y2="591.7"/>
</g>
<g>
	<path class="st5" d="M940.4,567.9c-0.1,5-4.3,8.9-9.3,8.8c-4.8-0.1-8.6-4-8.8-8.8c0-5,4-24.5,9-24.5S940.4,562.9,940.4,567.9z"/>
	<polyline class="st9" points="931.4,592.3 931.4,573 934.8,569.1 	"/>
	<line class="st9" x1="931.4" y1="584.2" x2="931.4" y2="554"/>
</g>
</svg>
