<svg xmlns="http://www.w3.org/2000/svg" viewBox="0 0 157.98 85.07"><defs><style>.cls-1{isolation:isolate;}.cls-2{fill:#525252;opacity:0.14;mix-blend-mode:multiply;}.cls-3{fill:#3c8fdf;}.cls-4{fill:#54a6ef;}.cls-5{fill:#282f3a;}.cls-6{fill:#3a454f;}.cls-7{fill:#bdd6db;}.cls-8{fill:#ec9100;}.cls-9{fill:#dd3e3e;}.cls-10{fill:#ffa312;}</style></defs><title>IECS_illustrated_assets</title><g class="cls-1"><g id="Layer_2" data-name="Layer 2"><path class="cls-2" d="M98.73,81.24c.54-1.95.22-3.15-.3-3.89,8.63-.12,15.78-.23,20.19-.23,12.39,0,20.08-.6,24.55-3l0,0q.42-.22.81-.48l.2-.14.58-.42a8.54,8.54,0,0,0,.71-.64h0a5.73,5.73,0,0,0,.8-1l.1-.17c.15-.25.29-.51.43-.79h0v0c.17-.36.33-.75.49-1.16v0h0s0-.08,0-.12h0c.11-.3.22-.62.32-1l.06-.19c.1-.33.2-.66.29-1h0c.3-1.12.56-2.35.78-3.63h0c0-.09,0-.19,0-.28h0c.2-1.22.38-2.48.52-3.76h0c.24-2.08.4-4.17.51-6.12v-.07c0-.24,0-.48,0-.72V52.2l0-.65v-.2c0-.2,0-.4,0-.6v-.22c0-.18,0-.36,0-.54v-.26c0-.17,0-.33,0-.49V49c0-.14,0-.29,0-.43s0-.23,0-.35v-.32c0-.16,0-.31,0-.46V45.77c0-.15,0-.3,0-.46V45c0-.12,0-.23,0-.35s0-.28,0-.43v-.29c0-.16,0-.32,0-.48v-.27c0-.17,0-.36,0-.54v-.22c0-.2,0-.4,0-.6v-.19l0-.66v-.14c0-.24,0-.48,0-.73V40a88.75,88.75,0,0,0-1.16-10.6v-.07c0-.24-.09-.48-.13-.71v0c-.15-.71-.3-1.4-.47-2.06a.24.24,0,0,0,0-.08c0-.17-.09-.33-.13-.5l-.07-.25c0-.14-.08-.29-.13-.43l-.09-.29-.12-.38c0-.11-.08-.22-.11-.33l-.12-.33-.18-.45-.13-.3-.19-.42c0-.08-.07-.15-.11-.22s-.11-.22-.17-.33l-.12-.2-.18-.3-.12-.18c-.06-.1-.14-.19-.21-.29a1.13,1.13,0,0,0-.1-.13c-.11-.13-.21-.25-.33-.37h0a8,8,0,0,0-.68-.61h0c-4-3.34-11.42-4.1-26.2-4.1-4.37,0-11.45-.11-20-.23a4.81,4.81,0,0,0,.09-3.53c-.71-2.55-2-3.47-2.9-3.79a.7.7,0,0,0-.9.84l1.55,6.45c-7.62-.1-16.27-.2-25.14-.23a.51.51,0,0,0-.51-.48H67.7a.51.51,0,0,0-.52.47H59.7a.52.52,0,0,0-.52-.48H56.05a.52.52,0,0,0-.52.51C30.85,15.77,8.28,16.79,5.6,20.1a17.71,17.71,0,0,0-1.95,3.12h0c-.27.56-.52,1.13-.75,1.73a1.17,1.17,0,0,0,0,.11c-.22.56-.42,1.13-.6,1.72a1,1,0,0,0,0,.16c-.18.58-.35,1.18-.51,1.78h0l0,.13A52.54,52.54,0,0,0,.42,36.32l0,.33c0,.43-.08.85-.11,1.27l0,.42c0,.4,0,.8-.08,1.19,0,.15,0,.31,0,.46,0,.38,0,.74,0,1.11,0,.17,0,.33,0,.49,0,.35,0,.68,0,1s0,.37,0,.56,0,.58,0,.87,0,.45,0,.68,0,.44,0,.65V47.8c0,.21,0,.43,0,.65s0,.45,0,.69,0,.57,0,.86,0,.37,0,.56l0,1c0,.16,0,.33,0,.49,0,.37,0,.73,0,1.11,0,.15,0,.31,0,.46,0,.39,0,.79.08,1.19l0,.42c0,.42.07.84.11,1.27l0,.33a52.91,52.91,0,0,0,1.24,7.47l0,.12h0c.16.6.33,1.2.51,1.78a.75.75,0,0,0,0,.16c.18.59.38,1.16.6,1.72l0,.12a18.26,18.26,0,0,0,2.7,4.84c2.68,3.31,25.25,4.33,49.93,4.53a.53.53,0,0,0,.52.51h3.13a.52.52,0,0,0,.52-.49c2.49,0,5,0,7.48,0a.52.52,0,0,0,.52.48h3.13a.52.52,0,0,0,.51-.49c8.9,0,17.58-.13,25.23-.23l-1.64,6.81a.7.7,0,0,0,.9.84C96.76,84.71,98,83.79,98.73,81.24Z"/><path class="cls-3" d="M126.5,68.68c14.9,0,23-.86,26.88-4.73S158,44.66,158,38.13s-.73-22-4.6-25.81S142.15,7.59,126.5,7.59c-21.43,0-107.63-2.6-113,4.06s-5.6,19.78-5.6,26.48S8.1,58,13.48,64.61,105.07,68.68,126.5,68.68Z"/><path class="cls-4" d="M123.13,66.05c14.42,0,19.75-.78,23.28-4.32s5-17.63,5-23.6-1.45-20.06-5-23.6-7.27-4.31-23.28-4.31a70.71,70.71,0,0,0-13.3,1.39c-4.2,1.89-11.14,2.9-17.9,3.61a10.36,10.36,0,0,0-5.58-1.28c-3.14-1.07-13.95-.27-18,0-.22,0-.93,0-1.16,0,0,0-14.15-.64-20.39,0a17.83,17.83,0,0,0-4.08.77c-1.92.22-9.92-2.43-11.4-2.15-3,.55-11.49.52-12.18,1.37C14.16,20,14,32,14,38.13s.2,18.11,5.13,24.21c.69.85,9.22.82,12.18,1.37,1.48.28,9.48-2.38,11.4-2.16a16.81,16.81,0,0,0,4.08.78c6.24.64,20.39,0,20.39,0,.23,0,.94,0,1.16,0,4.1.27,14.91,1.07,18,0a10.45,10.45,0,0,0,5.58-1.28c6.76.7,13.7,1.72,17.9,3.6A70.83,70.83,0,0,0,123.13,66.05Z"/><polygon class="cls-3" points="139.01 47.12 111.02 52.41 110.71 50.4 139.01 47.12"/><polygon class="cls-3" points="139.01 29.15 110.71 25.86 111.02 23.86 139.01 29.15"/><path class="cls-5" d="M68.3,13.94H87L108.4,9.87c-7.66-.81-26.7-.87-40.1-.71Z"/><path class="cls-5" d="M67.14,9.17c-14,.18-26.09.58-26.09.58l5.7,4.19H67.14Z"/><path class="cls-3" d="M118.47,38.13s.19-15.49-7.89-26.93l-17.9,3.66s5.17,6.3,5.17,23.27S92.68,61.4,92.68,61.4l17.9,3.67C118.66,53.62,118.47,38.13,118.47,38.13Z"/><path class="cls-5" d="M117.72,38.13s.19-15.25-7.89-26.52l-17.9,3.61s5.17,6.2,5.17,22.91-5.17,22.92-5.17,22.92l17.9,3.6C117.91,53.39,117.72,38.13,117.72,38.13Z"/><path class="cls-6" d="M68.3,62.33H87l21.36,4.06c-7.66.81-26.7.87-40.1.72Z"/><path class="cls-6" d="M67.14,67.09c-14-.17-26.09-.57-26.09-.57l5.7-4.19H67.14Z"/><path class="cls-5" d="M42.67,61.55c-1.52-5.68-1.52-41.15,0-46.84,0,0-6.9-2.67-11.4-2.15-2.29,3.84-5.19,12-5.19,25.57S29,59.86,31.27,63.71C35.77,64.23,42.67,61.55,42.67,61.55Z"/><path class="cls-6" d="M91.93,61.05l17.9,3.6c8.08-11.26,7.89-26.52,7.89-26.52H97.1C97.1,54.85,91.93,61.05,91.93,61.05Z"/><path class="cls-6" d="M42.67,61.55c-.05-.19-.09-.4-.13-.61a1.42,1.42,0,0,1,0-.2l-.06-.39c-.6-3.9-.91-13.05-.91-22.22H26.08c0,13.58,2.9,21.73,5.19,25.58C35.77,64.23,42.67,61.55,42.67,61.55Z"/><path class="cls-5" d="M155.83,49c.5.58,1,1.18,1.45,1.79a115.19,115.19,0,0,0,0-25.36c-.47.61-.95,1.21-1.45,1.79C155.53,27.6,155.53,48.67,155.83,49Z"/><path class="cls-7" d="M150.2,10.16a1.17,1.17,0,0,0-1,.77,1.31,1.31,0,0,0-.06.27,1.15,1.15,0,0,0,.79,1.23c5.09,1.44,5.67,8.38,5.92,9,.16.37.68.55.88.31-.69-4.16-1.76-7.79-3.38-9.4A10.74,10.74,0,0,0,150.2,10.16Z"/><path class="cls-8" d="M152.2,13.61a3.23,3.23,0,0,0,1.11-1.36,10.87,10.87,0,0,0-3.11-2.09,1.17,1.17,0,0,0-1,.77,1.31,1.31,0,0,0-.06.27,1.16,1.16,0,0,0,.79,1.23A6.31,6.31,0,0,1,152.2,13.61Z"/><path class="cls-7" d="M149.23,65.36a1.16,1.16,0,0,0,.88.75A10.58,10.58,0,0,0,153.38,64a4.4,4.4,0,0,0,.35-.39h0a8,8,0,0,0,.94-1.54l0,0c.18-.37.35-.77.51-1.19,0,0,0-.08,0-.12a22,22,0,0,0,.67-2.16c0-.1,0-.2.08-.3.1-.4.2-.81.29-1.23l.09-.42.15-.73c.06-.32.12-.64.17-1,0-.09,0-.19,0-.28-.21-.23-.72,0-.88.31-.25.6-.83,7.54-5.92,9a1.16,1.16,0,0,0-.79,1.23A1.31,1.31,0,0,0,149.23,65.36Z"/><path class="cls-8" d="M149.52,65.8l.06.06a1.58,1.58,0,0,0,.24.15h0a1.31,1.31,0,0,0,.28.09h0A10.76,10.76,0,0,0,153.3,64a3.2,3.2,0,0,0-1.1-1.33,6.23,6.23,0,0,1-.8.54l-.38.21-.28.13a6,6,0,0,1-.78.29,1,1,0,0,0-.61.47,1.28,1.28,0,0,0-.18.76,1.31,1.31,0,0,0,.06.27,1.32,1.32,0,0,0,.15.29Z"/><path class="cls-5" d="M7.88,38.13a99.64,99.64,0,0,0,.57,11.64l.32-.06a2,2,0,0,0,1.56-2,187.08,187.08,0,0,1,0-19.24,1.93,1.93,0,0,0-1.56-2l-.32-.06A99.58,99.58,0,0,0,7.88,38.13Z"/><path class="cls-9" d="M9.67,22.67h0a1.17,1.17,0,0,0,1.38-.88q.66-2.78,1.54-5.51a1.15,1.15,0,0,0-.72-1.46h0a.93.93,0,0,0-.33,0,30.72,30.72,0,0,0-2.43,7.56A1.07,1.07,0,0,0,9.67,22.67Z"/><path class="cls-9" d="M11.89,61.44A1.17,1.17,0,0,0,12.61,60q-.88-2.73-1.54-5.5a1.16,1.16,0,0,0-1.38-.88h0a1.05,1.05,0,0,0-.56.32,30.79,30.79,0,0,0,2.43,7.57.93.93,0,0,0,.33,0Z"/><path class="cls-5" d="M106.24,8l-2.61-.19a.64.64,0,0,0-.56.28l-.32.5,4.42.52-.43-.79A.6.6,0,0,0,106.24,8Z"/><path class="cls-4" d="M104.48,7.84l-1.67-7a.71.71,0,0,1,.91-.84c.92.32,2.18,1.24,2.89,3.79s-.07,3.85-.83,4.47A.82.82,0,0,1,104.48,7.84Z"/><path class="cls-5" d="M106.24,68.62l-2.61.18a.63.63,0,0,1-.56-.27l-.32-.5,4.42-.53-.43.8A.62.62,0,0,1,106.24,68.62Z"/><path class="cls-4" d="M104.48,68.78l-1.67,7a.71.71,0,0,0,.91.84c.92-.33,2.18-1.25,2.89-3.79s-.07-3.85-.83-4.47A.82.82,0,0,0,104.48,68.78Z"/><path class="cls-10" d="M9.67,22.67h0a1.17,1.17,0,0,0,1.38-.88c.11-.46.24-.91.36-1.37l-1.86-.15c-.17.68-.32,1.37-.46,2.06A1.07,1.07,0,0,0,9.67,22.67Z"/><path class="cls-10" d="M9.69,53.59h0a1.05,1.05,0,0,0-.56.32c.14.7.29,1.39.46,2.07l1.86-.15c-.12-.46-.25-.92-.36-1.37A1.16,1.16,0,0,0,9.69,53.59Z"/><rect class="cls-3" x="60.8" y="25.45" width="19.72" height="25.36" rx="1.85" ry="1.85"/><path class="cls-5" d="M61.48,48.36V27.91a1.73,1.73,0,0,1,1.72-1.75H78.12a1.73,1.73,0,0,1,1.72,1.75V48.36a1.73,1.73,0,0,1-1.72,1.75H63.2A1.73,1.73,0,0,1,61.48,48.36Z"/><path class="cls-6" d="M79.84,48.36V38.13H61.48V48.36a1.73,1.73,0,0,0,1.72,1.75H78.12A1.73,1.73,0,0,0,79.84,48.36Z"/><rect class="cls-5" x="75.05" y="6.62" width="4.18" height="1.06" rx="0.53" ry="0.53"/><rect class="cls-5" x="63.41" y="6.62" width="4.18" height="1.06" rx="0.53" ry="0.53"/><rect class="cls-5" x="75.05" y="68.59" width="4.18" height="1.06" rx="0.53" ry="0.53"/><rect class="cls-5" x="63.41" y="68.59" width="4.18" height="1.06" rx="0.53" ry="0.53"/></g></g></svg>