<svg id="Layer_1" data-name="Layer 1" xmlns="http://www.w3.org/2000/svg" viewBox="0 0 157.47 213.51"><defs><style>.cls-1{fill:#fff;}</style></defs><title>IECS_illustrated_fuel_drops_iecs</title><path class="cls-1" d="M113.06,211.48a3.93,3.93,0,0,1-5.35,1.51h0a3.82,3.82,0,0,1-1.54-1.57c-8.25-14.84-22-27.58-37.87-33.78-15.37-6-33-6.48-46.84-16.2C8.38,152.25.62,135.75,0,120c-.67-18.54,8-36.69,23.4-47.2C39.31,62,61,62.33,77.84,70.78c34.71,17.37,51.86,61,48.6,98.12a100.66,100.66,0,0,1-3.12,17.56A116.55,116.55,0,0,1,113.06,211.48Z" transform="translate(0.04 0.01)"/><path class="cls-1" d="M131.37,78.67A1.86,1.86,0,0,0,133.9,78v0a1.94,1.94,0,0,0,.23-1,36.38,36.38,0,0,1,6.75-23.21c4.69-6.3,11.69-11,14.81-18.38,3-7,1.92-15.64-1.83-22.15A26.17,26.17,0,0,0,132.49,0C123.35-.34,114.71,5.3,110,13c-9.63,15.78-5.52,37.73,5.18,51.89a46,46,0,0,0,5.7,6.3A54.39,54.39,0,0,0,131.37,78.67Z" transform="translate(0.04 0.01)"/></svg>