<svg xmlns="http://www.w3.org/2000/svg" viewBox="0 0 154.22 76.78"><defs><style>.cls-1{isolation:isolate;}.cls-2{fill:#525252;opacity:0.14;mix-blend-mode:multiply;}.cls-3{fill:#cc9600;}.cls-4{fill:#ffbc00;}.cls-5{fill:#e2dfe6;}.cls-6{fill:#669fcc;}.cls-7{fill:#45474a;}.cls-8{fill:#f3482a;}</style></defs><title>IECS_illustrated_assets</title><g class="cls-1"><g id="Layer_2" data-name="Layer 2"><path class="cls-2" d="M96.59,72.25,23.39,73.8C13.8,73.8,0,66,0,56.43V28C0,18.38,13.8,10.6,23.39,10.6l73.2,1.55-1.1-4.47s3.68-.9,4.42,4.52c.79,0,1.58,0,2.36-.12l13.21-.61c8.59-.8,19.6,1.51,25.7,7.61,5.24,5.24,6,13.39,6,21.39v3.46c0,8-.81,16.15-6,21.39-6.1,6.1-17.11,8.11-25.7,7.31l-13.21-.31c-.78-.07-1.57-.11-2.36-.12-.74,5.42-4.42,4.52-4.42,4.52Z"/><path class="cls-3" d="M105.9,64.58a27,27,0,0,1,3.36.12l13.21.31c8.58.79,19.6-1.22,25.7-7.31,5.24-5.24,6.05-13.4,6.05-21.39V32.85c0-8-.81-16.15-6.05-21.39-6.1-6.1-17.12-8.41-25.7-7.62l-13.21.62a31.44,31.44,0,0,1-3.36.12L30.38,3C20.78,3,7,10.76,7,20.35V48.8c0,9.6,13.79,17.38,23.39,17.38Z"/><path class="cls-4" d="M105.05,61.1a31.89,31.89,0,0,1,3.24.11l12.76.27c8.3.71,18.94-1.07,24.83-6.46,5.07-4.64,5.85-11.84,5.85-18.91V33.05c0-7.07-.78-14.28-5.85-18.91C140,8.75,129.35,6.7,121.05,7.4L108.29,8a31.88,31.88,0,0,1-3.24.1l-73-1.41C22.8,6.64,9.47,13.52,9.47,22V47.16c0,8.48,13.33,15.36,22.6,15.36Z"/><path class="cls-5" d="M107,62.52h-2.94l-1.62,6.58S107,70.21,107,62.52Z"/><path class="cls-5" d="M107,6.64h-2.94L102.47.06S107-1.06,107,6.64Z"/><path class="cls-6" d="M151.73,47.74c-2.51,9.58-7.7,11.64-10.92,13.37A21.3,21.3,0,0,1,135.34,63,97.51,97.51,0,0,1,151.73,47.74Z"/><path class="cls-7" d="M68.44,59.2c-.06-.22-.11-.44-.17-.67h17c8.5,0,24.17,4,24.17,4s-26.59.81-40.06,0C69,61.5,68.72,60.32,68.44,59.2Z"/><path class="cls-7" d="M67.63,62.48A115,115,0,0,1,45.1,58.53H66.7C67,59.86,67.31,61.17,67.63,62.48Z"/><path class="cls-8" d="M11.23,51.12a54.65,54.65,0,0,0,14.6,9.62,24.43,24.43,0,0,1-6.67-.26,15.12,15.12,0,0,1-6.46-5.63,35.42,35.42,0,0,1-2.52-4.6A9,9,0,0,1,11.23,51.12Z"/><path class="cls-6" d="M151.73,20.72c-2.51-9.58-7.7-11.64-10.92-13.37a21.69,21.69,0,0,0-5.47-1.84A97.51,97.51,0,0,0,151.73,20.72Z"/><path class="cls-7" d="M121.62,13.62c1.35,4.11,2.58,10.6,2.58,20.61s-1.23,16.5-2.58,20.62a8,8,0,0,1-9,5.44L92,56.26a1.52,1.52,0,0,1-1.2-1.5c.06-10.39.79-20.53.79-20.53s-.73-10.14-.79-20.52A1.52,1.52,0,0,1,92,12.2l20.61-4A8,8,0,0,1,121.62,13.62Z"/><path class="cls-8" d="M11.23,18a54.17,54.17,0,0,1,14.6-9.62,24.83,24.83,0,0,0-6.67.25,15.08,15.08,0,0,0-6.46,5.64,35.42,35.42,0,0,0-2.52,4.6A11.55,11.55,0,0,0,11.23,18Z"/><path class="cls-7" d="M68.44,9.26c-.06.22-.11.44-.17.67h17c8.5,0,24.17-4,24.17-4s-26.59-.81-40.06,0C69,7,68.72,8.14,68.44,9.26Z"/><path class="cls-7" d="M67.63,6A115,115,0,0,0,45.1,9.93H66.7C67,8.6,67.31,7.29,67.63,6Z"/><path class="cls-7" d="M43.75,14.83a47,47,0,0,0-4.1,19.4,47,47,0,0,0,4.1,19.4c-4.55,1.59-10.64,2.2-13.92,2.43a3.6,3.6,0,0,1-3.48-2,45.82,45.82,0,0,1-4.62-19.84,45.82,45.82,0,0,1,4.62-19.84,3.62,3.62,0,0,1,3.48-2C33.11,12.63,39.2,13.24,43.75,14.83Z"/></g></g></svg>