<?xml version="1.0" encoding="utf-8"?>
<!-- Generator: Adobe Illustrator 22.1.0, SVG Export Plug-In . SVG Version: 6.00 Build 0)  -->
<svg version="1.1" id="Layer_1" xmlns="http://www.w3.org/2000/svg" xmlns:xlink="http://www.w3.org/1999/xlink" x="0px" y="0px"
	 viewBox="0 0 191.2 55.5" style="enable-background:new 0 0 191.2 55.5;" xml:space="preserve">
<style type="text/css">
	.st0{fill:#FFBC00;}
	.st1{fill:none;}
	.st2{fill:#C0E74D;}
	.st3{fill:#017439;}
	.st4{fill:#4EAE48;}
	.st5{fill:none;stroke:#C0E74D;stroke-width:0.84;stroke-miterlimit:10;}
	.st6{fill:none;stroke:#017439;stroke-width:0.84;stroke-miterlimit:10;}
	.st7{fill:none;stroke:#F2FADB;stroke-width:0.84;stroke-miterlimit:10;}
	.st8{fill:none;stroke:#017439;stroke-width:0.77;stroke-miterlimit:10;}
	.st9{fill:#D5E0CE;}
	.st10{fill:#A46A34;}
	.st11{fill:#5A4738;}
	.st12{fill:none;stroke:#5A4738;stroke-width:0.4107;stroke-linecap:round;stroke-linejoin:round;}
	.st13{fill:none;stroke:#5A4738;stroke-width:0.1271;stroke-linecap:round;stroke-linejoin:round;}
	.st14{opacity:0.3;}
	.st15{fill:#73BFA4;}
	.st16{opacity:0.2;fill:#525252;}
	.st17{fill:#1A1A1A;}
	.st18{fill:#333333;}
	.st19{fill:#BF9726;}
	.st20{fill:#FFC933;}
	.st21{fill:#4D4D4D;}
	.st22{fill:none;stroke:#FFBC00;stroke-width:7.2098;stroke-miterlimit:10;}
	.st23{fill:url(#);}
	.st24{fill:none;stroke:#A46A34;stroke-width:3;stroke-linecap:round;stroke-miterlimit:10;}
	.st25{clip-path:url(#SVGID_1_);fill:#F2F2F2;}
	.st26{clip-path:url(#SVGID_1_);}
	.st27{fill:#FF0000;}
	.st28{fill:#EB912B;}
</style>
<g>
	<g>
		<rect x="40.1" class="st18" width="7.5" height="55.5"/>
		<rect x="143.6" class="st18" width="7.5" height="55.5"/>
	</g>
	<g>
		<defs>
			<rect id="SVGID_3_" y="22.5" width="191.2" height="10.5"/>
		</defs>
		<clipPath id="SVGID_1_">
			<use xlink:href="#SVGID_3_"  style="overflow:visible;"/>
		</clipPath>
		<rect y="22.5" class="st25" width="191.2" height="13.5"/>
		<g class="st26">
			<polygon class="st27" points="-1.7,52.5 -12.2,52.5 7.2,3 17.7,3 			"/>
			<polygon class="st27" points="21.6,52.5 11.1,52.5 30.4,3 40.9,3 			"/>
			<polygon class="st27" points="44.8,52.5 34.3,52.5 53.7,3 64.2,3 			"/>
			<polygon class="st27" points="68.1,52.5 57.6,52.5 76.9,3 87.4,3 			"/>
			<polygon class="st27" points="91.3,52.5 80.8,52.5 100.2,3 110.7,3 			"/>
			<polygon class="st27" points="114.6,52.5 104.1,52.5 123.4,3 133.9,3 			"/>
			<polygon class="st27" points="137.8,52.5 127.3,52.5 146.7,3 157.2,3 			"/>
			<polygon class="st27" points="161.1,52.5 150.6,52.5 169.9,3 180.4,3 			"/>
			<polygon class="st27" points="184.3,52.5 173.8,52.5 193.2,3 203.7,3 			"/>
		</g>
	</g>
</g>
</svg>
