<?xml version="1.0" encoding="utf-8"?>
<!-- Generator: Adobe Illustrator 22.1.0, SVG Export Plug-In . SVG Version: 6.00 Build 0)  -->
<svg version="1.1" id="Layer_2_1_" xmlns="http://www.w3.org/2000/svg" xmlns:xlink="http://www.w3.org/1999/xlink" x="0px" y="0px"
	 viewBox="0 0 1024 576" style="enable-background:new 0 0 1024 576;" xml:space="preserve">
<style type="text/css">
	.st0{fill:#FFBC00;}
	.st1{fill:none;}
	.st2{fill:#C0E74D;}
	.st3{fill:#017439;}
	.st4{fill:#4EAE48;}
	.st5{fill:none;stroke:#C0E74D;stroke-width:0.84;stroke-miterlimit:10;}
	.st6{fill:none;stroke:#017439;stroke-width:0.84;stroke-miterlimit:10;}
	.st7{fill:none;stroke:#F2FADB;stroke-width:0.84;stroke-miterlimit:10;}
	.st8{fill:none;stroke:#017439;stroke-width:0.77;stroke-miterlimit:10;}
	.st9{fill:#D5E0CE;}
	.st10{fill:#A46A34;}
	.st11{fill:#5A4738;}
	.st12{fill:none;stroke:#5A4738;stroke-width:0.4107;stroke-linecap:round;stroke-linejoin:round;}
	.st13{fill:none;stroke:#5A4738;stroke-width:0.1271;stroke-linecap:round;stroke-linejoin:round;}
	.st14{opacity:0.3;}
	.st15{fill:#73BFA4;}
	.st16{fill:#FFFFFF;}
</style>
<title>IECS_illustrated_headerBackground</title>
<path class="st0" d="M191.8,158c0,8.7-7,15.7-15.7,15.7s-15.7-7-15.7-15.7s7-15.7,15.7-15.7c6.3,0,12,3.8,14.5,9.7
	C191.4,153.9,191.8,155.9,191.8,158"/>
<line class="st1" x1="48.7" y1="232.7" x2="52" y2="234.3"/>
<path class="st2" d="M723.2,201.4c39.3-11.2,76.7-27.4,114.8-42c37.6-14.4,77.2-24.2,117.6-25.7c22.9-0.8,45.8,1.1,68.2,5.7
	c0.6,0.1,0.9-0.8,0.3-0.9c-38.6-8-78.3-7.6-117-0.2c-41,7.9-79.2,24.1-117.9,39.2c-21.8,8.5-43.7,16.5-66.2,22.9
	c-0.3,0.1-0.4,0.3-0.3,0.6C722.7,201.3,723,201.4,723.2,201.4L723.2,201.4L723.2,201.4z"/>
<path class="st2" d="M0,207.3c78.7-1.5,149.4,44.5,227.9,43.9c23-0.2,45.9-5.1,68.1-10.5c0.3-0.1,0.5-0.4,0.4-0.8s-0.4-0.5-0.8-0.4
	l0,0c-20.5,5-41.7,9.6-62.9,10.4c-19.4,0.7-38.8-1.9-57.8-5.9c-37.9-8.1-74.4-21.9-112.2-30.6c-20.6-4.7-41.6-7.7-62.8-7.3
	c-0.3,0-0.6,0.3-0.6,0.6C-0.6,207.1-0.3,207.3,0,207.3z"/>
<path class="st2" d="M251.8,248.9c8.1-1.2,16-2.6,23.9-4.2c-27.6-16.4-63-29.2-101.7-29.2c-21.8,0.1-43.5,4-64,11.4
	C157.1,240.9,203.9,255.9,251.8,248.9z"/>
<path class="st3" d="M142.1,574.7c-0.6-3.3-0.8-6,0.7-6.9c2.9-1.6,10.4,7.7,12.5,6.2c1.3-0.9-1.5-4.8,0.2-9.6
	c0.2-0.6,1.2-3.7,3.7-5.2c6.5-3.9,17.9,6.2,20.5,3.4c1.3-1.4-1.1-4.2,0.7-8.6c0.5-1.5,1.4-2.8,2.7-3.7c4.5-3,11.1,3.3,14.4,0.7
	c1.8-1.4,0.5-3.6,1.8-7c2-5.4,9.4-10.6,17.3-9.5c7.7,1.1,13.8,8,14.1,16.4v23.6h-88.6V574.7z"/>
<path class="st4" d="M177.5,517.5c4.3-2.1,16.8,14.6,28,37.2c3.2,6.5,6.1,13.1,8.7,19.9h-17.7c-2.2-3.8-4.4-7.9-6.5-12.3
	C178.9,539.7,173.2,519.6,177.5,517.5z"/>
<line class="st5" x1="183.9" y1="527.7" x2="205.3" y2="574.7"/>
<path class="st6" d="M205.8,574.7c-12.9-19.7-7.4-46.2,12.4-59.1l0,0"/>
<circle class="st6" cx="222" cy="513.2" r="4.4"/>
<circle class="st6" cx="898.8" cy="238.4" r="14.5"/>
<polyline class="st6" points="898.8,277.4 898.8,239.9 904.3,237 "/>
<polyline class="st6" points="898.8,239.7 898.8,235.6 895.1,231.9 "/>
<path class="st3" d="M883.5,574.7c1-5.9,1.4-10.8-1.3-12.2c-5.2-2.9-18.6,13.7-22.2,11.1c-2.3-1.7,2.6-8.6-0.3-17.2
	c-0.4-1-2.2-6.6-6.7-9.2c-11.6-6.9-31.8,11.1-36.5,6c-2.3-2.5,2-7.5-1.3-15.2c-0.8-2-2-4.9-4.8-6.7c-8-5.2-19.8,5.8-25.7,1.3
	c-3.2-2.4-0.9-6.4-3.2-12.4c-3.6-9.7-16.8-18.9-30.8-16.8c-13.7,2-24.5,14.3-25.1,29.2v42.1L883.5,574.7z"/>
<path class="st2" d="M702.9,574.7c-11.1-32.6-14.3-56-6.7-59.7c9-4.5,31,20.3,54.7,59.7H702.9z"/>
<path class="st4" d="M704.9,471.1c7.8-3.8,30.5,26.4,50.8,67.5c5.8,11.8,11.1,23.8,15.7,36.1h-32.1c-3.9-6.9-7.9-14.3-11.8-22.2
	C707.3,511.4,697.1,474.9,704.9,471.1z"/>
<line class="st5" x1="716.5" y1="489.7" x2="755.1" y2="574.7"/>
<path class="st5" d="M862,475c-7.5-3.7-29.4,25.4-48.9,64.9c-5.6,11.3-10.7,22.9-15.1,34.8h30.9c3.8-6.6,7.6-13.8,11.3-21.4
	C859.7,513.8,869.5,478.7,862,475z"/>
<line class="st5" x1="854.2" y1="490.5" x2="813.2" y2="574.7"/>
<path class="st5" d="M808.2,574.7c23-35.2,13.1-82.3-22-105.3c0,0,0,0-0.1,0"/>
<circle class="st5" cx="779.3" cy="465.2" r="7.9"/>
<circle class="st6" cx="214.8" cy="216.5" r="6.6"/>
<polyline class="st6" points="214.8,234.4 214.8,217.2 217.3,215.9 "/>
<polyline class="st6" points="214.8,217.1 214.8,215.2 213.1,213.5 "/>
<path class="st7" d="M770.4,574.2v-27.7"/>
<circle class="st7" cx="770.4" cy="539" r="7.4"/>
<circle class="st4" cx="64.4" cy="282.2" r="10.6"/>
<line class="st6" x1="64.4" y1="288.2" x2="64.4" y2="310.9"/>
<path class="st4" d="M954.3,118.1c0.2,5.2-3.9,9.6-9.1,9.8s-9.6-3.9-9.8-9.1c0-0.2,0-0.4,0-0.6c0-5.2,4.2-25.7,9.5-25.7
	S954.3,112.9,954.3,118.1z"/>
<line class="st6" x1="944.9" y1="123.5" x2="944.9" y2="143.7"/>
<path class="st4" d="M132,428.7c-0.3,12.2-10.4,21.9-22.5,21.6c-11.8-0.3-21.4-9.8-21.6-21.6c0-12.2,9.9-60,22.1-60
	S132,416.5,132,428.7z"/>
<path class="st8" d="M117.2,421.4c-1.2,1.7-7.2,9-7.2,9v58.1"/>
<polyline class="st6" points="109.9,374.7 109.9,408.6 102.5,398.7 "/>
<path class="st2" d="M240.9,574.7c6.2-18.3,8-31.4,3.8-33.5c-5.1-2.5-17.4,11.4-30.7,33.5H240.9z"/>
<g>
	<ellipse class="st9" cx="812.7" cy="383.3" rx="11.9" ry="2"/>
	<path class="st10" d="M804.1,372.9c0.1,0.3,0.1,0.6,0.1,0.8c0.1,2-1.6,3.3-1.5,4.3c0.1,1.7,0.1,3.3-0.1,5c0,0.2-0.2,0.4-0.4,0.4
		l0,0c-0.2,0-0.4-0.2-0.4-0.4l0,0c0-1.2,0.1-2.1,0.2-4.5c0.2-4.9,0.3-6.1,0-6.9c-0.3-1.3-2.2-3.5-2.1-6c0.1-3.2,1.6-4.7,1.7-5.6
		c0.2-2.3,0.3-3.9,0.3-5.4c0-0.2,0.2-0.4,0.4-0.4h2.1c0.2,0,0.4,0.2,0.4,0.4l0,0c-0.1,1.8-0.8,6.4,0,6.4c1.7,0,2.7,2.2,2.8,2.2"/>
	<path class="st11" d="M812.3,372.1c0,0-0.3,2.6,2.5,5.1c-0.7,1.9-0.8,3.9-0.2,5.9h0.8c0,0-1.4-1.6,0.7-5.4c0.1-0.2,0.1-0.5-0.1-0.7
		c-0.7-0.8-2.2-2.8-1.5-5.2L812.3,372.1z"/>
	<ellipse class="st10" cx="810.1" cy="367.8" rx="8.5" ry="5.6"/>
	<path class="st10" d="M814.3,367.3c-0.8,0.6-0.9,1.6-0.4,2.3c0.8,1.3,4,7,4.7,8.1c0.1,0.1,0.1,0.3,0.1,0.4l-1,5.4h1l1.6-6.7
		l-3.3-7.3"/>
	<path class="st12" d="M806.3,350.8c0,0.2-0.2,1.1-0.3,1.7c0,0.2-0.1,0.3-0.3,0.4l-1.7,0.9c-0.2,0.1-0.5,0.2-0.8,0.2l0,0
		c-0.3,0-0.5-0.1-0.8-0.2l-1.7-0.9c-0.1-0.1-0.2-0.3-0.2-0.4c-0.1-0.5-0.2-1.5-0.3-1.7"/>
	<path class="st13" d="M814.3,367.3c-0.8,0.6-0.9,1.6-0.4,2.3c0.8,1.3,4,7,4.7,8.1c0.1,0.1,0.1,0.3,0.1,0.4l-1,5.4h1l1.6-6.7
		l-3.3-7.3"/>
	<path class="st10" d="M803.6,366.1c-0.8,1.2-1.1,2.6-0.8,4c0.2,0.6,0.5,0.9,1.8,2.9c0.1,0.1,0.1,0.2,0.2,0.4
		c0.1,0.4,0.1,0.9-0.1,1.2c-0.4,1,0.2,2.9,0.3,5.6c0.1,2.6-0.5,4.5-0.2,4.6s0.5-0.5,0.5-0.5c0.2-0.5,0.3-1.1,0.2-1.7
		c0-0.2,0-0.2,0.5-3.3c0.3-1.8,0.6-3.8,1-6.4l0.3-1.5"/>
	<path class="st13" d="M803.6,366.1c-0.8,1.2-1.1,2.6-0.8,4c0.2,0.6,0.5,0.9,1.8,2.9c0.1,0.1,0.1,0.2,0.2,0.4
		c0.1,0.4,0.1,0.9-0.1,1.2c-0.4,1,0.2,2.9,0.3,5.6c0.1,2.6-0.5,4.5-0.2,4.6s0.5-0.5,0.5-0.5c0.2-0.5,0.3-1.1,0.2-1.7
		c0-0.2,0-0.2,0.5-3.3c0.3-1.8,0.6-3.8,1-6.4l0.3-1.5"/>
	<path class="st10" d="M801.9,353.7L801.9,353.7L801.9,353.7l-0.2-0.2c-0.1-0.1-0.2-0.3-0.3-0.5s-0.1-0.4-0.1-0.6v-0.1v-0.1
		c0-0.1-0.1-0.2-0.1-0.3c-0.1-0.2-0.2-0.3-0.4-0.4c-0.1-0.1-0.3-0.2-0.5-0.3c-0.2-0.1-0.4-0.2-0.6-0.3c-0.2-0.1-0.5-0.1-0.7-0.1
		c-0.1,0-0.1,0-0.1,0.1c0,0.2,0,0.5,0,0.7s0.1,0.4,0.1,0.6c0.1,0.2,0.1,0.4,0.2,0.5c0.1,0.2,0.2,0.3,0.3,0.4l0.2,0.2l0.1,0.1
		l0.1,0.1c0.2,0.1,0.4,0.2,0.6,0.2c0.1,0.1,0.3,0.2,0.4,0.3l0,0c0.2,0.3,0.5,0.5,0.8,0.7l0.2,0.1c0.1,0,0.2,0,0.2-0.1s0-0.1,0-0.2
		C802.2,354.2,802,354,801.9,353.7z"/>
	<path class="st10" d="M804.7,353.7L804.7,353.7L804.7,353.7c0.1-0.1,0.2-0.1,0.2-0.2c0.1-0.1,0.3-0.3,0.3-0.4
		c0.1-0.2,0.2-0.4,0.2-0.6l0.1-0.1c0,0,0-0.1,0.1-0.1c0-0.1,0.1-0.2,0.2-0.2c0.1-0.1,0.3-0.3,0.4-0.4c0.2-0.1,0.3-0.2,0.5-0.2
		c0.2-0.1,0.4-0.1,0.6-0.1c0.2,0,0.5,0,0.7,0c0.1,0,0.1,0.1,0.1,0.1c0,0.2-0.1,0.5-0.1,0.7c-0.1,0.2-0.1,0.4-0.2,0.6
		c-0.1,0.2-0.2,0.3-0.3,0.5c-0.1,0.1-0.3,0.3-0.4,0.4l-0.3,0.1h-0.2h-0.2c-0.2,0-0.4,0.1-0.6,0.1c-0.2,0.1-0.3,0.1-0.5,0.2l0,0
		c-0.3,0.2-0.6,0.4-0.9,0.5l-0.3,0.1c-0.1,0-0.2,0-0.2-0.1s0-0.1,0-0.1C804.4,354.1,804.6,353.9,804.7,353.7z"/>
	<path class="st10" d="M804.7,353.6h-3.1c-0.1,0-0.2,0.1-0.2,0.2l0,0l0.1,3.2c0,0.1,0,0.2,0,0.2c0.2,0.8,0.6,1.5,1.1,2.2
		c0.4,0.4,1,0.4,1.4,0l0,0c0.4-0.7,0.7-1.5,0.9-2.2c0-0.2,0.1-0.3,0.1-0.5v-2.9C805,353.7,804.9,353.6,804.7,353.6z"/>
</g>
<g class="st14">
	<path class="st15" d="M962.4,408.9c-10.3-18.9-99.6-14.7-112-15.1c-36.5-1.1-73.2-1.8-109.4-6.5c-0.5-0.1-0.8-0.5-0.7-0.9
		c0-0.4,0.3-0.7,0.7-0.7c22.1-2.6,23.3-10,12.4-10.5c-15.5-0.6-31.1-0.8-46.6-0.8c-3.1,0-2.6-2.6-0.5-4.1
		c21.5-14.3-64.8-10.3-64.8-10.3c-18.1,2-7.2,4.2,19.5,8.2c11.2,1.7,2.3,6.1-2.4,8.6c-8.3,4.5-28.3,12.1-15.5,22.7
		c3.8,3.1,8.8,4.6,13.7,5.7c21.1,4.9,42.9,5.1,64.5,5.5c20.8,0.4,40.3-1.6,60.3,5.8c14.5,5.3,28.1,12.7,42.7,17.2
		c35.8,11.1,86.1,9.7,121.1-4.6C952.3,426.4,967.9,418.8,962.4,408.9z"/>
</g>
<path class="st16" d="M190,50.9c1.3,0,2.8,0,3.6,1c2,2.5-3.2,7.6-1.8,9.7c1.7,2.5,12.5,0,21.4-6.4c6.7-4.8,7.5-8.3,13.3-9.7
	c3.6-0.9,9.9-1,12.8,2.6c4.1,5-1.2,14.1,1.8,15.8c2.4,1.4,6.7-4,10.7-2.3c1.6,0.7,2.5,2.2,3.1,3.6h-99
	C155.8,65.1,183.6,50.8,190,50.9z"/>
<path class="st16" d="M755.3,71.6c1.2,0,2.6,0,3.3,0.9c1.8,2.3-3,7-1.6,8.9c1.6,2.3,11.5,0,19.7-5.9c6.2-4.4,6.9-7.7,12.2-8.9
	c3.3-0.8,9.1-0.9,11.7,2.3c3.7,4.6-4.5,15.1,1.6,15.1h-78.3C723.9,84.2,749.4,71.6,755.3,71.6z"/>
</svg>
