<?xml version="1.0" encoding="utf-8"?>
<!-- Generator: Adobe Illustrator 22.1.0, SVG Export Plug-In . SVG Version: 6.00 Build 0)  -->
<svg version="1.1" id="Layer_1" xmlns="http://www.w3.org/2000/svg" xmlns:xlink="http://www.w3.org/1999/xlink" x="0px" y="0px"
	 viewBox="0 0 70.1 56.6" style="enable-background:new 0 0 70.1 56.6;" xml:space="preserve">
<style type="text/css">
	.st0{fill:none;stroke:#FFFFFF;stroke-width:2.0092;stroke-linecap:round;stroke-linejoin:round;stroke-miterlimit:10;}
	.st1{fill:#FFFFFF;stroke:#FFFFFF;stroke-width:0.2512;stroke-miterlimit:10;}
</style>
<g>
	<g id="Layer_1_1_">
		<path class="st0" d="M9.2,15.6V1.2c4.4,0,8,3.6,8,8.1"/>
		<g id="Layer_2_1_">
			<title>IECS_illustrated_assets</title>
		</g>
		<path class="st0" d="M17.7,8.7c-5.4,2.9-9.4,7.5-11.2,12.8c-2.1,0-3.6,0-3.6,0c-1.1,0-1.9,0.9-1.9,1.9v9.4c0,1.1,0.9,1.9,1.9,1.9
			c0,0,1.9,0,3.8,0c3.5,9.3,13.9,16,26.1,16C48,50.9,60.3,40.6,60.3,27.9c0-5.7-2.4-10.8-6.4-14.8"/>
		<path class="st0" d="M34.5,4.8c-0.6,0-1.1,0-1.7,0c-1.3,0-2.6,0.1-3.8,0.2"/>
		<path class="st0" d="M18.2,16.5V2.1c4.4,0,8,3.6,8,8.1v6.4"/>
		<path class="st0" d="M14.4,23.7c0-0.1,0-0.2,0-0.2c0-1.5,1.2-2.8,2.8-2.8c1.5,0,2.8,1.2,2.8,2.8v0.1"/>
		<path class="st0" d="M26.1,50.2c0,1.7,0,3.4,0,3.4c0,1.1-0.9,2-2,2h-4.9c-1.1,0-2-0.9-2-2c0,0,0-5.2,0-6.9"/>
		<path class="st0" d="M40,50.8c0,1.7,0,2.4,0,2.4c0,1.1,0.9,2,2,2h4.9c1.1,0,2-0.9,2-2c0,0,0-4.2,0-5.9"/>
		<path class="st0" d="M60.6,29.7c1.8-0.6,9.5-2.3,8.4-6.2c-0.4-1.5-2.5-2.5-4.1-1c-1.6,1.3-2,5.4,2.1,8"/>
		<line class="st0" x1="33.3" y1="18.7" x2="54.5" y2="18.7"/>
		<path class="st0" d="M51,18.4c1.8-1.8,2.8-4.3,2.8-7.1C53.8,5.6,49.2,1,43.6,1S33.4,5.5,33.4,11.2c0,2.7,1.1,5.2,2.8,7.1H51V18.4z
			"/>
		<g>
			<path class="st1" d="M42.9,10.1c-1.4-0.4-2.2-1.1-2.2-2.3c0-0.6,0.2-1.1,0.6-1.4c0.4-0.4,0.9-0.6,1.6-0.6c0.1,0,0.1,0,0.1-0.1
				V4.8c0-0.1,0-0.1,0.1-0.2c0,0,0.1-0.1,0.2-0.1s0.1,0,0.2,0.1c0,0,0.1,0.1,0.1,0.2v0.9c0,0.1,0,0.1,0.1,0.1c0.6,0,1.2,0.1,1.8,0.3
				c0.2,0,0.3,0.2,0.3,0.4c0,0.1,0,0.1-0.1,0.2c-0.1,0-0.1,0.1-0.2,0c-0.6-0.2-1.2-0.3-1.8-0.3c-0.1,0-0.1,0-0.1,0.1v3.2
				c0,0.1,0,0.1,0.1,0.1c1.5,0.4,2.3,1.2,2.3,2.4c0,0.6-0.2,1.1-0.6,1.5c-0.4,0.4-1,0.6-1.7,0.7c-0.1,0-0.1,0-0.1,0.1v0.9
				c0,0.1,0,0.1-0.1,0.2c0,0-0.1,0.1-0.2,0.1s-0.1,0-0.2-0.1c0,0-0.1-0.1-0.1-0.2v-0.9c0-0.1,0-0.1-0.1-0.1c-0.7,0-1.3-0.2-1.8-0.4
				c-0.2-0.1-0.3-0.2-0.3-0.4c0-0.1,0-0.1,0.1-0.2c0.1,0,0.1,0,0.2,0c0.6,0.2,1.2,0.4,1.8,0.4c0.1,0,0.1,0,0.1-0.1v-3.4
				C43,10.1,43,10.1,42.9,10.1z M42.9,6.3c-0.5,0-0.9,0.2-1.2,0.5c-0.3,0.3-0.4,0.6-0.4,1c0,0.9,0.5,1.4,1.6,1.7
				c0.1,0,0.1,0,0.1-0.1L42.9,6.3C43,6.3,43,6.3,42.9,6.3z M44.9,13.2c0.3-0.3,0.5-0.7,0.5-1.1c0-0.5-0.1-0.9-0.4-1.2
				c-0.3-0.3-0.7-0.5-1.3-0.7c-0.1,0-0.1,0-0.1,0.1v3.3c0,0.1,0,0.1,0.1,0.1C44.1,13.6,44.6,13.5,44.9,13.2z"/>
		</g>
	</g>
	<g id="Layer_2_2_">
	</g>
</g>
</svg>
