<svg xmlns="http://www.w3.org/2000/svg" viewBox="0 0 300.76 116.56"><defs><style>.cls-1{isolation:isolate;}.cls-2{fill:#525252;opacity:0.14;mix-blend-mode:multiply;}.cls-3{fill:#001903;}.cls-4,.cls-5{fill:none;stroke:#fff;stroke-width:2px;}.cls-4{stroke-miterlimit:10;}.cls-5{stroke-linecap:round;stroke-linejoin:round;}.cls-6{fill:#4d4d4d;}.cls-7{fill:gray;}.cls-8{fill:#ccc;}</style></defs><title>IECS_illustrated_assets</title><g class="cls-1"><g id="Layer_2" data-name="Layer 2"><path class="cls-2" d="M279.16,107.58H239a4.27,4.27,0,0,0-4.27,4.27h0a4.28,4.28,0,0,1-4.28,4.28H11.39A11.39,11.39,0,0,1,0,104.74V26.91A11.39,11.39,0,0,1,11.39,15.52H279.16a11.39,11.39,0,0,1,11.39,11.39V96.18A11.39,11.39,0,0,1,279.16,107.58Z"/><rect class="cls-3" x="25.26" y="26.99" width="254.85" height="56.49"/><rect class="cls-3" x="4.89" width="223.04" height="110.47" rx="7.53" ry="7.53"/><path class="cls-4" d="M18.6,12H187.05a4.44,4.44,0,0,1,4.44,4.44V98.52"/><line class="cls-5" x1="199.24" y1="12.76" x2="222.1" y2="12.76"/><line class="cls-5" x1="199.24" y1="99.32" x2="222.1" y2="99.32"/><rect class="cls-6" x="232.29" y="11.05" width="65.48" height="88.45" rx="3.96" ry="3.96"/><path class="cls-7" d="M296,26.25h3.2a1.52,1.52,0,0,1,1.52,1.52V82.71a1.52,1.52,0,0,1-1.52,1.52H296a0,0,0,0,1,0,0v-58A0,0,0,0,1,296,26.25Z"/><path class="cls-4" d="M262.17,24h20.76a3.25,3.25,0,0,1,3.25,3.26v56a3.25,3.25,0,0,1-3.25,3.25H262.17"/><path d="M295.73,19.36h2a0,0,0,0,1,0,0V91.11a0,0,0,0,1,0,0h-2a.85.85,0,0,1-.85-.85v-70A.85.85,0,0,1,295.73,19.36Z"/><circle cx="242.29" cy="100.16" r="4.76"/><circle cx="242.29" cy="10.36" r="4.76"/><path class="cls-8" d="M25.44,52.87c0,1.71.37,3-.43,4.41S22.82,59,21.39,59.85s-2.31,2.89-4,2.89-3.27-1-4.65-1.81-1.45-2.63-2.28-4.06-3.81-2.29-3.81-4S8.21,49.43,9,48a10.15,10.15,0,0,1,3.39-3.76c1.39-.8,3.25-2.37,5-2.37A13,13,0,0,1,23,43.2a13.37,13.37,0,0,1,4.16,4C27.91,48.62,25.44,51.15,25.44,52.87Z"/><path class="cls-8" d="M67.13,51.67c0,1.72.38,3-.42,4.42s-2.19,1.73-3.62,2.56-2.31,2.89-4,2.89-3.27-1-4.66-1.8S53,57.1,52.13,55.67s-3.81-2.28-3.81-4,1.58-3.44,2.38-4.82a10.3,10.3,0,0,1,3.4-3.77c1.39-.8,3.24-2.37,5-2.37A12.93,12.93,0,0,1,64.64,42a13.4,13.4,0,0,1,4.17,4C69.61,47.43,67.13,50,67.13,51.67Z"/><path class="cls-8" d="M91.85,49.39c0-1.72-.38-3,.42-4.41s2.19-1.74,3.62-2.57,2.31-2.89,4-2.89,3.27,1,4.66,1.8S106,44,106.85,45.39s3.81,2.28,3.81,4-1.58,3.44-2.38,4.82a10.3,10.3,0,0,1-3.4,3.77c-1.39.8-3.24,2.37-5,2.37a12.93,12.93,0,0,1-5.58-1.29,13.4,13.4,0,0,1-4.17-4C89.37,53.63,91.85,51.11,91.85,49.39Z"/><path class="cls-8" d="M129.68,49.88c0,1.71.37,3-.43,4.41s-2.19,1.74-3.62,2.57-2.31,2.89-4,2.89-3.27-1-4.65-1.81-1.45-2.63-2.27-4.06-3.82-2.29-3.82-4,1.59-3.44,2.39-4.83a10.27,10.27,0,0,1,3.4-3.76c1.38-.8,3.24-2.37,4.95-2.37a13,13,0,0,1,5.59,1.29,13.26,13.26,0,0,1,4.16,4C132.15,45.63,129.68,48.16,129.68,49.88Z"/><path class="cls-8" d="M133.61,47.53c.14-1.71-.14-3.05.77-4.36s2.32-1.57,3.81-2.28,2.53-2.7,4.24-2.57,3.19,1.26,4.5,2.17,1.24,2.74,1.95,4.23,3.63,2.57,3.49,4.28-1.85,3.31-2.76,4.63a10.14,10.14,0,0,1-3.68,3.48c-1.44.69-3.41,2.11-5.13,2a13.13,13.13,0,0,1-5.46-1.72A13.49,13.49,0,0,1,131.5,53C130.81,51.57,133.48,49.24,133.61,47.53Z"/><path class="cls-8" d="M170.54,51.86c-.66,1.59-.81,3-2.07,3.92s-2.69.78-4.33,1-3.23,1.8-4.82,1.15-2.65-2.17-3.62-3.44-.34-3-.56-4.63-2.67-3.56-2-5.15,2.78-2.57,4-3.55a10.35,10.35,0,0,1,4.57-2.2c1.59-.21,3.9-1,5.49-.31A12.92,12.92,0,0,1,171.9,42a13.28,13.28,0,0,1,2.32,5.32C174.44,48.88,171.19,50.27,170.54,51.86Z"/><path class="cls-8" d="M190.41,52.81c-1,1.42-1.41,2.71-2.86,3.39s-2.79.19-4.43.06-3.55,1.06-5,.09-2.12-2.69-2.81-4.13.31-3,.44-4.64-1.84-4-.86-5.46,3.26-1.93,4.7-2.61a10.24,10.24,0,0,1,4.94-1.17c1.59.13,4-.11,5.42.87a13,13,0,0,1,3.87,4.23A13.49,13.49,0,0,1,195,49.13C194.86,50.73,191.39,51.4,190.41,52.81Z"/><path class="cls-8" d="M183.33,29.63c0,1.72.38,3-.42,4.41s-2.19,1.74-3.62,2.57-2.31,2.89-4,2.89-3.27-1-4.66-1.8-1.44-2.64-2.27-4.07-3.82-2.28-3.82-4,1.59-3.44,2.39-4.82A10.3,10.3,0,0,1,170.3,21c1.39-.8,3.24-2.37,5-2.37A12.93,12.93,0,0,1,180.84,20,13.4,13.4,0,0,1,185,24C185.81,25.39,183.33,27.91,183.33,29.63Z"/><path class="cls-8" d="M162.78,29.63c0,1.72.38,3-.42,4.41s-2.19,1.74-3.62,2.57-2.31,2.89-4,2.89-3.27-1-4.66-1.8-1.44-2.64-2.27-4.07-3.81-2.28-3.81-4,1.58-3.44,2.38-4.82a10.3,10.3,0,0,1,3.4-3.77c1.39-.8,3.24-2.37,5-2.37A12.93,12.93,0,0,1,160.29,20a13.4,13.4,0,0,1,4.17,4C165.26,25.39,162.78,27.91,162.78,29.63Z"/><path class="cls-8" d="M163.88,18c-1.39.1-2.44.47-3.61-.1s-1.53-1.68-2.29-2.79-2.47-1.72-2.57-3.11a7.93,7.93,0,0,1,1.2-3.88c.59-1.21,2.06-1.32,3.18-2.07s1.64-3.23,3-3.33,2.88,1.1,4.05,1.67a8.32,8.32,0,0,1,3.25,2.55c.73,1.08,2.1,2.49,2.2,3.89a10.51,10.51,0,0,1-.73,4.6A10.74,10.74,0,0,1,168.54,19C167.46,19.74,165.27,17.87,163.88,18Z"/><path class="cls-8" d="M141.13,28.78c.19,1.71.7,3,.05,4.43s-2,2-3.32,2.94-2,3.13-3.69,3.31-3.36-.65-4.83-1.3-1.72-2.46-2.69-3.8-4-1.86-4.23-3.56,1.21-3.59,1.86-5.06a10.26,10.26,0,0,1,3-4.1c1.3-.95,3-2.71,4.68-2.89a13.14,13.14,0,0,1,5.69.68A13.31,13.31,0,0,1,142.19,23C143.14,24.29,141,27.07,141.13,28.78Z"/><path class="cls-8" d="M119.57,30.52c.19,1.71.7,3,.05,4.44s-2,2-3.32,2.94-2,3.12-3.69,3.31-3.36-.65-4.83-1.3-1.72-2.47-2.69-3.8-4-1.86-4.22-3.57,1.2-3.59,1.85-5.05a10.22,10.22,0,0,1,3-4.11c1.29-.94,3-2.7,4.67-2.88a12.83,12.83,0,0,1,5.69.68,13.19,13.19,0,0,1,4.57,3.57C121.58,26,119.39,28.82,119.57,30.52Z"/><path class="cls-8" d="M42.4,15.27c.15,1.36.56,2.37,0,3.54s-1.58,1.56-2.65,2.34-1.58,2.5-2.94,2.64a7.71,7.71,0,0,1-3.85-1c-1.21-.54-1.37-2-2.15-3s-3.22-1.49-3.37-2.85,1-2.86,1.48-4a8.2,8.2,0,0,1,2.37-3.27c1-.76,2.37-2.16,3.73-2.31a10.26,10.26,0,0,1,4.54.55,10.58,10.58,0,0,1,3.65,2.84C44,11.69,42.26,13.91,42.4,15.27Z"/><path class="cls-8" d="M68.85,13c.14,1.36.55,2.37,0,3.54s-1.59,1.56-2.66,2.34-1.58,2.49-2.94,2.64a7.84,7.84,0,0,1-3.85-1c-1.21-.54-1.37-2-2.15-3S54.07,16,53.92,14.59s1-2.86,1.48-4a8.16,8.16,0,0,1,2.38-3.28c1-.75,2.36-2.15,3.72-2.3A10.39,10.39,0,0,1,66,5.52a10.72,10.72,0,0,1,3.65,2.85C70.45,9.4,68.7,11.62,68.85,13Z"/><path class="cls-8" d="M51.72,14.46a3.34,3.34,0,0,1,0,1.8c-.27.61-.81.8-1.35,1.19s-.81,1.27-1.5,1.35a3.94,3.94,0,0,1-2-.53c-.61-.27-.7-1-1.1-1.54S44.2,16,44.12,15.28s.49-1.46.75-2a4.24,4.24,0,0,1,1.21-1.67c.53-.38,1.21-1.1,1.9-1.17a5.23,5.23,0,0,1,2.31.27,5.61,5.61,0,0,1,1.86,1.45C52.53,12.64,51.64,13.77,51.72,14.46Z"/><path class="cls-8" d="M16.77,34.14a4.35,4.35,0,0,1,0,2.37c-.36.81-1.07,1.06-1.79,1.58S14,39.77,13,39.87a5.35,5.35,0,0,1-2.59-.7c-.81-.36-.92-1.32-1.44-2s-2.17-1-2.27-1.91.65-1.93,1-2.71a5.5,5.5,0,0,1,1.59-2.2c.7-.51,1.6-1.46,2.51-1.55a6.87,6.87,0,0,1,3.05.36A7.2,7.2,0,0,1,17.34,31C17.85,31.73,16.67,33.22,16.77,34.14Z"/><path class="cls-8" d="M24.94,19.3c.14,1.25.51,2.17,0,3.23S23.53,24,22.56,24.67,21.11,27,19.87,27.08a7.15,7.15,0,0,1-3.51-.94c-1.1-.49-1.26-1.8-2-2.77s-2.94-1.35-3.07-2.6.88-2.61,1.35-3.68a7.45,7.45,0,0,1,2.17-3c.94-.69,2.16-2,3.4-2.11a9.5,9.5,0,0,1,4.14.5,9.74,9.74,0,0,1,3.33,2.6C26.4,16,24.81,18.06,24.94,19.3Z"/><path class="cls-8" d="M87.71,11.71c.15,1.36.56,2.37,0,3.54s-1.59,1.56-2.65,2.34-1.59,2.49-2.95,2.64a7.84,7.84,0,0,1-3.85-1c-1.2-.54-1.37-2-2.15-3s-3.22-1.49-3.36-2.85,1-2.86,1.48-4A8.14,8.14,0,0,1,76.64,6c1-.75,2.37-2.15,3.73-2.3a10.26,10.26,0,0,1,4.54.55A10.67,10.67,0,0,1,88.56,7.1C89.31,8.13,87.56,10.35,87.71,11.71Z"/><path class="cls-8" d="M156.45,104.74c.14,1.36.55,2.37,0,3.54s-1.59,1.56-2.65,2.34-1.59,2.49-3,2.64a7.84,7.84,0,0,1-3.85-1c-1.21-.54-1.37-2-2.15-3s-3.22-1.48-3.37-2.84,1-2.86,1.48-4A8.16,8.16,0,0,1,145.38,99c1-.75,2.36-2.15,3.73-2.3a10.34,10.34,0,0,1,4.53.54,10.72,10.72,0,0,1,3.65,2.85C158.05,101.16,156.3,103.38,156.45,104.74Z"/><path class="cls-8" d="M34.42,33.74c.15,1.36.56,2.37,0,3.54s-1.59,1.56-2.65,2.34-1.59,2.49-2.95,2.64a7.84,7.84,0,0,1-3.85-1c-1.2-.54-1.37-2-2.15-3s-3.22-1.48-3.37-2.84,1-2.86,1.49-4A8,8,0,0,1,23.35,28c1-.75,2.37-2.15,3.73-2.3a10.4,10.4,0,0,1,4.54.54,10.69,10.69,0,0,1,3.64,2.85C36,30.16,34.27,32.38,34.42,33.74Z"/><path class="cls-8" d="M106.08,13.85c.14,1.27.52,2.21,0,3.3s-1.48,1.46-2.48,2.19-1.48,2.32-2.75,2.46a7.26,7.26,0,0,1-3.59-1C96.18,20.34,96,19,95.3,18s-3-1.38-3.14-2.65.9-2.67,1.38-3.76a7.71,7.71,0,0,1,2.21-3.06c1-.7,2.21-2,3.48-2.15a9.76,9.76,0,0,1,4.23.51,10,10,0,0,1,3.41,2.66C107.57,10.51,105.94,12.58,106.08,13.85Z"/><path class="cls-8" d="M128,13.85c.14,1.27.52,2.21,0,3.3s-1.48,1.46-2.48,2.19-1.48,2.32-2.75,2.46a7.26,7.26,0,0,1-3.59-1c-1.12-.49-1.28-1.83-2-2.83s-3-1.38-3.14-2.65.9-2.67,1.38-3.76a7.71,7.71,0,0,1,2.21-3.06c1-.7,2.21-2,3.48-2.15a9.81,9.81,0,0,1,4.24.51,10,10,0,0,1,3.4,2.66C129.46,10.51,127.83,12.58,128,13.85Z"/><path class="cls-8" d="M149.6,13c.13,1.27.52,2.22,0,3.31s-1.48,1.46-2.47,2.18-1.48,2.33-2.75,2.46a7.25,7.25,0,0,1-3.59-1c-1.12-.5-1.28-1.84-2-2.83s-3-1.38-3.15-2.65.9-2.67,1.39-3.76a7.55,7.55,0,0,1,2.21-3.06c1-.7,2.21-2,3.48-2.15A9.61,9.61,0,0,1,147,6a9.86,9.86,0,0,1,3.41,2.66C151.09,9.66,149.46,11.72,149.6,13Z"/><path class="cls-8" d="M99.17,30.7c.39,1.67,1,2.86.58,4.4S98,37.28,96.81,38.41s-1.6,3.34-3.27,3.73-3.41-.23-5-.7-2-2.24-3.13-3.45-4.23-1.36-4.62-3,.76-3.71,1.23-5.24a10.15,10.15,0,0,1,2.46-4.43c1.17-1.1,2.62-3.05,4.29-3.44a13,13,0,0,1,5.73,0,13.24,13.24,0,0,1,5,3C100.62,26,98.78,29,99.17,30.7Z"/><path class="cls-8" d="M78,29.63c.38,1.68,1,2.87.58,4.4s-1.74,2.19-2.94,3.32-1.6,3.34-3.27,3.73-3.42-.24-5-.71-2-2.24-3.13-3.44-4.23-1.36-4.62-3,.76-3.71,1.23-5.24a10.19,10.19,0,0,1,2.46-4.44c1.17-1.09,2.62-3,4.29-3.43a12.89,12.89,0,0,1,5.73,0,13.37,13.37,0,0,1,5,3C79.45,24.94,77.61,28,78,29.63Z"/><path class="cls-8" d="M57,30.7c.39,1.67,1,2.86.58,4.4s-1.73,2.18-2.94,3.31-1.6,3.34-3.27,3.73-3.41-.23-4.94-.7-2-2.24-3.14-3.45S39,36.63,38.62,35s.77-3.71,1.24-5.24a10.23,10.23,0,0,1,2.45-4.43c1.17-1.1,2.62-3.05,4.29-3.44a13,13,0,0,1,5.73,0,13.28,13.28,0,0,1,5,3C58.4,26,56.56,29,57,30.7Z"/><path class="cls-8" d="M46.28,52.27c0,1.72.38,3-.42,4.41s-2.19,1.74-3.62,2.57-2.31,2.89-4,2.89-3.27-1-4.66-1.8-1.44-2.64-2.27-4.07-3.81-2.28-3.81-4,1.58-3.44,2.39-4.83a10.15,10.15,0,0,1,3.39-3.76c1.39-.8,3.24-2.37,5-2.37a12.93,12.93,0,0,1,5.58,1.29,13.4,13.4,0,0,1,4.17,4C48.76,48,46.28,50.55,46.28,52.27Z"/><path class="cls-8" d="M88,51.07c0,1.72.38,3-.43,4.42s-2.18,1.74-3.61,2.56-2.32,2.9-4,2.9-3.27-1-4.66-1.81S73.81,56.5,73,55.07s-3.82-2.28-3.82-4,1.59-3.43,2.39-4.82A10.19,10.19,0,0,1,75,42.49c1.39-.81,3.24-2.37,5-2.37a12.85,12.85,0,0,1,5.58,1.29,13.26,13.26,0,0,1,4.17,4C90.46,46.83,88,49.36,88,51.07Z"/><path class="cls-8" d="M185.76,65.34c0-1.71-.37-3,.43-4.41s2.19-1.74,3.62-2.57,2.31-2.89,4-2.89,3.27,1,4.65,1.8,1.45,2.64,2.28,4.07,3.81,2.29,3.81,4-1.59,3.44-2.39,4.83a10.24,10.24,0,0,1-3.39,3.76c-1.39.8-3.25,2.37-5,2.37A13,13,0,0,1,188.25,75a13.37,13.37,0,0,1-4.16-4C183.29,69.59,185.76,67.06,185.76,65.34Z"/><path class="cls-8" d="M144.07,66.54c0-1.72-.38-3,.42-4.42s2.19-1.74,3.62-2.56,2.31-2.9,4-2.9,3.27,1,4.66,1.81,1.44,2.64,2.27,4.07,3.81,2.28,3.81,4S161.3,70,160.5,71.36a10.19,10.19,0,0,1-3.4,3.76c-1.39.81-3.24,2.38-5,2.38a12.93,12.93,0,0,1-5.58-1.29,13.4,13.4,0,0,1-4.17-4C141.59,70.78,144.07,68.25,144.07,66.54Z"/><path class="cls-8" d="M102.14,69.39c-.41-1.67-1.08-2.86-.62-4.39s1.72-2.21,2.92-3.35,1.57-3.35,3.24-3.75,3.42.21,4.95.67,2,2.23,3.16,3.43,4.24,1.32,4.64,3-.74,3.72-1.19,5.25a10.2,10.2,0,0,1-2.43,4.46c-1.16,1.1-2.6,3.06-4.27,3.46a13,13,0,0,1-5.73,0,13.32,13.32,0,0,1-5-3C100.72,74.09,102.54,71.06,102.14,69.39Z"/><path class="cls-8" d="M81.52,68.33c0-1.72-.37-3,.43-4.41s2.19-1.74,3.62-2.57,2.31-2.89,4-2.89,3.28,1,4.66,1.8,1.45,2.64,2.27,4.07,3.82,2.28,3.82,4S98.75,71.77,98,73.16a10.27,10.27,0,0,1-3.4,3.76c-1.38.8-3.24,2.37-5,2.37A13,13,0,0,1,84,78a13.26,13.26,0,0,1-4.16-4C79,72.57,81.52,70.05,81.52,68.33Z"/><path class="cls-8" d="M75.39,63.67c1.25,1.18,2.46,1.8,2.92,3.34s-.24,2.78-.62,4.39.51,3.67-.67,4.92-3,1.69-4.51,2.14S69.6,77.7,68,77.32s-4.28,1.21-5.53,0-1.41-3.51-1.87-5a10.23,10.23,0,0,1-.4-5c.37-1.56.5-4,1.68-5.23a12.94,12.94,0,0,1,4.77-3.18,13.33,13.33,0,0,1,5.79-.25C74,59,74.14,62.49,75.39,63.67Z"/><path class="cls-8" d="M39.82,69.53c0-1.72-.37-3,.43-4.42s2.19-1.74,3.62-2.56,2.31-2.9,4-2.9,3.27,1,4.66,1.81S54,64.1,54.83,65.53s3.81,2.28,3.81,4S57.06,73,56.25,74.35a10.08,10.08,0,0,1-3.39,3.76c-1.39.81-3.25,2.37-5,2.37a12.86,12.86,0,0,1-5.59-1.29,13.23,13.23,0,0,1-4.16-4C37.35,73.77,39.82,71.24,39.82,69.53Z"/><path class="cls-8" d="M19,70.12c0-1.71-.38-3,.42-4.41S21.59,64,23,63.14s2.31-2.89,4-2.89,3.27,1,4.66,1.81S33.15,64.7,34,66.13s3.81,2.28,3.81,4S36.21,73.56,35.4,75A10.15,10.15,0,0,1,32,78.71c-1.39.8-3.24,2.37-5,2.37a12.93,12.93,0,0,1-5.58-1.29,13.4,13.4,0,0,1-4.17-4C16.5,74.37,19,71.84,19,70.12Z"/><path class="cls-8" d="M48.42,88.58c0-1.72-.38-3,.42-4.42S51,82.43,52.46,81.6s2.31-2.89,4-2.89,3.27,1,4.66,1.8,1.44,2.64,2.27,4.07,3.81,2.28,3.81,4S65.65,92,64.85,93.4a10.3,10.3,0,0,1-3.4,3.77c-1.39.8-3.24,2.37-5,2.37a12.93,12.93,0,0,1-5.58-1.29,13.4,13.4,0,0,1-4.17-4C45.94,92.82,48.42,90.3,48.42,88.58Z"/><path class="cls-8" d="M71,87.68c-.19-1.7-.7-3,0-4.43s2-2,3.32-2.94,2-3.12,3.7-3.31,3.36.65,4.82,1.3,1.72,2.47,2.7,3.8,4,1.86,4.22,3.57-1.21,3.58-1.86,5a10.2,10.2,0,0,1-3,4.1c-1.3,1-3,2.71-4.68,2.89A12.87,12.87,0,0,1,74.5,97a13.31,13.31,0,0,1-4.57-3.57C69,92.17,71.17,89.39,71,87.68Z"/><path class="cls-8" d="M91.62,87.68c-.18-1.7-.69-3,0-4.43s2-2,3.32-2.94,2-3.12,3.69-3.31,3.36.65,4.83,1.3,1.72,2.47,2.69,3.8,4,1.86,4.22,3.57-1.2,3.58-1.85,5a10.12,10.12,0,0,1-3,4.1c-1.29,1-3,2.71-4.67,2.89A12.83,12.83,0,0,1,95.14,97a13.44,13.44,0,0,1-4.58-3.57C89.62,92.17,91.81,89.39,91.62,87.68Z"/><path class="cls-8" d="M123.22,104.93c-.15-1.36-.56-2.37,0-3.54s1.59-1.56,2.65-2.34,1.59-2.5,3-2.64a7.73,7.73,0,0,1,3.85,1c1.2.54,1.37,2,2.15,3s3.22,1.49,3.36,2.85-1,2.86-1.48,4a8.11,8.11,0,0,1-2.37,3.27c-1,.76-2.37,2.16-3.73,2.31a10.26,10.26,0,0,1-4.54-.55,10.67,10.67,0,0,1-3.65-2.84C121.62,108.51,123.37,106.29,123.22,104.93Z"/><path class="cls-8" d="M105.12,104.36c-.14-1.27-.52-2.21,0-3.3s1.48-1.46,2.48-2.19,1.48-2.32,2.75-2.46a7.16,7.16,0,0,1,3.59,1c1.12.49,1.28,1.83,2,2.82s3,1.39,3.14,2.66-.9,2.67-1.38,3.76a7.61,7.61,0,0,1-2.21,3c-1,.71-2.21,2-3.48,2.15a9.59,9.59,0,0,1-4.23-.5,10,10,0,0,1-3.41-2.66C103.63,107.7,105.26,105.63,105.12,104.36Z"/><path class="cls-8" d="M83.23,104.36c-.14-1.27-.52-2.21,0-3.3s1.48-1.46,2.48-2.19,1.47-2.32,2.75-2.46a7.16,7.16,0,0,1,3.59,1c1.12.49,1.27,1.83,2,2.82s3,1.39,3.14,2.66-.9,2.67-1.38,3.76a7.61,7.61,0,0,1-2.21,3c-1,.71-2.21,2-3.48,2.15a9.66,9.66,0,0,1-4.24-.5,10,10,0,0,1-3.4-2.66C81.74,107.7,83.37,105.63,83.23,104.36Z"/><path class="cls-8" d="M61.6,105.21c-.14-1.27-.52-2.21,0-3.3s1.49-1.46,2.48-2.18,1.48-2.33,2.75-2.47a7.37,7.37,0,0,1,3.59,1c1.12.5,1.28,1.83,2,2.83s3,1.38,3.15,2.65-.9,2.67-1.39,3.76a7.55,7.55,0,0,1-2.21,3.06c-1,.7-2.21,2-3.48,2.15a9.76,9.76,0,0,1-4.23-.51,9.86,9.86,0,0,1-3.41-2.66C60.11,108.55,61.74,106.48,61.6,105.21Z"/><path class="cls-8" d="M29,87.61c-.14-1.27-.52-2.21,0-3.3s1.48-1.47,2.47-2.19,1.48-2.33,2.75-2.46a7.22,7.22,0,0,1,3.59,1c1.13.5,1.28,1.84,2,2.83s3,1.38,3.14,2.65-.9,2.67-1.38,3.76a7.64,7.64,0,0,1-2.21,3.06c-1,.7-2.21,2-3.48,2.15a9.66,9.66,0,0,1-4.24-.51,10,10,0,0,1-3.4-2.65C27.48,90.94,29.11,88.88,29,87.61Z"/><path class="cls-8" d="M8.45,89.35c-.14-1.27-.52-2.21,0-3.3s1.48-1.46,2.48-2.19,1.48-2.32,2.75-2.46a7.16,7.16,0,0,1,3.59,1c1.12.49,1.28,1.83,2,2.82s3,1.39,3.14,2.66-.89,2.67-1.38,3.76a7.61,7.61,0,0,1-2.21,3c-1,.71-2.21,2-3.48,2.15a9.61,9.61,0,0,1-4.23-.5,10,10,0,0,1-3.41-2.66C7,92.69,8.59,90.62,8.45,89.35Z"/><path class="cls-8" d="M18.78,103.37c-.14-1.27-.52-2.21,0-3.3s1.48-1.46,2.47-2.19,1.48-2.32,2.75-2.46a7.25,7.25,0,0,1,3.59,1c1.13.5,1.28,1.84,2,2.83s3,1.39,3.14,2.66-.9,2.67-1.38,3.76a7.54,7.54,0,0,1-2.22,3.05c-1,.71-2.21,2-3.48,2.15a9.47,9.47,0,0,1-4.23-.51,9.79,9.79,0,0,1-3.4-2.65C17.28,106.71,18.91,104.64,18.78,103.37Z"/><path class="cls-8" d="M35.69,106.42c-.16-1.52-.62-2.65,0-4s1.77-1.75,3-2.61,1.77-2.78,3.29-3a8.67,8.67,0,0,1,4.29,1.16c1.34.59,1.53,2.19,2.4,3.38s3.59,1.65,3.75,3.17-1.07,3.19-1.65,4.49A9,9,0,0,1,48,112.76c-1.15.85-2.64,2.41-4.15,2.57a11.51,11.51,0,0,1-5.06-.6,11.84,11.84,0,0,1-4.07-3.18C33.91,110.4,35.85,107.93,35.69,106.42Z"/><path class="cls-8" d="M1,70.9c-.14-1.27-.52-2.21,0-3.3s1.48-1.46,2.48-2.19S4.92,63.08,6.19,63a7.25,7.25,0,0,1,3.59,1c1.12.5,1.28,1.84,2,2.83s3,1.38,3.14,2.65-.9,2.67-1.38,3.76a7.64,7.64,0,0,1-2.21,3.06c-1,.7-2.21,2-3.48,2.15a9.6,9.6,0,0,1-4.23-.51A10,10,0,0,1,.21,75.2C-.49,74.23,1.14,72.17,1,70.9Z"/><path class="cls-8" d="M112,87.51c-.39-1.67-1-2.86-.58-4.4s1.74-2.19,2.94-3.32,1.6-3.34,3.27-3.73,3.41.24,5,.71,2,2.24,3.13,3.45,4.23,1.36,4.62,3-.77,3.71-1.23,5.24a10.15,10.15,0,0,1-2.46,4.43c-1.17,1.1-2.62,3-4.29,3.43a12.89,12.89,0,0,1-5.73,0,13.24,13.24,0,0,1-5-3C110.58,92.2,112.42,89.18,112,87.51Z"/><path class="cls-8" d="M133.2,88.57c-.38-1.67-1-2.86-.58-4.39s1.74-2.19,2.94-3.32,1.6-3.34,3.27-3.73,3.42.24,4.95.7,2,2.25,3.13,3.45,4.23,1.36,4.62,3-.76,3.71-1.23,5.24A10.19,10.19,0,0,1,147.84,94c-1.17,1.09-2.62,3-4.29,3.43a13,13,0,0,1-5.73,0,13.5,13.5,0,0,1-5-3C131.75,93.27,133.59,90.25,133.2,88.57Z"/><path class="cls-8" d="M154.25,87.51c-.39-1.67-1.05-2.86-.58-4.4s1.73-2.19,2.94-3.32,1.6-3.34,3.27-3.73,3.41.24,4.94.71,2,2.24,3.14,3.45,4.23,1.36,4.62,3-.77,3.71-1.24,5.24a10.23,10.23,0,0,1-2.45,4.43c-1.17,1.1-2.62,3-4.29,3.43a12.89,12.89,0,0,1-5.73,0,13.2,13.2,0,0,1-5-3C152.8,92.2,154.64,89.18,154.25,87.51Z"/><path class="cls-8" d="M164.91,65.94c0-1.72-.37-3,.43-4.41S167.53,59.79,169,59s2.31-2.89,4-2.89,3.27,1,4.66,1.8,1.44,2.64,2.27,4.07,3.81,2.28,3.81,4-1.58,3.44-2.39,4.82A10.18,10.18,0,0,1,178,74.53c-1.39.8-3.24,2.37-5,2.37a12.93,12.93,0,0,1-5.58-1.29,13.4,13.4,0,0,1-4.17-4C162.44,70.18,164.91,67.66,164.91,65.94Z"/><path class="cls-8" d="M175.24,85.94c0-1.72-.37-3,.43-4.42s2.19-1.73,3.62-2.56,2.31-2.89,4-2.89,3.28,1,4.66,1.8,1.45,2.64,2.27,4.07,3.82,2.28,3.82,4-1.59,3.44-2.39,4.82a10.3,10.3,0,0,1-3.4,3.77c-1.38.8-3.24,2.37-5,2.37a13,13,0,0,1-5.58-1.29,13.26,13.26,0,0,1-4.16-4C172.76,90.18,175.24,87.66,175.24,85.94Z"/><path class="cls-8" d="M162.08,105.6c0-1.72-.37-3,.43-4.42s2.19-1.73,3.62-2.56,2.31-2.89,4-2.89,3.27,1,4.66,1.8,1.44,2.64,2.27,4.07,3.81,2.28,3.81,4-1.58,3.44-2.39,4.82a10.18,10.18,0,0,1-3.39,3.77c-1.39.8-3.24,2.37-5,2.37a12.93,12.93,0,0,1-5.58-1.29,13.4,13.4,0,0,1-4.17-4C159.61,109.84,162.08,107.32,162.08,105.6Z"/><path class="cls-8" d="M122.53,66.79c0-1.71-.37-3,.43-4.41s2.19-1.74,3.62-2.57,2.31-2.89,4-2.89,3.27,1,4.65,1.81,1.45,2.63,2.28,4.06,3.81,2.29,3.81,4-1.59,3.44-2.39,4.83a10.24,10.24,0,0,1-3.39,3.76c-1.39.8-3.25,2.37-5,2.37A13,13,0,0,1,125,76.46a13.37,13.37,0,0,1-4.16-4C120.06,71,122.53,68.51,122.53,66.79Z"/></g></g></svg>