<svg id="Layer_1" data-name="Layer 1" xmlns="http://www.w3.org/2000/svg" viewBox="0 0 89 96.58"><defs><style>.cls-1{fill:none;stroke:#fff;stroke-linecap:round;stroke-linejoin:round;stroke-width:3px;}</style></defs><title>IECS_illustrated_fuel_icon_white</title><path class="cls-1" d="M16,51V8.47a7.51,7.51,0,0,1,6.42-7.4" transform="translate(0.5 0.5)"/><path class="cls-1" d="M22.38,1.07A9.26,9.26,0,0,1,23.43,1H58.84a7.49,7.49,0,0,1,7.47,7.47V85.08H16V62.28" transform="translate(0.5 0.5)"/><line class="cls-1" x1="1.5" y1="95.08" x2="82.25" y2="95.08"/><path class="cls-1" d="M83,30.72a5.73,5.73,0,0,1,4,5.43v29a5.71,5.71,0,0,1-11.41,0V35.2h-9" transform="translate(0.5 0.5)"/><rect class="cls-1" x="22.97" y="12.43" width="37.82" height="18.05" rx="1.39"/><line class="cls-1" x1="40.69" y1="29.76" x2="33.49" y2="20.32"/></svg>