<svg id="Layer_2" data-name="Layer 2" xmlns="http://www.w3.org/2000/svg" viewBox="0 0 1265.18 116.37"><defs><style>.cls-1{fill:#ccc;}.cls-2,.cls-4{fill:#001903;}.cls-3,.cls-5{fill:none;}.cls-3{stroke:#fff;}.cls-3,.cls-4{stroke-miterlimit:10;}.cls-4{stroke:#000;}.cls-5{stroke:#001903;stroke-linecap:round;stroke-linejoin:round;}.cls-6{fill:#999;}</style></defs><title>IECS_illustrated_cityriprap_</title><path class="cls-1" d="M1079.67,35.41c0,1.27.28,2.25-.32,3.28s-1.63,1.29-2.69,1.9-1.72,2.15-3,2.15a7.18,7.18,0,0,1-3.46-1.34c-1.07-.61-1.08-2-1.69-3s-2.84-1.7-2.84-3,1.18-2.56,1.78-3.59A7.64,7.64,0,0,1,1070,29c1-.59,2.41-1.76,3.69-1.76a9.59,9.59,0,0,1,4.15,1,9.94,9.94,0,0,1,3.09,3C1081.51,32.25,1079.67,34.13,1079.67,35.41Z"/><path class="cls-1" d="M1110.66,34.52c0,1.27.28,2.25-.32,3.28s-1.63,1.29-2.69,1.91-1.72,2.14-3,2.14a7.18,7.18,0,0,1-3.46-1.34c-1.07-.61-1.08-2-1.69-3s-2.84-1.7-2.84-3,1.18-2.56,1.78-3.59a7.64,7.64,0,0,1,2.52-2.8c1-.59,2.41-1.76,3.69-1.76a9.73,9.73,0,0,1,4.15,1,9.94,9.94,0,0,1,3.09,3C1112.5,31.36,1110.66,33.24,1110.66,34.52Z"/><path class="cls-1" d="M1141.65,33.63c0,1.27.28,2.25-.32,3.28s-1.62,1.29-2.69,1.91-1.72,2.15-3,2.15a7.2,7.2,0,0,1-3.46-1.35c-1.07-.61-1.08-2-1.69-3s-2.84-1.7-2.84-3,1.18-2.56,1.78-3.59a7.53,7.53,0,0,1,2.52-2.79c1-.6,2.41-1.77,3.69-1.77a9.73,9.73,0,0,1,4.15,1,9.94,9.94,0,0,1,3.09,3C1143.49,30.47,1141.65,32.35,1141.65,33.63Z"/><path class="cls-1" d="M1157.15,33.18c0,1.28.27,2.25-.32,3.28s-1.63,1.3-2.69,1.91-1.72,2.15-3,2.15a7.22,7.22,0,0,1-3.46-1.34c-1.06-.62-1.07-2-1.69-3s-2.83-1.7-2.83-3,1.18-2.55,1.77-3.58a7.75,7.75,0,0,1,2.53-2.8c1-.59,2.41-1.76,3.68-1.76a9.55,9.55,0,0,1,4.15,1,9.87,9.87,0,0,1,3.1,3C1159,30,1157.15,31.91,1157.15,33.18Z"/><path class="cls-1" d="M1172.64,32.74c0,1.28.28,2.25-.32,3.28s-1.62,1.29-2.69,1.91-1.71,2.15-3,2.15a7.29,7.29,0,0,1-3.46-1.34c-1.06-.62-1.08-2-1.69-3s-2.84-1.69-2.84-3,1.18-2.56,1.78-3.59a7.53,7.53,0,0,1,2.52-2.79c1-.6,2.41-1.76,3.69-1.76a9.69,9.69,0,0,1,4.15.95,9.87,9.87,0,0,1,3.09,3C1174.48,29.59,1172.64,31.46,1172.64,32.74Z"/><path class="cls-1" d="M1188.14,32.3c0,1.27.28,2.25-.32,3.28s-1.63,1.29-2.69,1.9-1.72,2.15-3,2.15a7.22,7.22,0,0,1-3.47-1.34c-1.06-.61-1.07-2-1.68-3s-2.84-1.7-2.84-3,1.18-2.56,1.78-3.59a7.64,7.64,0,0,1,2.52-2.8c1-.59,2.41-1.76,3.69-1.76a9.54,9.54,0,0,1,4.14,1,9.87,9.87,0,0,1,3.1,3C1190,29.14,1188.14,31,1188.14,32.3Z"/><path class="cls-1" d="M1203.63,31.85c0,1.28.28,2.25-.32,3.28s-1.62,1.29-2.69,1.91-1.71,2.15-3,2.15a7.29,7.29,0,0,1-3.46-1.34c-1.06-.62-1.07-2-1.69-3s-2.83-1.69-2.83-3,1.17-2.55,1.77-3.58a7.51,7.51,0,0,1,2.53-2.8c1-.6,2.4-1.76,3.68-1.76a9.55,9.55,0,0,1,4.15,1,9.86,9.86,0,0,1,3.1,3C1205.47,28.7,1203.63,30.58,1203.63,31.85Z"/><path class="cls-1" d="M1181.75,18.13c0,1.28.28,2.26-.32,3.29s-1.62,1.29-2.69,1.9-1.72,2.15-3,2.15a7.18,7.18,0,0,1-3.46-1.34c-1.07-.61-1.08-2-1.69-3s-2.84-1.7-2.84-3,1.18-2.55,1.78-3.58a7.64,7.64,0,0,1,2.52-2.8c1-.59,2.41-1.76,3.69-1.76a9.59,9.59,0,0,1,4.15,1,9.84,9.84,0,0,1,3.09,3C1183.59,15,1181.75,16.86,1181.75,18.13Z"/><path class="cls-1" d="M1165,18.8c.14,1.27.52,2.21,0,3.3s-1.48,1.45-2.47,2.18-1.48,2.32-2.75,2.46a7.24,7.24,0,0,1-3.58-1c-1.12-.5-1.28-1.84-2-2.83s-3-1.38-3.14-2.65.9-2.67,1.38-3.76a7.68,7.68,0,0,1,2.21-3c1-.7,2.2-2,3.47-2.14a9.61,9.61,0,0,1,4.23.5,9.82,9.82,0,0,1,3.4,2.66C1166.46,15.47,1164.84,17.53,1165,18.8Z"/><path class="cls-1" d="M1149.64,18.8c.13,1.27.51,2.21,0,3.3s-1.48,1.45-2.47,2.18-1.47,2.32-2.74,2.46a7.25,7.25,0,0,1-3.59-1c-1.12-.5-1.28-1.84-2-2.83s-3-1.38-3.14-2.65.9-2.67,1.38-3.76a7.68,7.68,0,0,1,2.21-3c1-.7,2.21-2,3.48-2.14a9.57,9.57,0,0,1,4.22.5,9.73,9.73,0,0,1,3.4,2.66C1151.13,15.47,1149.5,17.53,1149.64,18.8Z"/><path class="cls-1" d="M1126.15,6c.11,1,.42,1.76,0,2.63s-1.18,1.17-2,1.74-1.18,1.86-2.19,2a5.83,5.83,0,0,1-2.86-.77c-.89-.4-1-1.47-1.6-2.26s-2.39-1.1-2.5-2.11.72-2.13,1.1-3a6.12,6.12,0,0,1,1.76-2.43c.77-.56,1.76-1.6,2.78-1.71a7.72,7.72,0,0,1,3.37.4,7.92,7.92,0,0,1,2.71,2.12C1127.34,3.32,1126,5,1126.15,6Z"/><path class="cls-1" d="M1139.61,6.4a4.47,4.47,0,0,1,0,2.46c-.37.83-1.1,1.08-1.84,1.62s-1.09,1.73-2,1.83a5.31,5.31,0,0,1-2.67-.71c-.83-.37-.95-1.37-1.49-2.11s-2.23-1-2.33-2,.66-2,1-2.79a5.61,5.61,0,0,1,1.65-2.27c.71-.53,1.64-1.5,2.58-1.6a7.17,7.17,0,0,1,3.15.38,7.29,7.29,0,0,1,2.53,2C1140.71,3.92,1139.5,5.46,1139.61,6.4Z"/><path class="cls-1" d="M1155.88,6.4a4.47,4.47,0,0,1,0,2.46c-.37.83-1.1,1.08-1.84,1.62s-1.09,1.73-2,1.83a5.31,5.31,0,0,1-2.67-.71c-.83-.37-.95-1.37-1.49-2.11s-2.23-1-2.33-2,.66-2,1-2.79a5.61,5.61,0,0,1,1.65-2.27c.71-.53,1.64-1.5,2.58-1.6a7.17,7.17,0,0,1,3.15.38,7.29,7.29,0,0,1,2.53,2C1157,3.92,1155.77,5.46,1155.88,6.4Z"/><path class="cls-1" d="M1172,5.77c.1,1,.39,1.64,0,2.45s-1.1,1.09-1.84,1.63-1.1,1.73-2,1.83a5.39,5.39,0,0,1-2.67-.72c-.84-.37-1-1.36-1.49-2.1s-2.24-1-2.34-2,.67-2,1-2.8a5.75,5.75,0,0,1,1.64-2.27c.72-.52,1.65-1.49,2.59-1.6A7.19,7.19,0,0,1,1170,.6a7.41,7.41,0,0,1,2.53,2C1173.06,3.29,1171.85,4.83,1172,5.77Z"/><path class="cls-1" d="M1134.47,18.93c.29,1.24.78,2.13.43,3.27s-1.29,1.62-2.19,2.46-1.18,2.49-2.43,2.78a7.31,7.31,0,0,1-3.67-.53c-1.18-.36-1.49-1.66-2.33-2.56s-3.15-1-3.44-2.25.57-2.76.92-3.9a7.59,7.59,0,0,1,1.83-3.29c.87-.82,2-2.27,3.19-2.55a9.57,9.57,0,0,1,4.26,0,10,10,0,0,1,3.69,2.22C1135.55,15.44,1134.18,17.69,1134.47,18.93Z"/><path class="cls-1" d="M1118.73,18.14c.29,1.24.78,2.13.44,3.27s-1.3,1.62-2.19,2.46-1.19,2.49-2.43,2.77a7.23,7.23,0,0,1-3.68-.52c-1.17-.36-1.49-1.67-2.33-2.56s-3.14-1-3.43-2.25.57-2.76.92-3.9a7.57,7.57,0,0,1,1.82-3.29c.87-.82,2-2.27,3.19-2.56a9.72,9.72,0,0,1,4.26,0,9.85,9.85,0,0,1,3.7,2.22C1119.81,14.65,1118.44,16.9,1118.73,18.14Z"/><path class="cls-1" d="M1103.09,18.93c.29,1.24.78,2.13.43,3.27s-1.29,1.62-2.18,2.46-1.19,2.49-2.43,2.78a7.33,7.33,0,0,1-3.68-.53c-1.17-.36-1.49-1.66-2.33-2.56s-3.14-1-3.43-2.25.57-2.76.91-3.9a7.59,7.59,0,0,1,1.83-3.29c.87-.82,2-2.27,3.19-2.55a9.57,9.57,0,0,1,4.26,0,10,10,0,0,1,3.69,2.22C1104.17,15.44,1102.8,17.69,1103.09,18.93Z"/><path class="cls-1" d="M1095.16,35c0,1.28.28,2.25-.31,3.28s-1.63,1.29-2.69,1.91-1.72,2.15-3,2.15A7.33,7.33,0,0,1,1085.7,41c-1.06-.62-1.07-2-1.69-3s-2.83-1.69-2.83-3,1.18-2.55,1.77-3.58a7.51,7.51,0,0,1,2.53-2.8c1-.6,2.41-1.76,3.68-1.76a9.55,9.55,0,0,1,4.15,1,9.86,9.86,0,0,1,3.1,3C1097,31.81,1095.16,33.69,1095.16,35Z"/><path class="cls-1" d="M1126.15,34.07c0,1.28.28,2.25-.31,3.28s-1.63,1.3-2.69,1.91-1.72,2.15-3,2.15a7.33,7.33,0,0,1-3.46-1.34c-1.06-.62-1.07-2-1.69-3s-2.83-1.69-2.83-3,1.18-2.55,1.77-3.58a7.67,7.67,0,0,1,2.53-2.8c1-.6,2.41-1.76,3.68-1.76a9.55,9.55,0,0,1,4.15,1,9.87,9.87,0,0,1,3.1,3C1128,30.92,1126.15,32.8,1126.15,34.07Z"/><path class="cls-2" d="M1205,76.21H1040.42l12.79-36.91a6.19,6.19,0,0,1,5.72-4.15l172.27-3.09v5.08l-17.41,5.38a5.66,5.66,0,0,0-5.15,5.64V72.53A3.69,3.69,0,0,1,1205,76.21Z"/><path class="cls-2" d="M1216.31,84.46v21.68h37.41V84.46Z"/><path class="cls-2" d="M1067.94,89.06a15.24,15.24,0,0,0-15.24,15.24,15.94,15.94,0,0,0,.12,1.84h30.24a14,14,0,0,0,.12-1.84A15.24,15.24,0,0,0,1067.94,89.06Z"/><path class="cls-3" d="M1234.14,91.12a13.4,13.4,0,0,0-13.4,13.4,12.36,12.36,0,0,0,.1,1.62h26.6a14.38,14.38,0,0,0,.1-1.62A13.4,13.4,0,0,0,1234.14,91.12Z"/><path d="M1103.11,89.06a15.24,15.24,0,0,0-15.24,15.24,15.94,15.94,0,0,0,.12,1.84h1.75a14.56,14.56,0,0,1-.1-1.63,13.47,13.47,0,0,1,26.94,0,12.52,12.52,0,0,1-.1,1.63h1.75a14,14,0,0,0,.12-1.84A15.24,15.24,0,0,0,1103.11,89.06Z"/><path class="cls-1" d="M1250.84,76.21h13.37a1,1,0,0,1,1,1v29.18a1,1,0,0,1-1,1h-8.44a4.69,4.69,0,0,1-4.93-4.4Z"/><rect class="cls-4" x="1182.59" y="89.71" width="31.13" height="15.27" rx="2.96" ry="2.96"/><rect class="cls-2" x="1053.27" y="93.04" width="164.14" height="7.54"/><rect class="cls-2" x="1045.48" y="80.17" width="163.82" height="5.58"/><path class="cls-2" d="M1201,87.57h-16.91a1.38,1.38,0,0,1-1.38-1.38V84.81h19.67v1.38A1.38,1.38,0,0,1,1201,87.57Z"/><circle cx="1234.14" cy="104.38" r="11.98"/><circle class="cls-3" cx="1234.14" cy="104.38" r="8.39"/><circle cx="1067.94" cy="104.38" r="11.98"/><circle class="cls-3" cx="1067.94" cy="104.38" r="8.39"/><rect class="cls-2" x="1053.27" y="85.75" width="101.28" height="5.44"/><rect class="cls-2" x="1045.48" y="85.75" width="4.08" height="5.44"/><rect class="cls-2" x="1188.91" y="85.56" width="8.05" height="5.63" rx="2.82" ry="2.82"/><path class="cls-2" d="M1103.11,89.06a15.24,15.24,0,0,0-15.24,15.24,15.94,15.94,0,0,0,.12,1.84h30.24a14,14,0,0,0,.12-1.84A15.24,15.24,0,0,0,1103.11,89.06Z"/><circle cx="1103.11" cy="104.38" r="11.98"/><circle class="cls-3" cx="1103.11" cy="104.38" r="8.39"/><path class="cls-1" d="M1254.15,48.27c0-.75-.67-3.21-11-3.21v3.21Z"/><path class="cls-1" d="M1262.05,82.48l-3.18-22.43V53.89a6.51,6.51,0,0,0-5.29-6.39h-40.77v53.08h4.53a3.72,3.72,0,0,0,3.71-3.38l.49-5.33a5.52,5.52,0,0,1,5.5-5h15.35l4.27,4.27h17.57V84.67A2.18,2.18,0,0,0,1262.05,82.48Z"/><path class="cls-2" d="M1258.79,59.51l-2.27,0a.58.58,0,0,0-.57.69l2.63,14a.6.6,0,0,0,.58.48H1261Z"/><path class="cls-5" d="M1241.66,54.85h-20.92"/><path d="M1250.44,61.08c-.36-1-.41-1.52-1.9-1.52H1228c-1.49,0-1.22,1.19-1.22,2v12.3a.82.82,0,0,0,.82.81H1253s1.37,0,.7-1.64Z"/><path class="cls-2" d="M1265.18,102.81h-1.94a3.15,3.15,0,0,1-3.15-3.16V81.27a3.15,3.15,0,0,1,3.15-3.15h1.94Z"/><rect class="cls-2" x="1174.76" y="97.6" width="36.33" height="11.15" rx="5.58" ry="5.58"/><path class="cls-3" d="M1049.56,71.15c2.19-6.6,6.18-18.05,8.39-24.38a6.93,6.93,0,0,1,6.42-4.64l138-2.45"/><polyline class="cls-3" points="1063.8 48.27 1076.33 48.27 1067.94 71.15"/><polyline class="cls-3" points="1095.08 48.27 1107.61 48.27 1099.22 71.15"/><polyline class="cls-3" points="1126.35 48.27 1138.88 48.27 1130.49 71.15"/><polyline class="cls-3" points="1157.63 48.27 1170.16 48.27 1161.77 71.15"/><polyline class="cls-3" points="1188.91 48.27 1201.44 48.27 1193.05 71.15"/><path class="cls-2" d="M1216.31,84.46v21.68h37.41V84.46Z"/><path class="cls-2" d="M1067.94,89.06a15.24,15.24,0,0,0-15.24,15.24,15.94,15.94,0,0,0,.12,1.84h30.24a14,14,0,0,0,.12-1.84A15.24,15.24,0,0,0,1067.94,89.06Z"/><path class="cls-3" d="M1234.14,91.12a13.4,13.4,0,0,0-13.4,13.4,12.36,12.36,0,0,0,.1,1.62h26.6a14.38,14.38,0,0,0,.1-1.62A13.4,13.4,0,0,0,1234.14,91.12Z"/><path d="M1103.11,89.06a15.24,15.24,0,0,0-15.24,15.24,15.94,15.94,0,0,0,.12,1.84h1.75a14.56,14.56,0,0,1-.1-1.63,13.47,13.47,0,0,1,26.94,0,12.52,12.52,0,0,1-.1,1.63h1.75a14,14,0,0,0,.12-1.84A15.24,15.24,0,0,0,1103.11,89.06Z"/><path class="cls-6" d="M1250.84,76.21h13.37a1,1,0,0,1,1,1v29.18a1,1,0,0,1-1,1h-8.44a4.69,4.69,0,0,1-4.93-4.4Z"/><rect class="cls-4" x="1182.59" y="89.71" width="31.13" height="15.27" rx="2.96" ry="2.96"/><rect class="cls-2" x="1053.27" y="93.04" width="164.14" height="7.54"/><rect class="cls-2" x="1045.48" y="80.17" width="163.82" height="5.58"/><path class="cls-2" d="M1201,87.57h-16.91a1.38,1.38,0,0,1-1.38-1.38V84.81h19.67v1.38A1.38,1.38,0,0,1,1201,87.57Z"/><circle cx="1234.14" cy="104.38" r="11.98"/><circle class="cls-3" cx="1234.14" cy="104.38" r="8.39"/><circle cx="1067.94" cy="104.38" r="11.98"/><circle class="cls-3" cx="1067.94" cy="104.38" r="8.39"/><rect class="cls-2" x="1053.27" y="85.75" width="101.28" height="5.44"/><rect class="cls-2" x="1045.48" y="85.75" width="4.08" height="5.44"/><rect class="cls-2" x="1188.91" y="85.56" width="8.05" height="5.63" rx="2.82" ry="2.82"/><path class="cls-2" d="M1103.11,89.06a15.24,15.24,0,0,0-15.24,15.24,15.94,15.94,0,0,0,.12,1.84h30.24a14,14,0,0,0,.12-1.84A15.24,15.24,0,0,0,1103.11,89.06Z"/><circle cx="1103.11" cy="104.38" r="11.98"/><circle class="cls-3" cx="1103.11" cy="104.38" r="8.39"/><path class="cls-6" d="M1254.15,48.27c0-.75-.67-3.21-11-3.21v3.21Z"/><path class="cls-6" d="M1262.05,82.48l-3.18-22.43V53.89a6.51,6.51,0,0,0-5.29-6.39h-40.77v53.08h4.53a3.72,3.72,0,0,0,3.71-3.38l.49-5.33a5.52,5.52,0,0,1,5.5-5h15.35l4.27,4.27h17.57V84.67A2.18,2.18,0,0,0,1262.05,82.48Z"/><path class="cls-2" d="M1258.79,59.51l-2.27,0a.58.58,0,0,0-.57.69l2.63,14a.6.6,0,0,0,.58.48H1261Z"/><path class="cls-5" d="M1241.66,54.85h-20.92"/><path d="M1250.44,61.08c-.36-1-.41-1.52-1.9-1.52H1228c-1.49,0-1.22,1.19-1.22,2v12.3a.82.82,0,0,0,.82.81H1253s1.37,0,.7-1.64Z"/><path class="cls-2" d="M1265.18,102.81h-1.94a3.15,3.15,0,0,1-3.15-3.16V81.27a3.15,3.15,0,0,1,3.15-3.15h1.94Z"/><rect class="cls-2" x="1174.76" y="97.6" width="36.33" height="11.15" rx="5.58" ry="5.58"/><path class="cls-3" d="M1049.56,71.15c2.19-6.6,6.18-18.05,8.39-24.38a6.93,6.93,0,0,1,6.42-4.64l138-2.45"/><polyline class="cls-3" points="1063.8 48.27 1076.33 48.27 1067.94 71.15"/><polyline class="cls-3" points="1095.08 48.27 1107.61 48.27 1099.22 71.15"/><polyline class="cls-3" points="1126.35 48.27 1138.88 48.27 1130.49 71.15"/><polyline class="cls-3" points="1157.63 48.27 1170.16 48.27 1161.77 71.15"/><polyline class="cls-3" points="1188.91 48.27 1201.44 48.27 1193.05 71.15"/><path class="cls-1" d="M819.56,35.41c0,1.27.28,2.25-.31,3.28s-1.63,1.29-2.69,1.9-1.72,2.15-3,2.15a7.22,7.22,0,0,1-3.46-1.34c-1.06-.61-1.07-2-1.69-3s-2.83-1.7-2.83-3,1.18-2.56,1.77-3.59a7.67,7.67,0,0,1,2.53-2.8c1-.59,2.41-1.76,3.68-1.76a9.55,9.55,0,0,1,4.15,1,10.09,10.09,0,0,1,3.1,3C821.4,32.25,819.56,34.13,819.56,35.41Z"/><path class="cls-1" d="M850.55,34.52c0,1.27.28,2.25-.31,3.28s-1.63,1.29-2.69,1.91-1.72,2.14-3,2.14a7.22,7.22,0,0,1-3.46-1.34c-1.06-.61-1.07-2-1.69-3s-2.83-1.7-2.83-3,1.18-2.56,1.77-3.59a7.67,7.67,0,0,1,2.53-2.8c1-.59,2.41-1.76,3.68-1.76a9.7,9.7,0,0,1,4.15,1,10,10,0,0,1,3.1,3C852.39,31.36,850.55,33.24,850.55,34.52Z"/><path class="cls-1" d="M881.54,33.63c0,1.27.28,2.25-.31,3.28s-1.63,1.29-2.69,1.91-1.72,2.15-3,2.15a7.24,7.24,0,0,1-3.46-1.35c-1.06-.61-1.07-2-1.69-3s-2.83-1.7-2.83-3,1.18-2.56,1.77-3.59a7.64,7.64,0,0,1,2.53-2.79c1-.6,2.41-1.77,3.68-1.77a9.7,9.7,0,0,1,4.15,1,10,10,0,0,1,3.1,3C883.38,30.47,881.54,32.35,881.54,33.63Z"/><path class="cls-1" d="M897,33.18c0,1.28.28,2.25-.32,3.28s-1.62,1.3-2.69,1.91-1.71,2.15-3,2.15a7.18,7.18,0,0,1-3.46-1.34c-1.07-.62-1.08-2-1.69-3s-2.84-1.7-2.84-3,1.18-2.55,1.78-3.58a7.64,7.64,0,0,1,2.52-2.8c1-.59,2.41-1.76,3.69-1.76a9.55,9.55,0,0,1,4.15,1,9.84,9.84,0,0,1,3.09,3C898.88,30,897,31.91,897,33.18Z"/><path class="cls-1" d="M912.54,32.74c0,1.28.27,2.25-.32,3.28s-1.63,1.29-2.69,1.91-1.72,2.15-3,2.15a7.33,7.33,0,0,1-3.46-1.34c-1.06-.62-1.07-2-1.69-3s-2.83-1.69-2.83-3,1.18-2.56,1.77-3.59a7.64,7.64,0,0,1,2.53-2.79c1-.6,2.41-1.76,3.68-1.76a9.69,9.69,0,0,1,4.15.95,9.9,9.9,0,0,1,3.1,3C914.38,29.59,912.54,31.46,912.54,32.74Z"/><path class="cls-1" d="M928,32.3c0,1.27.28,2.25-.32,3.28s-1.62,1.29-2.69,1.9-1.71,2.15-3,2.15a7.18,7.18,0,0,1-3.46-1.34c-1.06-.61-1.07-2-1.69-3s-2.84-1.7-2.84-3,1.18-2.56,1.78-3.59a7.67,7.67,0,0,1,2.53-2.8c1-.59,2.4-1.76,3.68-1.76a9.55,9.55,0,0,1,4.15,1,9.94,9.94,0,0,1,3.09,3C929.87,29.14,928,31,928,32.3Z"/><path class="cls-1" d="M943.53,31.85c0,1.28.28,2.25-.32,3.28s-1.63,1.29-2.69,1.91-1.72,2.15-3,2.15a7.32,7.32,0,0,1-3.47-1.34c-1.06-.62-1.07-2-1.68-3s-2.84-1.69-2.84-3,1.18-2.55,1.78-3.58a7.49,7.49,0,0,1,2.52-2.8c1-.6,2.41-1.76,3.69-1.76a9.62,9.62,0,0,1,4.15,1,9.73,9.73,0,0,1,3.09,3C945.37,28.7,943.53,30.58,943.53,31.85Z"/><path class="cls-1" d="M921.64,18.13c0,1.28.28,2.26-.31,3.29s-1.63,1.29-2.69,1.9-1.72,2.15-3,2.15a7.22,7.22,0,0,1-3.46-1.34c-1.06-.61-1.07-2-1.69-3s-2.83-1.7-2.83-3,1.18-2.55,1.77-3.58a7.75,7.75,0,0,1,2.53-2.8c1-.59,2.41-1.76,3.68-1.76a9.55,9.55,0,0,1,4.15,1,9.87,9.87,0,0,1,3.1,3C923.48,15,921.64,16.86,921.64,18.13Z"/><path class="cls-1" d="M904.87,18.8c.13,1.27.52,2.21,0,3.3s-1.47,1.45-2.46,2.18-1.48,2.32-2.75,2.46a7.25,7.25,0,0,1-3.59-1c-1.12-.5-1.27-1.84-2-2.83s-3-1.38-3.14-2.65.9-2.67,1.38-3.76a7.68,7.68,0,0,1,2.21-3c1-.7,2.21-2,3.48-2.14a9.61,9.61,0,0,1,4.23.5,9.92,9.92,0,0,1,3.4,2.66C906.36,15.47,904.73,17.53,904.87,18.8Z"/><path class="cls-1" d="M889.53,18.8c.14,1.27.52,2.21,0,3.3s-1.48,1.45-2.47,2.18-1.48,2.32-2.75,2.46a7.19,7.19,0,0,1-3.58-1c-1.13-.5-1.28-1.84-2-2.83s-3-1.38-3.13-2.65.89-2.67,1.38-3.76a7.49,7.49,0,0,1,2.21-3c1-.7,2.2-2,3.47-2.14a9.61,9.61,0,0,1,4.23.5,9.92,9.92,0,0,1,3.4,2.66C891,15.47,889.39,17.53,889.53,18.8Z"/><path class="cls-1" d="M866.05,6c.11,1,.41,1.76,0,2.63s-1.18,1.17-2,1.74-1.18,1.86-2.19,2a5.78,5.78,0,0,1-2.86-.77c-.9-.4-1-1.47-1.6-2.26s-2.4-1.1-2.5-2.11.71-2.13,1.1-3a6,6,0,0,1,1.76-2.43c.77-.56,1.76-1.6,2.77-1.71a7.7,7.7,0,0,1,3.37.4,8,8,0,0,1,2.72,2.12C867.24,3.32,865.94,5,866.05,6Z"/><path class="cls-1" d="M879.5,6.4c.1.95.39,1.65,0,2.46s-1.1,1.08-1.84,1.62-1.1,1.73-2,1.83A5.28,5.28,0,0,1,873,11.6c-.84-.37-1-1.37-1.49-2.11s-2.24-1-2.34-2,.67-2,1-2.79a5.68,5.68,0,0,1,1.64-2.27c.72-.53,1.65-1.5,2.59-1.6a7.19,7.19,0,0,1,3.15.38,7.38,7.38,0,0,1,2.53,2C880.61,3.92,879.4,5.46,879.5,6.4Z"/><path class="cls-1" d="M895.77,6.4c.1.95.39,1.65,0,2.46s-1.1,1.08-1.84,1.62-1.1,1.73-2,1.83a5.28,5.28,0,0,1-2.67-.71c-.84-.37-1-1.37-1.49-2.11s-2.24-1-2.34-2,.67-2,1-2.79a5.68,5.68,0,0,1,1.64-2.27c.72-.53,1.65-1.5,2.59-1.6a7.19,7.19,0,0,1,3.15.38,7.38,7.38,0,0,1,2.53,2C896.88,3.92,895.67,5.46,895.77,6.4Z"/><path class="cls-1" d="M911.84,5.77a4.35,4.35,0,0,1,0,2.45c-.37.84-1.1,1.09-1.84,1.63s-1.1,1.73-2,1.83a5.42,5.42,0,0,1-2.67-.72c-.83-.37-1-1.36-1.49-2.1s-2.23-1-2.33-2,.66-2,1-2.8a5.68,5.68,0,0,1,1.65-2.27c.71-.52,1.64-1.49,2.58-1.6A7.17,7.17,0,0,1,909.9.6a7.31,7.31,0,0,1,2.53,2C913,3.29,911.74,4.83,911.84,5.77Z"/><path class="cls-1" d="M874.36,18.93c.29,1.24.78,2.13.44,3.27s-1.3,1.62-2.19,2.46-1.19,2.49-2.43,2.78a7.34,7.34,0,0,1-3.68-.53c-1.17-.36-1.49-1.66-2.33-2.56s-3.14-1-3.43-2.25.57-2.76.92-3.9a7.67,7.67,0,0,1,1.82-3.29c.87-.82,1.95-2.27,3.19-2.55a9.57,9.57,0,0,1,4.26,0,10,10,0,0,1,3.7,2.22C875.44,15.44,874.07,17.69,874.36,18.93Z"/><path class="cls-1" d="M858.63,18.14c.29,1.24.78,2.13.43,3.27s-1.29,1.62-2.19,2.46-1.18,2.49-2.43,2.77a7.19,7.19,0,0,1-3.67-.52c-1.18-.36-1.49-1.67-2.33-2.56s-3.15-1-3.44-2.25.57-2.76.92-3.9a7.59,7.59,0,0,1,1.83-3.29c.87-.82,1.94-2.27,3.19-2.56a9.72,9.72,0,0,1,4.26,0,9.89,9.89,0,0,1,3.69,2.22C859.7,14.65,858.34,16.9,858.63,18.14Z"/><path class="cls-1" d="M843,18.93c.29,1.24.79,2.13.44,3.27s-1.29,1.62-2.19,2.46-1.19,2.49-2.43,2.78a7.29,7.29,0,0,1-3.67-.53c-1.18-.36-1.49-1.66-2.33-2.56s-3.15-1-3.44-2.25.57-2.76.92-3.9a7.59,7.59,0,0,1,1.83-3.29c.86-.82,1.94-2.27,3.19-2.55a9.53,9.53,0,0,1,4.25,0,10,10,0,0,1,3.7,2.22C844.06,15.44,842.7,17.69,843,18.93Z"/><path class="cls-1" d="M835.06,35c0,1.28.28,2.25-.32,3.28s-1.63,1.29-2.69,1.91-1.72,2.15-3,2.15A7.29,7.29,0,0,1,825.6,41c-1.07-.62-1.08-2-1.69-3s-2.84-1.69-2.84-3,1.18-2.55,1.78-3.58a7.49,7.49,0,0,1,2.52-2.8c1-.6,2.41-1.76,3.69-1.76a9.59,9.59,0,0,1,4.15,1,9.73,9.73,0,0,1,3.09,3C836.9,31.81,835.06,33.69,835.06,35Z"/><path class="cls-1" d="M866.05,34.07c0,1.28.28,2.25-.32,3.28s-1.62,1.3-2.69,1.91-1.72,2.15-3,2.15a7.29,7.29,0,0,1-3.46-1.34c-1.07-.62-1.08-2-1.69-3s-2.84-1.69-2.84-3,1.18-2.55,1.78-3.58a7.56,7.56,0,0,1,2.52-2.8c1-.6,2.41-1.76,3.69-1.76a9.59,9.59,0,0,1,4.15,1,9.84,9.84,0,0,1,3.09,3C867.89,30.92,866.05,32.8,866.05,34.07Z"/><path class="cls-2" d="M944.85,76.21H780.32L793.1,39.3a6.2,6.2,0,0,1,5.72-4.15l172.27-3.09v5.08l-17.4,5.38a5.66,5.66,0,0,0-5.16,5.64V72.53A3.68,3.68,0,0,1,944.85,76.21Z"/><path class="cls-2" d="M956.21,84.46v21.68h37.41V84.46Z"/><path class="cls-2" d="M807.84,89.06A15.24,15.24,0,0,0,792.6,104.3a16,16,0,0,0,.11,1.84H823a16,16,0,0,0,.11-1.84A15.23,15.23,0,0,0,807.84,89.06Z"/><path class="cls-3" d="M974,91.12a13.4,13.4,0,0,0-13.4,13.4,14.38,14.38,0,0,0,.1,1.62h26.6a14.38,14.38,0,0,0,.1-1.62A13.4,13.4,0,0,0,974,91.12Z"/><path d="M843,89.06a15.24,15.24,0,0,0-15.24,15.24,16,16,0,0,0,.11,1.84h1.76a12.52,12.52,0,0,1-.1-1.63,13.47,13.47,0,0,1,26.94,0,14.56,14.56,0,0,1-.1,1.63h1.75a15.94,15.94,0,0,0,.12-1.84A15.24,15.24,0,0,0,843,89.06Z"/><path class="cls-1" d="M990.73,76.21h13.37a1,1,0,0,1,1,1v29.18a1,1,0,0,1-1,1h-8.43a4.69,4.69,0,0,1-4.94-4.4Z"/><rect class="cls-4" x="922.48" y="89.71" width="31.13" height="15.27" rx="2.96" ry="2.96"/><rect class="cls-2" x="793.16" y="93.04" width="164.14" height="7.54"/><rect class="cls-2" x="785.38" y="80.17" width="163.82" height="5.58"/><path class="cls-2" d="M940.92,87.57H924a1.38,1.38,0,0,1-1.39-1.38V84.81H942.3v1.38A1.38,1.38,0,0,1,940.92,87.57Z"/><circle cx="974.03" cy="104.38" r="11.98"/><circle class="cls-3" cx="974.03" cy="104.38" r="8.39"/><circle cx="807.84" cy="104.38" r="11.98"/><circle class="cls-3" cx="807.84" cy="104.38" r="8.39"/><rect class="cls-2" x="793.16" y="85.75" width="101.28" height="5.44"/><rect class="cls-2" x="785.38" y="85.75" width="4.08" height="5.44"/><rect class="cls-2" x="928.8" y="85.56" width="8.05" height="5.63" rx="2.82" ry="2.82"/><path class="cls-2" d="M843,89.06a15.24,15.24,0,0,0-15.24,15.24,16,16,0,0,0,.11,1.84h30.25a15.94,15.94,0,0,0,.12-1.84A15.24,15.24,0,0,0,843,89.06Z"/><circle cx="843.01" cy="104.38" r="11.98"/><circle class="cls-3" cx="843.01" cy="104.38" r="8.39"/><path class="cls-1" d="M994.05,48.27c0-.75-.67-3.21-11-3.21v3.21Z"/><path class="cls-1" d="M1002,82.48l-3.18-22.43V53.89a6.51,6.51,0,0,0-5.3-6.39H952.7v53.08h4.54a3.71,3.71,0,0,0,3.7-3.38l.49-5.33a5.53,5.53,0,0,1,5.5-5h15.36l4.27,4.27h17.57V84.67A2.19,2.19,0,0,0,1002,82.48Z"/><path class="cls-2" d="M998.69,59.51l-2.27,0a.58.58,0,0,0-.57.69l2.62,14a.61.61,0,0,0,.58.48h1.79Z"/><path class="cls-5" d="M981.55,54.85H960.63"/><path d="M990.33,61.08c-.35-1-.41-1.52-1.9-1.52H967.9c-1.49,0-1.22,1.19-1.22,2v12.3a.81.81,0,0,0,.81.81h25.38s1.37,0,.7-1.64Z"/><path class="cls-2" d="M1005.07,102.81h-1.94a3.15,3.15,0,0,1-3.15-3.16V81.27a3.15,3.15,0,0,1,3.15-3.15h1.94Z"/><rect class="cls-2" x="914.66" y="97.6" width="36.33" height="11.15" rx="5.58" ry="5.58"/><path class="cls-3" d="M789.45,71.15c2.19-6.6,6.18-18.05,8.4-24.38a6.93,6.93,0,0,1,6.42-4.64l138-2.45"/><polyline class="cls-3" points="803.7 48.27 816.23 48.27 807.84 71.15"/><polyline class="cls-3" points="834.97 48.27 847.5 48.27 839.11 71.15"/><polyline class="cls-3" points="866.25 48.27 878.78 48.27 870.39 71.15"/><polyline class="cls-3" points="897.52 48.27 910.06 48.27 901.67 71.15"/><polyline class="cls-3" points="928.8 48.27 941.33 48.27 932.94 71.15"/><path class="cls-2" d="M956.21,84.46v21.68h37.41V84.46Z"/><path class="cls-2" d="M807.84,89.06A15.24,15.24,0,0,0,792.6,104.3a16,16,0,0,0,.11,1.84H823a16,16,0,0,0,.11-1.84A15.23,15.23,0,0,0,807.84,89.06Z"/><path class="cls-3" d="M974,91.12a13.4,13.4,0,0,0-13.4,13.4,14.38,14.38,0,0,0,.1,1.62h26.6a14.38,14.38,0,0,0,.1-1.62A13.4,13.4,0,0,0,974,91.12Z"/><path d="M843,89.06a15.24,15.24,0,0,0-15.24,15.24,16,16,0,0,0,.11,1.84h1.76a12.52,12.52,0,0,1-.1-1.63,13.47,13.47,0,0,1,26.94,0,14.56,14.56,0,0,1-.1,1.63h1.75a15.94,15.94,0,0,0,.12-1.84A15.24,15.24,0,0,0,843,89.06Z"/><path class="cls-6" d="M990.73,76.21h13.37a1,1,0,0,1,1,1v29.18a1,1,0,0,1-1,1h-8.43a4.69,4.69,0,0,1-4.94-4.4Z"/><rect class="cls-4" x="922.48" y="89.71" width="31.13" height="15.27" rx="2.96" ry="2.96"/><rect class="cls-2" x="793.16" y="93.04" width="164.14" height="7.54"/><rect class="cls-2" x="785.38" y="80.17" width="163.82" height="5.58"/><path class="cls-2" d="M940.92,87.57H924a1.38,1.38,0,0,1-1.39-1.38V84.81H942.3v1.38A1.38,1.38,0,0,1,940.92,87.57Z"/><circle cx="974.03" cy="104.38" r="11.98"/><circle class="cls-3" cx="974.03" cy="104.38" r="8.39"/><circle cx="807.84" cy="104.38" r="11.98"/><circle class="cls-3" cx="807.84" cy="104.38" r="8.39"/><rect class="cls-2" x="793.16" y="85.75" width="101.28" height="5.44"/><rect class="cls-2" x="785.38" y="85.75" width="4.08" height="5.44"/><rect class="cls-2" x="928.8" y="85.56" width="8.05" height="5.63" rx="2.82" ry="2.82"/><path class="cls-2" d="M843,89.06a15.24,15.24,0,0,0-15.24,15.24,16,16,0,0,0,.11,1.84h30.25a15.94,15.94,0,0,0,.12-1.84A15.24,15.24,0,0,0,843,89.06Z"/><circle cx="843.01" cy="104.38" r="11.98"/><circle class="cls-3" cx="843.01" cy="104.38" r="8.39"/><path class="cls-6" d="M994.05,48.27c0-.75-.67-3.21-11-3.21v3.21Z"/><path class="cls-6" d="M1002,82.48l-3.18-22.43V53.89a6.51,6.51,0,0,0-5.3-6.39H952.7v53.08h4.54a3.71,3.71,0,0,0,3.7-3.38l.49-5.33a5.53,5.53,0,0,1,5.5-5h15.36l4.27,4.27h17.57V84.67A2.19,2.19,0,0,0,1002,82.48Z"/><path class="cls-2" d="M998.69,59.51l-2.27,0a.58.58,0,0,0-.57.69l2.62,14a.61.61,0,0,0,.58.48h1.79Z"/><path class="cls-5" d="M981.55,54.85H960.63"/><path d="M990.33,61.08c-.35-1-.41-1.52-1.9-1.52H967.9c-1.49,0-1.22,1.19-1.22,2v12.3a.81.81,0,0,0,.81.81h25.38s1.37,0,.7-1.64Z"/><path class="cls-2" d="M1005.07,102.81h-1.94a3.15,3.15,0,0,1-3.15-3.16V81.27a3.15,3.15,0,0,1,3.15-3.15h1.94Z"/><rect class="cls-2" x="914.66" y="97.6" width="36.33" height="11.15" rx="5.58" ry="5.58"/><path class="cls-3" d="M789.45,71.15c2.19-6.6,6.18-18.05,8.4-24.38a6.93,6.93,0,0,1,6.42-4.64l138-2.45"/><polyline class="cls-3" points="803.7 48.27 816.23 48.27 807.84 71.15"/><polyline class="cls-3" points="834.97 48.27 847.5 48.27 839.11 71.15"/><polyline class="cls-3" points="866.25 48.27 878.78 48.27 870.39 71.15"/><polyline class="cls-3" points="897.52 48.27 910.06 48.27 901.67 71.15"/><polyline class="cls-3" points="928.8 48.27 941.33 48.27 932.94 71.15"/><path class="cls-1" d="M559.46,35.41c0,1.27.28,2.25-.32,3.28s-1.63,1.29-2.69,1.9-1.72,2.15-3,2.15A7.26,7.26,0,0,1,550,41.4c-1.06-.61-1.07-2-1.68-3s-2.84-1.7-2.84-3,1.18-2.56,1.78-3.59a7.64,7.64,0,0,1,2.52-2.8c1-.59,2.41-1.76,3.69-1.76a9.59,9.59,0,0,1,4.15,1,9.94,9.94,0,0,1,3.09,3C561.3,32.25,559.46,34.13,559.46,35.41Z"/><path class="cls-1" d="M590.45,34.52c0,1.27.28,2.25-.32,3.28s-1.63,1.29-2.69,1.91-1.72,2.14-3,2.14A7.18,7.18,0,0,1,581,40.51c-1.07-.61-1.08-2-1.69-3s-2.84-1.7-2.84-3,1.18-2.56,1.78-3.59a7.64,7.64,0,0,1,2.52-2.8c1-.59,2.41-1.76,3.69-1.76a9.73,9.73,0,0,1,4.15,1,9.94,9.94,0,0,1,3.09,3C592.29,31.36,590.45,33.24,590.45,34.52Z"/><path class="cls-1" d="M621.44,33.63c0,1.27.28,2.25-.32,3.28s-1.62,1.29-2.69,1.91-1.72,2.15-3,2.15A7.2,7.2,0,0,1,612,39.62c-1.07-.61-1.08-2-1.69-3s-2.84-1.7-2.84-3,1.18-2.56,1.78-3.59a7.53,7.53,0,0,1,2.52-2.79c1-.6,2.41-1.77,3.69-1.77a9.73,9.73,0,0,1,4.15,1,9.94,9.94,0,0,1,3.09,3C623.28,30.47,621.44,32.35,621.44,33.63Z"/><path class="cls-1" d="M636.93,33.18c0,1.28.28,2.25-.31,3.28s-1.63,1.3-2.69,1.91-1.72,2.15-3,2.15a7.22,7.22,0,0,1-3.46-1.34c-1.06-.62-1.07-2-1.69-3s-2.83-1.7-2.83-3,1.18-2.55,1.77-3.58a7.75,7.75,0,0,1,2.53-2.8c1-.59,2.41-1.76,3.68-1.76a9.55,9.55,0,0,1,4.15,1,9.87,9.87,0,0,1,3.1,3C638.77,30,636.93,31.91,636.93,33.18Z"/><path class="cls-1" d="M652.43,32.74c0,1.28.28,2.25-.32,3.28s-1.62,1.29-2.69,1.91-1.71,2.15-3,2.15A7.29,7.29,0,0,1,643,38.74c-1.07-.62-1.08-2-1.69-3s-2.84-1.69-2.84-3,1.18-2.56,1.78-3.59a7.53,7.53,0,0,1,2.52-2.79c1-.6,2.41-1.76,3.69-1.76a9.69,9.69,0,0,1,4.15.95,9.87,9.87,0,0,1,3.09,3C654.27,29.59,652.43,31.46,652.43,32.74Z"/><path class="cls-1" d="M667.93,32.3c0,1.27.27,2.25-.32,3.28s-1.63,1.29-2.69,1.9-1.72,2.15-3,2.15a7.22,7.22,0,0,1-3.46-1.34c-1.06-.61-1.07-2-1.69-3s-2.83-1.7-2.83-3,1.18-2.56,1.77-3.59a7.75,7.75,0,0,1,2.53-2.8c1-.59,2.41-1.76,3.68-1.76a9.55,9.55,0,0,1,4.15,1,10,10,0,0,1,3.1,3C669.77,29.14,667.93,31,667.93,32.3Z"/><path class="cls-1" d="M683.42,31.85c0,1.28.28,2.25-.32,3.28s-1.62,1.29-2.69,1.91-1.71,2.15-3,2.15A7.29,7.29,0,0,1,674,37.85c-1.06-.62-1.07-2-1.69-3s-2.83-1.69-2.83-3,1.17-2.55,1.77-3.58a7.51,7.51,0,0,1,2.53-2.8c1-.6,2.4-1.76,3.68-1.76a9.55,9.55,0,0,1,4.15,1,9.86,9.86,0,0,1,3.1,3C685.26,28.7,683.42,30.58,683.42,31.85Z"/><path class="cls-1" d="M661.54,18.13c0,1.28.28,2.26-.32,3.29s-1.62,1.29-2.69,1.9-1.72,2.15-3,2.15a7.18,7.18,0,0,1-3.46-1.34c-1.07-.61-1.08-2-1.69-3s-2.84-1.7-2.84-3,1.18-2.55,1.78-3.58a7.64,7.64,0,0,1,2.52-2.8c1-.59,2.41-1.76,3.69-1.76a9.59,9.59,0,0,1,4.15,1,9.84,9.84,0,0,1,3.09,3C663.38,15,661.54,16.86,661.54,18.13Z"/><path class="cls-1" d="M644.76,18.8c.14,1.27.52,2.21,0,3.3s-1.48,1.45-2.47,2.18-1.48,2.32-2.75,2.46a7.24,7.24,0,0,1-3.58-1c-1.12-.5-1.28-1.84-2-2.83s-3-1.38-3.14-2.65.9-2.67,1.38-3.76a7.58,7.58,0,0,1,2.21-3c1-.7,2.2-2,3.47-2.14a9.61,9.61,0,0,1,4.23.5,9.92,9.92,0,0,1,3.4,2.66C646.25,15.47,644.63,17.53,644.76,18.8Z"/><path class="cls-1" d="M629.43,18.8c.13,1.27.51,2.21,0,3.3S628,23.55,627,24.28s-1.48,2.32-2.74,2.46a7.25,7.25,0,0,1-3.59-1c-1.12-.5-1.28-1.84-2-2.83s-3-1.38-3.14-2.65.9-2.67,1.38-3.76a7.68,7.68,0,0,1,2.21-3c1-.7,2.21-2,3.47-2.14a9.59,9.59,0,0,1,4.23.5,9.73,9.73,0,0,1,3.4,2.66C630.92,15.47,629.29,17.53,629.43,18.8Z"/><path class="cls-1" d="M605.94,6c.11,1,.42,1.76,0,2.63s-1.18,1.17-2,1.74-1.18,1.86-2.19,2a5.83,5.83,0,0,1-2.86-.77c-.89-.4-1-1.47-1.6-2.26s-2.39-1.1-2.5-2.11.72-2.13,1.1-3a6.12,6.12,0,0,1,1.76-2.43c.77-.56,1.76-1.6,2.78-1.71a7.72,7.72,0,0,1,3.37.4,8,8,0,0,1,2.71,2.12C607.13,3.32,605.83,5,605.94,6Z"/><path class="cls-1" d="M619.39,6.4a4.39,4.39,0,0,1,0,2.46c-.37.83-1.1,1.08-1.84,1.62s-1.1,1.73-2,1.83a5.31,5.31,0,0,1-2.67-.71c-.83-.37-1-1.37-1.49-2.11s-2.23-1-2.33-2,.66-2,1-2.79a5.61,5.61,0,0,1,1.65-2.27c.71-.53,1.64-1.5,2.58-1.6a7.17,7.17,0,0,1,3.15.38,7.29,7.29,0,0,1,2.53,2C620.5,3.92,619.29,5.46,619.39,6.4Z"/><path class="cls-1" d="M635.66,6.4a4.39,4.39,0,0,1,0,2.46c-.37.83-1.1,1.08-1.84,1.62s-1.1,1.73-2,1.83a5.31,5.31,0,0,1-2.67-.71c-.83-.37-.95-1.37-1.49-2.11s-2.23-1-2.33-2,.66-2,1-2.79A5.61,5.61,0,0,1,628,2.46c.71-.53,1.64-1.5,2.58-1.6a7.17,7.17,0,0,1,3.15.38,7.29,7.29,0,0,1,2.53,2C636.77,3.92,635.56,5.46,635.66,6.4Z"/><path class="cls-1" d="M651.74,5.77c.1,1,.39,1.64,0,2.45s-1.1,1.09-1.84,1.63-1.1,1.73-2,1.83a5.39,5.39,0,0,1-2.67-.72c-.84-.37-1-1.36-1.49-2.1s-2.24-1-2.34-2,.67-2,1-2.8a5.75,5.75,0,0,1,1.64-2.27c.72-.52,1.64-1.49,2.59-1.6A7.19,7.19,0,0,1,649.8.6a7.41,7.41,0,0,1,2.53,2C652.85,3.29,651.64,4.83,651.74,5.77Z"/><path class="cls-1" d="M614.26,18.93c.29,1.24.78,2.13.43,3.27s-1.29,1.62-2.19,2.46-1.18,2.49-2.43,2.78a7.31,7.31,0,0,1-3.67-.53c-1.18-.36-1.49-1.66-2.33-2.56s-3.15-1-3.44-2.25.57-2.76.92-3.9a7.59,7.59,0,0,1,1.83-3.29c.87-.82,1.94-2.27,3.19-2.55a9.57,9.57,0,0,1,4.26,0,10,10,0,0,1,3.69,2.22C615.34,15.44,614,17.69,614.26,18.93Z"/><path class="cls-1" d="M598.52,18.14c.29,1.24.78,2.13.44,3.27s-1.3,1.62-2.19,2.46-1.19,2.49-2.43,2.77a7.23,7.23,0,0,1-3.68-.52c-1.17-.36-1.49-1.67-2.33-2.56s-3.14-1-3.43-2.25.57-2.76.92-3.9a7.57,7.57,0,0,1,1.82-3.29c.87-.82,2-2.27,3.19-2.56a9.72,9.72,0,0,1,4.26,0,9.85,9.85,0,0,1,3.7,2.22C599.6,14.65,598.23,16.9,598.52,18.14Z"/><path class="cls-1" d="M582.88,18.93c.29,1.24.78,2.13.43,3.27s-1.29,1.62-2.18,2.46-1.19,2.49-2.43,2.78a7.33,7.33,0,0,1-3.68-.53c-1.17-.36-1.49-1.66-2.33-2.56s-3.14-1-3.43-2.25.57-2.76.91-3.9A7.59,7.59,0,0,1,572,14.91c.87-.82,2-2.27,3.19-2.55a9.57,9.57,0,0,1,4.26,0,10,10,0,0,1,3.69,2.22C584,15.44,582.59,17.69,582.88,18.93Z"/><path class="cls-1" d="M575,35c0,1.28.28,2.25-.31,3.28S573,39.53,572,40.15s-1.72,2.15-3,2.15A7.33,7.33,0,0,1,565.49,41c-1.06-.62-1.07-2-1.69-3S561,36.24,561,35s1.18-2.55,1.77-3.58a7.51,7.51,0,0,1,2.53-2.8c1-.6,2.41-1.76,3.68-1.76a9.55,9.55,0,0,1,4.15,1,9.86,9.86,0,0,1,3.1,3C576.79,31.81,575,33.69,575,35Z"/><path class="cls-1" d="M605.94,34.07c0,1.28.28,2.25-.31,3.28s-1.63,1.3-2.69,1.91-1.72,2.15-3,2.15a7.33,7.33,0,0,1-3.46-1.34c-1.06-.62-1.07-2-1.69-3s-2.83-1.69-2.83-3,1.18-2.55,1.77-3.58a7.59,7.59,0,0,1,2.53-2.8c1-.6,2.41-1.76,3.68-1.76a9.55,9.55,0,0,1,4.15,1,9.87,9.87,0,0,1,3.1,3C607.78,30.92,605.94,32.8,605.94,34.07Z"/><path class="cls-2" d="M684.74,76.21H520.21L533,39.3a6.19,6.19,0,0,1,5.72-4.15L711,32.06v5.08l-17.41,5.38a5.66,5.66,0,0,0-5.15,5.64V72.53A3.69,3.69,0,0,1,684.74,76.21Z"/><path class="cls-2" d="M696.1,84.46v21.68h37.41V84.46Z"/><path class="cls-2" d="M547.73,89.06a15.24,15.24,0,0,0-15.24,15.24,15.94,15.94,0,0,0,.12,1.84h30.24a14,14,0,0,0,.12-1.84A15.24,15.24,0,0,0,547.73,89.06Z"/><path class="cls-3" d="M713.93,91.12a13.4,13.4,0,0,0-13.4,13.4,12.36,12.36,0,0,0,.1,1.62h26.59a12.36,12.36,0,0,0,.11-1.62A13.4,13.4,0,0,0,713.93,91.12Z"/><path d="M582.9,89.06a15.24,15.24,0,0,0-15.24,15.24,15.94,15.94,0,0,0,.12,1.84h1.75a14.56,14.56,0,0,1-.1-1.63,13.47,13.47,0,0,1,26.94,0,12.52,12.52,0,0,1-.1,1.63H598a14,14,0,0,0,.12-1.84A15.24,15.24,0,0,0,582.9,89.06Z"/><path class="cls-1" d="M730.63,76.21H744a1,1,0,0,1,1,1v29.18a1,1,0,0,1-1,1h-8.44a4.69,4.69,0,0,1-4.93-4.4Z"/><rect class="cls-4" x="662.38" y="89.71" width="31.13" height="15.27" rx="2.96" ry="2.96"/><rect class="cls-2" x="533.06" y="93.04" width="164.14" height="7.54"/><rect class="cls-2" x="525.27" y="80.17" width="163.82" height="5.58"/><path class="cls-2" d="M680.81,87.57h-16.9a1.38,1.38,0,0,1-1.38-1.38V84.81H682.2v1.38A1.38,1.38,0,0,1,680.81,87.57Z"/><circle cx="713.93" cy="104.38" r="11.98"/><circle class="cls-3" cx="713.93" cy="104.38" r="8.39"/><circle cx="547.73" cy="104.38" r="11.98"/><circle class="cls-3" cx="547.73" cy="104.38" r="8.39"/><rect class="cls-2" x="533.06" y="85.75" width="101.28" height="5.44"/><rect class="cls-2" x="525.27" y="85.75" width="4.08" height="5.44"/><rect class="cls-2" x="668.7" y="85.56" width="8.05" height="5.63" rx="2.82" ry="2.82"/><path class="cls-2" d="M582.9,89.06a15.24,15.24,0,0,0-15.24,15.24,15.94,15.94,0,0,0,.12,1.84H598a14,14,0,0,0,.12-1.84A15.24,15.24,0,0,0,582.9,89.06Z"/><circle cx="582.9" cy="104.38" r="11.98"/><circle class="cls-3" cx="582.9" cy="104.38" r="8.39"/><path class="cls-1" d="M733.94,48.27c0-.75-.67-3.21-11-3.21v3.21Z"/><path class="cls-1" d="M741.84,82.48l-3.18-22.43V53.89a6.51,6.51,0,0,0-5.29-6.39H692.6v53.08h4.53a3.72,3.72,0,0,0,3.71-3.38l.49-5.33a5.52,5.52,0,0,1,5.5-5h15.35l4.27,4.27H744V84.67A2.18,2.18,0,0,0,741.84,82.48Z"/><path class="cls-2" d="M738.58,59.51l-2.27,0a.58.58,0,0,0-.57.69l2.63,14a.6.6,0,0,0,.58.48h1.79Z"/><path class="cls-5" d="M721.45,54.85H700.53"/><path d="M730.23,61.08c-.36-1-.41-1.52-1.9-1.52H707.79c-1.49,0-1.22,1.19-1.22,2v12.3a.82.82,0,0,0,.82.81h25.38s1.37,0,.7-1.64Z"/><path class="cls-2" d="M745,102.81H743a3.15,3.15,0,0,1-3.15-3.16V81.27A3.15,3.15,0,0,1,743,78.12H745Z"/><rect class="cls-2" x="654.55" y="97.6" width="36.33" height="11.15" rx="5.58" ry="5.58"/><path class="cls-3" d="M529.35,71.15c2.19-6.6,6.18-18.05,8.39-24.38a6.93,6.93,0,0,1,6.42-4.64l138-2.45"/><polyline class="cls-3" points="543.59 48.27 556.12 48.27 547.73 71.15"/><polyline class="cls-3" points="574.87 48.27 587.4 48.27 579.01 71.15"/><polyline class="cls-3" points="606.14 48.27 618.67 48.27 610.28 71.15"/><polyline class="cls-3" points="637.42 48.27 649.95 48.27 641.56 71.15"/><polyline class="cls-3" points="668.7 48.27 681.23 48.27 672.84 71.15"/><path class="cls-2" d="M696.1,84.46v21.68h37.41V84.46Z"/><path class="cls-2" d="M547.73,89.06a15.24,15.24,0,0,0-15.24,15.24,15.94,15.94,0,0,0,.12,1.84h30.24a14,14,0,0,0,.12-1.84A15.24,15.24,0,0,0,547.73,89.06Z"/><path class="cls-3" d="M713.93,91.12a13.4,13.4,0,0,0-13.4,13.4,12.36,12.36,0,0,0,.1,1.62h26.59a12.36,12.36,0,0,0,.11-1.62A13.4,13.4,0,0,0,713.93,91.12Z"/><path d="M582.9,89.06a15.24,15.24,0,0,0-15.24,15.24,15.94,15.94,0,0,0,.12,1.84h1.75a14.56,14.56,0,0,1-.1-1.63,13.47,13.47,0,0,1,26.94,0,12.52,12.52,0,0,1-.1,1.63H598a14,14,0,0,0,.12-1.84A15.24,15.24,0,0,0,582.9,89.06Z"/><path class="cls-6" d="M730.63,76.21H744a1,1,0,0,1,1,1v29.18a1,1,0,0,1-1,1h-8.44a4.69,4.69,0,0,1-4.93-4.4Z"/><rect class="cls-4" x="662.38" y="89.71" width="31.13" height="15.27" rx="2.96" ry="2.96"/><rect class="cls-2" x="533.06" y="93.04" width="164.14" height="7.54"/><rect class="cls-2" x="525.27" y="80.17" width="163.82" height="5.58"/><path class="cls-2" d="M680.81,87.57h-16.9a1.38,1.38,0,0,1-1.38-1.38V84.81H682.2v1.38A1.38,1.38,0,0,1,680.81,87.57Z"/><circle cx="713.93" cy="104.38" r="11.98"/><circle class="cls-3" cx="713.93" cy="104.38" r="8.39"/><circle cx="547.73" cy="104.38" r="11.98"/><circle class="cls-3" cx="547.73" cy="104.38" r="8.39"/><rect class="cls-2" x="533.06" y="85.75" width="101.28" height="5.44"/><rect class="cls-2" x="525.27" y="85.75" width="4.08" height="5.44"/><rect class="cls-2" x="668.7" y="85.56" width="8.05" height="5.63" rx="2.82" ry="2.82"/><path class="cls-2" d="M582.9,89.06a15.24,15.24,0,0,0-15.24,15.24,15.94,15.94,0,0,0,.12,1.84H598a14,14,0,0,0,.12-1.84A15.24,15.24,0,0,0,582.9,89.06Z"/><circle cx="582.9" cy="104.38" r="11.98"/><circle class="cls-3" cx="582.9" cy="104.38" r="8.39"/><path class="cls-6" d="M733.94,48.27c0-.75-.67-3.21-11-3.21v3.21Z"/><path class="cls-6" d="M741.84,82.48l-3.18-22.43V53.89a6.51,6.51,0,0,0-5.29-6.39H692.6v53.08h4.53a3.72,3.72,0,0,0,3.71-3.38l.49-5.33a5.52,5.52,0,0,1,5.5-5h15.35l4.27,4.27H744V84.67A2.18,2.18,0,0,0,741.84,82.48Z"/><path class="cls-2" d="M738.58,59.51l-2.27,0a.58.58,0,0,0-.57.69l2.63,14a.6.6,0,0,0,.58.48h1.79Z"/><path class="cls-5" d="M721.45,54.85H700.53"/><path d="M730.23,61.08c-.36-1-.41-1.52-1.9-1.52H707.79c-1.49,0-1.22,1.19-1.22,2v12.3a.82.82,0,0,0,.82.81h25.38s1.37,0,.7-1.64Z"/><path class="cls-2" d="M745,102.81H743a3.15,3.15,0,0,1-3.15-3.16V81.27A3.15,3.15,0,0,1,743,78.12H745Z"/><rect class="cls-2" x="654.55" y="97.6" width="36.33" height="11.15" rx="5.58" ry="5.58"/><path class="cls-3" d="M529.35,71.15c2.19-6.6,6.18-18.05,8.39-24.38a6.93,6.93,0,0,1,6.42-4.64l138-2.45"/><polyline class="cls-3" points="543.59 48.27 556.12 48.27 547.73 71.15"/><polyline class="cls-3" points="574.87 48.27 587.4 48.27 579.01 71.15"/><polyline class="cls-3" points="606.14 48.27 618.67 48.27 610.28 71.15"/><polyline class="cls-3" points="637.42 48.27 649.95 48.27 641.56 71.15"/><polyline class="cls-3" points="668.7 48.27 681.23 48.27 672.84 71.15"/><path class="cls-1" d="M299.35,35.41c0,1.27.28,2.25-.32,3.28s-1.62,1.29-2.68,1.9-1.72,2.15-3,2.15a7.22,7.22,0,0,1-3.46-1.34c-1.06-.61-1.07-2-1.69-3s-2.83-1.7-2.83-3,1.18-2.56,1.77-3.59a7.67,7.67,0,0,1,2.53-2.8c1-.59,2.41-1.76,3.68-1.76a9.55,9.55,0,0,1,4.15,1,10.09,10.09,0,0,1,3.1,3C301.19,32.25,299.35,34.13,299.35,35.41Z"/><path class="cls-1" d="M330.34,34.52c0,1.27.28,2.25-.31,3.28s-1.63,1.29-2.69,1.91-1.72,2.14-3,2.14a7.22,7.22,0,0,1-3.46-1.34c-1.06-.61-1.07-2-1.69-3s-2.83-1.7-2.83-3,1.18-2.56,1.77-3.59a7.67,7.67,0,0,1,2.53-2.8c1-.59,2.41-1.76,3.68-1.76a9.7,9.7,0,0,1,4.15,1,10.09,10.09,0,0,1,3.1,3C332.18,31.36,330.34,33.24,330.34,34.52Z"/><path class="cls-1" d="M361.33,33.63c0,1.27.28,2.25-.31,3.28s-1.63,1.29-2.69,1.91-1.72,2.15-3,2.15a7.24,7.24,0,0,1-3.46-1.35c-1.06-.61-1.07-2-1.69-3s-2.83-1.7-2.83-3,1.18-2.56,1.77-3.59a7.64,7.64,0,0,1,2.53-2.79c1-.6,2.41-1.77,3.68-1.77a9.7,9.7,0,0,1,4.15,1,10,10,0,0,1,3.1,3C363.17,30.47,361.33,32.35,361.33,33.63Z"/><path class="cls-1" d="M376.83,33.18c0,1.28.28,2.25-.32,3.28s-1.62,1.3-2.69,1.91-1.72,2.15-3,2.15a7.18,7.18,0,0,1-3.46-1.34c-1.07-.62-1.08-2-1.69-3s-2.84-1.7-2.84-3,1.18-2.55,1.78-3.58a7.64,7.64,0,0,1,2.52-2.8c1-.59,2.41-1.76,3.69-1.76A9.59,9.59,0,0,1,375,26a9.84,9.84,0,0,1,3.09,3C378.67,30,376.83,31.91,376.83,33.18Z"/><path class="cls-1" d="M392.33,32.74c0,1.28.27,2.25-.32,3.28s-1.63,1.29-2.69,1.91-1.72,2.15-3,2.15a7.33,7.33,0,0,1-3.46-1.34c-1.06-.62-1.07-2-1.69-3s-2.83-1.69-2.83-3,1.18-2.56,1.77-3.59a7.64,7.64,0,0,1,2.53-2.79c1-.6,2.41-1.76,3.68-1.76a9.69,9.69,0,0,1,4.15.95,9.9,9.9,0,0,1,3.1,3C394.17,29.59,392.33,31.46,392.33,32.74Z"/><path class="cls-1" d="M407.82,32.3c0,1.27.28,2.25-.32,3.28s-1.62,1.29-2.69,1.9-1.71,2.15-3,2.15a7.18,7.18,0,0,1-3.46-1.34c-1.06-.61-1.08-2-1.69-3s-2.84-1.7-2.84-3,1.18-2.56,1.78-3.59a7.64,7.64,0,0,1,2.52-2.8c1-.59,2.41-1.76,3.69-1.76a9.55,9.55,0,0,1,4.15,1,9.94,9.94,0,0,1,3.09,3C409.66,29.14,407.82,31,407.82,32.3Z"/><path class="cls-1" d="M423.32,31.85c0,1.28.27,2.25-.32,3.28s-1.63,1.29-2.69,1.91-1.72,2.15-3,2.15a7.32,7.32,0,0,1-3.47-1.34c-1.06-.62-1.07-2-1.68-3s-2.84-1.69-2.84-3,1.18-2.55,1.78-3.58a7.49,7.49,0,0,1,2.52-2.8c1-.6,2.41-1.76,3.69-1.76a9.54,9.54,0,0,1,4.14,1,9.66,9.66,0,0,1,3.1,3C425.16,28.7,423.32,30.58,423.32,31.85Z"/><path class="cls-1" d="M401.43,18.13c0,1.28.28,2.26-.31,3.29s-1.63,1.29-2.69,1.9-1.72,2.15-3,2.15A7.22,7.22,0,0,1,392,24.13c-1.06-.61-1.07-2-1.69-3s-2.83-1.7-2.83-3,1.18-2.55,1.77-3.58a7.75,7.75,0,0,1,2.53-2.8c1-.59,2.41-1.76,3.68-1.76a9.55,9.55,0,0,1,4.15,1,9.87,9.87,0,0,1,3.1,3C403.27,15,401.43,16.86,401.43,18.13Z"/><path class="cls-1" d="M384.66,18.8c.13,1.27.52,2.21,0,3.3s-1.47,1.45-2.47,2.18-1.47,2.32-2.74,2.46a7.25,7.25,0,0,1-3.59-1c-1.12-.5-1.27-1.84-2-2.83s-3-1.38-3.14-2.65.9-2.67,1.38-3.76a7.68,7.68,0,0,1,2.21-3c1-.7,2.21-2,3.48-2.14a9.61,9.61,0,0,1,4.23.5,9.92,9.92,0,0,1,3.4,2.66C386.15,15.47,384.52,17.53,384.66,18.8Z"/><path class="cls-1" d="M369.32,18.8c.14,1.27.52,2.21,0,3.3s-1.48,1.45-2.47,2.18-1.48,2.32-2.75,2.46a7.19,7.19,0,0,1-3.58-1c-1.13-.5-1.28-1.84-2-2.83s-3-1.38-3.14-2.65.9-2.67,1.38-3.76a7.6,7.6,0,0,1,2.22-3c1-.7,2.2-2,3.47-2.14a9.61,9.61,0,0,1,4.23.5,9.92,9.92,0,0,1,3.4,2.66C370.81,15.47,369.18,17.53,369.32,18.8Z"/><path class="cls-1" d="M345.84,6c.11,1,.41,1.76,0,2.63s-1.18,1.17-2,1.74-1.18,1.86-2.19,2a5.78,5.78,0,0,1-2.86-.77c-.9-.4-1-1.47-1.6-2.26s-2.4-1.1-2.51-2.11.72-2.13,1.11-3a6,6,0,0,1,1.76-2.43c.77-.56,1.76-1.6,2.77-1.71a7.7,7.7,0,0,1,3.37.4,8,8,0,0,1,2.72,2.12C347,3.32,345.73,5,345.84,6Z"/><path class="cls-1" d="M359.29,6.4c.1.95.39,1.65,0,2.46s-1.1,1.08-1.84,1.62-1.1,1.73-2,1.83a5.28,5.28,0,0,1-2.67-.71c-.84-.37-.95-1.37-1.49-2.11s-2.24-1-2.34-2,.67-2,1-2.79a5.68,5.68,0,0,1,1.64-2.27c.72-.53,1.64-1.5,2.59-1.6a7.19,7.19,0,0,1,3.15.38,7.38,7.38,0,0,1,2.53,2C360.4,3.92,359.19,5.46,359.29,6.4Z"/><path class="cls-1" d="M375.56,6.4c.1.95.39,1.65,0,2.46s-1.1,1.08-1.84,1.62-1.1,1.73-2,1.83A5.28,5.28,0,0,1,369,11.6c-.84-.37-1-1.37-1.49-2.11s-2.24-1-2.34-2,.67-2,1-2.79a5.68,5.68,0,0,1,1.64-2.27c.72-.53,1.64-1.5,2.59-1.6a7.19,7.19,0,0,1,3.15.38,7.38,7.38,0,0,1,2.53,2C376.67,3.92,375.46,5.46,375.56,6.4Z"/><path class="cls-1" d="M391.63,5.77a4.35,4.35,0,0,1,0,2.45c-.37.84-1.1,1.09-1.84,1.63s-1.1,1.73-2,1.83a5.42,5.42,0,0,1-2.67-.72c-.83-.37-.95-1.36-1.49-2.1s-2.23-1-2.33-2,.66-2,1-2.8A5.68,5.68,0,0,1,384,1.82c.71-.52,1.64-1.49,2.58-1.6a7.17,7.17,0,0,1,3.15.38,7.31,7.31,0,0,1,2.53,2C392.74,3.29,391.53,4.83,391.63,5.77Z"/><path class="cls-1" d="M354.15,18.93c.29,1.24.78,2.13.44,3.27s-1.3,1.62-2.19,2.46-1.19,2.49-2.43,2.78a7.34,7.34,0,0,1-3.68-.53c-1.17-.36-1.49-1.66-2.33-2.56s-3.14-1-3.43-2.25.57-2.76.92-3.9a7.57,7.57,0,0,1,1.82-3.29c.87-.82,2-2.27,3.19-2.55a9.57,9.57,0,0,1,4.26,0,10,10,0,0,1,3.7,2.22C355.23,15.44,353.86,17.69,354.15,18.93Z"/><path class="cls-1" d="M338.42,18.14c.29,1.24.78,2.13.43,3.27s-1.29,1.62-2.19,2.46-1.18,2.49-2.43,2.77a7.19,7.19,0,0,1-3.67-.52c-1.18-.36-1.49-1.67-2.33-2.56s-3.15-1-3.44-2.25.57-2.76.92-3.9a7.59,7.59,0,0,1,1.83-3.29c.87-.82,1.94-2.27,3.19-2.56a9.72,9.72,0,0,1,4.26,0,9.89,9.89,0,0,1,3.69,2.22C339.49,14.65,338.13,16.9,338.42,18.14Z"/><path class="cls-1" d="M322.77,18.93c.29,1.24.79,2.13.44,3.27s-1.29,1.62-2.19,2.46-1.19,2.49-2.43,2.78a7.29,7.29,0,0,1-3.67-.53c-1.18-.36-1.49-1.66-2.33-2.56s-3.15-1-3.44-2.25.57-2.76.92-3.9a7.67,7.67,0,0,1,1.82-3.29c.87-.82,1.95-2.27,3.19-2.55a9.57,9.57,0,0,1,4.26,0,10,10,0,0,1,3.7,2.22C323.85,15.44,322.49,17.69,322.77,18.93Z"/><path class="cls-1" d="M314.85,35c0,1.28.28,2.25-.32,3.28s-1.63,1.29-2.69,1.91-1.72,2.15-3,2.15A7.29,7.29,0,0,1,305.39,41c-1.07-.62-1.08-2-1.69-3s-2.84-1.69-2.84-3,1.18-2.55,1.78-3.58a7.49,7.49,0,0,1,2.52-2.8c1-.6,2.41-1.76,3.69-1.76a9.59,9.59,0,0,1,4.15,1,9.73,9.73,0,0,1,3.09,3C316.69,31.81,314.85,33.69,314.85,35Z"/><path class="cls-1" d="M345.84,34.07c0,1.28.28,2.25-.32,3.28s-1.63,1.3-2.69,1.91-1.72,2.15-3,2.15a7.29,7.29,0,0,1-3.46-1.34c-1.07-.62-1.08-2-1.69-3s-2.84-1.69-2.84-3,1.18-2.55,1.78-3.58a7.56,7.56,0,0,1,2.52-2.8c1-.6,2.41-1.76,3.69-1.76a9.59,9.59,0,0,1,4.15,1,9.84,9.84,0,0,1,3.09,3C347.68,30.92,345.84,32.8,345.84,34.07Z"/><path class="cls-2" d="M424.64,76.21H260.11L272.89,39.3a6.2,6.2,0,0,1,5.72-4.15l172.27-3.09v5.08l-17.4,5.38a5.66,5.66,0,0,0-5.16,5.64V72.53A3.68,3.68,0,0,1,424.64,76.21Z"/><path class="cls-2" d="M436,84.46v21.68h37.41V84.46Z"/><path class="cls-2" d="M287.63,89.06a15.24,15.24,0,0,0-15.24,15.24,16,16,0,0,0,.11,1.84h30.25a16,16,0,0,0,.11-1.84A15.23,15.23,0,0,0,287.63,89.06Z"/><path class="cls-3" d="M453.82,91.12a13.4,13.4,0,0,0-13.4,13.4,14.38,14.38,0,0,0,.1,1.62h26.6a14.38,14.38,0,0,0,.1-1.62A13.4,13.4,0,0,0,453.82,91.12Z"/><path d="M322.8,89.06a15.24,15.24,0,0,0-15.24,15.24,16,16,0,0,0,.11,1.84h1.76a12.52,12.52,0,0,1-.1-1.63,13.47,13.47,0,1,1,26.94,0,14.56,14.56,0,0,1-.1,1.63h1.75a16,16,0,0,0,.11-1.84A15.23,15.23,0,0,0,322.8,89.06Z"/><path class="cls-1" d="M470.52,76.21h13.37a1,1,0,0,1,1,1v29.18a1,1,0,0,1-1,1h-8.43a4.69,4.69,0,0,1-4.94-4.4Z"/><rect class="cls-4" x="402.27" y="89.71" width="31.13" height="15.27" rx="2.96" ry="2.96"/><rect class="cls-2" x="272.95" y="93.04" width="164.14" height="7.54"/><rect class="cls-2" x="265.17" y="80.17" width="163.82" height="5.58"/><path class="cls-2" d="M420.71,87.57H403.8a1.38,1.38,0,0,1-1.38-1.38V84.81h19.67v1.38A1.38,1.38,0,0,1,420.71,87.57Z"/><circle cx="453.82" cy="104.38" r="11.98"/><circle class="cls-3" cx="453.82" cy="104.38" r="8.39"/><circle cx="287.63" cy="104.38" r="11.98"/><circle class="cls-3" cx="287.63" cy="104.38" r="8.39"/><rect class="cls-2" x="272.95" y="85.75" width="101.28" height="5.44"/><rect class="cls-2" x="265.17" y="85.75" width="4.08" height="5.44"/><rect class="cls-2" x="408.59" y="85.56" width="8.05" height="5.63" rx="2.82" ry="2.82"/><path class="cls-2" d="M322.8,89.06a15.24,15.24,0,0,0-15.24,15.24,16,16,0,0,0,.11,1.84h30.25a16,16,0,0,0,.11-1.84A15.23,15.23,0,0,0,322.8,89.06Z"/><circle cx="322.8" cy="104.38" r="11.98"/><circle class="cls-3" cx="322.8" cy="104.38" r="8.39"/><path class="cls-1" d="M473.84,48.27c0-.75-.67-3.21-11-3.21v3.21Z"/><path class="cls-1" d="M481.73,82.48l-3.17-22.43V53.89a6.51,6.51,0,0,0-5.3-6.39H432.49v53.08H437a3.71,3.71,0,0,0,3.7-3.38l.49-5.33a5.53,5.53,0,0,1,5.5-5h15.36l4.27,4.27h17.57V84.67A2.19,2.19,0,0,0,481.73,82.48Z"/><path class="cls-2" d="M478.48,59.51l-2.27,0a.58.58,0,0,0-.57.69l2.62,14a.61.61,0,0,0,.58.48h1.79Z"/><path class="cls-5" d="M461.34,54.85H440.42"/><path d="M470.12,61.08c-.36-1-.41-1.52-1.9-1.52H447.69c-1.49,0-1.22,1.19-1.22,2v12.3a.81.81,0,0,0,.81.81h25.38s1.37,0,.7-1.64Z"/><path class="cls-2" d="M484.86,102.81h-1.94a3.15,3.15,0,0,1-3.15-3.16V81.27a3.15,3.15,0,0,1,3.15-3.15h1.94Z"/><rect class="cls-2" x="394.45" y="97.6" width="36.33" height="11.15" rx="5.58" ry="5.58"/><path class="cls-3" d="M269.24,71.15c2.19-6.6,6.18-18.05,8.4-24.38a6.93,6.93,0,0,1,6.42-4.64l138-2.45"/><polyline class="cls-3" points="283.49 48.27 296.02 48.27 287.63 71.15"/><polyline class="cls-3" points="314.76 48.27 327.29 48.27 318.9 71.15"/><polyline class="cls-3" points="346.04 48.27 358.57 48.27 350.18 71.15"/><polyline class="cls-3" points="377.31 48.27 389.85 48.27 381.46 71.15"/><polyline class="cls-3" points="408.59 48.27 421.12 48.27 412.73 71.15"/><path class="cls-2" d="M436,84.46v21.68h37.41V84.46Z"/><path class="cls-2" d="M287.63,89.06a15.24,15.24,0,0,0-15.24,15.24,16,16,0,0,0,.11,1.84h30.25a16,16,0,0,0,.11-1.84A15.23,15.23,0,0,0,287.63,89.06Z"/><path class="cls-3" d="M453.82,91.12a13.4,13.4,0,0,0-13.4,13.4,14.38,14.38,0,0,0,.1,1.62h26.6a14.38,14.38,0,0,0,.1-1.62A13.4,13.4,0,0,0,453.82,91.12Z"/><path d="M322.8,89.06a15.24,15.24,0,0,0-15.24,15.24,16,16,0,0,0,.11,1.84h1.76a12.52,12.52,0,0,1-.1-1.63,13.47,13.47,0,1,1,26.94,0,14.56,14.56,0,0,1-.1,1.63h1.75a16,16,0,0,0,.11-1.84A15.23,15.23,0,0,0,322.8,89.06Z"/><path class="cls-6" d="M470.52,76.21h13.37a1,1,0,0,1,1,1v29.18a1,1,0,0,1-1,1h-8.43a4.69,4.69,0,0,1-4.94-4.4Z"/><rect class="cls-4" x="402.27" y="89.71" width="31.13" height="15.27" rx="2.96" ry="2.96"/><rect class="cls-2" x="272.95" y="93.04" width="164.14" height="7.54"/><rect class="cls-2" x="265.17" y="80.17" width="163.82" height="5.58"/><path class="cls-2" d="M420.71,87.57H403.8a1.38,1.38,0,0,1-1.38-1.38V84.81h19.67v1.38A1.38,1.38,0,0,1,420.71,87.57Z"/><circle cx="453.82" cy="104.38" r="11.98"/><circle class="cls-3" cx="453.82" cy="104.38" r="8.39"/><circle cx="287.63" cy="104.38" r="11.98"/><circle class="cls-3" cx="287.63" cy="104.38" r="8.39"/><rect class="cls-2" x="272.95" y="85.75" width="101.28" height="5.44"/><rect class="cls-2" x="265.17" y="85.75" width="4.08" height="5.44"/><rect class="cls-2" x="408.59" y="85.56" width="8.05" height="5.63" rx="2.82" ry="2.82"/><path class="cls-2" d="M322.8,89.06a15.24,15.24,0,0,0-15.24,15.24,16,16,0,0,0,.11,1.84h30.25a16,16,0,0,0,.11-1.84A15.23,15.23,0,0,0,322.8,89.06Z"/><circle cx="322.8" cy="104.38" r="11.98"/><circle class="cls-3" cx="322.8" cy="104.38" r="8.39"/><path class="cls-6" d="M473.84,48.27c0-.75-.67-3.21-11-3.21v3.21Z"/><path class="cls-6" d="M481.73,82.48l-3.17-22.43V53.89a6.51,6.51,0,0,0-5.3-6.39H432.49v53.08H437a3.71,3.71,0,0,0,3.7-3.38l.49-5.33a5.53,5.53,0,0,1,5.5-5h15.36l4.27,4.27h17.57V84.67A2.19,2.19,0,0,0,481.73,82.48Z"/><path class="cls-2" d="M478.48,59.51l-2.27,0a.58.58,0,0,0-.57.69l2.62,14a.61.61,0,0,0,.58.48h1.79Z"/><path class="cls-5" d="M461.34,54.85H440.42"/><path d="M470.12,61.08c-.36-1-.41-1.52-1.9-1.52H447.69c-1.49,0-1.22,1.19-1.22,2v12.3a.81.81,0,0,0,.81.81h25.38s1.37,0,.7-1.64Z"/><path class="cls-2" d="M484.86,102.81h-1.94a3.15,3.15,0,0,1-3.15-3.16V81.27a3.15,3.15,0,0,1,3.15-3.15h1.94Z"/><rect class="cls-2" x="394.45" y="97.6" width="36.33" height="11.15" rx="5.58" ry="5.58"/><path class="cls-3" d="M269.24,71.15c2.19-6.6,6.18-18.05,8.4-24.38a6.93,6.93,0,0,1,6.42-4.64l138-2.45"/><polyline class="cls-3" points="283.49 48.27 296.02 48.27 287.63 71.15"/><polyline class="cls-3" points="314.76 48.27 327.29 48.27 318.9 71.15"/><polyline class="cls-3" points="346.04 48.27 358.57 48.27 350.18 71.15"/><polyline class="cls-3" points="377.31 48.27 389.85 48.27 381.46 71.15"/><polyline class="cls-3" points="408.59 48.27 421.12 48.27 412.73 71.15"/><path class="cls-1" d="M39.25,35.41c0,1.27.28,2.25-.32,3.28S37.3,40,36.24,40.59s-1.72,2.15-3,2.15a7.22,7.22,0,0,1-3.47-1.34c-1.06-.61-1.07-2-1.68-3s-2.84-1.7-2.84-3,1.18-2.56,1.78-3.59A7.64,7.64,0,0,1,29.56,29c1-.59,2.41-1.76,3.69-1.76a9.59,9.59,0,0,1,4.15,1,9.94,9.94,0,0,1,3.09,3C41.09,32.25,39.25,34.13,39.25,35.41Z"/><path class="cls-1" d="M70.24,34.52c0,1.27.28,2.25-.32,3.28s-1.63,1.29-2.69,1.91-1.72,2.14-3,2.14a7.18,7.18,0,0,1-3.46-1.34c-1.07-.61-1.08-2-1.69-3s-2.84-1.7-2.84-3S57.43,32,58,30.93a7.64,7.64,0,0,1,2.52-2.8c1-.59,2.41-1.76,3.69-1.76a9.73,9.73,0,0,1,4.15,1,9.94,9.94,0,0,1,3.09,3C72.08,31.36,70.24,33.24,70.24,34.52Z"/><path class="cls-1" d="M101.23,33.63c0,1.27.28,2.25-.32,3.28s-1.62,1.29-2.69,1.91S96.5,41,95.23,41a7.2,7.2,0,0,1-3.46-1.35c-1.07-.61-1.08-2-1.69-3s-2.84-1.7-2.84-3S88.42,31.07,89,30a7.53,7.53,0,0,1,2.52-2.79c1-.6,2.41-1.77,3.69-1.77a9.73,9.73,0,0,1,4.15,1,9.94,9.94,0,0,1,3.09,3C103.07,30.47,101.23,32.35,101.23,33.63Z"/><path class="cls-1" d="M116.72,33.18c0,1.28.28,2.25-.31,3.28s-1.63,1.3-2.69,1.91-1.72,2.15-3,2.15a7.22,7.22,0,0,1-3.46-1.34c-1.06-.62-1.07-2-1.69-3s-2.83-1.7-2.83-3,1.18-2.55,1.77-3.58A7.75,7.75,0,0,1,107,26.8c1-.59,2.41-1.76,3.68-1.76a9.55,9.55,0,0,1,4.15,1,9.87,9.87,0,0,1,3.1,3C118.56,30,116.72,31.91,116.72,33.18Z"/><path class="cls-1" d="M132.22,32.74c0,1.28.28,2.25-.32,3.28s-1.62,1.29-2.69,1.91-1.72,2.15-3,2.15a7.29,7.29,0,0,1-3.46-1.34c-1.07-.62-1.08-2-1.69-3s-2.84-1.69-2.84-3,1.18-2.56,1.78-3.59a7.53,7.53,0,0,1,2.52-2.79c1-.6,2.41-1.76,3.69-1.76a9.69,9.69,0,0,1,4.15.95,9.87,9.87,0,0,1,3.09,3C134.06,29.59,132.22,31.46,132.22,32.74Z"/><path class="cls-1" d="M147.72,32.3c0,1.27.27,2.25-.32,3.28s-1.63,1.29-2.69,1.9-1.72,2.15-3,2.15a7.22,7.22,0,0,1-3.46-1.34c-1.06-.61-1.07-2-1.69-3s-2.83-1.7-2.83-3,1.18-2.56,1.77-3.59a7.75,7.75,0,0,1,2.53-2.8c1-.59,2.41-1.76,3.68-1.76a9.55,9.55,0,0,1,4.15,1,10,10,0,0,1,3.1,3C149.56,29.14,147.72,31,147.72,32.3Z"/><path class="cls-1" d="M163.21,31.85c0,1.28.28,2.25-.32,3.28s-1.62,1.29-2.69,1.91-1.71,2.15-3,2.15a7.29,7.29,0,0,1-3.46-1.34c-1.06-.62-1.08-2-1.69-3s-2.84-1.69-2.84-3,1.18-2.55,1.78-3.58a7.57,7.57,0,0,1,2.52-2.8c1-.6,2.41-1.76,3.69-1.76a9.55,9.55,0,0,1,4.15,1,9.73,9.73,0,0,1,3.09,3C165.05,28.7,163.21,30.58,163.21,31.85Z"/><path class="cls-1" d="M141.33,18.13c0,1.28.28,2.26-.32,3.29s-1.62,1.29-2.69,1.9-1.72,2.15-3,2.15a7.18,7.18,0,0,1-3.46-1.34c-1.07-.61-1.08-2-1.69-3s-2.84-1.7-2.84-3,1.18-2.55,1.78-3.58a7.64,7.64,0,0,1,2.52-2.8c1-.59,2.41-1.76,3.69-1.76a9.59,9.59,0,0,1,4.15,1,9.84,9.84,0,0,1,3.09,3C143.17,15,141.33,16.86,141.33,18.13Z"/><path class="cls-1" d="M124.55,18.8c.14,1.27.52,2.21,0,3.3s-1.48,1.45-2.47,2.18-1.48,2.32-2.75,2.46a7.22,7.22,0,0,1-3.58-1c-1.13-.5-1.28-1.84-2-2.83s-3-1.38-3.13-2.65.9-2.67,1.38-3.76a7.58,7.58,0,0,1,2.21-3c1-.7,2.2-2,3.47-2.14a9.61,9.61,0,0,1,4.23.5,9.92,9.92,0,0,1,3.4,2.66C126,15.47,124.42,17.53,124.55,18.8Z"/><path class="cls-1" d="M109.21,18.8c.14,1.27.52,2.21,0,3.3s-1.48,1.45-2.47,2.18S105.3,26.6,104,26.74a7.25,7.25,0,0,1-3.59-1c-1.12-.5-1.28-1.84-2-2.83s-3-1.38-3.14-2.65.9-2.67,1.38-3.76a7.68,7.68,0,0,1,2.21-3c1-.7,2.21-2,3.47-2.14a9.61,9.61,0,0,1,4.23.5,9.73,9.73,0,0,1,3.4,2.66C110.71,15.47,109.08,17.53,109.21,18.8Z"/><path class="cls-1" d="M85.73,6c.11,1,.42,1.76,0,2.63s-1.18,1.17-2,1.74-1.18,1.86-2.19,2a5.83,5.83,0,0,1-2.86-.77c-.9-.4-1-1.47-1.6-2.26s-2.39-1.1-2.5-2.11.72-2.13,1.1-3A6.12,6.12,0,0,1,77.5,1.75c.77-.56,1.76-1.6,2.78-1.71a7.72,7.72,0,0,1,3.37.4,8,8,0,0,1,2.71,2.12C86.92,3.32,85.62,5,85.73,6Z"/><path class="cls-1" d="M99.18,6.4a4.39,4.39,0,0,1,0,2.46c-.37.83-1.1,1.08-1.84,1.62s-1.1,1.73-2,1.83a5.31,5.31,0,0,1-2.67-.71c-.83-.37-1-1.37-1.49-2.11s-2.23-1-2.33-2,.66-2,1-2.79a5.61,5.61,0,0,1,1.65-2.27c.71-.53,1.64-1.5,2.58-1.6a7.17,7.17,0,0,1,3.15.38,7.29,7.29,0,0,1,2.53,2C100.29,3.92,99.08,5.46,99.18,6.4Z"/><path class="cls-1" d="M115.45,6.4a4.39,4.39,0,0,1,0,2.46c-.37.83-1.1,1.08-1.84,1.62s-1.1,1.73-2,1.83a5.31,5.31,0,0,1-2.67-.71c-.83-.37-1-1.37-1.49-2.11s-2.23-1-2.33-2,.66-2,1-2.79a5.61,5.61,0,0,1,1.65-2.27c.71-.53,1.64-1.5,2.58-1.6a7.17,7.17,0,0,1,3.15.38,7.29,7.29,0,0,1,2.53,2C116.56,3.92,115.35,5.46,115.45,6.4Z"/><path class="cls-1" d="M131.53,5.77c.1,1,.39,1.64,0,2.45s-1.1,1.09-1.84,1.63-1.1,1.73-2,1.83A5.39,5.39,0,0,1,125,11c-.84-.37-1-1.36-1.49-2.1s-2.24-1-2.34-2,.67-2,1-2.8a5.75,5.75,0,0,1,1.64-2.27c.72-.52,1.64-1.49,2.59-1.6a7.19,7.19,0,0,1,3.15.38,7.41,7.41,0,0,1,2.53,2C132.64,3.29,131.43,4.83,131.53,5.77Z"/><path class="cls-1" d="M94.05,18.93c.29,1.24.78,2.13.43,3.27s-1.29,1.62-2.19,2.46-1.18,2.49-2.43,2.78a7.31,7.31,0,0,1-3.67-.53c-1.18-.36-1.49-1.66-2.33-2.56s-3.15-1-3.44-2.25.57-2.76.92-3.9a7.59,7.59,0,0,1,1.83-3.29c.87-.82,1.94-2.27,3.19-2.55a9.57,9.57,0,0,1,4.26,0,10,10,0,0,1,3.69,2.22C95.12,15.44,93.76,17.69,94.05,18.93Z"/><path class="cls-1" d="M78.31,18.14c.29,1.24.78,2.13.44,3.27s-1.3,1.62-2.19,2.46-1.19,2.49-2.43,2.77a7.23,7.23,0,0,1-3.68-.52c-1.17-.36-1.49-1.67-2.33-2.56s-3.14-1-3.43-2.25.57-2.76.92-3.9a7.57,7.57,0,0,1,1.82-3.29c.87-.82,1.95-2.27,3.19-2.56a9.72,9.72,0,0,1,4.26,0,9.85,9.85,0,0,1,3.7,2.22C79.39,14.65,78,16.9,78.31,18.14Z"/><path class="cls-1" d="M62.67,18.93c.29,1.24.78,2.13.43,3.27s-1.29,1.62-2.18,2.46-1.19,2.49-2.43,2.78a7.33,7.33,0,0,1-3.68-.53c-1.17-.36-1.49-1.66-2.33-2.56s-3.14-1-3.43-2.25.57-2.76.91-3.9a7.59,7.59,0,0,1,1.83-3.29c.87-.82,2-2.27,3.19-2.55a9.57,9.57,0,0,1,4.26,0,10,10,0,0,1,3.69,2.22C63.75,15.44,62.38,17.69,62.67,18.93Z"/><path class="cls-1" d="M54.74,35c0,1.28.28,2.25-.31,3.28s-1.63,1.29-2.69,1.91-1.72,2.15-3,2.15A7.33,7.33,0,0,1,45.28,41c-1.06-.62-1.07-2-1.69-3s-2.83-1.69-2.83-3,1.18-2.55,1.77-3.58a7.51,7.51,0,0,1,2.53-2.8c1-.6,2.41-1.76,3.68-1.76a9.55,9.55,0,0,1,4.15,1,9.86,9.86,0,0,1,3.1,3C56.58,31.81,54.74,33.69,54.74,35Z"/><path class="cls-1" d="M85.73,34.07c0,1.28.28,2.25-.31,3.28s-1.63,1.3-2.69,1.91-1.72,2.15-3,2.15a7.33,7.33,0,0,1-3.46-1.34c-1.06-.62-1.07-2-1.69-3s-2.83-1.69-2.83-3,1.18-2.55,1.77-3.58a7.59,7.59,0,0,1,2.53-2.8c1-.6,2.41-1.76,3.68-1.76a9.55,9.55,0,0,1,4.15,1,9.87,9.87,0,0,1,3.1,3C87.57,30.92,85.73,32.8,85.73,34.07Z"/><path class="cls-2" d="M164.53,76.21H0L12.79,39.3a6.19,6.19,0,0,1,5.72-4.15l172.27-3.09v5.08l-17.41,5.38a5.66,5.66,0,0,0-5.15,5.64V72.53A3.69,3.69,0,0,1,164.53,76.21Z"/><path class="cls-2" d="M175.89,84.46v21.68H213.3V84.46Z"/><path class="cls-2" d="M27.52,89.06A15.24,15.24,0,0,0,12.28,104.3a15.94,15.94,0,0,0,.12,1.84H42.64a14,14,0,0,0,.12-1.84A15.24,15.24,0,0,0,27.52,89.06Z"/><path class="cls-3" d="M193.72,91.12a13.4,13.4,0,0,0-13.4,13.4,12.36,12.36,0,0,0,.1,1.62H207a12.36,12.36,0,0,0,.11-1.62A13.4,13.4,0,0,0,193.72,91.12Z"/><path d="M62.69,89.06A15.24,15.24,0,0,0,47.45,104.3a15.94,15.94,0,0,0,.12,1.84h1.75a14.56,14.56,0,0,1-.1-1.63,13.47,13.47,0,1,1,26.94,0,12.52,12.52,0,0,1-.1,1.63h1.75a14,14,0,0,0,.12-1.84A15.24,15.24,0,0,0,62.69,89.06Z"/><path class="cls-1" d="M210.42,76.21h13.36a1,1,0,0,1,1,1v29.18a1,1,0,0,1-1,1h-8.43a4.69,4.69,0,0,1-4.93-4.4Z"/><rect class="cls-4" x="142.17" y="89.71" width="31.13" height="15.27" rx="2.96" ry="2.96"/><rect class="cls-2" x="12.85" y="93.04" width="164.14" height="7.54"/><rect class="cls-2" x="5.06" y="80.17" width="163.82" height="5.58"/><path class="cls-2" d="M160.6,87.57H143.7a1.38,1.38,0,0,1-1.38-1.38V84.81H162v1.38A1.38,1.38,0,0,1,160.6,87.57Z"/><circle cx="193.72" cy="104.38" r="11.98"/><circle class="cls-3" cx="193.72" cy="104.38" r="8.39"/><circle cx="27.52" cy="104.38" r="11.98"/><circle class="cls-3" cx="27.52" cy="104.38" r="8.39"/><rect class="cls-2" x="12.85" y="85.75" width="101.28" height="5.44"/><rect class="cls-2" x="5.06" y="85.75" width="4.08" height="5.44"/><rect class="cls-2" x="148.48" y="85.56" width="8.05" height="5.63" rx="2.82" ry="2.82"/><path class="cls-2" d="M62.69,89.06A15.24,15.24,0,0,0,47.45,104.3a15.94,15.94,0,0,0,.12,1.84H77.81a14,14,0,0,0,.12-1.84A15.24,15.24,0,0,0,62.69,89.06Z"/><circle cx="62.69" cy="104.38" r="11.98"/><circle class="cls-3" cx="62.69" cy="104.38" r="8.39"/><path class="cls-1" d="M213.73,48.27c0-.75-.67-3.21-11-3.21v3.21Z"/><path class="cls-1" d="M221.63,82.48l-3.18-22.43V53.89a6.51,6.51,0,0,0-5.3-6.39H172.39v53.08h4.53a3.72,3.72,0,0,0,3.71-3.38l.49-5.33a5.52,5.52,0,0,1,5.5-5H202l4.27,4.27h17.57V84.67A2.18,2.18,0,0,0,221.63,82.48Z"/><path class="cls-2" d="M218.37,59.51l-2.27,0a.58.58,0,0,0-.57.69l2.63,14a.59.59,0,0,0,.58.48h1.79Z"/><path class="cls-5" d="M201.24,54.85H180.32"/><path d="M210,61.08c-.35-1-.41-1.52-1.89-1.52H187.58c-1.49,0-1.22,1.19-1.22,2v12.3a.82.82,0,0,0,.82.81h25.37s1.38,0,.71-1.64Z"/><path class="cls-2" d="M224.76,102.81h-1.94a3.15,3.15,0,0,1-3.15-3.16V81.27a3.15,3.15,0,0,1,3.15-3.15h1.94Z"/><rect class="cls-2" x="134.34" y="97.6" width="36.33" height="11.15" rx="5.58" ry="5.58"/><path class="cls-3" d="M9.14,71.15c2.19-6.6,6.18-18.05,8.39-24.38A6.93,6.93,0,0,1,24,42.13l138-2.45"/><polyline class="cls-3" points="23.38 48.27 35.91 48.27 27.52 71.15"/><polyline class="cls-3" points="54.66 48.27 67.19 48.27 58.8 71.15"/><polyline class="cls-3" points="85.93 48.27 98.47 48.27 90.07 71.15"/><polyline class="cls-3" points="117.21 48.27 129.74 48.27 121.35 71.15"/><polyline class="cls-3" points="148.49 48.27 161.02 48.27 152.63 71.15"/><path class="cls-2" d="M175.89,84.46v21.68H213.3V84.46Z"/><path class="cls-2" d="M27.52,89.06A15.24,15.24,0,0,0,12.28,104.3a15.94,15.94,0,0,0,.12,1.84H42.64a14,14,0,0,0,.12-1.84A15.24,15.24,0,0,0,27.52,89.06Z"/><path class="cls-3" d="M193.72,91.12a13.4,13.4,0,0,0-13.4,13.4,12.36,12.36,0,0,0,.1,1.62H207a12.36,12.36,0,0,0,.11-1.62A13.4,13.4,0,0,0,193.72,91.12Z"/><path d="M62.69,89.06A15.24,15.24,0,0,0,47.45,104.3a15.94,15.94,0,0,0,.12,1.84h1.75a14.56,14.56,0,0,1-.1-1.63,13.47,13.47,0,1,1,26.94,0,12.52,12.52,0,0,1-.1,1.63h1.75a14,14,0,0,0,.12-1.84A15.24,15.24,0,0,0,62.69,89.06Z"/><path class="cls-6" d="M210.42,76.21h13.36a1,1,0,0,1,1,1v29.18a1,1,0,0,1-1,1h-8.43a4.69,4.69,0,0,1-4.93-4.4Z"/><rect class="cls-4" x="142.17" y="89.71" width="31.13" height="15.27" rx="2.96" ry="2.96"/><rect class="cls-2" x="12.85" y="93.04" width="164.14" height="7.54"/><rect class="cls-2" x="5.06" y="80.17" width="163.82" height="5.58"/><path class="cls-2" d="M160.6,87.57H143.7a1.38,1.38,0,0,1-1.38-1.38V84.81H162v1.38A1.38,1.38,0,0,1,160.6,87.57Z"/><circle cx="193.72" cy="104.38" r="11.98"/><circle class="cls-3" cx="193.72" cy="104.38" r="8.39"/><circle cx="27.52" cy="104.38" r="11.98"/><circle class="cls-3" cx="27.52" cy="104.38" r="8.39"/><rect class="cls-2" x="12.85" y="85.75" width="101.28" height="5.44"/><rect class="cls-2" x="5.06" y="85.75" width="4.08" height="5.44"/><rect class="cls-2" x="148.48" y="85.56" width="8.05" height="5.63" rx="2.82" ry="2.82"/><path class="cls-2" d="M62.69,89.06A15.24,15.24,0,0,0,47.45,104.3a15.94,15.94,0,0,0,.12,1.84H77.81a14,14,0,0,0,.12-1.84A15.24,15.24,0,0,0,62.69,89.06Z"/><circle cx="62.69" cy="104.38" r="11.98"/><circle class="cls-3" cx="62.69" cy="104.38" r="8.39"/><path class="cls-6" d="M213.73,48.27c0-.75-.67-3.21-11-3.21v3.21Z"/><path class="cls-6" d="M221.63,82.48l-3.18-22.43V53.89a6.51,6.51,0,0,0-5.3-6.39H172.39v53.08h4.53a3.72,3.72,0,0,0,3.71-3.38l.49-5.33a5.52,5.52,0,0,1,5.5-5H202l4.27,4.27h17.57V84.67A2.18,2.18,0,0,0,221.63,82.48Z"/><path class="cls-2" d="M218.37,59.51l-2.27,0a.58.58,0,0,0-.57.69l2.63,14a.59.59,0,0,0,.58.48h1.79Z"/><path class="cls-5" d="M201.24,54.85H180.32"/><path d="M210,61.08c-.35-1-.41-1.52-1.89-1.52H187.58c-1.49,0-1.22,1.19-1.22,2v12.3a.82.82,0,0,0,.82.81h25.37s1.38,0,.71-1.64Z"/><path class="cls-2" d="M224.76,102.81h-1.94a3.15,3.15,0,0,1-3.15-3.16V81.27a3.15,3.15,0,0,1,3.15-3.15h1.94Z"/><rect class="cls-2" x="134.34" y="97.6" width="36.33" height="11.15" rx="5.58" ry="5.58"/><path class="cls-3" d="M9.14,71.15c2.19-6.6,6.18-18.05,8.39-24.38A6.93,6.93,0,0,1,24,42.13l138-2.45"/><polyline class="cls-3" points="23.38 48.27 35.91 48.27 27.52 71.15"/><polyline class="cls-3" points="54.66 48.27 67.19 48.27 58.8 71.15"/><polyline class="cls-3" points="85.93 48.27 98.47 48.27 90.07 71.15"/><polyline class="cls-3" points="117.21 48.27 129.74 48.27 121.35 71.15"/><polyline class="cls-3" points="148.49 48.27 161.02 48.27 152.63 71.15"/></svg>