<svg id="Layer_2" data-name="Layer 2" xmlns="http://www.w3.org/2000/svg" viewBox="0 0 706.14 107.54"><defs><style>.cls-1{fill:#c0e74d;}.cls-2{fill:none;stroke:#017439;stroke-miterlimit:10;stroke-width:2px;}</style></defs><title>IECS_illustrated_websiteLayout</title><path class="cls-1" d="M1.45,3.1c93.17-2,183.5,24.78,271.89,51.18,86.93,26,175.67,53.39,267.28,53.26,55.45-.08,110.81-11.91,164.45-25,1.88-.46,1.08-3.35-.8-2.89-48.59,11.85-98.73,22.83-148.87,24.61-45.7,1.62-91.31-4.21-136-13.62-90.25-19-176.83-52-266.66-72.65C103.17,6.58,52.47-1,1.45.1c-1.93,0-1.94,3,0,3Z"/><path class="cls-1" d="M599.86,101.76q28.78-4.24,56.8-9.94C591.11,52.76,506.86,22.33,415,22.33c-54.14,0-105.63,10.57-152.2,27.23C374.73,82.9,486.05,118.53,599.86,101.76Z"/><circle class="cls-2" cx="511.96" cy="24.89" r="15.79"/><polyline class="cls-2" points="511.96 67.33 511.96 26.46 517.91 23.34"/><polyline class="cls-2" points="511.96 26.33 511.96 21.87 507.92 17.84"/></svg>