<svg id="Layer_2" data-name="Layer 2" xmlns="http://www.w3.org/2000/svg" viewBox="0 0 1119.41 165.71"><defs><style>.cls-1{fill:#ccc;}.cls-2,.cls-4{fill:#001903;}.cls-3,.cls-5{fill:none;}.cls-3{stroke:#fff;}.cls-3,.cls-4{stroke-miterlimit:10;}.cls-4{stroke:#000;}.cls-5{stroke:#001903;stroke-linecap:round;stroke-linejoin:round;}.cls-6{fill:#999;}</style></defs><title>IECS_illustrated_assets</title><path class="cls-1" d="M55.89,50.42c0,1.82.4,3.2-.45,4.67s-2.32,1.84-3.83,2.72-2.45,3.06-4.27,3.06S43.88,59.81,42.42,59,40.89,56.17,40,54.65s-4-2.41-4-4.23,1.68-3.64,2.53-5.11a10.87,10.87,0,0,1,3.6-4c1.46-.85,3.43-2.51,5.24-2.51a13.66,13.66,0,0,1,5.91,1.37,13.94,13.94,0,0,1,4.41,4.27C58.51,45.93,55.89,48.6,55.89,50.42Z"/><path class="cls-1" d="M100,49.15c0,1.82.4,3.21-.45,4.68s-2.31,1.84-3.83,2.71S93.3,59.6,91.48,59.6,88,58.54,86.55,57.69,85,54.9,84.14,53.39s-4-2.42-4-4.24,1.68-3.63,2.52-5.1a10.8,10.8,0,0,1,3.6-4c1.47-.85,3.43-2.51,5.25-2.51a13.68,13.68,0,0,1,5.91,1.36,14.19,14.19,0,0,1,4.41,4.28C102.64,44.66,100,47.34,100,49.15Z"/><path class="cls-1" d="M144.16,47.89c0,1.82.39,3.2-.45,4.67s-2.32,1.84-3.83,2.72-2.45,3.06-4.27,3.06-3.46-1.06-4.93-1.91-1.53-2.79-2.4-4.31-4-2.41-4-4.23,1.68-3.64,2.53-5.11a10.84,10.84,0,0,1,3.59-4c1.47-.85,3.43-2.51,5.25-2.51a13.69,13.69,0,0,1,5.91,1.37,14.16,14.16,0,0,1,4.41,4.27C146.78,43.4,144.16,46.07,144.16,47.89Z"/><path class="cls-1" d="M166.22,47.26c0,1.81.4,3.2-.45,4.67s-2.31,1.84-3.83,2.71-2.45,3.07-4.26,3.07-3.46-1.07-4.93-1.92-1.53-2.79-2.41-4.3-4-2.42-4-4.23,1.68-3.64,2.52-5.11a10.88,10.88,0,0,1,3.6-4c1.47-.85,3.43-2.51,5.25-2.51A13.86,13.86,0,0,1,163.59,37,14.19,14.19,0,0,1,168,41.3C168.84,42.77,166.22,45.44,166.22,47.26Z"/><path class="cls-1" d="M188.29,46.62c0,1.82.4,3.21-.45,4.68S185.52,53.14,184,54s-2.45,3.06-4.27,3.06-3.46-1.06-4.93-1.91-1.52-2.79-2.4-4.3-4-2.42-4-4.24,1.68-3.64,2.53-5.1a10.82,10.82,0,0,1,3.6-4c1.46-.84,3.43-2.5,5.24-2.5a13.65,13.65,0,0,1,5.91,1.36,14.05,14.05,0,0,1,4.41,4.27C190.91,42.13,188.29,44.81,188.29,46.62Z"/><path class="cls-1" d="M210.36,46c0,1.82.39,3.21-.46,4.67s-2.31,1.84-3.83,2.72-2.44,3.06-4.26,3.06-3.46-1.06-4.93-1.91-1.53-2.79-2.4-4.31-4-2.41-4-4.23,1.68-3.64,2.53-5.11a10.84,10.84,0,0,1,3.59-4c1.47-.85,3.43-2.51,5.25-2.51a13.69,13.69,0,0,1,5.91,1.37A14.16,14.16,0,0,1,212.13,40C213,41.5,210.36,44.17,210.36,46Z"/><path class="cls-1" d="M232.42,45.36c0,1.82.4,3.2-.45,4.67s-2.31,1.84-3.83,2.72-2.45,3.06-4.26,3.06-3.46-1.06-4.93-1.91-1.53-2.8-2.41-4.31-4-2.41-4-4.23,1.68-3.64,2.52-5.11a11,11,0,0,1,3.6-4c1.47-.85,3.43-2.51,5.25-2.51a13.72,13.72,0,0,1,5.91,1.37,14,14,0,0,1,4.4,4.27C235,40.87,232.42,43.54,232.42,45.36Z"/><path class="cls-1" d="M201.26,25.82c0,1.82.4,3.21-.45,4.68s-2.32,1.84-3.83,2.71-2.45,3.06-4.26,3.06-3.47-1.06-4.93-1.91-1.53-2.79-2.41-4.3-4-2.42-4-4.24,1.67-3.63,2.52-5.1a10.88,10.88,0,0,1,3.6-4c1.47-.85,3.43-2.51,5.25-2.51a13.72,13.72,0,0,1,5.91,1.36,14,14,0,0,1,4.4,4.28C203.88,21.33,201.26,24,201.26,25.82Z"/><path class="cls-1" d="M177.37,26.77c.2,1.81.74,3.15,0,4.7s-2.1,2.07-3.51,3.11-2.11,3.3-3.91,3.5-3.56-.69-5.11-1.37-1.82-2.62-2.85-4-4.28-2-4.47-3.77,1.28-3.8,2-5.35a10.8,10.8,0,0,1,3.15-4.34c1.37-1,3.14-2.87,4.95-3.06a13.56,13.56,0,0,1,6,.72,14.1,14.1,0,0,1,4.84,3.78C179.49,22,177.18,25,177.37,26.77Z"/><path class="cls-1" d="M155.53,26.77c.19,1.81.74,3.15.05,4.7s-2.1,2.07-3.51,3.11-2.11,3.3-3.92,3.5-3.55-.69-5.1-1.37-1.82-2.62-2.85-4-4.28-2-4.47-3.77,1.28-3.8,2-5.35a10.8,10.8,0,0,1,3.15-4.34c1.37-1,3.14-2.87,4.95-3.06a13.58,13.58,0,0,1,6,.72,14.1,14.1,0,0,1,4.84,3.78C157.65,22,155.33,25,155.53,26.77Z"/><path class="cls-1" d="M122.09,8.52c.15,1.44.59,2.51,0,3.74s-1.68,1.66-2.81,2.49-1.67,2.63-3.11,2.79a8.38,8.38,0,0,1-4.08-1.09c-1.27-.57-1.45-2.09-2.27-3.21s-3.41-1.57-3.57-3,1-3,1.57-4.26a8.66,8.66,0,0,1,2.51-3.47c1.09-.8,2.51-2.28,3.95-2.44a11,11,0,0,1,4.8.58,11.28,11.28,0,0,1,3.86,3C123.78,4.73,121.93,7.08,122.09,8.52Z"/><path class="cls-1" d="M141.25,9.12c.14,1.35.55,2.34,0,3.49s-1.56,1.55-2.61,2.32-1.57,2.46-2.91,2.61a7.62,7.62,0,0,1-3.8-1c-1.19-.52-1.36-1.94-2.13-3s-3.18-1.46-3.32-2.81.95-2.82,1.46-4a8.07,8.07,0,0,1,2.34-3.23c1-.75,2.34-2.13,3.69-2.28a10.3,10.3,0,0,1,4.48.54,10.53,10.53,0,0,1,3.6,2.81C142.83,5.59,141.1,7.78,141.25,9.12Z"/><path class="cls-1" d="M164.41,9.12c.15,1.35.55,2.34,0,3.49s-1.56,1.55-2.61,2.32-1.57,2.46-2.91,2.61a7.62,7.62,0,0,1-3.8-1c-1.19-.52-1.36-1.94-2.13-3s-3.18-1.46-3.32-2.81.95-2.82,1.46-4a8.07,8.07,0,0,1,2.34-3.23c1-.75,2.34-2.13,3.69-2.28a10.3,10.3,0,0,1,4.48.54,10.53,10.53,0,0,1,3.6,2.81C166,5.59,164.27,7.78,164.41,9.12Z"/><path class="cls-1" d="M187.31,8.22c.14,1.34.55,2.34,0,3.49s-1.57,1.55-2.62,2.32-1.57,2.46-2.91,2.6a7.62,7.62,0,0,1-3.8-1c-1.19-.52-1.36-1.94-2.13-3s-3.18-1.47-3.32-2.81,1-2.83,1.46-4a8,8,0,0,1,2.34-3.23c1-.75,2.34-2.14,3.69-2.28a10.13,10.13,0,0,1,4.48.54,10.53,10.53,0,0,1,3.6,2.81C188.89,4.69,187.16,6.87,187.31,8.22Z"/><path class="cls-1" d="M133.93,27c.41,1.77,1.11,3,.62,4.65s-1.84,2.32-3.12,3.51-1.69,3.54-3.46,4-3.61-.25-5.23-.74-2.12-2.38-3.32-3.65-4.48-1.44-4.89-3.21.81-3.93,1.31-5.55a10.75,10.75,0,0,1,2.6-4.69c1.23-1.16,2.77-3.22,4.54-3.63a13.48,13.48,0,0,1,6.06,0,14.17,14.17,0,0,1,5.27,3.16C135.46,22,133.52,25.19,133.93,27Z"/><path class="cls-1" d="M111.52,25.83c.41,1.77,1.11,3,.62,4.65S110.3,32.8,109,34s-1.69,3.53-3.46,3.94-3.61-.25-5.23-.74S98.21,34.82,97,33.55s-4.48-1.44-4.89-3.21.81-3.92,1.31-5.54A10.78,10.78,0,0,1,96,20.1c1.23-1.16,2.77-3.22,4.54-3.63a13.81,13.81,0,0,1,6.07,0,14.11,14.11,0,0,1,5.26,3.17C113.06,20.86,111.11,24.06,111.52,25.83Z"/><path class="cls-1" d="M89.25,27c.41,1.77,1.11,3,.61,4.65S88,33.93,86.75,35.12s-1.69,3.54-3.46,4-3.61-.25-5.24-.74S75.93,36,74.74,34.68s-4.48-1.44-4.89-3.21.81-3.93,1.3-5.55a10.85,10.85,0,0,1,2.6-4.69C75,20.07,76.52,18,78.29,17.6a13.52,13.52,0,0,1,6.07,0,14.13,14.13,0,0,1,5.26,3.16C90.78,22,88.83,25.19,89.25,27Z"/><path class="cls-1" d="M78,49.79c0,1.81.39,3.2-.45,4.67s-2.32,1.84-3.83,2.72-2.45,3.06-4.27,3.06S66,59.17,64.48,58.33,63,55.53,62.08,54s-4-2.42-4-4.23,1.68-3.64,2.53-5.11a10.76,10.76,0,0,1,3.59-4c1.47-.85,3.43-2.51,5.25-2.51a13.83,13.83,0,0,1,5.91,1.36,14.19,14.19,0,0,1,4.41,4.28C80.58,45.3,78,48,78,49.79Z"/><path class="cls-1" d="M122.09,48.52c0,1.82.4,3.21-.45,4.67s-2.32,1.84-3.83,2.72S115.36,59,113.54,59s-3.46-1.06-4.92-1.91-1.53-2.79-2.41-4.31-4-2.41-4-4.23,1.68-3.64,2.53-5.1a10.82,10.82,0,0,1,3.6-4c1.46-.85,3.43-2.51,5.24-2.51a13.66,13.66,0,0,1,5.91,1.37,14.05,14.05,0,0,1,4.41,4.27C124.71,44,122.09,46.7,122.09,48.52Z"/><path class="cls-2" d="M234.3,108.53H0L18.21,56a8.8,8.8,0,0,1,8.15-5.91l245.32-4.4v7.23l-24.79,7.66a8.07,8.07,0,0,0-7.34,8v34.7A5.25,5.25,0,0,1,234.3,108.53Z"/><path class="cls-2" d="M250.48,120.27v30.89h53.27V120.27Z"/><path class="cls-2" d="M39.19,126.83a21.7,21.7,0,0,0-21.7,21.69,20.9,20.9,0,0,0,.17,2.64H60.73a23,23,0,0,0,.16-2.64A21.69,21.69,0,0,0,39.19,126.83Z"/><path class="cls-3" d="M275.87,129.76a19.09,19.09,0,0,0-19.09,19.08,19.65,19.65,0,0,0,.15,2.32H294.8a19.65,19.65,0,0,0,.15-2.32A19.08,19.08,0,0,0,275.87,129.76Z"/><path d="M89.28,126.83a21.69,21.69,0,0,0-21.7,21.69,23,23,0,0,0,.16,2.64h2.5a20,20,0,0,1-.15-2.33,19.19,19.19,0,0,1,38.37,0,20,20,0,0,1-.14,2.33h2.49a20.9,20.9,0,0,0,.17-2.64A21.7,21.7,0,0,0,89.28,126.83Z"/><path class="cls-1" d="M299.65,108.53h19a1.39,1.39,0,0,1,1.39,1.39v41.56a1.39,1.39,0,0,1-1.39,1.39h-12c-3.89,0-7-2.8-7-6.26Z"/><rect class="cls-4" x="202.46" y="127.76" width="44.33" height="21.74" rx="4.22" ry="4.22"/><rect class="cls-2" x="18.29" y="132.5" width="233.75" height="10.74"/><rect class="cls-2" x="7.21" y="114.17" width="233.29" height="7.95"/><path class="cls-2" d="M202.67,120.78h28a0,0,0,0,1,0,0v2a2,2,0,0,1-2,2H204.64a2,2,0,0,1-2-2v-2A0,0,0,0,1,202.67,120.78Z"/><circle cx="275.87" cy="148.65" r="17.07"/><circle class="cls-3" cx="275.87" cy="148.65" r="11.95"/><circle cx="39.19" cy="148.65" r="17.07"/><circle class="cls-3" cx="39.19" cy="148.65" r="11.95"/><rect class="cls-2" x="18.29" y="122.12" width="144.23" height="7.74"/><rect class="cls-2" x="7.21" y="122.12" width="5.81" height="7.74"/><rect class="cls-2" x="211.45" y="121.84" width="11.46" height="8.02" rx="4.01" ry="4.01"/><path class="cls-2" d="M89.28,126.83a21.69,21.69,0,0,0-21.7,21.69,23,23,0,0,0,.16,2.64h43.07a20.9,20.9,0,0,0,.17-2.64A21.7,21.7,0,0,0,89.28,126.83Z"/><circle cx="89.28" cy="148.65" r="17.07"/><circle class="cls-3" cx="89.28" cy="148.65" r="11.95"/><path class="cls-1" d="M304.37,68.74c0-1.06-1-4.57-15.68-4.57v4.57Z"/><path class="cls-1" d="M315.62,117.46l-4.53-31.95V76.74a9.27,9.27,0,0,0-7.54-9.1H245.49v75.6H252a5.29,5.29,0,0,0,5.27-4.82l.7-7.59a7.87,7.87,0,0,1,7.83-7.15h21.87l6.08,6.08h25v-9.19A3.11,3.11,0,0,0,315.62,117.46Z"/><path class="cls-2" d="M311,84.74l-3.23,0a.84.84,0,0,0-.82,1l3.74,19.92a.85.85,0,0,0,.83.69H314Z"/><path class="cls-5" d="M286.57,78.1H256.78"/><path d="M299.08,87c-.51-1.48-.59-2.18-2.71-2.18H267.13c-2.12,0-1.74,1.71-1.74,2.9v17.51a1.15,1.15,0,0,0,1.16,1.16h36.14s2,0,1-2.33Z"/><path class="cls-2" d="M317.31,111.25h2.76a0,0,0,0,1,0,0V146.4a0,0,0,0,1,0,0h-2.76a4.49,4.49,0,0,1-4.49-4.49V115.74A4.49,4.49,0,0,1,317.31,111.25Z"/><rect class="cls-2" x="191.31" y="138.99" width="51.74" height="15.88" rx="7.94" ry="7.94"/><path class="cls-3" d="M13,101.33c3.12-9.41,8.8-25.71,12-34.73A9.86,9.86,0,0,1,34.11,60L230.68,56.5"/><polyline class="cls-3" points="33.29 68.74 51.14 68.74 39.19 101.33"/><polyline class="cls-3" points="77.83 68.74 95.68 68.74 83.73 101.33"/><polyline class="cls-3" points="122.37 68.74 140.22 68.74 128.27 101.33"/><polyline class="cls-3" points="166.91 68.74 184.76 68.74 172.81 101.33"/><polyline class="cls-3" points="211.45 68.74 229.3 68.74 217.35 101.33"/><path class="cls-2" d="M250.48,120.27v30.89h53.27V120.27Z"/><path class="cls-2" d="M39.19,126.83a21.7,21.7,0,0,0-21.7,21.69,20.9,20.9,0,0,0,.17,2.64H60.73a23,23,0,0,0,.16-2.64A21.69,21.69,0,0,0,39.19,126.83Z"/><path class="cls-3" d="M275.87,129.76a19.09,19.09,0,0,0-19.09,19.08,19.65,19.65,0,0,0,.15,2.32H294.8a19.65,19.65,0,0,0,.15-2.32A19.08,19.08,0,0,0,275.87,129.76Z"/><path d="M89.28,126.83a21.69,21.69,0,0,0-21.7,21.69,23,23,0,0,0,.16,2.64h2.5a20,20,0,0,1-.15-2.33,19.19,19.19,0,0,1,38.37,0,20,20,0,0,1-.14,2.33h2.49a20.9,20.9,0,0,0,.17-2.64A21.7,21.7,0,0,0,89.28,126.83Z"/><path class="cls-6" d="M299.65,108.53h19a1.39,1.39,0,0,1,1.39,1.39v41.56a1.39,1.39,0,0,1-1.39,1.39h-12c-3.89,0-7-2.8-7-6.26Z"/><rect class="cls-4" x="202.46" y="127.76" width="44.33" height="21.74" rx="4.22" ry="4.22"/><rect class="cls-2" x="18.29" y="132.5" width="233.75" height="10.74"/><rect class="cls-2" x="7.21" y="114.17" width="233.29" height="7.95"/><path class="cls-2" d="M202.67,120.78h28a0,0,0,0,1,0,0v2a2,2,0,0,1-2,2H204.64a2,2,0,0,1-2-2v-2A0,0,0,0,1,202.67,120.78Z"/><circle cx="275.87" cy="148.65" r="17.07"/><circle class="cls-3" cx="275.87" cy="148.65" r="11.95"/><circle cx="39.19" cy="148.65" r="17.07"/><circle class="cls-3" cx="39.19" cy="148.65" r="11.95"/><rect class="cls-2" x="18.29" y="122.12" width="144.23" height="7.74"/><rect class="cls-2" x="7.21" y="122.12" width="5.81" height="7.74"/><rect class="cls-2" x="211.45" y="121.84" width="11.46" height="8.02" rx="4.01" ry="4.01"/><path class="cls-2" d="M89.28,126.83a21.69,21.69,0,0,0-21.7,21.69,23,23,0,0,0,.16,2.64h43.07a20.9,20.9,0,0,0,.17-2.64A21.7,21.7,0,0,0,89.28,126.83Z"/><circle cx="89.28" cy="148.65" r="17.07"/><circle class="cls-3" cx="89.28" cy="148.65" r="11.95"/><path class="cls-6" d="M304.37,68.74c0-1.06-1-4.57-15.68-4.57v4.57Z"/><path class="cls-6" d="M315.62,117.46l-4.53-31.95V76.74a9.27,9.27,0,0,0-7.54-9.1H245.49v75.6H252a5.29,5.29,0,0,0,5.27-4.82l.7-7.59a7.87,7.87,0,0,1,7.83-7.15h21.87l6.08,6.08h25v-9.19A3.11,3.11,0,0,0,315.62,117.46Z"/><path class="cls-2" d="M311,84.74l-3.23,0a.84.84,0,0,0-.82,1l3.74,19.92a.85.85,0,0,0,.83.69H314Z"/><path class="cls-5" d="M286.57,78.1H256.78"/><path d="M299.08,87c-.51-1.48-.59-2.18-2.71-2.18H267.13c-2.12,0-1.74,1.71-1.74,2.9v17.51a1.15,1.15,0,0,0,1.16,1.16h36.14s2,0,1-2.33Z"/><path class="cls-2" d="M317.31,111.25h2.76a0,0,0,0,1,0,0V146.4a0,0,0,0,1,0,0h-2.76a4.49,4.49,0,0,1-4.49-4.49V115.74A4.49,4.49,0,0,1,317.31,111.25Z"/><rect class="cls-2" x="191.31" y="138.99" width="51.74" height="15.88" rx="7.94" ry="7.94"/><path class="cls-3" d="M13,101.33c3.12-9.41,8.8-25.71,12-34.73A9.86,9.86,0,0,1,34.11,60L230.68,56.5"/><polyline class="cls-3" points="33.29 68.74 51.14 68.74 39.19 101.33"/><polyline class="cls-3" points="77.83 68.74 95.68 68.74 83.73 101.33"/><polyline class="cls-3" points="122.37 68.74 140.22 68.74 128.27 101.33"/><polyline class="cls-3" points="166.91 68.74 184.76 68.74 172.81 101.33"/><polyline class="cls-3" points="211.45 68.74 229.3 68.74 217.35 101.33"/><path class="cls-1" d="M464.21,50.42c0,1.82.4,3.2-.45,4.67s-2.31,1.84-3.83,2.72-2.44,3.06-4.26,3.06-3.46-1.06-4.93-1.91-1.53-2.79-2.4-4.31-4-2.41-4-4.23,1.68-3.64,2.53-5.11a10.84,10.84,0,0,1,3.59-4c1.47-.85,3.43-2.51,5.25-2.51a13.69,13.69,0,0,1,5.91,1.37A14.16,14.16,0,0,1,466,44.46C466.84,45.93,464.21,48.6,464.21,50.42Z"/><path class="cls-1" d="M508.35,49.15c0,1.82.4,3.21-.45,4.68s-2.32,1.84-3.83,2.71-2.45,3.06-4.27,3.06-3.46-1.06-4.93-1.91-1.53-2.79-2.4-4.3-4-2.42-4-4.24,1.68-3.63,2.53-5.1a10.69,10.69,0,0,1,3.59-4c1.47-.85,3.44-2.51,5.25-2.51a13.68,13.68,0,0,1,5.91,1.36,14.08,14.08,0,0,1,4.41,4.28C511,44.66,508.35,47.34,508.35,49.15Z"/><path class="cls-1" d="M552.48,47.89c0,1.82.4,3.2-.45,4.67s-2.32,1.84-3.83,2.72-2.45,3.06-4.26,3.06-3.47-1.06-4.93-1.91-1.53-2.79-2.41-4.31-4-2.41-4-4.23,1.68-3.64,2.53-5.11a10.87,10.87,0,0,1,3.6-4c1.47-.85,3.43-2.51,5.25-2.51a13.72,13.72,0,0,1,5.91,1.37,14,14,0,0,1,4.4,4.27C555.1,43.4,552.48,46.07,552.48,47.89Z"/><path class="cls-1" d="M574.55,47.26c0,1.81.4,3.2-.45,4.67s-2.32,1.84-3.83,2.71-2.45,3.07-4.27,3.07-3.46-1.07-4.93-1.92-1.53-2.79-2.4-4.3-4-2.42-4-4.23,1.68-3.64,2.53-5.11a10.76,10.76,0,0,1,3.59-4c1.47-.85,3.44-2.51,5.25-2.51A13.83,13.83,0,0,1,571.91,37a14.08,14.08,0,0,1,4.41,4.28C577.17,42.77,574.55,45.44,574.55,47.26Z"/><path class="cls-1" d="M596.61,46.62c0,1.82.4,3.21-.45,4.68s-2.31,1.84-3.83,2.71-2.44,3.06-4.26,3.06-3.46-1.06-4.93-1.91-1.53-2.79-2.41-4.3-4-2.42-4-4.24,1.68-3.64,2.53-5.1a10.79,10.79,0,0,1,3.59-4c1.47-.84,3.43-2.5,5.25-2.5A13.68,13.68,0,0,1,594,36.39a14.27,14.27,0,0,1,4.41,4.27C599.24,42.13,596.61,44.81,596.61,46.62Z"/><path class="cls-1" d="M618.68,46c0,1.82.4,3.21-.45,4.67s-2.32,1.84-3.83,2.72-2.45,3.06-4.26,3.06-3.47-1.06-4.93-1.91-1.53-2.79-2.41-4.31-4-2.41-4-4.23,1.68-3.64,2.53-5.11a10.87,10.87,0,0,1,3.6-4c1.47-.85,3.43-2.51,5.25-2.51a13.65,13.65,0,0,1,5.9,1.37A13.94,13.94,0,0,1,620.45,40C621.3,41.5,618.68,44.17,618.68,46Z"/><path class="cls-1" d="M640.75,45.36c0,1.82.39,3.2-.45,4.67s-2.32,1.84-3.83,2.72-2.45,3.06-4.27,3.06-3.46-1.06-4.93-1.91-1.53-2.8-2.4-4.31-4-2.41-4-4.23,1.68-3.64,2.53-5.11a10.84,10.84,0,0,1,3.59-4c1.47-.85,3.43-2.51,5.25-2.51a13.69,13.69,0,0,1,5.91,1.37,14,14,0,0,1,4.41,4.27C643.37,40.87,640.75,43.54,640.75,45.36Z"/><path class="cls-1" d="M609.59,25.82c0,1.82.39,3.21-.46,4.68s-2.31,1.84-3.83,2.71-2.44,3.06-4.26,3.06-3.46-1.06-4.93-1.91-1.53-2.79-2.4-4.3-4-2.42-4-4.24,1.68-3.63,2.53-5.1a10.76,10.76,0,0,1,3.59-4c1.47-.85,3.43-2.51,5.25-2.51A13.68,13.68,0,0,1,607,15.59a14.19,14.19,0,0,1,4.41,4.28C612.21,21.33,609.59,24,609.59,25.82Z"/><path class="cls-1" d="M585.7,26.77c.19,1.81.73,3.15,0,4.7s-2.11,2.07-3.52,3.11-2.1,3.3-3.91,3.5-3.56-.69-5.11-1.37-1.82-2.62-2.85-4-4.27-2-4.47-3.77,1.28-3.8,2-5.35A10.8,10.8,0,0,1,571,19.22c1.36-1,3.14-2.87,4.94-3.06a13.61,13.61,0,0,1,6,.72,14.19,14.19,0,0,1,4.84,3.78C587.82,22,585.5,25,585.7,26.77Z"/><path class="cls-1" d="M563.85,26.77c.2,1.81.74,3.15.06,4.7s-2.11,2.07-3.52,3.11-2.1,3.3-3.91,3.5-3.56-.69-5.11-1.37-1.82-2.62-2.85-4-4.27-2-4.47-3.77,1.28-3.8,2-5.35a10.78,10.78,0,0,1,3.14-4.34c1.37-1,3.15-2.87,5-3.06a13.56,13.56,0,0,1,6,.72A14.23,14.23,0,0,1,565,20.66C566,22,563.66,25,563.85,26.77Z"/><path class="cls-1" d="M530.41,8.52c.16,1.44.59,2.51,0,3.74s-1.68,1.66-2.8,2.49-1.68,2.63-3.12,2.79a8.34,8.34,0,0,1-4.07-1.09c-1.28-.57-1.46-2.09-2.28-3.21s-3.41-1.57-3.56-3,1-3,1.56-4.26a8.68,8.68,0,0,1,2.52-3.47c1.09-.8,2.5-2.28,3.94-2.44a11,11,0,0,1,4.81.58,11.47,11.47,0,0,1,3.86,3C532.11,4.73,530.26,7.08,530.41,8.52Z"/><path class="cls-1" d="M549.57,9.12c.14,1.35.55,2.34,0,3.49S548,14.16,547,14.93s-1.56,2.46-2.91,2.61a7.65,7.65,0,0,1-3.8-1c-1.19-.52-1.35-1.94-2.12-3s-3.18-1.46-3.33-2.81.95-2.82,1.47-4a8,8,0,0,1,2.34-3.23c1-.75,2.34-2.13,3.68-2.28a10.28,10.28,0,0,1,4.48.54,10.43,10.43,0,0,1,3.6,2.81C551.15,5.59,549.42,7.78,549.57,9.12Z"/><path class="cls-1" d="M572.74,9.12c.14,1.35.55,2.34,0,3.49s-1.57,1.55-2.62,2.32-1.56,2.46-2.91,2.61a7.65,7.65,0,0,1-3.8-1c-1.19-.52-1.35-1.94-2.12-3s-3.18-1.46-3.33-2.81,1-2.82,1.47-4a8,8,0,0,1,2.34-3.23c1-.75,2.34-2.13,3.68-2.28a10.28,10.28,0,0,1,4.48.54,10.43,10.43,0,0,1,3.6,2.81C574.32,5.59,572.59,7.78,572.74,9.12Z"/><path class="cls-1" d="M595.63,8.22c.15,1.34.55,2.34,0,3.49s-1.57,1.55-2.62,2.32-1.56,2.46-2.91,2.6a7.67,7.67,0,0,1-3.8-1c-1.19-.52-1.35-1.94-2.12-3s-3.18-1.47-3.33-2.81,1-2.83,1.47-4A7.91,7.91,0,0,1,584.7,2.6c1-.75,2.34-2.14,3.68-2.28a10.12,10.12,0,0,1,4.48.54,10.56,10.56,0,0,1,3.61,2.81C597.21,4.69,595.49,6.87,595.63,8.22Z"/><path class="cls-1" d="M542.25,27c.41,1.77,1.12,3,.62,4.65s-1.84,2.32-3.11,3.51-1.69,3.54-3.46,4-3.62-.25-5.24-.74-2.12-2.38-3.32-3.65-4.47-1.44-4.89-3.21.82-3.93,1.31-5.55a10.75,10.75,0,0,1,2.6-4.69c1.24-1.16,2.77-3.22,4.54-3.63a13.52,13.52,0,0,1,6.07,0,14.21,14.21,0,0,1,5.26,3.16C543.79,22,541.84,25.19,542.25,27Z"/><path class="cls-1" d="M519.84,25.83c.42,1.77,1.12,3,.62,4.65s-1.84,2.32-3.11,3.52-1.69,3.53-3.46,3.94-3.61-.25-5.24-.74-2.12-2.38-3.31-3.65-4.48-1.44-4.89-3.21.81-3.92,1.3-5.54a10.88,10.88,0,0,1,2.6-4.7c1.24-1.16,2.77-3.22,4.54-3.63a13.81,13.81,0,0,1,6.07,0,14,14,0,0,1,5.26,3.17C521.38,20.86,519.43,24.06,519.84,25.83Z"/><path class="cls-1" d="M497.57,27c.41,1.77,1.11,3,.62,4.65s-1.84,2.32-3.12,3.51-1.69,3.54-3.46,4-3.61-.25-5.23-.74-2.12-2.38-3.32-3.65-4.48-1.44-4.89-3.21.81-3.93,1.31-5.55a10.75,10.75,0,0,1,2.6-4.69c1.23-1.16,2.77-3.22,4.54-3.63a13.48,13.48,0,0,1,6.06,0A14.17,14.17,0,0,1,498,20.75C499.1,22,497.16,25.19,497.57,27Z"/><path class="cls-1" d="M486.28,49.79c0,1.81.4,3.2-.45,4.67s-2.32,1.84-3.83,2.72-2.45,3.06-4.26,3.06-3.47-1.07-4.93-1.91-1.53-2.8-2.41-4.31-4-2.42-4-4.23,1.68-3.64,2.53-5.11a10.79,10.79,0,0,1,3.6-4c1.47-.85,3.43-2.51,5.25-2.51a13.86,13.86,0,0,1,5.91,1.36,14,14,0,0,1,4.4,4.28C488.9,45.3,486.28,48,486.28,49.79Z"/><path class="cls-1" d="M530.41,48.52c0,1.82.4,3.21-.45,4.67s-2.31,1.84-3.83,2.72S523.69,59,521.87,59s-3.46-1.06-4.93-1.91-1.53-2.79-2.4-4.31-4-2.41-4-4.23,1.68-3.64,2.53-5.1a10.79,10.79,0,0,1,3.59-4c1.47-.85,3.43-2.51,5.25-2.51a13.69,13.69,0,0,1,5.91,1.37,14.27,14.27,0,0,1,4.41,4.27C533,44,530.41,46.7,530.41,48.52Z"/><path class="cls-2" d="M642.63,108.53H408.32L426.54,56a8.79,8.79,0,0,1,8.14-5.91L680,45.66v7.23l-24.78,7.66a8.06,8.06,0,0,0-7.34,8v34.7A5.25,5.25,0,0,1,642.63,108.53Z"/><path class="cls-2" d="M658.81,120.27v30.89h53.27V120.27Z"/><path class="cls-2" d="M447.52,126.83a21.69,21.69,0,0,0-21.7,21.69,23,23,0,0,0,.16,2.64h43.07a20.9,20.9,0,0,0,.17-2.64A21.7,21.7,0,0,0,447.52,126.83Z"/><path class="cls-3" d="M684.19,129.76a19.08,19.08,0,0,0-19.08,19.08,19.66,19.66,0,0,0,.14,2.32h37.88a19.66,19.66,0,0,0,.14-2.32A19.08,19.08,0,0,0,684.19,129.76Z"/><path d="M497.6,126.83a21.7,21.7,0,0,0-21.7,21.69,20.9,20.9,0,0,0,.17,2.64h2.49a20,20,0,0,1-.14-2.33,19.19,19.19,0,0,1,38.37,0,20,20,0,0,1-.15,2.33h2.5a23,23,0,0,0,.16-2.64A21.69,21.69,0,0,0,497.6,126.83Z"/><path class="cls-1" d="M708,108.53h19a1.39,1.39,0,0,1,1.39,1.39v41.56a1.39,1.39,0,0,1-1.39,1.39H715c-3.88,0-7-2.8-7-6.26Z"/><rect class="cls-4" x="610.78" y="127.76" width="44.33" height="21.74" rx="4.22" ry="4.22"/><rect class="cls-2" x="426.62" y="132.5" width="233.75" height="10.74"/><rect class="cls-2" x="415.53" y="114.17" width="233.29" height="7.95"/><path class="cls-2" d="M637,124.71H613a2,2,0,0,1-2-2v-2h28v2A2,2,0,0,1,637,124.71Z"/><circle cx="684.19" cy="148.65" r="17.07"/><circle class="cls-3" cx="684.19" cy="148.65" r="11.95"/><circle cx="447.52" cy="148.65" r="17.07"/><circle class="cls-3" cx="447.52" cy="148.65" r="11.95"/><rect class="cls-2" x="426.62" y="122.12" width="144.23" height="7.74"/><rect class="cls-2" x="415.53" y="122.12" width="5.81" height="7.74"/><rect class="cls-2" x="619.78" y="121.84" width="11.46" height="8.02" rx="4.01" ry="4.01"/><path class="cls-2" d="M497.6,126.83a21.7,21.7,0,0,0-21.7,21.69,20.9,20.9,0,0,0,.17,2.64h43.07a23,23,0,0,0,.16-2.64A21.69,21.69,0,0,0,497.6,126.83Z"/><circle cx="497.6" cy="148.65" r="17.07"/><circle class="cls-3" cx="497.6" cy="148.65" r="11.95"/><path class="cls-1" d="M712.69,68.74c0-1.06-1-4.57-15.67-4.57v4.57Z"/><path class="cls-1" d="M723.94,117.46l-4.52-31.95V76.74a9.28,9.28,0,0,0-7.55-9.1h-58v75.6h6.45a5.3,5.3,0,0,0,5.28-4.82l.69-7.59a7.88,7.88,0,0,1,7.84-7.15H696l6.08,6.08h25v-9.19A3.11,3.11,0,0,0,723.94,117.46Z"/><path class="cls-2" d="M719.3,84.74l-3.23,0a.84.84,0,0,0-.81,1L719,105.7a.84.84,0,0,0,.82.69h2.55Z"/><path class="cls-5" d="M694.9,78.1H665.11"/><path d="M707.4,87c-.51-1.48-.58-2.18-2.7-2.18H675.45c-2.12,0-1.73,1.71-1.73,2.9v17.51a1.15,1.15,0,0,0,1.16,1.16H711s2,0,1-2.33Z"/><path class="cls-2" d="M728.4,146.4h-2.77a4.49,4.49,0,0,1-4.49-4.49V115.74a4.49,4.49,0,0,1,4.49-4.49h2.77Z"/><rect class="cls-2" x="599.64" y="138.99" width="51.74" height="15.88" rx="7.94" ry="7.94"/><path class="cls-3" d="M421.34,101.33c3.12-9.41,8.79-25.71,12-34.73A9.88,9.88,0,0,1,442.43,60L639,56.5"/><polyline class="cls-3" points="441.62 68.74 459.46 68.74 447.52 101.33"/><polyline class="cls-3" points="486.16 68.74 504 68.74 492.06 101.33"/><polyline class="cls-3" points="530.7 68.74 548.54 68.74 536.6 101.33"/><polyline class="cls-3" points="575.24 68.74 593.08 68.74 581.14 101.33"/><polyline class="cls-3" points="619.78 68.74 637.62 68.74 625.67 101.33"/><path class="cls-2" d="M658.81,120.27v30.89h53.27V120.27Z"/><path class="cls-2" d="M447.52,126.83a21.69,21.69,0,0,0-21.7,21.69,23,23,0,0,0,.16,2.64h43.07a20.9,20.9,0,0,0,.17-2.64A21.7,21.7,0,0,0,447.52,126.83Z"/><path class="cls-3" d="M684.19,129.76a19.08,19.08,0,0,0-19.08,19.08,19.66,19.66,0,0,0,.14,2.32h37.88a19.66,19.66,0,0,0,.14-2.32A19.08,19.08,0,0,0,684.19,129.76Z"/><path d="M497.6,126.83a21.7,21.7,0,0,0-21.7,21.69,20.9,20.9,0,0,0,.17,2.64h2.49a20,20,0,0,1-.14-2.33,19.19,19.19,0,0,1,38.37,0,20,20,0,0,1-.15,2.33h2.5a23,23,0,0,0,.16-2.64A21.69,21.69,0,0,0,497.6,126.83Z"/><path class="cls-6" d="M708,108.53h19a1.39,1.39,0,0,1,1.39,1.39v41.56a1.39,1.39,0,0,1-1.39,1.39H715c-3.88,0-7-2.8-7-6.26Z"/><rect class="cls-4" x="610.78" y="127.76" width="44.33" height="21.74" rx="4.22" ry="4.22"/><rect class="cls-2" x="426.62" y="132.5" width="233.75" height="10.74"/><rect class="cls-2" x="415.53" y="114.17" width="233.29" height="7.95"/><path class="cls-2" d="M637,124.71H613a2,2,0,0,1-2-2v-2h28v2A2,2,0,0,1,637,124.71Z"/><circle cx="684.19" cy="148.65" r="17.07"/><circle class="cls-3" cx="684.19" cy="148.65" r="11.95"/><circle cx="447.52" cy="148.65" r="17.07"/><circle class="cls-3" cx="447.52" cy="148.65" r="11.95"/><rect class="cls-2" x="426.62" y="122.12" width="144.23" height="7.74"/><rect class="cls-2" x="415.53" y="122.12" width="5.81" height="7.74"/><rect class="cls-2" x="619.78" y="121.84" width="11.46" height="8.02" rx="4.01" ry="4.01"/><path class="cls-2" d="M497.6,126.83a21.7,21.7,0,0,0-21.7,21.69,20.9,20.9,0,0,0,.17,2.64h43.07a23,23,0,0,0,.16-2.64A21.69,21.69,0,0,0,497.6,126.83Z"/><circle cx="497.6" cy="148.65" r="17.07"/><circle class="cls-3" cx="497.6" cy="148.65" r="11.95"/><path class="cls-6" d="M712.69,68.74c0-1.06-1-4.57-15.67-4.57v4.57Z"/><path class="cls-6" d="M723.94,117.46l-4.52-31.95V76.74a9.28,9.28,0,0,0-7.55-9.1h-58v75.6h6.45a5.3,5.3,0,0,0,5.28-4.82l.69-7.59a7.88,7.88,0,0,1,7.84-7.15H696l6.08,6.08h25v-9.19A3.11,3.11,0,0,0,723.94,117.46Z"/><path class="cls-2" d="M719.3,84.74l-3.23,0a.84.84,0,0,0-.81,1L719,105.7a.84.84,0,0,0,.82.69h2.55Z"/><path class="cls-5" d="M694.9,78.1H665.11"/><path d="M707.4,87c-.51-1.48-.58-2.18-2.7-2.18H675.45c-2.12,0-1.73,1.71-1.73,2.9v17.51a1.15,1.15,0,0,0,1.16,1.16H711s2,0,1-2.33Z"/><path class="cls-2" d="M728.4,146.4h-2.77a4.49,4.49,0,0,1-4.49-4.49V115.74a4.49,4.49,0,0,1,4.49-4.49h2.77Z"/><rect class="cls-2" x="599.64" y="138.99" width="51.74" height="15.88" rx="7.94" ry="7.94"/><path class="cls-3" d="M421.34,101.33c3.12-9.41,8.79-25.71,12-34.73A9.88,9.88,0,0,1,442.43,60L639,56.5"/><polyline class="cls-3" points="441.62 68.74 459.46 68.74 447.52 101.33"/><polyline class="cls-3" points="486.16 68.74 504 68.74 492.06 101.33"/><polyline class="cls-3" points="530.7 68.74 548.54 68.74 536.6 101.33"/><polyline class="cls-3" points="575.24 68.74 593.08 68.74 581.14 101.33"/><polyline class="cls-3" points="619.78 68.74 637.62 68.74 625.67 101.33"/><path class="cls-1" d="M855.23,50.42c0,1.82.4,3.2-.45,4.67s-2.32,1.84-3.83,2.72-2.45,3.06-4.26,3.06-3.47-1.06-4.93-1.91-1.53-2.79-2.41-4.31-4-2.41-4-4.23,1.67-3.64,2.52-5.11a11,11,0,0,1,3.6-4c1.47-.85,3.43-2.51,5.25-2.51a13.72,13.72,0,0,1,5.91,1.37,14,14,0,0,1,4.4,4.27C857.85,45.93,855.23,48.6,855.23,50.42Z"/><path class="cls-1" d="M899.37,49.15c0,1.82.39,3.21-.46,4.68s-2.31,1.84-3.83,2.71-2.44,3.06-4.26,3.06-3.46-1.06-4.93-1.91-1.53-2.79-2.4-4.3-4-2.42-4-4.24,1.68-3.63,2.53-5.1a10.69,10.69,0,0,1,3.59-4c1.47-.85,3.43-2.51,5.25-2.51a13.68,13.68,0,0,1,5.91,1.36,14.19,14.19,0,0,1,4.41,4.28C902,44.66,899.37,47.34,899.37,49.15Z"/><path class="cls-1" d="M943.5,47.89c0,1.82.4,3.2-.45,4.67s-2.32,1.84-3.83,2.72-2.45,3.06-4.27,3.06-3.46-1.06-4.93-1.91-1.53-2.79-2.4-4.31-4-2.41-4-4.23,1.68-3.64,2.53-5.11a10.87,10.87,0,0,1,3.6-4c1.46-.85,3.43-2.51,5.24-2.51a13.66,13.66,0,0,1,5.91,1.37,14,14,0,0,1,4.41,4.27C946.12,43.4,943.5,46.07,943.5,47.89Z"/><path class="cls-1" d="M965.57,47.26c0,1.81.39,3.2-.46,4.67s-2.31,1.84-3.83,2.71-2.44,3.07-4.26,3.07-3.46-1.07-4.93-1.92-1.53-2.79-2.4-4.3-4-2.42-4-4.23,1.68-3.64,2.53-5.11a10.76,10.76,0,0,1,3.59-4c1.47-.85,3.43-2.51,5.25-2.51A13.83,13.83,0,0,1,962.93,37a14.19,14.19,0,0,1,4.41,4.28C968.19,42.77,965.57,45.44,965.57,47.26Z"/><path class="cls-1" d="M987.63,46.62c0,1.82.4,3.21-.45,4.68s-2.32,1.84-3.83,2.71-2.45,3.06-4.26,3.06-3.47-1.06-4.93-1.91-1.53-2.79-2.41-4.3-4-2.42-4-4.24,1.68-3.64,2.53-5.1a10.82,10.82,0,0,1,3.6-4c1.47-.84,3.43-2.5,5.25-2.5A13.72,13.72,0,0,1,985,36.39a14.13,14.13,0,0,1,4.4,4.27C990.25,42.13,987.63,44.81,987.63,46.62Z"/><path class="cls-1" d="M1009.7,46c0,1.82.4,3.21-.45,4.67s-2.32,1.84-3.83,2.72-2.45,3.06-4.27,3.06-3.46-1.06-4.93-1.91-1.53-2.79-2.4-4.31-4-2.41-4-4.23,1.68-3.64,2.53-5.11a10.87,10.87,0,0,1,3.6-4c1.46-.85,3.43-2.51,5.24-2.51a13.69,13.69,0,0,1,5.91,1.37,14,14,0,0,1,4.41,4.27C1012.32,41.5,1009.7,44.17,1009.7,46Z"/><path class="cls-1" d="M1031.77,45.36c0,1.82.39,3.2-.46,4.67s-2.31,1.84-3.83,2.72-2.44,3.06-4.26,3.06-3.46-1.06-4.93-1.91-1.53-2.8-2.4-4.31-4-2.41-4-4.23,1.68-3.64,2.53-5.11a10.84,10.84,0,0,1,3.59-4c1.47-.85,3.43-2.51,5.25-2.51a13.69,13.69,0,0,1,5.91,1.37,14.16,14.16,0,0,1,4.41,4.27C1034.39,40.87,1031.77,43.54,1031.77,45.36Z"/><path class="cls-1" d="M1000.6,25.82c0,1.82.4,3.21-.45,4.68s-2.31,1.84-3.83,2.71-2.44,3.06-4.26,3.06-3.46-1.06-4.93-1.91-1.53-2.79-2.41-4.3-4-2.42-4-4.24,1.68-3.63,2.53-5.1a10.76,10.76,0,0,1,3.59-4c1.47-.85,3.43-2.51,5.25-2.51A13.68,13.68,0,0,1,998,15.59a14.19,14.19,0,0,1,4.41,4.28C1003.22,21.33,1000.6,24,1000.6,25.82Z"/><path class="cls-1" d="M976.71,26.77c.2,1.81.74,3.15,0,4.7s-2.1,2.07-3.51,3.11-2.11,3.3-3.91,3.5-3.56-.69-5.11-1.37-1.82-2.62-2.85-4-4.27-2-4.47-3.77,1.28-3.8,2-5.35A10.69,10.69,0,0,1,962,19.22c1.37-1,3.15-2.87,5-3.06a13.56,13.56,0,0,1,6,.72,14.1,14.1,0,0,1,4.84,3.78C978.84,22,976.52,25,976.71,26.77Z"/><path class="cls-1" d="M954.87,26.77c.2,1.81.74,3.15,0,4.7s-2.1,2.07-3.51,3.11-2.11,3.3-3.91,3.5-3.56-.69-5.11-1.37-1.82-2.62-2.85-4-4.28-2-4.47-3.77,1.28-3.8,2-5.35a10.8,10.8,0,0,1,3.15-4.34c1.37-1,3.14-2.87,5-3.06a13.56,13.56,0,0,1,6,.72A14.1,14.1,0,0,1,956,20.66C957,22,954.68,25,954.87,26.77Z"/><path class="cls-1" d="M921.43,8.52c.16,1.44.59,2.51,0,3.74s-1.68,1.66-2.8,2.49-1.68,2.63-3.12,2.79a8.41,8.41,0,0,1-4.08-1.09c-1.27-.57-1.45-2.09-2.27-3.21s-3.41-1.57-3.57-3,1-3,1.57-4.26a8.75,8.75,0,0,1,2.51-3.47c1.09-.8,2.51-2.28,3.95-2.44a11,11,0,0,1,4.8.58,11.28,11.28,0,0,1,3.86,3C923.12,4.73,921.27,7.08,921.43,8.52Z"/><path class="cls-1" d="M940.59,9.12c.14,1.35.55,2.34,0,3.49s-1.57,1.55-2.62,2.32-1.57,2.46-2.91,2.61a7.62,7.62,0,0,1-3.8-1c-1.19-.52-1.36-1.94-2.12-3s-3.18-1.46-3.33-2.81.95-2.82,1.46-4a8.09,8.09,0,0,1,2.35-3.23c1-.75,2.33-2.13,3.68-2.28a10.28,10.28,0,0,1,4.48.54,10.53,10.53,0,0,1,3.6,2.81C942.17,5.59,940.44,7.78,940.59,9.12Z"/><path class="cls-1" d="M963.76,9.12c.14,1.35.55,2.34,0,3.49s-1.57,1.55-2.62,2.32-1.57,2.46-2.91,2.61a7.62,7.62,0,0,1-3.8-1c-1.19-.52-1.36-1.94-2.12-3s-3.19-1.46-3.33-2.81,1-2.82,1.46-4a8,8,0,0,1,2.35-3.23c1-.75,2.33-2.13,3.68-2.28a10.28,10.28,0,0,1,4.48.54,10.53,10.53,0,0,1,3.6,2.81C965.34,5.59,963.61,7.78,963.76,9.12Z"/><path class="cls-1" d="M986.65,8.22c.14,1.34.55,2.34,0,3.49s-1.57,1.55-2.62,2.32-1.57,2.46-2.91,2.6a7.64,7.64,0,0,1-3.8-1c-1.19-.52-1.35-1.94-2.12-3s-3.18-1.47-3.33-2.81,1-2.83,1.46-4a8,8,0,0,1,2.35-3.23c1-.75,2.33-2.14,3.68-2.28a10.13,10.13,0,0,1,4.48.54,10.53,10.53,0,0,1,3.6,2.81C988.23,4.69,986.5,6.87,986.65,8.22Z"/><path class="cls-1" d="M933.27,27c.41,1.77,1.11,3,.62,4.65s-1.84,2.32-3.12,3.51-1.69,3.54-3.46,4-3.61-.25-5.23-.74S920,36,918.76,34.68s-4.48-1.44-4.89-3.21.81-3.93,1.31-5.55a10.75,10.75,0,0,1,2.6-4.69c1.23-1.16,2.77-3.22,4.54-3.63a13.52,13.52,0,0,1,6.07,0,14.21,14.21,0,0,1,5.26,3.16C934.81,22,932.86,25.19,933.27,27Z"/><path class="cls-1" d="M910.86,25.83c.41,1.77,1.12,3,.62,4.65s-1.84,2.32-3.11,3.52-1.69,3.53-3.46,3.94-3.62-.25-5.24-.74-2.12-2.38-3.32-3.65-4.48-1.44-4.89-3.21.81-3.92,1.31-5.54a10.78,10.78,0,0,1,2.6-4.7c1.24-1.16,2.77-3.22,4.54-3.63a13.81,13.81,0,0,1,6.07,0,14.11,14.11,0,0,1,5.26,3.17C912.4,20.86,910.45,24.06,910.86,25.83Z"/><path class="cls-1" d="M888.59,27c.41,1.77,1.11,3,.62,4.65s-1.84,2.32-3.12,3.51-1.69,3.54-3.46,4-3.61-.25-5.23-.74-2.13-2.38-3.32-3.65-4.48-1.44-4.89-3.21.81-3.93,1.3-5.55a10.85,10.85,0,0,1,2.6-4.69c1.24-1.16,2.78-3.22,4.55-3.63a13.48,13.48,0,0,1,6.06,0A14.13,14.13,0,0,1,889,20.75C890.12,22,888.18,25.19,888.59,27Z"/><path class="cls-1" d="M877.3,49.79c0,1.81.4,3.2-.45,4.67s-2.32,1.84-3.83,2.72-2.45,3.06-4.27,3.06-3.46-1.07-4.93-1.91-1.52-2.8-2.4-4.31-4-2.42-4-4.23,1.68-3.64,2.53-5.11a10.79,10.79,0,0,1,3.6-4c1.46-.85,3.43-2.51,5.24-2.51a13.79,13.79,0,0,1,5.91,1.36,14.08,14.08,0,0,1,4.41,4.28C879.92,45.3,877.3,48,877.3,49.79Z"/><path class="cls-1" d="M921.43,48.52c0,1.82.4,3.21-.45,4.67s-2.32,1.84-3.83,2.72S914.7,59,912.89,59s-3.47-1.06-4.93-1.91-1.53-2.79-2.41-4.31-4-2.41-4-4.23,1.67-3.64,2.52-5.1a10.91,10.91,0,0,1,3.6-4c1.47-.85,3.43-2.51,5.25-2.51a13.72,13.72,0,0,1,5.91,1.37,14.13,14.13,0,0,1,4.4,4.27C924.05,44,921.43,46.7,921.43,48.52Z"/><path class="cls-2" d="M1033.64,108.53H799.34L817.55,56a8.8,8.8,0,0,1,8.15-5.91L1071,45.66v7.23l-24.79,7.66a8.06,8.06,0,0,0-7.33,8v34.7A5.26,5.26,0,0,1,1033.64,108.53Z"/><path class="cls-2" d="M1049.82,120.27v30.89h53.28V120.27Z"/><path class="cls-2" d="M838.53,126.83a21.7,21.7,0,0,0-21.7,21.69,20.9,20.9,0,0,0,.17,2.64h43.07a23,23,0,0,0,.16-2.64A21.69,21.69,0,0,0,838.53,126.83Z"/><path class="cls-3" d="M1075.21,129.76a19.09,19.09,0,0,0-19.09,19.08,19.65,19.65,0,0,0,.15,2.32h37.87a17.73,17.73,0,0,0,.15-2.32A19.08,19.08,0,0,0,1075.21,129.76Z"/><path d="M888.62,126.83a21.69,21.69,0,0,0-21.7,21.69,23,23,0,0,0,.16,2.64h2.5a20,20,0,0,1-.14-2.33,19.18,19.18,0,1,1,38.36,0,20,20,0,0,1-.14,2.33h2.49a20.9,20.9,0,0,0,.17-2.64A21.7,21.7,0,0,0,888.62,126.83Z"/><path class="cls-1" d="M1099,108.53h19a1.38,1.38,0,0,1,1.38,1.39v41.56a1.38,1.38,0,0,1-1.38,1.39h-12c-3.88,0-7-2.8-7-6.26Z"/><rect class="cls-4" x="1001.8" y="127.76" width="44.33" height="21.74" rx="4.22" ry="4.22"/><rect class="cls-2" x="817.63" y="132.5" width="233.75" height="10.74"/><rect class="cls-2" x="806.55" y="114.17" width="233.29" height="7.95"/><path class="cls-2" d="M1028.05,124.71H1004a2,2,0,0,1-2-2v-2h28v2A2,2,0,0,1,1028.05,124.71Z"/><circle cx="1075.21" cy="148.65" r="17.07"/><circle class="cls-3" cx="1075.21" cy="148.65" r="11.95"/><circle cx="838.53" cy="148.65" r="17.07"/><circle class="cls-3" cx="838.53" cy="148.65" r="11.95"/><rect class="cls-2" x="817.63" y="122.12" width="144.23" height="7.74"/><rect class="cls-2" x="806.55" y="122.12" width="5.81" height="7.74"/><rect class="cls-2" x="1010.79" y="121.84" width="11.46" height="8.02" rx="4.01" ry="4.01"/><path class="cls-2" d="M888.62,126.83a21.69,21.69,0,0,0-21.7,21.69,23,23,0,0,0,.16,2.64h43.07a20.9,20.9,0,0,0,.17-2.64A21.7,21.7,0,0,0,888.62,126.83Z"/><circle cx="888.62" cy="148.65" r="17.07"/><circle class="cls-3" cx="888.62" cy="148.65" r="11.95"/><path class="cls-1" d="M1103.71,68.74c0-1.06-1-4.57-15.68-4.57v4.57Z"/><path class="cls-1" d="M1115,117.46l-4.53-31.95V76.74a9.27,9.27,0,0,0-7.54-9.1h-58.06v75.6h6.46a5.3,5.3,0,0,0,5.28-4.82l.69-7.59a7.87,7.87,0,0,1,7.84-7.15H1087l6.08,6.08h25v-9.19A3.11,3.11,0,0,0,1115,117.46Z"/><path class="cls-2" d="M1110.32,84.74l-3.23,0a.85.85,0,0,0-.82,1L1110,105.7a.84.84,0,0,0,.82.69h2.54Z"/><path class="cls-5" d="M1085.92,78.1h-29.8"/><path d="M1098.42,87c-.51-1.48-.59-2.18-2.71-2.18h-29.24c-2.12,0-1.73,1.71-1.73,2.9v17.51a1.15,1.15,0,0,0,1.16,1.16H1102s2,0,1-2.33Z"/><path class="cls-2" d="M1119.41,146.4h-2.76a4.49,4.49,0,0,1-4.49-4.49V115.74a4.49,4.49,0,0,1,4.49-4.49h2.76Z"/><rect class="cls-2" x="990.65" y="138.99" width="51.74" height="15.88" rx="7.94" ry="7.94"/><path class="cls-3" d="M812.36,101.33c3.12-9.41,8.79-25.71,11.95-34.73A9.87,9.87,0,0,1,833.45,60L1030,56.5"/><polyline class="cls-3" points="832.64 68.74 850.48 68.74 838.53 101.33"/><polyline class="cls-3" points="877.18 68.74 895.02 68.74 883.07 101.33"/><polyline class="cls-3" points="921.72 68.74 939.56 68.74 927.61 101.33"/><polyline class="cls-3" points="966.25 68.74 984.1 68.74 972.15 101.33"/><polyline class="cls-3" points="1010.79 68.74 1028.64 68.74 1016.69 101.33"/><path class="cls-2" d="M1049.82,120.27v30.89h53.28V120.27Z"/><path class="cls-2" d="M838.53,126.83a21.7,21.7,0,0,0-21.7,21.69,20.9,20.9,0,0,0,.17,2.64h43.07a23,23,0,0,0,.16-2.64A21.69,21.69,0,0,0,838.53,126.83Z"/><path class="cls-3" d="M1075.21,129.76a19.09,19.09,0,0,0-19.09,19.08,19.65,19.65,0,0,0,.15,2.32h37.87a17.73,17.73,0,0,0,.15-2.32A19.08,19.08,0,0,0,1075.21,129.76Z"/><path d="M888.62,126.83a21.69,21.69,0,0,0-21.7,21.69,23,23,0,0,0,.16,2.64h2.5a20,20,0,0,1-.14-2.33,19.18,19.18,0,1,1,38.36,0,20,20,0,0,1-.14,2.33h2.49a20.9,20.9,0,0,0,.17-2.64A21.7,21.7,0,0,0,888.62,126.83Z"/><path class="cls-6" d="M1099,108.53h19a1.38,1.38,0,0,1,1.38,1.39v41.56a1.38,1.38,0,0,1-1.38,1.39h-12c-3.88,0-7-2.8-7-6.26Z"/><rect class="cls-4" x="1001.8" y="127.76" width="44.33" height="21.74" rx="4.22" ry="4.22"/><rect class="cls-2" x="817.63" y="132.5" width="233.75" height="10.74"/><rect class="cls-2" x="806.55" y="114.17" width="233.29" height="7.95"/><path class="cls-2" d="M1028.05,124.71H1004a2,2,0,0,1-2-2v-2h28v2A2,2,0,0,1,1028.05,124.71Z"/><circle cx="1075.21" cy="148.65" r="17.07"/><circle class="cls-3" cx="1075.21" cy="148.65" r="11.95"/><circle cx="838.53" cy="148.65" r="17.07"/><circle class="cls-3" cx="838.53" cy="148.65" r="11.95"/><rect class="cls-2" x="817.63" y="122.12" width="144.23" height="7.74"/><rect class="cls-2" x="806.55" y="122.12" width="5.81" height="7.74"/><rect class="cls-2" x="1010.79" y="121.84" width="11.46" height="8.02" rx="4.01" ry="4.01"/><path class="cls-2" d="M888.62,126.83a21.69,21.69,0,0,0-21.7,21.69,23,23,0,0,0,.16,2.64h43.07a20.9,20.9,0,0,0,.17-2.64A21.7,21.7,0,0,0,888.62,126.83Z"/><circle cx="888.62" cy="148.65" r="17.07"/><circle class="cls-3" cx="888.62" cy="148.65" r="11.95"/><path class="cls-6" d="M1103.71,68.74c0-1.06-1-4.57-15.68-4.57v4.57Z"/><path class="cls-6" d="M1115,117.46l-4.53-31.95V76.74a9.27,9.27,0,0,0-7.54-9.1h-58.06v75.6h6.46a5.3,5.3,0,0,0,5.28-4.82l.69-7.59a7.87,7.87,0,0,1,7.84-7.15H1087l6.08,6.08h25v-9.19A3.11,3.11,0,0,0,1115,117.46Z"/><path class="cls-2" d="M1110.32,84.74l-3.23,0a.85.85,0,0,0-.82,1L1110,105.7a.84.84,0,0,0,.82.69h2.54Z"/><path class="cls-5" d="M1085.92,78.1h-29.8"/><path d="M1098.42,87c-.51-1.48-.59-2.18-2.71-2.18h-29.24c-2.12,0-1.73,1.71-1.73,2.9v17.51a1.15,1.15,0,0,0,1.16,1.16H1102s2,0,1-2.33Z"/><path class="cls-2" d="M1119.41,146.4h-2.76a4.49,4.49,0,0,1-4.49-4.49V115.74a4.49,4.49,0,0,1,4.49-4.49h2.76Z"/><rect class="cls-2" x="990.65" y="138.99" width="51.74" height="15.88" rx="7.94" ry="7.94"/><path class="cls-3" d="M812.36,101.33c3.12-9.41,8.79-25.71,11.95-34.73A9.87,9.87,0,0,1,833.45,60L1030,56.5"/><polyline class="cls-3" points="832.64 68.74 850.48 68.74 838.53 101.33"/><polyline class="cls-3" points="877.18 68.74 895.02 68.74 883.07 101.33"/><polyline class="cls-3" points="921.72 68.74 939.56 68.74 927.61 101.33"/><polyline class="cls-3" points="966.25 68.74 984.1 68.74 972.15 101.33"/><polyline class="cls-3" points="1010.79 68.74 1028.64 68.74 1016.69 101.33"/></svg>