<svg id="Layer_1" data-name="Layer 1" xmlns="http://www.w3.org/2000/svg" viewBox="0 0 1280 1440.96"><defs><style>.cls-1{fill:#001903;}.cls-2{fill:none;stroke:#fff;stroke-miterlimit:10;stroke-width:2px;}</style></defs><title>IECS_illustrated_fuel</title><path class="cls-1" d="M0,33.66V1441H1280V33.66h-10C1190.36,33.66,1194.66,0,1115,0s-79.64,33.66-159.29,33.66S876.07,0,796.43,0,716.78,33.66,637.14,33.66,557.49,0,477.85,0,398.21,33.66,318.56,33.66,238.91,0,159.27,0,79.65,33.66,0,33.66"/><path class="cls-2" d="M192.94,11.61c100,0,100,46,200,46s100-46,200-46,100,46,200,46,100-46,200-46,100,46,200,46"/></svg>