<svg id="Layer_1" data-name="Layer 1" xmlns="http://www.w3.org/2000/svg" viewBox="0 0 692.4 165.72"><defs><style>.cls-1{fill:#ccc;}.cls-2,.cls-4{fill:#001903;}.cls-3,.cls-5{fill:none;}.cls-3{stroke:#fff;}.cls-3,.cls-4{stroke-miterlimit:10;}.cls-4{stroke:#000;}.cls-5{stroke:#001903;stroke-linecap:round;stroke-linejoin:round;}.cls-6{fill:#999;}</style></defs><title>IECS_illustrated_riprap_trucks_2</title><path class="cls-1" d="M55.89,50.41c0,1.82.4,3.2-.45,4.67s-2.32,1.84-3.83,2.72-2.45,3.06-4.27,3.06S43.88,59.8,42.42,59,40.89,56.16,40,54.64s-4-2.41-4-4.23,1.68-3.64,2.53-5.11a10.74,10.74,0,0,1,3.6-4c1.46-.85,3.43-2.51,5.24-2.51a13.45,13.45,0,0,1,5.91,1.37,13.73,13.73,0,0,1,4.41,4.27C58.51,45.92,55.89,48.59,55.89,50.41Z"/><path class="cls-1" d="M100,49.14c0,1.82.4,3.21-.45,4.68s-2.31,1.84-3.83,2.71-2.42,3.06-4.24,3.06S88,58.53,86.55,57.68s-1.55-2.79-2.41-4.3-4-2.42-4-4.24,1.68-3.63,2.52-5.1a10.66,10.66,0,0,1,3.6-4c1.47-.85,3.43-2.51,5.25-2.51a13.58,13.58,0,0,1,5.91,1.36,14.19,14.19,0,0,1,4.41,4.28C102.64,44.65,100,47.33,100,49.14Z"/><path class="cls-1" d="M144.16,47.88c0,1.82.39,3.2-.45,4.67s-2.32,1.84-3.83,2.72-2.45,3.06-4.27,3.06-3.46-1.06-4.93-1.91-1.53-2.79-2.4-4.31-4-2.41-4-4.23,1.68-3.64,2.53-5.11a10.8,10.8,0,0,1,3.59-4c1.47-.85,3.43-2.51,5.25-2.51a13.45,13.45,0,0,1,5.91,1.37A14.14,14.14,0,0,1,146,41.9C146.78,43.39,144.16,46.06,144.16,47.88Z"/><path class="cls-1" d="M166.22,47.25c0,1.81.4,3.2-.45,4.67s-2.31,1.84-3.83,2.71-2.45,3.07-4.26,3.07-3.46-1.07-4.93-1.92-1.53-2.79-2.41-4.3-4-2.42-4-4.23,1.68-3.64,2.52-5.11a10.74,10.74,0,0,1,3.6-4c1.47-.85,3.43-2.51,5.25-2.51A13.6,13.6,0,0,1,163.59,37,14.14,14.14,0,0,1,168,41.3C168.84,42.76,166.22,45.43,166.22,47.25Z"/><path class="cls-1" d="M188.29,46.61c0,1.82.4,3.21-.45,4.68S185.52,53.13,184,54s-2.45,3.06-4.27,3.06-3.46-1.06-4.93-1.91-1.52-2.79-2.4-4.3-4-2.42-4-4.24,1.68-3.64,2.53-5.1a10.66,10.66,0,0,1,3.6-4C176,36.66,178,35,179.77,35a13.58,13.58,0,0,1,5.91,1.36,14,14,0,0,1,4.41,4.27C190.91,42.12,188.29,44.8,188.29,46.61Z"/><path class="cls-1" d="M210.36,46c0,1.82.39,3.21-.46,4.67s-2.31,1.84-3.83,2.72-2.44,3.06-4.26,3.06-3.46-1.06-4.93-1.91-1.53-2.79-2.4-4.31-4-2.41-4-4.23,1.68-3.64,2.53-5.11a10.8,10.8,0,0,1,3.59-4c1.47-.85,3.43-2.51,5.25-2.51a13.45,13.45,0,0,1,5.91,1.37A14.07,14.07,0,0,1,212.13,40C213,41.49,210.36,44.16,210.36,46Z"/><path class="cls-1" d="M232.42,45.35c0,1.82.4,3.2-.45,4.67s-2.31,1.84-3.83,2.72-2.45,3.06-4.26,3.06-3.46-1.06-4.93-1.91-1.53-2.8-2.41-4.31-4-2.41-4-4.23,1.68-3.64,2.52-5.11a11,11,0,0,1,3.6-4c1.47-.85,3.43-2.51,5.25-2.51a13.73,13.73,0,0,1,5.91,1.37,14,14,0,0,1,4.4,4.27C235,40.86,232.42,43.53,232.42,45.35Z"/><path class="cls-1" d="M201.26,25.81c0,1.82.4,3.21-.45,4.68s-2.32,1.84-3.83,2.71-2.45,3.06-4.26,3.06-3.47-1.06-4.93-1.91-1.53-2.79-2.41-4.3-4-2.42-4-4.24,1.67-3.63,2.52-5.1a10.74,10.74,0,0,1,3.6-4c1.47-.85,3.43-2.51,5.25-2.51a13.58,13.58,0,0,1,5.91,1.36,13.83,13.83,0,0,1,4.4,4.28C203.88,21.32,201.26,24,201.26,25.81Z"/><path class="cls-1" d="M177.37,26.76c.2,1.81.74,3.15,0,4.7s-2.1,2.07-3.51,3.11-2.11,3.3-3.91,3.5-3.56-.69-5.11-1.37-1.82-2.62-2.85-4-4.28-2-4.47-3.77,1.28-3.8,2-5.35a10.8,10.8,0,0,1,3.15-4.34c1.37-1,3.14-2.87,5-3.06a13.45,13.45,0,0,1,6,.72,14.17,14.17,0,0,1,4.84,3.78C179.49,22,177.18,25,177.37,26.76Z"/><path class="cls-1" d="M155.53,26.76c.19,1.81.74,3.15.05,4.7s-2.1,2.07-3.51,3.11-2.11,3.3-3.92,3.5-3.55-.69-5.1-1.37-1.82-2.62-2.85-4-4.28-2-4.47-3.77,1.28-3.8,2-5.35a10.8,10.8,0,0,1,3.15-4.34c1.37-1,3.14-2.87,5-3.06a13.45,13.45,0,0,1,6,.72,14.17,14.17,0,0,1,4.84,3.78C157.65,22,155.33,25,155.53,26.76Z"/><path class="cls-1" d="M122.09,8.51c.15,1.44.59,2.51,0,3.74s-1.68,1.66-2.81,2.49-1.67,2.63-3.11,2.79a8.47,8.47,0,0,1-4.08-1.09c-1.27-.57-1.45-2.09-2.27-3.21s-3.41-1.57-3.57-3,1-3,1.57-4.26a8.67,8.67,0,0,1,2.51-3.47c1.09-.8,2.51-2.28,4-2.44a10.89,10.89,0,0,1,4.8.58,11.2,11.2,0,0,1,3.86,3C123.78,4.72,121.93,7.07,122.09,8.51Z"/><path class="cls-1" d="M141.25,9.11c.14,1.35.55,2.34,0,3.49s-1.56,1.55-2.61,2.32-1.57,2.46-2.91,2.61a7.68,7.68,0,0,1-3.8-1c-1.19-.52-1.36-1.94-2.13-3s-3.18-1.46-3.32-2.81,1-2.82,1.46-4a7.92,7.92,0,0,1,2.34-3.23c1-.75,2.34-2.13,3.69-2.28a10.19,10.19,0,0,1,4.48.54,10.5,10.5,0,0,1,3.6,2.81C142.83,5.58,141.1,7.77,141.25,9.11Z"/><path class="cls-1" d="M164.41,9.11c.15,1.35.55,2.34,0,3.49s-1.56,1.55-2.61,2.32-1.57,2.46-2.91,2.61a7.68,7.68,0,0,1-3.8-1c-1.19-.52-1.36-1.94-2.13-3s-3.18-1.46-3.32-2.81,1-2.82,1.46-4a7.92,7.92,0,0,1,2.34-3.23c1-.75,2.34-2.13,3.69-2.28a10.19,10.19,0,0,1,4.48.54,10.5,10.5,0,0,1,3.6,2.81C166,5.58,164.27,7.77,164.41,9.11Z"/><path class="cls-1" d="M187.31,8.21c.14,1.34.55,2.34,0,3.49s-1.57,1.55-2.62,2.32-1.57,2.46-2.91,2.6a7.68,7.68,0,0,1-3.8-1c-1.19-.52-1.36-1.94-2.13-3s-3.18-1.47-3.32-2.81,1-2.83,1.46-4a7.92,7.92,0,0,1,2.34-3.23c1-.75,2.34-2.14,3.69-2.28a9.9,9.9,0,0,1,4.48.54,10.5,10.5,0,0,1,3.6,2.81C188.89,4.68,187.16,6.86,187.31,8.21Z"/><path class="cls-1" d="M133.93,27c.41,1.77,1.11,3,.62,4.65s-1.84,2.32-3.12,3.51-1.69,3.54-3.46,4-3.61-.25-5.23-.74-2.12-2.38-3.32-3.65-4.48-1.44-4.89-3.21.81-3.93,1.31-5.55a10.77,10.77,0,0,1,2.6-4.69c1.23-1.16,2.77-3.22,4.54-3.63a13.48,13.48,0,0,1,6.06,0,14,14,0,0,1,5.27,3.16C135.46,22,133.52,25.18,133.93,27Z"/><path class="cls-1" d="M111.52,25.82c.41,1.77,1.11,3,.62,4.65S110.3,32.79,109,34s-1.69,3.53-3.46,3.94-3.61-.25-5.23-.74-2.1-2.38-3.31-3.65-4.48-1.44-4.89-3.21.81-3.92,1.31-5.54A10.86,10.86,0,0,1,96,20.09c1.23-1.16,2.77-3.22,4.54-3.63a13.82,13.82,0,0,1,6.07,0,14,14,0,0,1,5.26,3.17C113.06,20.85,111.11,24.05,111.52,25.82Z"/><path class="cls-1" d="M89.25,27c.41,1.77,1.11,3,.61,4.65S88,33.92,86.75,35.11s-1.69,3.54-3.46,4-3.61-.25-5.24-.74-2.12-2.38-3.31-3.7-4.48-1.44-4.89-3.21.81-3.93,1.3-5.55a10.77,10.77,0,0,1,2.6-4.69C75,20.06,76.52,18,78.29,17.59a13.52,13.52,0,0,1,6.07,0,14,14,0,0,1,5.26,3.16C90.78,22,88.83,25.18,89.25,27Z"/><path class="cls-1" d="M78,49.78c0,1.81.39,3.2-.45,4.67s-2.32,1.84-3.83,2.72-2.45,3.06-4.27,3.06-3.45-1.07-5-1.91S63,55.52,62.08,54s-4-2.42-4-4.23,1.68-3.64,2.53-5.11a10.71,10.71,0,0,1,3.59-4c1.47-.85,3.43-2.51,5.25-2.51a13.72,13.72,0,0,1,5.91,1.36,14.19,14.19,0,0,1,4.41,4.28C80.58,45.29,78,48,78,49.78Z"/><path class="cls-1" d="M122.09,48.51c0,1.82.4,3.21-.45,4.67s-2.32,1.84-3.83,2.72-2.45,3.1-4.27,3.1-3.46-1.06-4.92-1.91-1.53-2.79-2.41-4.31-4-2.41-4-4.23,1.68-3.64,2.53-5.1a10.66,10.66,0,0,1,3.6-4c1.46-.85,3.43-2.51,5.24-2.51a13.45,13.45,0,0,1,5.91,1.37,14,14,0,0,1,4.41,4.27C124.71,44,122.09,46.69,122.09,48.51Z"/><path class="cls-2" d="M234.3,108.52H0L18.21,56a8.78,8.78,0,0,1,8.15-5.91l245.32-4.4v7.23l-24.79,7.66a8.07,8.07,0,0,0-7.34,8v34.7A5.25,5.25,0,0,1,234.3,108.52Z"/><path class="cls-2" d="M250.48,120.26v30.89h53.27V120.26Z"/><path class="cls-2" d="M39.19,126.82a21.7,21.7,0,0,0-21.7,21.69,21.27,21.27,0,0,0,.17,2.64H60.73a23.38,23.38,0,0,0,.16-2.64A21.69,21.69,0,0,0,39.2,126.82Z"/><path class="cls-3" d="M275.87,129.75a19.09,19.09,0,0,0-19.09,19.08,18.07,18.07,0,0,0,.15,2.32H294.8a18.07,18.07,0,0,0,.15-2.32A19.08,19.08,0,0,0,275.87,129.75Z"/><path d="M89.28,126.82a21.69,21.69,0,0,0-21.7,21.68h0a23.38,23.38,0,0,0,.16,2.64h2.5a18.11,18.11,0,0,1-.15-2.33,19.19,19.19,0,0,1,38.37,0,20.1,20.1,0,0,1-.14,2.33h2.49a21.27,21.27,0,0,0,.17-2.64A21.7,21.7,0,0,0,89.28,126.82Z"/><path class="cls-1" d="M299.65,108.52h19a1.39,1.39,0,0,1,1.39,1.39h0v41.56a1.39,1.39,0,0,1-1.39,1.39h-12c-3.89,0-7-2.8-7-6.26Z"/><rect class="cls-4" x="202.46" y="127.75" width="44.33" height="21.74" rx="4.22"/><rect class="cls-2" x="18.29" y="132.49" width="233.75" height="10.74"/><rect class="cls-2" x="7.21" y="114.16" width="233.29" height="7.95"/><path class="cls-2" d="M202.67,120.77h28v2a2,2,0,0,1-2,2h-24a2,2,0,0,1-2-2Z"/><circle cx="275.87" cy="148.64" r="17.07"/><circle class="cls-3" cx="275.87" cy="148.64" r="11.95"/><circle cx="39.19" cy="148.64" r="17.07"/><circle class="cls-3" cx="39.19" cy="148.64" r="11.95"/><rect class="cls-2" x="18.29" y="122.11" width="144.23" height="7.74"/><rect class="cls-2" x="7.21" y="122.11" width="5.81" height="7.74"/><path class="cls-2" d="M215.46,121.83h3.44a4,4,0,0,1,4,4h0a4,4,0,0,1-4,4h-3.44a4,4,0,0,1-4-4h0A4,4,0,0,1,215.46,121.83Z"/><path class="cls-2" d="M89.28,126.82a21.69,21.69,0,0,0-21.7,21.68h0a23.38,23.38,0,0,0,.16,2.64h43.07a21.27,21.27,0,0,0,.17-2.64A21.7,21.7,0,0,0,89.28,126.82Z"/><circle cx="89.28" cy="148.64" r="17.07"/><circle class="cls-3" cx="89.28" cy="148.64" r="11.95"/><path class="cls-1" d="M304.37,68.73c0-1.06-1-4.57-15.68-4.57v4.57Z"/><path class="cls-1" d="M315.62,117.45,311.09,85.5V76.73a9.27,9.27,0,0,0-7.54-9.1H245.49v75.6H252a5.29,5.29,0,0,0,5.27-4.82l.7-7.59a7.87,7.87,0,0,1,7.83-7.15h21.87l6.08,6.08h25v-9.19a3.11,3.11,0,0,0-3.11-3.11Z"/><path class="cls-2" d="M311,84.73h-3.23a.85.85,0,0,0-.84.84v.16l3.74,19.92a.86.86,0,0,0,.83.69H314Z"/><path class="cls-5" d="M286.57,78.09H256.78"/><path d="M299.08,87c-.51-1.48-.59-2.18-2.71-2.18H267.13c-2.12,0-1.74,1.71-1.74,2.9v17.51a1.15,1.15,0,0,0,1.14,1.16h36.16s2,0,1-2.33Z"/><path class="cls-2" d="M317.31,111.24h2.76v35.15h-2.76a4.49,4.49,0,0,1-4.49-4.49V115.73A4.49,4.49,0,0,1,317.31,111.24Z"/><path class="cls-2" d="M199.25,139h35.86a7.93,7.93,0,0,1,7.94,7.92v0h0a7.94,7.94,0,0,1-7.94,7.94H199.25a7.94,7.94,0,0,1-7.94-7.94h0a7.92,7.92,0,0,1,7.92-7.94Z"/><path class="cls-3" d="M13,101.32c3.12-9.41,8.8-25.71,12-34.73A9.84,9.84,0,0,1,34.11,60l196.57-3.5"/><polyline class="cls-3" points="33.29 68.73 51.14 68.73 39.19 101.32"/><polyline class="cls-3" points="77.83 68.73 95.68 68.73 83.73 101.32"/><polyline class="cls-3" points="122.37 68.73 140.22 68.73 128.27 101.32"/><polyline class="cls-3" points="166.91 68.73 184.76 68.73 172.81 101.32"/><polyline class="cls-3" points="211.45 68.73 229.3 68.73 217.35 101.32"/><path class="cls-2" d="M250.48,120.26v30.89h53.27V120.26Z"/><path class="cls-2" d="M39.19,126.82a21.7,21.7,0,0,0-21.7,21.69,21.27,21.27,0,0,0,.17,2.64H60.73a23.38,23.38,0,0,0,.16-2.64A21.69,21.69,0,0,0,39.2,126.82Z"/><path class="cls-3" d="M275.87,129.75a19.09,19.09,0,0,0-19.09,19.08,18.07,18.07,0,0,0,.15,2.32H294.8a18.07,18.07,0,0,0,.15-2.32A19.08,19.08,0,0,0,275.87,129.75Z"/><path d="M89.28,126.82a21.69,21.69,0,0,0-21.7,21.68h0a23.38,23.38,0,0,0,.16,2.64h2.5a18.11,18.11,0,0,1-.15-2.33,19.19,19.19,0,0,1,38.37,0,20.1,20.1,0,0,1-.14,2.33h2.49a21.27,21.27,0,0,0,.17-2.64A21.7,21.7,0,0,0,89.28,126.82Z"/><path class="cls-6" d="M299.65,108.52h19a1.39,1.39,0,0,1,1.39,1.39h0v41.56a1.39,1.39,0,0,1-1.39,1.39h-12c-3.89,0-7-2.8-7-6.26Z"/><rect class="cls-4" x="202.46" y="127.75" width="44.33" height="21.74" rx="4.22"/><rect class="cls-2" x="18.29" y="132.49" width="233.75" height="10.74"/><rect class="cls-2" x="7.21" y="114.16" width="233.29" height="7.95"/><path class="cls-2" d="M202.67,120.77h28v2a2,2,0,0,1-2,2h-24a2,2,0,0,1-2-2Z"/><circle cx="275.87" cy="148.64" r="17.07"/><circle class="cls-3" cx="275.87" cy="148.64" r="11.95"/><circle cx="39.19" cy="148.64" r="17.07"/><circle class="cls-3" cx="39.19" cy="148.64" r="11.95"/><rect class="cls-2" x="18.29" y="122.11" width="144.23" height="7.74"/><rect class="cls-2" x="7.21" y="122.11" width="5.81" height="7.74"/><path class="cls-2" d="M215.46,121.83h3.44a4,4,0,0,1,4,4h0a4,4,0,0,1-4,4h-3.44a4,4,0,0,1-4-4h0A4,4,0,0,1,215.46,121.83Z"/><path class="cls-2" d="M89.28,126.82a21.69,21.69,0,0,0-21.7,21.68h0a23.38,23.38,0,0,0,.16,2.64h43.07a21.27,21.27,0,0,0,.17-2.64A21.7,21.7,0,0,0,89.28,126.82Z"/><circle cx="89.28" cy="148.64" r="17.07"/><circle class="cls-3" cx="89.28" cy="148.64" r="11.95"/><path class="cls-6" d="M304.37,68.73c0-1.06-1-4.57-15.68-4.57v4.57Z"/><path class="cls-6" d="M315.62,117.45,311.09,85.5V76.73a9.27,9.27,0,0,0-7.54-9.1H245.49v75.6H252a5.29,5.29,0,0,0,5.27-4.82l.7-7.59a7.87,7.87,0,0,1,7.83-7.15h21.87l6.08,6.08h25v-9.19a3.11,3.11,0,0,0-3.11-3.11Z"/><path class="cls-2" d="M311,84.73h-3.23a.85.85,0,0,0-.84.84v.16l3.74,19.92a.86.86,0,0,0,.83.69H314Z"/><path class="cls-5" d="M286.57,78.09H256.78"/><path d="M299.08,87c-.51-1.48-.59-2.18-2.71-2.18H267.13c-2.12,0-1.74,1.71-1.74,2.9v17.51a1.15,1.15,0,0,0,1.14,1.16h36.16s2,0,1-2.33Z"/><path class="cls-2" d="M317.31,111.24h2.76v35.15h-2.76a4.49,4.49,0,0,1-4.49-4.49V115.73A4.49,4.49,0,0,1,317.31,111.24Z"/><path class="cls-2" d="M199.25,139h35.86a7.93,7.93,0,0,1,7.94,7.92v0h0a7.94,7.94,0,0,1-7.94,7.94H199.25a7.94,7.94,0,0,1-7.94-7.94h0a7.92,7.92,0,0,1,7.92-7.94Z"/><path class="cls-3" d="M13,101.32c3.12-9.41,8.8-25.71,12-34.73A9.84,9.84,0,0,1,34.11,60l196.57-3.5"/><polyline class="cls-3" points="33.29 68.73 51.14 68.73 39.19 101.32"/><polyline class="cls-3" points="77.83 68.73 95.68 68.73 83.73 101.32"/><polyline class="cls-3" points="122.37 68.73 140.22 68.73 128.27 101.32"/><polyline class="cls-3" points="166.91 68.73 184.76 68.73 172.81 101.32"/><polyline class="cls-3" points="211.45 68.73 229.3 68.73 217.35 101.32"/><path class="cls-1" d="M428.21,50.41c0,1.82.4,3.2-.45,4.67s-2.31,1.84-3.83,2.72-2.44,3.06-4.26,3.06-3.46-1.06-4.93-1.91-1.53-2.79-2.4-4.31-4-2.41-4-4.23,1.68-3.64,2.53-5.11a10.8,10.8,0,0,1,3.59-4c1.47-.85,3.43-2.51,5.25-2.51a13.45,13.45,0,0,1,5.91,1.37A14,14,0,0,1,430,44.45C430.84,45.92,428.21,48.59,428.21,50.41Z"/><path class="cls-1" d="M472.35,49.14c0,1.82.4,3.21-.45,4.68s-2.32,1.84-3.83,2.71-2.45,3.06-4.27,3.06-3.46-1.06-4.93-1.91-1.53-2.79-2.4-4.3-4-2.42-4-4.24,1.68-3.63,2.53-5.1a10.55,10.55,0,0,1,3.59-4c1.47-.85,3.44-2.51,5.25-2.51a13.58,13.58,0,0,1,5.91,1.36,13.87,13.87,0,0,1,4.41,4.28C475,44.65,472.35,47.33,472.35,49.14Z"/><path class="cls-1" d="M516.48,47.88c0,1.82.4,3.2-.45,4.67s-2.32,1.84-3.83,2.72-2.45,3.06-4.26,3.06-3.47-1.06-4.93-1.91-1.53-2.79-2.41-4.31-4-2.41-4-4.23,1.68-3.64,2.53-5.11a10.74,10.74,0,0,1,3.6-4c1.47-.85,3.43-2.51,5.25-2.51a13.73,13.73,0,0,1,5.91,1.37,14,14,0,0,1,4.4,4.27C519.1,43.39,516.48,46.06,516.48,47.88Z"/><path class="cls-1" d="M538.55,47.25c0,1.81.4,3.2-.45,4.67s-2.32,1.84-3.83,2.71S531.82,57.7,530,57.7s-3.46-1.07-4.93-1.92-1.53-2.79-2.4-4.3-4-2.42-4-4.23,1.68-3.64,2.53-5.11a10.71,10.71,0,0,1,3.59-4c1.47-.85,3.44-2.51,5.25-2.51A13.59,13.59,0,0,1,535.91,37a13.87,13.87,0,0,1,4.41,4.28C541.17,42.76,538.55,45.43,538.55,47.25Z"/><path class="cls-1" d="M560.61,46.61c0,1.82.4,3.21-.45,4.68s-2.31,1.84-3.83,2.71-2.44,3.06-4.26,3.06-3.46-1.06-4.93-1.91-1.53-2.79-2.41-4.3-4-2.42-4-4.24,1.68-3.64,2.53-5.1a10.8,10.8,0,0,1,3.59-4c1.47-.84,3.43-2.5,5.25-2.5a13.72,13.72,0,0,1,5.9,1.37,14.15,14.15,0,0,1,4.41,4.27C563.24,42.12,560.61,44.8,560.61,46.61Z"/><path class="cls-1" d="M582.68,46c0,1.82.4,3.21-.45,4.67s-2.32,1.84-3.83,2.72-2.45,3.06-4.26,3.06-3.47-1.06-4.93-1.91-1.53-2.79-2.41-4.31-4-2.41-4-4.23,1.68-3.64,2.53-5.11a10.74,10.74,0,0,1,3.6-4c1.47-.85,3.43-2.51,5.25-2.51a13.58,13.58,0,0,1,5.9,1.37A14.07,14.07,0,0,1,584.45,40C585.3,41.49,582.68,44.16,582.68,46Z"/><path class="cls-1" d="M604.75,45.35c0,1.82.39,3.2-.45,4.67s-2.32,1.84-3.83,2.72S598,55.8,596.2,55.8s-3.46-1.06-4.93-1.91-1.53-2.8-2.4-4.31-4-2.41-4-4.23,1.68-3.64,2.53-5.11a10.8,10.8,0,0,1,3.59-4c1.47-.85,3.43-2.51,5.25-2.51a13.45,13.45,0,0,1,5.91,1.37,14,14,0,0,1,4.41,4.27C607.37,40.86,604.75,43.53,604.75,45.35Z"/><path class="cls-1" d="M573.59,25.81c0,1.82.39,3.21-.46,4.68s-2.31,1.84-3.83,2.71-2.44,3.06-4.26,3.06-3.46-1.06-4.93-1.91-1.53-2.79-2.4-4.3-4-2.42-4-4.24,1.68-3.63,2.53-5.1a10.71,10.71,0,0,1,3.59-4c1.47-.85,3.43-2.51,5.25-2.51A13.64,13.64,0,0,1,571,15.58a14.19,14.19,0,0,1,4.41,4.28C576.21,21.32,573.59,24,573.59,25.81Z"/><path class="cls-1" d="M549.7,26.76c.19,1.81.73,3.15,0,4.7s-2.11,2.07-3.52,3.11-2.1,3.3-3.91,3.5-3.56-.69-5.11-1.37-1.82-2.62-2.85-4-4.27-2-4.47-3.77,1.28-3.8,2-5.35A10.75,10.75,0,0,1,535,19.21c1.36-1,3.14-2.87,4.94-3.06a13.45,13.45,0,0,1,6,.72,14.17,14.17,0,0,1,4.84,3.78C551.82,22,549.5,25,549.7,26.76Z"/><path class="cls-1" d="M527.85,26.76c.2,1.81.74,3.15.06,4.7s-2.11,2.07-3.52,3.11-2.1,3.3-3.91,3.5-3.56-.69-5.11-1.37-1.82-2.62-2.85-4-4.27-2-4.47-3.77,1.28-3.8,2-5.35a10.68,10.68,0,0,1,3.14-4.34c1.37-1,3.15-2.87,5-3.06a13.45,13.45,0,0,1,6,.72A14,14,0,0,1,529,20.65C530,22,527.66,25,527.85,26.76Z"/><path class="cls-1" d="M494.41,8.51c.16,1.44.59,2.51,0,3.74s-1.68,1.66-2.8,2.49-1.68,2.63-3.12,2.79a8.4,8.4,0,0,1-4.07-1.09c-1.28-.57-1.46-2.09-2.28-3.21s-3.41-1.57-3.56-3,1-3,1.56-4.26a8.53,8.53,0,0,1,2.52-3.47c1.09-.8,2.5-2.28,3.94-2.44a10.92,10.92,0,0,1,4.81.58,11.42,11.42,0,0,1,3.86,3C496.11,4.72,494.26,7.07,494.41,8.51Z"/><path class="cls-1" d="M513.57,9.11c.14,1.35.55,2.34,0,3.49S512,14.15,511,14.92s-1.56,2.46-2.91,2.61a7.68,7.68,0,0,1-3.8-1c-1.19-.52-1.35-1.94-2.12-3s-3.18-1.46-3.33-2.81,1-2.82,1.47-4a7.92,7.92,0,0,1,2.34-3.23c1-.75,2.34-2.13,3.68-2.28a10.19,10.19,0,0,1,4.48.54,10.5,10.5,0,0,1,3.6,2.81C515.15,5.58,513.42,7.77,513.57,9.11Z"/><path class="cls-1" d="M536.74,9.11c.14,1.35.55,2.34,0,3.49s-1.57,1.55-2.62,2.32-1.56,2.46-2.91,2.61a7.68,7.68,0,0,1-3.8-1c-1.19-.52-1.35-1.94-2.12-3s-3.18-1.46-3.33-2.81,1-2.82,1.47-4a7.92,7.92,0,0,1,2.34-3.23c1-.75,2.34-2.13,3.68-2.28a10.19,10.19,0,0,1,4.48.54,10.5,10.5,0,0,1,3.6,2.81C538.32,5.58,536.59,7.77,536.74,9.11Z"/><path class="cls-1" d="M559.63,8.21c.15,1.34.55,2.34,0,3.49S558.06,13.25,557,14s-1.56,2.46-2.91,2.6a7.79,7.79,0,0,1-3.8-1c-1.19-.52-1.35-1.94-2.12-3s-3.18-1.47-3.33-2.81,1-2.83,1.47-4a7.83,7.83,0,0,1,2.38-3.22c1-.75,2.34-2.14,3.68-2.28a9.9,9.9,0,0,1,4.48.54,10.54,10.54,0,0,1,3.61,2.81C561.21,4.68,559.49,6.86,559.63,8.21Z"/><path class="cls-1" d="M506.25,27c.41,1.77,1.12,3,.62,4.65S505,34,503.76,35.15s-1.69,3.54-3.46,4-3.62-.25-5.24-.74-2.12-2.38-3.32-3.65-4.47-1.44-4.89-3.21.82-3.93,1.31-5.55a10.77,10.77,0,0,1,2.6-4.69c1.24-1.16,2.77-3.22,4.54-3.63a13.52,13.52,0,0,1,6.07,0,14,14,0,0,1,5.26,3.16C507.79,22,505.84,25.18,506.25,27Z"/><path class="cls-1" d="M483.84,25.82c.42,1.77,1.12,3,.62,4.65s-1.84,2.32-3.11,3.52-1.69,3.53-3.46,3.94-3.61-.25-5.24-.74-2.12-2.38-3.31-3.65-4.48-1.44-4.89-3.21.81-3.92,1.3-5.54a10.8,10.8,0,0,1,2.6-4.7c1.24-1.16,2.77-3.22,4.54-3.63a13.82,13.82,0,0,1,6.07,0,13.77,13.77,0,0,1,5.26,3.17C485.38,20.85,483.43,24.05,483.84,25.82Z"/><path class="cls-1" d="M461.57,27c.41,1.77,1.11,3,.62,4.65s-1.84,2.32-3.12,3.51-1.69,3.54-3.46,4-3.61-.25-5.23-.74-2.12-2.38-3.32-3.65-4.48-1.44-4.89-3.21.81-3.93,1.31-5.55a10.77,10.77,0,0,1,2.6-4.69c1.23-1.16,2.77-3.22,4.54-3.63a13.48,13.48,0,0,1,6.06,0,14,14,0,0,1,5.32,3C463.1,22,461.16,25.18,461.57,27Z"/><path class="cls-1" d="M450.28,49.78c0,1.81.4,3.2-.45,4.67s-2.32,1.84-3.83,2.72-2.45,3.06-4.26,3.06-3.47-1.07-4.93-1.91-1.53-2.8-2.41-4.31-4-2.42-4-4.23,1.68-3.64,2.53-5.11a10.66,10.66,0,0,1,3.6-4c1.47-.85,3.43-2.51,5.25-2.51a13.72,13.72,0,0,1,5.91,1.36,13.83,13.83,0,0,1,4.4,4.28C452.9,45.29,450.28,48,450.28,49.78Z"/><path class="cls-1" d="M494.41,48.51c0,1.82.4,3.21-.45,4.67s-2.31,1.84-3.83,2.72-2.44,3.1-4.26,3.1-3.46-1.06-4.93-1.91-1.53-2.79-2.4-4.31-4-2.41-4-4.23,1.68-3.64,2.53-5.1a10.8,10.8,0,0,1,3.59-4c1.47-.85,3.43-2.51,5.25-2.51a13.45,13.45,0,0,1,5.91,1.37,14.15,14.15,0,0,1,4.41,4.27C497,44,494.41,46.69,494.41,48.51Z"/><path class="cls-2" d="M606.63,108.52H372.32L390.54,56a8.8,8.8,0,0,1,8.14-5.91L644,45.65v7.23l-24.78,7.66a8.05,8.05,0,0,0-7.34,8v34.7a5.25,5.25,0,0,1-5.22,5.28h0Z"/><path class="cls-2" d="M622.81,120.26v30.89h53.27V120.26Z"/><path class="cls-2" d="M411.52,126.82a21.69,21.69,0,0,0-21.7,21.68h0a23.38,23.38,0,0,0,.16,2.64h43.07a21.27,21.27,0,0,0,.17-2.64A21.7,21.7,0,0,0,411.52,126.82Z"/><path class="cls-3" d="M648.19,129.75a19.08,19.08,0,0,0-19.08,19.08h0a20.06,20.06,0,0,0,.14,2.32h37.88a20.06,20.06,0,0,0,.14-2.32,19.08,19.08,0,0,0-19.08-19.08Z"/><path d="M461.6,126.82a21.7,21.7,0,0,0-21.7,21.69,21.27,21.27,0,0,0,.17,2.64h2.49a20.1,20.1,0,0,1-.14-2.33,19.19,19.19,0,0,1,38.37,0,18.11,18.11,0,0,1-.15,2.33h2.5a23.38,23.38,0,0,0,.16-2.64,21.69,21.69,0,0,0-21.69-21.69h0Z"/><path class="cls-1" d="M672,108.52h19a1.39,1.39,0,0,1,1.39,1.39h0v41.56a1.39,1.39,0,0,1-1.39,1.39H679c-3.88,0-7-2.8-7-6.26Z"/><rect class="cls-4" x="574.78" y="127.75" width="44.33" height="21.74" rx="4.22"/><rect class="cls-2" x="390.62" y="132.49" width="233.75" height="10.74"/><rect class="cls-2" x="379.53" y="114.16" width="233.29" height="7.95"/><path class="cls-2" d="M601,124.7H577a2,2,0,0,1-2-2v-2h28v2A2,2,0,0,1,601,124.7Z"/><circle cx="648.19" cy="148.64" r="17.07"/><circle class="cls-3" cx="648.19" cy="148.64" r="11.95"/><circle cx="411.52" cy="148.64" r="17.07"/><circle class="cls-3" cx="411.52" cy="148.64" r="11.95"/><rect class="cls-2" x="390.62" y="122.11" width="144.23" height="7.74"/><rect class="cls-2" x="379.53" y="122.11" width="5.81" height="7.74"/><path class="cls-2" d="M587.79,121.83h3.44a4,4,0,0,1,4,4h0a4,4,0,0,1-4,4h-3.44a4,4,0,0,1-4-4h0A4,4,0,0,1,587.79,121.83Z"/><path class="cls-2" d="M461.6,126.82a21.7,21.7,0,0,0-21.7,21.69,21.27,21.27,0,0,0,.17,2.64h43.07a23.38,23.38,0,0,0,.16-2.64,21.69,21.69,0,0,0-21.69-21.69h0Z"/><circle cx="461.63" cy="148.64" r="17.07" transform="translate(92.48 463.16) rotate(-58.28)"/><circle class="cls-3" cx="461.6" cy="148.64" r="11.95"/><path class="cls-1" d="M676.69,68.73c0-1.06-1-4.57-15.67-4.57v4.57Z"/><path class="cls-1" d="M687.94,117.45,683.42,85.5V76.73a9.29,9.29,0,0,0-7.55-9.1h-58v75.6h6.45a5.3,5.3,0,0,0,5.28-4.82l.69-7.59a7.88,7.88,0,0,1,7.84-7.15H660l6.08,6.08h25v-9.19a3.11,3.11,0,0,0-3.11-3.11Z"/><path class="cls-2" d="M683.3,84.73h-3.23a.85.85,0,0,0-.83.85v.15l3.74,20a.86.86,0,0,0,.82.69h2.55Z"/><path class="cls-5" d="M658.9,78.09H629.11"/><path d="M671.4,87c-.51-1.48-.58-2.18-2.7-2.18H639.45c-2.12,0-1.73,1.71-1.73,2.9v17.51a1.15,1.15,0,0,0,1.14,1.16H675s2,0,1-2.33Z"/><path class="cls-2" d="M692.4,146.39h-2.77a4.49,4.49,0,0,1-4.49-4.49V115.73a4.49,4.49,0,0,1,4.49-4.49h2.77Z"/><path class="cls-2" d="M571.58,139h35.86a7.93,7.93,0,0,1,7.94,7.92v0h0a7.94,7.94,0,0,1-7.94,7.94H571.58a7.94,7.94,0,0,1-7.94-7.94h0a7.92,7.92,0,0,1,7.92-7.94Z"/><path class="cls-3" d="M385.34,101.32c3.12-9.41,8.79-25.71,12-34.73a9.86,9.86,0,0,1,9.09-6.6L603,56.49"/><polyline class="cls-3" points="405.62 68.73 423.46 68.73 411.52 101.32"/><polyline class="cls-3" points="450.16 68.73 468 68.73 456.06 101.32"/><polyline class="cls-3" points="494.7 68.73 512.54 68.73 500.6 101.32"/><polyline class="cls-3" points="539.24 68.73 557.08 68.73 545.14 101.32"/><polyline class="cls-3" points="583.78 68.73 601.62 68.73 589.67 101.32"/><path class="cls-2" d="M622.81,120.26v30.89h53.27V120.26Z"/><path class="cls-2" d="M411.52,126.82a21.69,21.69,0,0,0-21.7,21.68h0a23.38,23.38,0,0,0,.16,2.64h43.07a21.27,21.27,0,0,0,.17-2.64A21.7,21.7,0,0,0,411.52,126.82Z"/><path class="cls-3" d="M648.19,129.75a19.08,19.08,0,0,0-19.08,19.08h0a20.06,20.06,0,0,0,.14,2.32h37.88a20.06,20.06,0,0,0,.14-2.32,19.08,19.08,0,0,0-19.08-19.08Z"/><path d="M461.6,126.82a21.7,21.7,0,0,0-21.7,21.69,21.27,21.27,0,0,0,.17,2.64h2.49a20.1,20.1,0,0,1-.14-2.33,19.19,19.19,0,0,1,38.37,0,18.11,18.11,0,0,1-.15,2.33h2.5a23.38,23.38,0,0,0,.16-2.64,21.69,21.69,0,0,0-21.69-21.69h0Z"/><path class="cls-6" d="M672,108.52h19a1.39,1.39,0,0,1,1.39,1.39h0v41.56a1.39,1.39,0,0,1-1.39,1.39H679c-3.88,0-7-2.8-7-6.26Z"/><rect class="cls-4" x="574.78" y="127.75" width="44.33" height="21.74" rx="4.22"/><rect class="cls-2" x="390.62" y="132.49" width="233.75" height="10.74"/><rect class="cls-2" x="379.53" y="114.16" width="233.29" height="7.95"/><path class="cls-2" d="M601,124.7H577a2,2,0,0,1-2-2v-2h28v2A2,2,0,0,1,601,124.7Z"/><circle cx="648.19" cy="148.64" r="17.07"/><circle class="cls-3" cx="648.19" cy="148.64" r="11.95"/><circle cx="411.52" cy="148.64" r="17.07"/><circle class="cls-3" cx="411.52" cy="148.64" r="11.95"/><rect class="cls-2" x="390.62" y="122.11" width="144.23" height="7.74"/><rect class="cls-2" x="379.53" y="122.11" width="5.81" height="7.74"/><path class="cls-2" d="M587.79,121.83h3.44a4,4,0,0,1,4,4h0a4,4,0,0,1-4,4h-3.44a4,4,0,0,1-4-4h0A4,4,0,0,1,587.79,121.83Z"/><path class="cls-2" d="M461.6,126.82a21.7,21.7,0,0,0-21.7,21.69,21.27,21.27,0,0,0,.17,2.64h43.07a23.38,23.38,0,0,0,.16-2.64,21.69,21.69,0,0,0-21.69-21.69h0Z"/><circle cx="461.63" cy="148.64" r="17.07" transform="translate(92.48 463.16) rotate(-58.28)"/><circle class="cls-3" cx="461.6" cy="148.64" r="11.95"/><path class="cls-6" d="M676.69,68.73c0-1.06-1-4.57-15.67-4.57v4.57Z"/><path class="cls-6" d="M687.94,117.45,683.42,85.5V76.73a9.29,9.29,0,0,0-7.55-9.1h-58v75.6h6.45a5.3,5.3,0,0,0,5.28-4.82l.69-7.59a7.88,7.88,0,0,1,7.84-7.15H660l6.08,6.08h25v-9.19a3.11,3.11,0,0,0-3.11-3.11Z"/><path class="cls-2" d="M683.3,84.73h-3.23a.85.85,0,0,0-.83.85v.15l3.74,20a.86.86,0,0,0,.82.69h2.55Z"/><path class="cls-5" d="M658.9,78.09H629.11"/><path d="M671.4,87c-.51-1.48-.58-2.18-2.7-2.18H639.45c-2.12,0-1.73,1.71-1.73,2.9v17.51a1.15,1.15,0,0,0,1.14,1.16H675s2,0,1-2.33Z"/><path class="cls-2" d="M692.4,146.39h-2.77a4.49,4.49,0,0,1-4.49-4.49V115.73a4.49,4.49,0,0,1,4.49-4.49h2.77Z"/><path class="cls-2" d="M571.58,139h35.86a7.93,7.93,0,0,1,7.94,7.92v0h0a7.94,7.94,0,0,1-7.94,7.94H571.58a7.94,7.94,0,0,1-7.94-7.94h0a7.92,7.92,0,0,1,7.92-7.94Z"/><path class="cls-3" d="M385.34,101.32c3.12-9.41,8.79-25.71,12-34.73a9.86,9.86,0,0,1,9.09-6.6L603,56.49"/><polyline class="cls-3" points="405.62 68.73 423.46 68.73 411.52 101.32"/><polyline class="cls-3" points="450.16 68.73 468 68.73 456.06 101.32"/><polyline class="cls-3" points="494.7 68.73 512.54 68.73 500.6 101.32"/><polyline class="cls-3" points="539.24 68.73 557.08 68.73 545.14 101.32"/><polyline class="cls-3" points="583.78 68.73 601.62 68.73 589.67 101.32"/></svg>