<svg id="Layer_1" data-name="Layer 1" xmlns="http://www.w3.org/2000/svg" viewBox="0 0 966.5 180.06"><defs><style>.cls-1{fill:#fff;}</style></defs><title>IECS_illustrated_cloud_2</title><path class="cls-1" d="M963.7,180a.11.11,0,0,0,.11-.08,163.31,163.31,0,0,0,2.69-29.52A150.41,150.41,0,0,0,686.5,74c-14.15,24-40.12,13.51-59.43,2.62-24-13.5-42.87-32.24-72.53-30-23.48,1.76-44.5,14.89-63.33,29-35.54,26.7-91.16,72.3-135.8,37.15C333.3,95.36,308.72,65.42,282.8,53,202.24,14.61,118.38,70.6,70.36,135.52A113.76,113.76,0,0,1,.08,179.8a.11.11,0,0,0-.07.14H0a.12.12,0,0,0,.07.07Z" transform="translate(0 0.04)"/></svg>