<?xml version="1.0" encoding="utf-8"?>
<!-- Generator: Adobe Illustrator 22.1.0, SVG Export Plug-In . SVG Version: 6.00 Build 0)  -->
<svg version="1.1" id="Layer_1" xmlns="http://www.w3.org/2000/svg" xmlns:xlink="http://www.w3.org/1999/xlink" x="0px" y="0px"
	 viewBox="0 0 740.1 463.5" style="enable-background:new 0 0 740.1 463.5;" xml:space="preserve">
<style type="text/css">
	.st0{fill:#4EAE48;}
	.st1{fill:#C0E74D;}
	.st2{fill:#12940A;}
	.st3{fill:none;stroke:#C0E74D;stroke-width:1.7439;stroke-miterlimit:10;}
	.st4{fill:none;stroke:#C0E74D;stroke-width:1.6026;stroke-miterlimit:10;}
	.st5{fill:none;stroke:#C0E74D;stroke-width:2;stroke-miterlimit:10;}
	.st6{fill:none;stroke:#017439;stroke-width:1.8345;stroke-linecap:round;stroke-linejoin:round;stroke-miterlimit:10;}
	.st7{fill:none;stroke:#017439;stroke-width:2;stroke-miterlimit:10;}
</style>
<title>IECS_illustrated_assets</title>
<g id="Layer_2_1_">
	<path class="st0" d="M2,462.5c-2.7-15.1-3.6-27.5,3.2-31.2c13.4-7.3,47.5,35.1,56.8,28.4c5.9-4.2-6.7-21.9,0.8-43.8
		c0.9-2.6,5.7-16.8,17-23.6c29.6-17.7,81.2,28.4,93.3,15.4c5.9-6.3-5-19,3.2-39c2.1-5,5.2-12.5,12.2-17
		c20.5-13.4,50.4,14.9,65.7,3.2c8.2-6.2,2.4-16.3,8.1-31.6c9.3-24.7,42.9-48.3,78.7-43c34.9,5.2,62.7,36.5,64.1,74.6v107.6H2z"/>
	<path class="st1" d="M611.9,462.5c31.3-91.9,40.4-157.8,19-168.4c-25.5-12.6-87.3,57.3-154.3,168.4H611.9z"/>
	<path class="st2" d="M397,462.5v-90.8c1.2-32.2,24.6-58.6,54.1-63c30.2-4.5,58.6,15.4,66.4,36.3c4.8,12.9,0,21.5,6.8,26.7
		c12.9,9.8,38.1-14,55.5-2.7c5.9,3.8,8.5,10.2,10.3,14.4c7,16.8-2.3,27.5,2.7,32.9c10.2,11,53.8-27.9,78.8-13
		c9.6,5.7,13.6,17.7,14.4,19.9c6.3,18.5-4.3,33.4,0.7,37c7.8,5.6,36.6-30.2,47.9-24c5.7,3.1,5,13.6,2.7,26.4H397z"/>
	<path class="st3" d="M74.5,124.1c25.4-12.5,99.7,86.2,166,220.5c19.1,38.4,36.2,77.8,51.4,117.9H187.1
		c-12.9-22.5-25.8-46.9-38.5-72.5C82.3,255.6,49.2,136.6,74.5,124.1z"/>
	<line class="st3" x1="101.2" y1="176.8" x2="240.5" y2="462.5"/>
	<g>
		<path class="st0" d="M540,184.6c-20.9-10.3-81.9,70.8-136.3,181.1c-16.9,34.2-31.2,67.3-42.2,96.8h86.1
			c10.6-18.5,21.2-38.5,31.6-59.6C533.6,292.6,560.8,194.9,540,184.6z"/>
		<line class="st4" x1="508.9" y1="234.3" x2="405.2" y2="462.5"/>
	</g>
	<path class="st5" d="M579,462.5c64.9-99.2,37.1-232.1-62.1-297c-0.1,0-0.1-0.1-0.2-0.1"/>
	<circle class="st5" cx="497.7" cy="153.8" r="22.3"/>
	<circle class="st6" cx="636.3" cy="282.8" r="66.8"/>
	<polyline class="st6" points="636.3,462.5 636.3,289.5 611.1,276.3 	"/>
	<polyline class="st6" points="636.3,288.9 636.3,270.1 653.3,253 	"/>
	<path class="st7" d="M83.5,462.5v-78.2"/>
	
		<ellipse transform="matrix(0.9985 -5.530037e-02 5.530037e-02 0.9985 -19.9694 5.1759)" class="st7" cx="83.5" cy="363.4" rx="20.8" ry="20.8"/>
</g>
</svg>
