<svg xmlns="http://www.w3.org/2000/svg" xmlns:xlink="http://www.w3.org/1999/xlink" viewBox="0 0 638.8 953.24"><defs><style>.cls-1,.cls-10,.cls-18,.cls-19{fill:none;}.cls-2{clip-path:url(#clip-path);}.cls-3{fill:#99c7e5;}.cls-4{fill:#ecc19c;}.cls-5{fill:#e6e6e6;}.cls-6{fill:#445866;}.cls-7{fill:#182050;}.cls-8{clip-path:url(#clip-path-2);}.cls-9{fill:#a78568;}.cls-10{stroke:#000;stroke-width:2.89px;}.cls-10,.cls-18,.cls-19{stroke-linecap:round;}.cls-10,.cls-18{stroke-miterlimit:10;}.cls-11{clip-path:url(#clip-path-3);}.cls-12{fill:#f7931e;}.cls-13{fill:#f2f2f2;}.cls-14{fill:#d9f800;}.cls-15{fill:#2c1006;opacity:0.16;}.cls-16{fill:#754c24;}.cls-17{fill:#2f5e7f;}.cls-18{stroke:#99c7e5;stroke-width:5.89px;}.cls-19{stroke:#182050;stroke-linejoin:round;stroke-width:4.42px;}.cls-20{fill:#5d4037;}.cls-21{fill:#ffbc00;}.cls-22{fill:#bf8d00;}</style><clipPath id="clip-path"><rect class="cls-1" width="638.8" height="953.24"/></clipPath><clipPath id="clip-path-2"><path class="cls-1" d="M294.89,225h35.26a15.08,15.08,0,0,1,15.08,15.08V302a32.71,32.71,0,0,1-32.71,32.71h0A32.71,32.71,0,0,1,279.81,302V240.08A15.08,15.08,0,0,1,294.89,225Z"/></clipPath><clipPath id="clip-path-3"><path class="cls-1" d="M479.12,399h0l.1-1.54h-.1L479,350.22a48.49,48.49,0,0,0-34.69-46.38L349,275.54a124.48,124.48,0,0,0-71.34.15l-95.23,28.67a48.49,48.49,0,0,0-34.51,46.52l.1,51.18a15.71,15.71,0,0,0,11.22,15h0a.16.16,0,0,1,.12.14L181,742.3a.17.17,0,0,0,.17.16h275a.16.16,0,0,0,.16-.16l22.43-337.22v0a15.29,15.29,0,0,0,.41-3.53Z"/></clipPath></defs><title>IECS_illustrated_assets</title><g id="Layer_2" data-name="Layer 2"><g class="cls-2"><path class="cls-3" d="M479.12,399h0l.1-1.54h-.1L479,350.22a48.49,48.49,0,0,0-34.69-46.38L349,275.54a124.48,124.48,0,0,0-71.34.15l-95.23,28.67a48.49,48.49,0,0,0-34.51,46.52l11.32,66.19a.16.16,0,0,1,.12.14L181,742.3a.17.17,0,0,0,.17.16h275a.16.16,0,0,0,.16-.16l22.43-337.22v0a15.29,15.29,0,0,0,.41-3.53Z"/><path class="cls-4" d="M106.11,811.46c1,12,.27,40.8-.47,61.45a73.4,73.4,0,0,0,12,42.83L139,948.47a6.74,6.74,0,0,0,10.63,1.46h0a6.77,6.77,0,0,0,1.93-5.57l-10.73-66.05a5.83,5.83,0,0,1,.49-3.37c2-4.13,8.21-3.25,9.59,1.1l7.73,24.43a2.26,2.26,0,0,0,4.13,0c2.2-4.84,6.37-17.45,2.07-30.21-2.8-8.3-11.21-33.61-12.67-38a4.82,4.82,0,0,1-.26-1.36l-1.13-20.2a5.3,5.3,0,0,0-5.3-5l-34.13.11A5.26,5.26,0,0,0,106.11,811.46Z"/><rect class="cls-5" x="95.03" y="805.93" width="63.47" height="13.96"/><circle class="cls-6" cx="312.09" cy="296.93" r="41.25"/><path class="cls-3" d="M151,335.38,112.91,501.3a374.91,374.91,0,0,0-8.23,52.9c-6.07,72.78-19.46,249-19.46,249a10.22,10.22,0,0,0,10.26,11l68.51-.41L169.93,564c-.18-16.75,1.08-30.8,6.3-46.72L260.5,341.63,196.62,315.1A34.4,34.4,0,0,0,151,335.38Z"/><path class="cls-4" d="M294.89,214.84h35.26a15.08,15.08,0,0,1,15.08,15.08V291.8a32.71,32.71,0,0,1-32.71,32.71h0a32.71,32.71,0,0,1-32.71-32.71V229.92a15.08,15.08,0,0,1,15.08-15.08Z"/><path class="cls-7" d="M428.86,1434.24H367L340,889.7c0-20.31-25.8-20.31-25.8-.13l-20.63,544.67H220.7L181.35,742.46H456.79Z"/><g class="cls-8"><rect class="cls-9" x="119.98" y="160.18" width="237.81" height="70.36" rx="35.18" ry="35.18" transform="translate(158.59 -102.61) rotate(35.64)"/></g><path class="cls-4" d="M390.9,141.06c0,43.29-35.09,125.57-78.38,125.57s-78.39-82.28-78.39-125.57,35.1-83.46,78.39-83.46S390.9,97.77,390.9,141.06Z"/><path class="cls-10" d="M310.24,159.85c0,18.94,2.79,34.27,6.23,34.27"/><path class="cls-10" d="M336.2,201.74c0,8.42-9.65,15.23-21.57,15.23"/><circle cx="282.26" cy="149.06" r="3.17"/><circle cx="340.65" cy="149.06" r="3.17"/><g class="cls-11"><path class="cls-12" d="M383.17,284.64,359.63,332a48.85,48.85,0,0,1-22.52,22.6,54.14,54.14,0,0,1-47.51,0A48.85,48.85,0,0,1,267.08,332l-23.54-47.32-39.35-16.9v479.8H422.52V267.74Z"/><rect class="cls-13" x="221.97" y="274.09" width="11.42" height="468.38"/><rect class="cls-14" x="221.97" y="608.41" width="11.42" height="134.06"/><rect class="cls-13" x="390.78" y="274.09" width="11.42" height="468.38"/><rect class="cls-14" x="390.78" y="608.41" width="11.42" height="134.06"/></g><path class="cls-15" d="M465.67,585.07l-147.2,50.64A5.24,5.24,0,0,1,312,632L272.29,431.44a5.26,5.26,0,0,1,4.28-6.36l134.62-20a5.22,5.22,0,0,1,6,3.7L472,571.11C472.77,573.86,468.5,584.3,465.67,585.07Z"/><path d="M349.93,375.16l-21.82,6a22.67,22.67,0,0,0-15.84,27.78h0a22.69,22.69,0,0,0,27.79,15.85l21.81-6A22.7,22.7,0,0,0,377.72,391h0A22.7,22.7,0,0,0,349.93,375.16Zm5.19,36.1L342,414.85a13.57,13.57,0,0,1-7.17-26.18L348,385.08a13.57,13.57,0,1,1,7.17,26.18Z"/><rect x="293.84" y="395.85" width="109.7" height="22.62" rx="5.74" ry="5.74" transform="translate(-95.13 106.51) rotate(-15.31)"/><rect class="cls-16" x="294.52" y="401.39" width="160.6" height="202.44" rx="3.1" ry="3.1" transform="translate(-119.4 116.8) rotate(-15.31)"/><rect class="cls-4" x="244.76" y="441.32" width="78.12" height="67.13" rx="32.64" ry="32.64" transform="translate(202.1 -72.28) rotate(22.37)"/><rect class="cls-4" x="257.2" y="411.79" width="18.22" height="55.34" rx="8.2" ry="8.2" transform="translate(-245.32 487.21) rotate(-64.12)"/><rect class="cls-4" x="256.83" y="430.07" width="18.22" height="55.34" rx="8.2" ry="8.2" transform="translate(-261.97 497.17) rotate(-64.12)"/><polygon class="cls-17" points="460.6 529.22 449.17 432.75 469.48 511.45 460.6 529.22"/><path class="cls-3" d="M539.92,566.43a25.64,25.64,0,0,0-15.63-36.9c-61.3-17.29-200.84-58.22-201-58.28-4.07-1.46-16.29,1-22.53,12.15-5.17,9.27-7.48,15.9-3.11,26.21,4,9.52,154.57,64.1,202.09,74.14,16.08,3.39,32.41-3.19,40-17Z"/><line class="cls-18" x1="334.93" y1="756.43" x2="334.93" y2="832.58"/><rect class="cls-4" x="261.51" y="429.61" width="49.79" height="17.03" rx="8.52" ry="8.52" transform="translate(457.03 -56.72) rotate(52.2)"/><line class="cls-19" x1="173.73" y1="559.68" x2="186.42" y2="426.4"/><path class="cls-20" d="M378.09,109.08v36.36c0,3.43,1.4,6.23,3.11,6.23h0c5.27,0,9.58-8.63,9.58-19.17V109.08Z"/><path class="cls-20" d="M243.54,109.08v36.36c0,3.43-1.4,6.23-3.11,6.23h0c-5.27,0-9.58-8.63-9.58-19.17V109.08Z"/><path class="cls-21" d="M393.3,128a88.2,88.2,0,0,0,.66-10.6c0-46.74-36.47-84.62-81.45-84.62s-81.45,37.88-81.45,84.62a88.2,88.2,0,0,0,.66,10.6Z"/><path class="cls-22" d="M230.46,109.65H394A16.95,16.95,0,0,1,411,126.6v.35a1.17,1.17,0,0,1-1.17,1.17H215.72a1.69,1.69,0,0,1-1.69-1.69v-.35A16.43,16.43,0,0,1,230.46,109.65Z"/><rect class="cls-21" x="291.78" y="26.57" width="41.46" height="24.62" rx="12.08" ry="12.08"/><path class="cls-10" d="M277.82,53.23V71.31"/><path class="cls-10" d="M310.82,35.46v64.73"/><path class="cls-10" d="M277.82,77.89v16"/><line class="cls-10" x1="342.55" y1="53.23" x2="342.55" y2="93.84"/><ellipse class="cls-4" cx="231.79" cy="156.08" rx="15.04" ry="20.82" transform="translate(-29.05 55.83) rotate(-12.93)"/><ellipse class="cls-4" cx="389.71" cy="156.08" rx="20.82" ry="15.04" transform="translate(103.64 463.32) rotate(-68.87)"/><path class="cls-3" d="M522.67,583.89h0a39.11,39.11,0,0,1-49.66-24S429.32,314.54,429,315.19h0a39.12,39.12,0,0,1,49.66,24l68,195.06A39.11,39.11,0,0,1,522.67,583.89Z"/></g></g></svg>