<?xml version="1.0" encoding="utf-8"?>
<!-- Generator: Adobe Illustrator 22.1.0, SVG Export Plug-In . SVG Version: 6.00 Build 0)  -->
<svg version="1.1" xmlns="http://www.w3.org/2000/svg" xmlns:xlink="http://www.w3.org/1999/xlink" x="0px" y="0px"
	 viewBox="0 0 109.9 113" style="enable-background:new 0 0 109.9 113;" xml:space="preserve">
<style type="text/css">
	.st0{fill:none;stroke:#FFFFFF;stroke-width:3;stroke-linecap:round;stroke-miterlimit:10;}
</style>
<g id="Layer_2_1_">
	<title>IECS_illustrated_assets</title>
</g>
<g id="Layer_4">
	<g>
		<path class="st0" d="M39,111.5c28.6,0,69.2,0,69.2,0c0.1-0.7,0.1-1.3,0.1-2C108.4,98.7,95.7,90,80,90c-0.6,0-1.3,0-1.9,0
			c0-0.1,0-0.2,0-0.3c0-4.6-3.7-8.2-8.2-8.2c-2.4,0-4.5,1-6,2.6c-2.9-0.7-6-1.1-9.2-1.1c-13.1,0-24,6.6-26.2,15.2
			c-8.6,0.9-15.3,5.6-16.7,11.5"/>
		<g>
			<path class="st0" d="M61,83.3"/>
			<path class="st0" d="M61,82.8c-1.1-18-16.1-32.3-34.4-32.3"/>
			<path class="st0" d="M11.5,59.7c1.7,2.1,3.7,3.9,6.2,5c4,1.9,8.8,2.1,12.9,0.5c0.9-0.3,1.7-0.7,2.5-1.2
				c7.3-4.3,10.3-13.5,6.8-21.2c-3.5-7.9-12.7-11.6-20.8-9c-3,1-17.1,8.5-17.1,8.5C5.8,49.8,9.9,57.8,11.5,59.7z"/>
		</g>
		<g>
			<path class="st0" d="M69.6,21.8C64.7,25,60.8,29.2,58.2,34c-4.4,7.9-5.3,17.4-2.8,26.1L62,83.5"/>
			<path class="st0" d="M87.3,21.4c-0.3,2.7-1,5.2-2.5,7.6c-2.4,3.8-6.2,6.5-10.6,7.4c-0.9,0.2-1.8,0.3-2.7,0.4
				C63,37.1,55.5,31,54.2,22.6C52.9,14.1,58.5,6,66.8,3.8c3-0.8,19-2.2,19-2.2C86.6,10,87.5,18.9,87.3,21.4z"/>
		</g>
	</g>
</g>
</svg>
