<svg xmlns="http://www.w3.org/2000/svg" viewBox="0 0 156.83 86.89"><defs><style>.cls-1{isolation:isolate;}.cls-2{fill:#525252;opacity:0.14;mix-blend-mode:multiply;}.cls-3{fill:#8e8c75;}.cls-4{fill:#aaae8b;}.cls-5{fill:#282f3a;}.cls-6{fill:#3a454f;}.cls-7{fill:#bdd6db;}.cls-8{fill:#ec9100;}.cls-9{fill:#dd3e3e;}</style></defs><title>IECS_illustrated_assets</title><g class="cls-1"><g id="Layer_2" data-name="Layer 2"><path class="cls-2" d="M94.93,83.63a3.14,3.14,0,0,0-.67-3.29c8.75-.12,16.15-.24,20.9-.24,15.58,0,24.07-.9,28.12-4.95C146.5,71.93,147.64,61,148,53.29v0c.05-1.15.08-2.23.1-3.21v-.2c0-.24,0-.47,0-.69v-.23c0-.28,0-.54,0-.79s0-.52,0-.8v-.23c0-.22,0-.45,0-.69v-.2c0-1,0-2.06-.1-3.21v0c-.33-7.75-1.47-18.64-4.69-21.86-4.05-4.05-11.75-4.95-28.12-4.95-4.75,0-12.15-.12-20.9-.24a3.14,3.14,0,0,0,.67-3.29,4.23,4.23,0,0,0-3.54-3.25.87.87,0,0,0-1,1.07l1.31,5.43c-8-.11-17-.22-26-.24a.55.55,0,0,0-.54-.49H61.88a.55.55,0,0,0-.54.49l-7.81,0a.55.55,0,0,0-.55-.53H49.7a.55.55,0,0,0-.55.55h0v0c-21.76.3-40.68,1.45-43.3,4.69a17.46,17.46,0,0,0-2,3.26h0c-.28.58-.55,1.18-.79,1.8l0,.12c-.22.59-.44,1.19-.63,1.8l-.05.17c-.19.61-.37,1.23-.53,1.86l0,.14c-.17.67-.32,1.35-.46,2h0A87.45,87.45,0,0,0,0,48.15,87.41,87.41,0,0,0,1.28,64.66h0c.14.68.29,1.36.46,2l0,.14c.16.63.34,1.25.53,1.86l.05.17c.19.61.41,1.22.64,1.8a.56.56,0,0,0,0,.12,19.56,19.56,0,0,0,2.83,5.07c2.62,3.23,21.54,4.38,43.3,4.68,0,0,0,0,0,0h0a.55.55,0,0,0,.55.55H53a.54.54,0,0,0,.55-.53l7.81,0a.54.54,0,0,0,.54.49h3.28a.55.55,0,0,0,.54-.49c9.06,0,18-.13,26-.24l-1.31,5.43a.87.87,0,0,0,1,1.07A4.21,4.21,0,0,0,94.93,83.63Z"/><path class="cls-3" d="M123.9,70.69c15.59,0,24.08-.89,28.12-4.94s4.81-20.18,4.81-27-.76-23-4.81-27S140.27,6.79,123.9,6.79C101.48,6.79,20.24,4.07,14.61,11S8.75,31.73,8.75,38.74,9,59.47,14.61,66.44,101.48,70.69,123.9,70.69Z"/><path class="cls-4" d="M120.37,68c15.08,0,20.66-.82,24.36-4.52S150,45,150,38.74s-1.52-21-5.22-24.68-7.61-4.52-24.36-4.52A73.69,73.69,0,0,0,106.46,11c-4.39,2-11.65,3-18.73,3.77a10.86,10.86,0,0,0-5.83-1.34c-3.29-1.11-10.24-.28-14.52,0-.24,0-1,0-1.22,0,0,0-14.8-.67-21.34,0a18.92,18.92,0,0,0-4.26.81c-2,.23-10.38-2.54-11.92-2.25-3.1.58-7.45.54-8.17,1.43-5.15,6.38-5.36,18.91-5.36,25.32s.21,18.95,5.36,25.32c.72.9,5.07.86,8.17,1.44,1.54.29,9.92-2.49,11.92-2.26a18.2,18.2,0,0,0,4.26.82c6.54.66,21.34,0,21.34,0,.24,0,1,0,1.22,0,4.28.28,11.23,1.11,14.52,0a10.86,10.86,0,0,0,5.83-1.34c7.08.73,14.34,1.79,18.73,3.77A74.53,74.53,0,0,0,120.37,68Z"/><path class="cls-5" d="M67.38,13.43H82.62L105,9.18c-8-.85-23.58-.91-37.59-.75Z"/><path class="cls-5" d="M66.16,8.45c-14.65.18-27.29.6-27.29.6l6,4.38H66.16Z"/><path class="cls-5" d="M114.71,38.74s.2-16-8.25-27.74L87.73,14.77s5.41,6.49,5.41,24-5.41,24-5.41,24l18.73,3.77C114.91,54.7,114.71,38.74,114.71,38.74Z"/><path class="cls-6" d="M67.38,64.06H82.62L105,68.31c-8,.84-23.58.91-37.59.74Z"/><path class="cls-6" d="M66.16,69c-14.65-.19-27.29-.6-27.29-.6l6-4.38H66.16Z"/><path class="cls-5" d="M40.56,63.24c-1.59-5.94-1.59-43,0-49,0,0-7.21-2.8-11.92-2.25-2.4,4-5.44,12.55-5.44,26.75s3,22.73,5.44,26.76C33.35,66,40.56,63.24,40.56,63.24Z"/><path class="cls-4" d="M100.76,7.7,99.17,1.08a.87.87,0,0,1,1-1.07,4.22,4.22,0,0,1,3.54,3.25C104.73,7,100.76,7.7,100.76,7.7Z"/><path class="cls-4" d="M100.76,69.79l-1.59,6.62a.86.86,0,0,0,1,1.06,4.22,4.22,0,0,0,3.54-3.24C104.73,70.46,100.76,69.79,100.76,69.79Z"/><path class="cls-6" d="M87.73,62.72l18.73,3.77c8.45-11.79,8.25-27.75,8.25-27.75H93.14C93.14,56.23,87.73,62.72,87.73,62.72Z"/><path class="cls-6" d="M40.56,63.24c-.05-.2-.1-.41-.14-.64,0-.06,0-.14,0-.21s0-.26-.07-.4c-.63-4.08-1-13.66-1-23.25H23.2c0,14.21,3,22.73,5.44,26.76C33.35,66,40.56,63.24,40.56,63.24Z"/><path class="cls-5" d="M154.2,46.51l2.18,1.07.12,0c.25-3.45.33-6.66.33-8.88s-.08-5.42-.33-8.87l-.12,0L154.2,31a1.14,1.14,0,0,0-.65,1V45.48A1.15,1.15,0,0,0,154.2,46.51Z"/><path class="cls-7" d="M145.11,11.35a1.14,1.14,0,0,1,1.41-1.11c4,.94,6.27,4,7.15,9.7a1.15,1.15,0,0,1-2.27.35c-.93-6-3.38-7.34-5.41-7.82A1.16,1.16,0,0,1,145.11,11.35Z"/><path class="cls-8" d="M149.2,11.35a8.33,8.33,0,0,0-2.68-1.11,1.14,1.14,0,0,0-1.41,1.11,1.16,1.16,0,0,0,.88,1.12,5.88,5.88,0,0,1,2.06.88A3.34,3.34,0,0,0,149.2,11.35Z"/><path class="cls-7" d="M145.11,66.13a1.24,1.24,0,0,0,0,.27,1.15,1.15,0,0,0,1.38.85c4-1,6.27-4,7.15-9.7a1.15,1.15,0,0,0-2.27-.36c-.93,6-3.38,7.35-5.41,7.83A1.14,1.14,0,0,0,145.11,66.13Z"/><path class="cls-8" d="M149.2,66.13a8.58,8.58,0,0,1-2.68,1.12,1.15,1.15,0,0,1-1.38-.85,1.24,1.24,0,0,1,0-.27A1.14,1.14,0,0,1,146,65a6.07,6.07,0,0,0,2.06-.88A3.35,3.35,0,0,1,149.2,66.13Z"/><path class="cls-4" d="M9.49,38.74a102.83,102.83,0,0,0,.62,12.38l1.38-.27a2,2,0,0,0,1.64-2,198.76,198.76,0,0,1,0-20.13,2,2,0,0,0-1.64-2.05l-1.38-.26A102.59,102.59,0,0,0,9.49,38.74Z"/><path class="cls-9" d="M10.61,22.57h0a1.2,1.2,0,0,0,1.44-.91q.69-2.91,1.62-5.76a1.23,1.23,0,0,0-.76-1.54h0a1,1,0,0,0-.34,0A32,32,0,0,0,10,22.23,1.26,1.26,0,0,0,10.61,22.57Z"/><path class="cls-9" d="M12.94,63.12a1.22,1.22,0,0,0,.76-1.53q-.93-2.85-1.62-5.76a1.22,1.22,0,0,0-1.44-.92h0a1.18,1.18,0,0,0-.58.34,32.22,32.22,0,0,0,2.54,7.92,1.33,1.33,0,0,0,.34,0Z"/><rect class="cls-5" x="70.08" y="5.77" width="4.38" height="1.11" rx="0.55" ry="0.55"/><rect class="cls-5" x="57.9" y="5.77" width="4.38" height="1.11" rx="0.55" ry="0.55"/><rect class="cls-5" x="70.08" y="70.6" width="4.38" height="1.11" rx="0.55" ry="0.55"/><rect class="cls-5" x="57.9" y="70.6" width="4.38" height="1.11" rx="0.55" ry="0.55"/></g></g></svg>