<svg id="Layer_1" data-name="Layer 1" xmlns="http://www.w3.org/2000/svg" viewBox="0 0 52.89 1127"><defs><style>.cls-1{fill:none;stroke:#fff;stroke-miterlimit:10;stroke-width:2px;}</style></defs><title>IECS_illustrated_scale</title><line class="cls-1" y1="1" x2="52.89" y2="1"/><line class="cls-1" y1="61" x2="26.44" y2="61"/><line class="cls-1" y1="121" x2="52.89" y2="121"/><line class="cls-1" y1="181" x2="26.44" y2="181"/><line class="cls-1" y1="237.25" x2="52.89" y2="237.25"/><line class="cls-1" y1="297.25" x2="26.44" y2="297.25"/><line class="cls-1" y1="357.25" x2="52.89" y2="357.25"/><line class="cls-1" y1="417.25" x2="26.44" y2="417.25"/><line class="cls-1" y1="473.5" x2="52.89" y2="473.5"/><line class="cls-1" y1="533.5" x2="26.44" y2="533.5"/><line class="cls-1" y1="593.5" x2="52.89" y2="593.5"/><line class="cls-1" y1="653.5" x2="26.44" y2="653.5"/><line class="cls-1" y1="709.75" x2="52.89" y2="709.75"/><line class="cls-1" y1="769.75" x2="26.44" y2="769.75"/><line class="cls-1" y1="829.75" x2="52.89" y2="829.75"/><line class="cls-1" y1="889.75" x2="26.44" y2="889.75"/><line class="cls-1" y1="946" x2="52.89" y2="946"/><line class="cls-1" y1="1006" x2="26.44" y2="1006"/><line class="cls-1" y1="1066" x2="52.89" y2="1066"/><line class="cls-1" y1="1126" x2="26.44" y2="1126"/></svg>