<?xml version="1.0" encoding="utf-8"?>
<!-- Generator: Adobe Illustrator 22.1.0, SVG Export Plug-In . SVG Version: 6.00 Build 0)  -->
<svg version="1.1" id="Layer_2_1_" xmlns="http://www.w3.org/2000/svg" xmlns:xlink="http://www.w3.org/1999/xlink" x="0px" y="0px"
	 viewBox="0 0 124.6 90.1" style="enable-background:new 0 0 124.6 90.1;" xml:space="preserve">
<style type="text/css">
	.st0{fill:#6CB83A;}
</style>
<title>IECS_illustrated_cityscape_</title>
<g>
	<g>
		<path class="st0" d="M107.1,12.9c3,1.8,5.2,4.8,6.7,7.8c0.3,0.6,2,3.6,1.7,4.3c2.5-5.4,8.7-0.9,9,9.8c0.3,9.9-6.8,18.8-11.8,21.6
			c1.8-0.8,4.4-1.3,5.4,0.4c0.6,1.1,0.1,2.5-0.6,3.6c-1.2,1.9-2.9,3.4-4.9,4.5c3.7,1.7,5.7,6.1,5.4,10.2c-0.2,4.1-2.3,7.9-4.7,11.1
			c-1,1.3-2.1,2.6-3.4,3.8c-0.1-10-19,1.5-33-14.1c-9.6-10.8,7.9-20.4,6.7-21.6c-1.9-1.9-3.6-4.2-4.9-6.5
			c-6.1-10.5-1.8-24.6,7.3-32.1C91.6,11.2,100.6,9,107.1,12.9z"/>
	</g>
	<g>
		<path class="st0" d="M0.1,41.8c-0.3-3.4,0.7-7,2.2-10.1c0.3-0.6-3.4-10.3,4.9-17c7.7-6.2,19.2-5.8,24.4-3.5c-1.7-1-2.5-3-1.7-5.3
			c2.2-6.2,22-10.4,40.2,2.3c26.9,18.7,0.3,24.7-0.2,26.1c-3,1.3-6.3,1.9-9.5,1.6c-2.8-0.2-5.6-1.2-8-2.6c-2.1-1.2-4.8,0.1-5.1,2.5
			c-0.4,2.7-1.2,5.4-2.3,7.9C40.2,54.9,26.2,59.9,14.9,57C7.9,55.3,0.8,49.3,0.1,41.8z"/>
	</g>
	<g>
		<path class="st0" d="M32,47.3c-0.3-3.4,0.7-7,2.2-10.1c0.3-0.6-3.4-10.3,4.9-17c7.7-6.2,19.2-5.8,24.4-3.5c-1.7-1-2.5-3-1.7-5.3
			C63.9,5.5,72,3.6,77.5,2.8c12.7-1.8,36.4,4.8,37.4,20.7c0.5,7.9-6.5,13.3-13.1,16.2c-3,1.3-6.3,1.9-9.5,1.6
			c-2.8-0.2-5.6-1.2-8-2.6c-2.1-1.2-4.8,0.1-5.1,2.5c-0.4,2.7-1.2,5.4-2.3,7.9c-4.8,11.2-18.7,16.2-30.1,13.3
			C39.9,60.7,32.7,54.8,32,47.3z"/>
	</g>
	<g>
		<path class="st0" d="M20.7,34.7c-0.1,3.4,1.1,7,2.8,9.9c0.4,0.6-13.6,14.1-4.9,20.3c8.1,5.7,22.9,5.8,28,3.2
			c-1.7,1.1,5-1.5,5.9,0.7c2.5,6.1,24,11.8,41.5-1.9c25.8-20.2-2.6-27.3-3.2-28.7c-3-1.2-6.4-1.6-9.6-1.1c-2.8,0.4-5.5,1.5-7.8,3
			c-2,1.4-4.8,0.2-5.3-2.2c-0.5-2.7-1.5-5.3-2.7-7.7C60,19.4,45.8,15.2,34.6,18.7C27.8,20.8,21,27.1,20.7,34.7z"/>
	</g>
</g>
</svg>
