<svg id="Layer_2" data-name="Layer 2" xmlns="http://www.w3.org/2000/svg" viewBox="0 0 510.23 411.09"><defs><style>.cls-1{fill:#4eae48;}.cls-2,.cls-3,.cls-4,.cls-5{fill:none;}.cls-2{stroke:#017439;stroke-miterlimit:10;stroke-width:1.68px;}.cls-3,.cls-4,.cls-5{stroke:#999;stroke-linejoin:round;stroke-width:3px;}.cls-4{stroke-dasharray:53.52 32.11;}.cls-5{stroke-dasharray:53.03 31.82;}</style></defs><title>IECS_illustrated_website_leftside_road</title><path class="cls-1" d="M333.67,25.69a9.46,9.46,0,0,1-18.92,0C314.75,20.47,319,0,324.21,0S333.67,20.47,333.67,25.69Z"/><line class="cls-2" x1="324.21" y1="31.04" x2="324.21" y2="51.3"/><path class="cls-1" d="M175.81,388.35a8.4,8.4,0,0,1-16.8,0c0-4.64,3.76-22.81,8.4-22.81S175.81,383.71,175.81,388.35Z"/><line class="cls-2" x1="167.41" y1="393.1" x2="167.41" y2="411.09"/><line class="cls-3" y1="226.23" x2="25" y2="226.23"/><line class="cls-4" x1="57.11" y1="226.23" x2="469.18" y2="226.23"/><line class="cls-3" x1="485.23" y1="226.23" x2="510.23" y2="226.23"/><line class="cls-3" x1="3.3" y1="49.55" x2="28.3" y2="49.55"/><line class="cls-5" x1="60.12" y1="49.55" x2="468.45" y2="49.55"/><line class="cls-3" x1="484.36" y1="49.55" x2="509.36" y2="49.55"/></svg>