<svg id="Layer_2" data-name="Layer 2" xmlns="http://www.w3.org/2000/svg" viewBox="0 0 131.15 122.25"><defs><style>.cls-1{fill:gray;}.cls-2{fill:#4d4d4d;}</style></defs><title>IECS_illustrated_assets</title><path class="cls-1" d="M97.66,3C87.88-2.61,87,1.36,75.69,1.36S64.41,4.61,53.13,4.61c-6.85,0-12.65.56-18.38,3.87S22.29,14.6,18.86,20.53c-5.64,9.77-4.14,10.64-9.78,20.41S0,49,0,60.23s5.21,8.41,10.81,18.12,5.29,9.89,10.9,19.59-1.06,16.15,9,21.13C43.24,125.28,45,120.49,59,120.49s14-.63,28-.63c7,0,12.64-5.55,16.12-11.59,7-12.12,5.5-13,12.5-25.11s14.56-9,15.45-23c.72-11.18-3.23-10.55-8.84-20.26S113.24,32,109,21.6,107.38,8.6,97.66,3Z"/><path class="cls-2" d="M88,19.1c-3.19,0-3.19-.07-6.38-.07A53.17,53.17,0,0,0,48.51,31.18,51.15,51.15,0,0,0,37,44.84c-1.59,2.76-.85,3.19-2.44,5.95-2.9,5-3.25,10-.35,15.07,3.38,5.85,3.86,5.57,7.24,11.43s1.92,6.7,5.3,12.55c2.9,5,8.39,9.32,14.2,9.32,6.76,0,6.76-.07,13.52-.07H88c5.8,0,10.18-4.86,13.08-9.88,3.38-5.86,4.82-5,8.2-10.89s4.07-5.45,7.45-11.31c2.9-5,2.77-12.45-.13-17.48-3.38-5.85-5.7-4.52-9.08-10.37s-.86-7.31-4.24-13.17C100.34,21,93.76,19.1,88,19.1Z"/></svg>