<svg id="Layer_2" data-name="Layer 2" xmlns="http://www.w3.org/2000/svg" viewBox="0 0 87.98 95.58"><defs><style>.cls-1{fill:none;stroke:#000;stroke-linecap:round;stroke-linejoin:round;stroke-width:3px;}</style></defs><title>IECS_illustrated_whitefuel_icon</title><path class="cls-1" d="M16,51V8.47a7.51,7.51,0,0,1,6.42-7.4"/><path class="cls-1" d="M22.38,1.07A9.1,9.1,0,0,1,23.43,1H58.84a7.49,7.49,0,0,1,7.47,7.47V85.08H16V62.28"/><line class="cls-1" x1="1" y1="94.58" x2="81.75" y2="94.58"/><path class="cls-1" d="M83,30.72a5.74,5.74,0,0,1,4,5.43v29a5.71,5.71,0,0,1-11.41,0V35.2h-9"/><rect class="cls-1" x="22.47" y="11.93" width="37.82" height="18.05" rx="1.39" ry="1.39"/><line class="cls-1" x1="40.19" y1="29.26" x2="32.99" y2="19.82"/></svg>