<svg id="Layer_2" data-name="Layer 2" xmlns="http://www.w3.org/2000/svg" viewBox="0 0 812.54 52.56"><defs><style>.cls-1{fill:#fff;}</style></defs><title>IECS_illustrated_cityscape_</title><path class="cls-1" d="M765.2,30.23c.92,0,2,0,2.61.75,1.43,1.82-2.36,5.58-1.3,7.08,1.25,1.79,9.15,0,15.65-4.66,4.89-3.49,5.5-6.09,9.69-7.08,2.63-.63,7.21-.74,9.32,1.86,3,3.66-.87,10.3,1.31,11.56,1.76,1,4.9-2.93,7.83-1.68a4.51,4.51,0,0,1,2.23,2.61H740.22S760.52,30.21,765.2,30.23Z"/><path class="cls-1" d="M21.78,43.46c.8,0,1.77,0,2.27.65C25.3,45.7,22,49,22.91,50.29c1.1,1.56,8,0,13.66-4.06,4.26-3,4.79-5.32,8.45-6.18,2.29-.54,6.28-.64,8.12,1.63,2.6,3.19-.76,9,1.14,10.07,1.53.89,4.27-2.55,6.83-1.46a4,4,0,0,1,2,2.27H0S17.7,43.45,21.78,43.46Z"/><path class="cls-1" d="M394.17,6.05c1.3,0,2.87,0,3.69,1.06,2,2.56-3.33,7.88-1.85,10,1.78,2.53,12.93,0,22.11-6.58,6.91-4.93,7.77-8.6,13.69-10,3.7-.88,10.17-1,13.16,2.63,4.2,5.17-5.06,17,1.84,17H358.9S387.57,6,394.17,6.05Z"/></svg>