<svg xmlns="http://www.w3.org/2000/svg" viewBox="0 0 154.22 77.36"><defs><style>.cls-1{isolation:isolate;}.cls-2{fill:#525252;opacity:0.14;mix-blend-mode:multiply;}.cls-3{fill:#e6dfcc;}.cls-4{fill:#ccc3a8;}.cls-5{fill:#e2dfe6;}.cls-6{fill:#669fcc;}.cls-7{fill:#45474a;}.cls-8{fill:#f3482a;}</style></defs><title>IECS_illustrated_assets</title><g class="cls-1"><g id="Layer_2" data-name="Layer 2"><path class="cls-2" d="M96.59,12.73l-73.2-1.55C13.8,11.18,0,19,0,28.55V57C0,66.6,13.8,74.38,23.39,74.38l73.2-1.55-1.1,4.47s3.68.9,4.42-4.52c.79,0,1.58,0,2.36.12l13.21.61c8.59.8,19.6-1.51,25.7-7.61,5.24-5.24,6-13.39,6-21.39V41.05c0-8-.81-16.15-6-21.39-6.1-6.1-17.11-8.11-25.7-7.31l-13.21.31c-.78.07-1.57.11-2.36.12-.74-5.42-4.42-4.52-4.42-4.52Z"/><path class="cls-3" d="M105.9,4.58a31.44,31.44,0,0,0,3.36-.12l13.21-.31c8.58-.8,19.6,1.21,25.7,7.31,5.24,5.24,6.05,13.39,6.05,21.39v3.46c0,8-.81,16.15-6.05,21.39-6.1,6.09-17.12,8.41-25.7,7.61l-13.21-.61a27,27,0,0,0-3.36-.12l-75.52,1.6C20.78,66.18,7,58.4,7,48.8V20.35C7,10.76,20.78,3,30.38,3Z"/><path class="cls-4" d="M105.05,8.05a31.88,31.88,0,0,0,3.24-.1l12.76-.28c8.3-.7,18.94,1.08,24.83,6.47,5.07,4.63,5.85,11.84,5.85,18.91v3.06c0,7.07-.78,14.27-5.85,18.91-5.89,5.39-16.53,7.43-24.83,6.73l-12.76-.54a31.89,31.89,0,0,0-3.24-.11l-73,1.42c-9.27,0-22.6-6.88-22.6-15.36V22c0-8.48,13.33-15.36,22.6-15.36Z"/><path class="cls-5" d="M107,6.64h-2.94L102.47.06S107-1.06,107,6.64Z"/><path class="cls-5" d="M107,62.52h-2.94l-1.62,6.58S107,70.21,107,62.52Z"/><path class="cls-6" d="M151.73,21.41C149.22,11.83,144,9.78,140.81,8a21.73,21.73,0,0,0-5.47-1.83A97.87,97.87,0,0,0,151.73,21.41Z"/><path class="cls-7" d="M68.44,10c-.06.22-.11.44-.17.66h17c8.5,0,24.17-4,24.17-4s-26.59-.8-40.06,0C69,7.65,68.72,8.83,68.44,10Z"/><path class="cls-7" d="M67.63,6.67A115.86,115.86,0,0,0,45.1,10.62H66.7C67,9.3,67.31,8,67.63,6.67Z"/><path class="cls-8" d="M11.23,18a54.17,54.17,0,0,1,14.6-9.62,24.83,24.83,0,0,0-6.67.25,15.08,15.08,0,0,0-6.46,5.64,35.42,35.42,0,0,0-2.52,4.6A11.55,11.55,0,0,0,11.23,18Z"/><path class="cls-6" d="M151.73,48.44C149.22,58,144,60.07,140.81,61.81a21.73,21.73,0,0,1-5.47,1.83A97.87,97.87,0,0,1,151.73,48.44Z"/><path class="cls-7" d="M121.62,55.54c1.35-4.12,2.58-10.61,2.58-20.62S123,18.43,121.62,14.31a7.94,7.94,0,0,0-9-5.44L92,12.9a1.51,1.51,0,0,0-1.2,1.5c.06,10.39.79,20.52.79,20.52s-.73,10.14-.79,20.53A1.51,1.51,0,0,0,92,57l20.61,4A7.94,7.94,0,0,0,121.62,55.54Z"/><path class="cls-8" d="M11.23,51.12a54.65,54.65,0,0,0,14.6,9.62,24.43,24.43,0,0,1-6.67-.26,15.12,15.12,0,0,1-6.46-5.63,35.42,35.42,0,0,1-2.52-4.6A9,9,0,0,1,11.23,51.12Z"/><path class="cls-7" d="M68.44,59.89c-.06-.22-.11-.44-.17-.66h17c8.5,0,24.17,4.05,24.17,4.05s-26.59.8-40.06,0C69,62.2,68.72,61,68.44,59.89Z"/><path class="cls-7" d="M67.63,63.18a115.86,115.86,0,0,1-22.53-4H66.7C67,60.55,67.31,61.86,67.63,63.18Z"/><path class="cls-7" d="M43.75,54.33a47.1,47.1,0,0,1-4.1-19.41,47.08,47.08,0,0,1,4.1-19.4c-4.55-1.59-10.64-2.2-13.92-2.42a3.6,3.6,0,0,0-3.48,2,45.72,45.72,0,0,0-4.62,19.83,45.74,45.74,0,0,0,4.62,19.84,3.6,3.6,0,0,0,3.48,2C33.11,56.53,39.2,55.92,43.75,54.33Z"/></g></g></svg>