<svg id="Layer_2" data-name="Layer 2" xmlns="http://www.w3.org/2000/svg" viewBox="0 0 231.23 196.39"><defs><style>.cls-1{fill:none;stroke:#4d4d4d;stroke-miterlimit:10;stroke-width:4px;}</style></defs><title>IECS_illustrated_roadcrack</title><path class="cls-1" d="M79.72.06a29.43,29.43,0,0,1-.82,8,27.07,27.07,0,0,1-2.23,6.5c-.25.5-.51,1-.77,1.48s-.5,1-.77,1.43c-.53.95-1.1,1.87-1.69,2.78-1.17,1.82-2.51,3.61-3.72,5.42s-2.39,3.67-3.47,5.66c-.53,1-1,2-1.5,3.08a31.92,31.92,0,0,0-1.11,3.3,28,28,0,0,0,.65,16.61,30.12,30.12,0,0,0,4,8.26,25.32,25.32,0,0,0,5.18,5.57,34.28,34.28,0,0,0,5.86,3.64,57.46,57.46,0,0,0,6.17,2.52c2.09.74,4.09,1.47,6.14,2.24a42.2,42.2,0,0,1,6,2.69,34.14,34.14,0,0,1,5.66,3.93,38.14,38.14,0,0,1,5.33,6,32.59,32.59,0,0,1,6,13.5c.21,1.09.34,2.2.45,3.28s.22,2.15.28,3.23c.13,2.16.14,4.35.19,6.58s.23,4.36.53,6.6c.16,1.11.35,2.24.61,3.37a26.59,26.59,0,0,0,1,3.33A28.08,28.08,0,0,0,128,142a30.47,30.47,0,0,0,8.11,4.32,24.93,24.93,0,0,0,7.47,1.46,34.17,34.17,0,0,0,6.87-.49,61.91,61.91,0,0,0,6.48-1.59l6.29-1.79a40.07,40.07,0,0,1,6.41-1.32c1.08-.11,2.21-.23,3.36-.27a26.37,26.37,0,0,1,3.53.12,37.48,37.48,0,0,1,7.81,1.67,32.67,32.67,0,0,1,12.8,7.37c.8.76,1.56,1.56,2.29,2.39s1.44,1.61,2.13,2.44c1.37,1.68,2.68,3.43,4,5.2a61.62,61.62,0,0,0,4.32,5c.78.81,1.6,1.6,2.48,2.36q.65.57,1.35,1.11c.47.34.95.67,1.45,1a29.38,29.38,0,0,0,6.9,3.25,37.08,37.08,0,0,0,9.08,1.27"/><path class="cls-1" d="M1.55,195.13c23.66-29.23,42.31-14.13,66-43.36s5-44.33,28.65-73.56"/></svg>