<svg id="Layer_2" data-name="Layer 2" xmlns="http://www.w3.org/2000/svg" viewBox="0 0 128.06 125.18"><defs><style>.cls-1{fill:none;stroke:#4d4d4d;stroke-linecap:round;stroke-linejoin:round;stroke-width:4px;}</style></defs><title>IECS_illustrated_roadcrack</title><path class="cls-1" d="M126.06,123.18a10.56,10.56,0,0,1-1.22-.37l-.88-.34-.41-.17-.23-.11-.92-.47c-.3-.15-.46-.26-.69-.39l-.63-.39-.52-.35c-.34-.24-.68-.48-1-.7a21.72,21.72,0,0,1-2.92-2.75,21.45,21.45,0,0,1-3.6-5.7c-1.71-3.91-2.3-8-2.88-12.1-1.14-8.18-2.15-16.31-11.24-23-9.54-7.06-19.59-4.58-30.4-3.09C58.2,74.67,47.65,70.5,41.89,61.52A20,20,0,0,1,38.46,51c-.05-5.89,3.49-11.54,2.6-17.44-.81-5.43-5.64-8.86-10-11.56C25.68,18.59,22,15.51,18.86,10,16.63,6,12.37.24,7.11,2.52A7.84,7.84,0,0,0,3.25,6.9c-4.9,12,5.76,25,11.91,34.21,2.08,3.14,4.25,6.3,5.43,9.88C23.8,60.64,16.68,67.73,9,72.29"/></svg>