<svg xmlns="http://www.w3.org/2000/svg" viewBox="0 0 165.05 86.8"><defs><style>.cls-1{isolation:isolate;}.cls-2{fill:#525252;opacity:0.14;mix-blend-mode:multiply;}.cls-3{fill:#f5b339;}.cls-4{fill:#ffdd3e;}.cls-5{fill:#282f3a;}.cls-6{fill:#3a454f;}.cls-7{fill:#dd3e3e;}.cls-8{fill:#fff;}.cls-9{fill:#f2e5c0;}.cls-10{fill:#ec9100;}</style></defs><title>IECS_illustrated_assets</title><g class="cls-1"><g id="Layer_2" data-name="Layer 2"><path class="cls-2" d="M95.86,10.09l1.35,5.46c-8.2-.11-17.43-.22-26.79-.24h0a.57.57,0,0,0-.56-.57H66.48a.57.57,0,0,0-.56.57h0l-8,0v0h0a.58.58,0,0,0-.57-.57H54a.58.58,0,0,0-.57.57h0a.25.25,0,0,0,0,.07C29.71,15.65,8.79,16.77,6,20.1a17.3,17.3,0,0,0-2.09,3.28h0q-.44.87-.81,1.8l-.05.12c-.23.59-.45,1.19-.65,1.81a1.09,1.09,0,0,0,0,.17c-.2.61-.38,1.24-.55,1.87l0,.14c-.17.67-.33,1.35-.47,2h0a65.15,65.15,0,0,0-1.1,8.56h0c0,.48,0,.95-.08,1.41l0,.59c0,.45,0,.89,0,1.32,0,.16,0,.32,0,.48,0,.35,0,.69,0,1,0,.14,0,.28,0,.42,0,.43,0,.85,0,1.25,0,.12,0,.23,0,.35v2.35c0,.12,0,.23,0,.35,0,.4,0,.82,0,1.25,0,.14,0,.28,0,.42,0,.34,0,.68,0,1,0,.16,0,.32,0,.48,0,.43,0,.87.05,1.32l0,.59c0,.46,0,.93.08,1.41h0a65.15,65.15,0,0,0,1.1,8.56h0c.14.68.3,1.36.47,2l0,.14c.17.63.35,1.26.55,1.87a1.09,1.09,0,0,0,0,.17c.2.62.42,1.22.65,1.81l.05.12A19.36,19.36,0,0,0,6,75.71C8.79,79,29.71,80.16,53.4,80.43a.25.25,0,0,0,0,.07h0a.58.58,0,0,0,.57.57h3.37a.58.58,0,0,0,.57-.57h0a0,0,0,0,0,0,0l8,0h0a.57.57,0,0,0,.56.57h3.38a.57.57,0,0,0,.56-.57h0c9.36,0,18.59-.13,26.79-.24l-1.35,5.46a.88.88,0,0,0,1,1.07,4.31,4.31,0,0,0,3.64-3.26,3.11,3.11,0,0,0-.69-3.31c9.06-.12,16.68-.24,21.51-.24,16,0,22.64-.9,26.8-5l.36-.38.34-.43h0a11.61,11.61,0,0,0,.9-1.42l0-.05c.14-.24.27-.5.4-.76l0-.09c.14-.28.27-.57.4-.87h0c.41-.94.8-2,1.16-3.1l0-.08c.29-.88.56-1.81.82-2.76a.85.85,0,0,0,.17.06h0a.61.61,0,0,0,.74-.43,76.35,76.35,0,0,0,2.53-16.79,76.35,76.35,0,0,0-2.53-16.8.61.61,0,0,0-.74-.43h0l-.17.06c-.15-.54-.3-1.08-.46-1.61h0c-.11-.36-.22-.72-.34-1.08l0-.12c-.1-.33-.21-.65-.32-1l0-.11c-.25-.7-.51-1.36-.77-2l0,0c-.12-.29-.25-.56-.37-.82l-.09-.18c-.1-.21-.21-.42-.32-.63a1.62,1.62,0,0,0-.1-.18c-.11-.21-.23-.41-.35-.61l-.06-.1c-.15-.24-.3-.46-.44-.66h0a5.37,5.37,0,0,0-.35-.45c-.13-.15-.25-.28-.38-.41h0c-4.16-4.06-10-5-26.8-5-4.83,0-12.45-.12-21.51-.24a3.11,3.11,0,0,0,.69-3.31A4.31,4.31,0,0,0,96.86,9,.88.88,0,0,0,95.86,10.09Z"/><path class="cls-3" d="M130.32,71c16,0,22.64-.9,26.8-5s7.09-20.26,7.09-27.12-2.92-23-7.09-27.11-10-5-26.8-5C107.24,6.82,20.83,4.09,15,11.09S9,31.85,9,38.89,9.23,59.7,15,66.7,107.24,71,130.32,71Z"/><path class="cls-4" d="M126.68,68.21c15.53,0,21.27-.82,25.08-4.53s5.36-18.52,5.36-24.79-1.56-21.06-5.36-24.78-7.83-4.53-25.08-4.53A78,78,0,0,0,112.37,11c-4.52,2-12,3.05-19.28,3.79-1.18-.85-3.52-1.35-6-1.35-3.39-1.12-10.54-.28-15,0-.24,0-1,0-1.25,0,0,0-15.24-.67-22,0a19.93,19.93,0,0,0-4.39.82c-2.06.23-10.69-2.56-12.27-2.27-3.19.59-10.46.55-11.2,1.45-5.31,6.39-5.52,19-5.52,25.41s.21,19,5.52,25.42c.74.9,8,.86,11.2,1.44,1.58.29,10.21-2.49,12.27-2.26a18.79,18.79,0,0,0,4.39.81c6.72.67,22,0,22,0,.24,0,1,0,1.25,0,4.41.29,11.56,1.12,15,0,2.48,0,4.82-.49,6-1.34,7.28.74,14.76,1.8,19.28,3.79A78,78,0,0,0,126.68,68.21Z"/><path class="cls-5" d="M72.14,13.48H87.83l23-4.26c-8.25-.86-24.27-.92-38.69-.76Z"/><path class="cls-5" d="M70.89,8.48c-15.08.18-28.09.61-28.09.61l6.13,4.39h22Z"/><path class="cls-5" d="M120.86,38.89s.2-16-8.49-27.85L93.09,14.83s5.57,6.51,5.57,24.06S93.09,63,93.09,63l19.28,3.79C121.06,54.91,120.86,38.89,120.86,38.89Z"/><path class="cls-6" d="M72.14,64.3H87.83l23,4.27c-8.25.85-24.27.92-38.69.75Z"/><path class="cls-6" d="M70.89,69.31c-15.08-.19-28.09-.61-28.09-.61l6.13-4.4h22Z"/><path class="cls-5" d="M44.54,63.49c-1.63-6-1.63-43.22,0-49.19,0,0-7.43-2.81-12.27-2.27-2.47,4-5.6,12.6-5.6,26.86s3.13,22.82,5.6,26.86C37.11,66.3,44.54,63.49,44.54,63.49Z"/><path class="cls-4" d="M106.5,7.73l-1.64-6.65a.89.89,0,0,1,1-1.07,4.3,4.3,0,0,1,3.64,3.26C110.58,7.06,106.5,7.73,106.5,7.73Z"/><path class="cls-4" d="M106.5,70.06l-1.64,6.65a.89.89,0,0,0,1,1.07,4.31,4.31,0,0,0,3.64-3.26C110.58,70.73,106.5,70.06,106.5,70.06Z"/><path class="cls-6" d="M93.09,63l19.28,3.79c8.69-11.84,8.49-27.86,8.49-27.86H98.66C98.66,56.45,93.09,63,93.09,63Z"/><path class="cls-6" d="M44.54,63.49c0-.2-.1-.42-.15-.65l0-.2c0-.14,0-.27-.07-.41-.65-4.1-1-13.71-1-23.34H26.67c0,14.27,3.13,22.82,5.6,26.86C37.11,66.3,44.54,63.49,44.54,63.49Z"/><path class="cls-5" d="M10.87,45.57a85,85,0,0,1,0-13.35c.05-.62-.67-1.21-1.65-1.35C9,33.92,9,36.73,9,38.89s0,5,.22,8C10.2,46.78,10.92,46.19,10.87,45.57Z"/><path class="cls-7" d="M10.92,22.66h0a1.26,1.26,0,0,0,1.49-.92q.71-2.91,1.66-5.78a1.21,1.21,0,0,0-.78-1.54h0a1.41,1.41,0,0,0-.35-.05,32.13,32.13,0,0,0-2.62,8A1.34,1.34,0,0,0,10.92,22.66Z"/><path class="cls-7" d="M13.32,63.37a1.22,1.22,0,0,0,.78-1.54q-1-2.86-1.66-5.78A1.25,1.25,0,0,0,11,55.13h0a1.33,1.33,0,0,0-.6.34,31.86,31.86,0,0,0,2.62,8,1,1,0,0,0,.35,0Z"/><path class="cls-5" d="M160.59,54.25a1.59,1.59,0,0,0,1.17,1.87h0a.61.61,0,0,0,.74-.43,76.35,76.35,0,0,0,2.53-16.8,76.35,76.35,0,0,0-2.53-16.79.62.62,0,0,0-.74-.44h0a1.59,1.59,0,0,0-1.17,1.87c1.1,5,2.21,10.23,2.21,15.35S161.7,49.17,160.59,54.25Z"/><path class="cls-3" d="M78.46,50.28l4.11-22.9-7.7-5.1a1,1,0,0,0-1.58.85V44.22a1.39,1.39,0,0,0,.38,1C74.84,46.45,78.38,50.27,78.46,50.28Z"/><rect class="cls-8" x="78.15" y="27.34" width="4.98" height="23.11" rx="0.79" ry="0.79"/><rect class="cls-9" x="79.56" y="30.55" width="2.18" height="16.68" rx="0.55" ry="0.55"/><path class="cls-8" d="M156.92,13l-.39-1q1.51,3.77,3,7.56a1.08,1.08,0,0,0,1.4.6h0a.64.64,0,0,0,.16-.11,26.12,26.12,0,0,0-3.26-7.47Z"/><path class="cls-10" d="M156.53,12.07l.39,1,1-.38a7.36,7.36,0,0,0-.75-.87c-.19-.19-.38-.36-.58-.53A1.06,1.06,0,0,0,156.53,12.07Z"/><path class="cls-8" d="M159.76,58.27q-1.69,3.7-3.4,7.4c.15-.31.3-.63.44-.94l1,.47a25.76,25.76,0,0,0,3.3-7.48A1.07,1.07,0,0,0,159.76,58.27Z"/><path class="cls-10" d="M157.82,65.2l-1-.47c-.14.31-.29.63-.44.94a1.07,1.07,0,0,0,.06,1c.24-.2.48-.41.7-.63A7.17,7.17,0,0,0,157.82,65.2Z"/><rect class="cls-5" x="74.92" y="5.72" width="4.5" height="1.14" rx="0.57" ry="0.57"/><rect class="cls-5" x="62.38" y="5.72" width="4.5" height="1.14" rx="0.57" ry="0.57"/><rect class="cls-5" x="74.92" y="70.92" width="4.5" height="1.14" rx="0.57" ry="0.57"/><rect class="cls-5" x="62.38" y="70.92" width="4.5" height="1.14" rx="0.57" ry="0.57"/></g></g></svg>