<svg id="Layer_2" data-name="Layer 2" xmlns="http://www.w3.org/2000/svg" viewBox="0 0 158.45 193.33"><defs><style>.cls-1{fill:#6cb83a;}</style></defs><title>IECS_illustrated_cityscape_</title><path class="cls-1" d="M66.06,3.87C70,3.4,73.85,3,77.7,2.57A464.34,464.34,0,0,1,126.17,0c5.9,0,13.78.93,16.1,7.38,1.25,3.47-1.14,11.06,3.28,12.64,4.83,1.73,9.49,4.65,11.6,9.53,4.12,9.53-2.37,20.86-7.72,28.49-6.54,9.33-16.58,21.42-27.79,25.3-27.54,9.54,3.58,19,14.37,21.06,4.37.84,4.4,2.47,4.42,3.82,0,1.17-1.67,3-4.49,5.22,9.14,2.45,8.52,6.92,6,9.57-4.33,4.52-5.47,2.08-20.72,7.36-20.27,7-7.58,17.06.37,18.61,3.22.62,3.79,4.63.12,5.51-26.36,6.29-12.69,28.42-8.85,36.95a1.33,1.33,0,0,1-1.8,1.74c-13.44-6.71-73.39-36.9-73.31-41.39,0-1,0-2.19,3.25-2.81,7.95-1.55,9.17-9.58-2-16.35-13.79-8.37-14-5.1-18.36-9.62-2.53-2.65-3.15-7.12,6-9.57-2.83-2.23-4.52-4-4.5-5.22,0-1.35.05-3,4.4-3.82,7.18-1.4,27.47-3.14,23.39-15a13.48,13.48,0,0,0-4-5.65C32,71.48,6.24,65.8.82,44.85-4.39,24.68,16.29,13.69,32.74,9.6A273.75,273.75,0,0,1,66.06,3.87Z"/></svg>