<svg id="Layer_2" data-name="Layer 2" xmlns="http://www.w3.org/2000/svg" viewBox="0 0 318.24 90.73"><defs><style>.cls-1,.cls-4{fill:#001903;}.cls-2{fill:#4eae48;}.cls-3,.cls-5{fill:none;}.cls-3{stroke:#fff;}.cls-3,.cls-4{stroke-miterlimit:10;}.cls-4{stroke:#000;}.cls-5{stroke:#001903;stroke-linecap:round;stroke-linejoin:round;}.cls-6{fill:#76b56f;}</style></defs><title>IECS_illustrated_assets</title><path class="cls-1" d="M74.54,60.27a17,17,0,0,0-17,17,17.66,17.66,0,0,0,.13,2.06H91.41a17.66,17.66,0,0,0,.13-2.06A17,17,0,0,0,74.54,60.27Z"/><path class="cls-1" d="M264.78,55.14V79.33h41.73V55.14Z"/><path class="cls-2" d="M260.87,0V57.81h33l4.76,4.76h19.61v-7.2a2.44,2.44,0,0,0-2.44-2.44h0l-3.54-25V21A7.31,7.31,0,0,0,305,13.73h0S309.82,0,260.87,0Z"/><path class="cls-1" d="M282,44.32l-7.35-1.66a1.7,1.7,0,0,1-1.7-1.7V29.07a1.71,1.71,0,0,1,1.7-1.71H282a1.71,1.71,0,0,1,1.7,1.71V42.61A1.71,1.71,0,0,1,282,44.32Z"/><path d="M304.81,44.32l-13.55-1.66a1.71,1.71,0,0,1-1.71-1.7V29.07a1.72,1.72,0,0,1,1.71-1.71h11.48a1.71,1.71,0,0,1,1.7,1.71l2.07,13.54A1.71,1.71,0,0,1,304.81,44.32Z"/><polygon class="cls-1" points="312.26 27.91 309.02 27.91 312.26 47.35 315.01 47.35 312.26 27.91"/><path class="cls-3" d="M284.66,62.57a14.94,14.94,0,0,0-14.94,14.95,15.57,15.57,0,0,0,.11,1.81H299.5a15.57,15.57,0,0,0,.11-1.81A15,15,0,0,0,284.66,62.57Z"/><path class="cls-3" d="M284.66,59.16a18,18,0,0,0-18,18,17.48,17.48,0,0,0,.14,2.18h35.69a17.48,17.48,0,0,0,.14-2.18A18,18,0,0,0,284.66,59.16Z"/><path class="cls-1" d="M197.74,60.27a17,17,0,0,0-17,17,17.66,17.66,0,0,0,.13,2.06h33.74a17.66,17.66,0,0,0,.13-2.06A17,17,0,0,0,197.74,60.27Z"/><path class="cls-1" d="M197.74,62.48a15,15,0,0,0-15,15,13.79,13.79,0,0,0,.12,1.82h29.82a15.74,15.74,0,0,0,.11-1.82A15,15,0,0,0,197.74,62.48Z"/><path d="M113.77,60.27a17,17,0,0,0-17,17,17.66,17.66,0,0,0,.13,2.06h2a13.79,13.79,0,0,1-.12-1.82,15,15,0,0,1,30.06,0,15.74,15.74,0,0,1-.12,1.82h2a17.66,17.66,0,0,0,.13-2.06A17,17,0,0,0,113.77,60.27Z"/><path class="cls-2" d="M299.45,65.37h18.79v15.3H299.45Z"/><path class="cls-1" d="M315.22,68.47h3a0,0,0,0,1,0,0v7.13a0,0,0,0,1,0,0h-3A1.62,1.62,0,0,1,313.61,74v-3.9A1.62,1.62,0,0,1,315.22,68.47Z"/><rect class="cls-4" x="227.16" y="61" width="34.72" height="17.03" rx="3.3" ry="3.3"/><rect class="cls-1" x="134.96" y="60.73" width="38.86" height="17.03" rx="3.3" ry="3.3"/><rect class="cls-1" x="179.73" y="64.72" width="91.39" height="14.61"/><rect class="cls-1" y="47.35" width="249.48" height="9.23"/><path class="cls-1" d="M202.59,55.53h21.94a0,0,0,0,1,0,0v1.54A1.54,1.54,0,0,1,223,58.61H204.13a1.54,1.54,0,0,1-1.54-1.54V55.53A0,0,0,0,1,202.59,55.53Z"/><path class="cls-1" d="M197.38,60.27h20.39a5.81,5.81,0,0,1,5.81,5.81v9.66a0,0,0,0,1,0,0h-26.2a0,0,0,0,1,0,0V60.27A0,0,0,0,1,197.38,60.27Z"/><rect x="177.5" y="62.13" width="3.24" height="8.31"/><circle cx="284.66" cy="77.36" r="13.37"/><circle class="cls-3" cx="284.66" cy="77.36" r="9.36"/><circle cx="197.74" cy="77.36" r="13.37"/><circle class="cls-3" cx="197.74" cy="77.36" r="9.36"/><path class="cls-1" d="M19.19,79.33a17.66,17.66,0,0,1-.12-2.06,17,17,0,1,1,34,0,17.66,17.66,0,0,1-.13,2.06Z"/><circle cx="74.54" cy="77.36" r="13.37"/><circle class="cls-3" cx="74.54" cy="77.36" r="9.36"/><circle cx="36.06" cy="77.36" r="13.37"/><circle class="cls-3" cx="36.06" cy="77.36" r="9.36"/><rect class="cls-1" x="8.68" y="56.58" width="162.46" height="6.06"/><rect class="cls-1" x="209.47" y="56.37" width="8.98" height="6.28" rx="3.14" ry="3.14"/><path class="cls-1" d="M113.77,60.27a17,17,0,0,0-17,17,17.66,17.66,0,0,0,.13,2.06h33.74a17.66,17.66,0,0,0,.13-2.06A17,17,0,0,0,113.77,60.27Z"/><circle cx="113.77" cy="77.36" r="13.37"/><circle class="cls-3" cx="113.77" cy="77.36" r="9.36"/><path class="cls-5" d="M293.05,14.36H269.72"/><rect class="cls-6" x="2.27" y="35.02" width="33.79" height="6.69"/><rect class="cls-6" x="36.94" y="34.98" width="33.79" height="6.69"/><rect class="cls-6" x="71.61" y="34.94" width="33.79" height="6.69"/><rect class="cls-6" x="106.27" y="34.89" width="33.79" height="6.69"/><rect class="cls-6" x="140.94" y="34.85" width="33.79" height="6.69"/><rect class="cls-6" x="175.6" y="34.8" width="33.79" height="6.69"/><rect class="cls-6" x="210.27" y="34.76" width="33.79" height="6.69"/><rect class="cls-6" x="2.27" y="24.15" width="33.79" height="6.69"/><rect class="cls-6" x="36.94" y="24.1" width="33.79" height="6.69"/><rect class="cls-6" x="71.61" y="24.06" width="33.79" height="6.69"/><rect class="cls-6" x="106.27" y="24.02" width="33.79" height="6.69"/><rect class="cls-6" x="140.94" y="23.97" width="33.79" height="6.69"/><rect class="cls-6" x="175.6" y="23.93" width="33.79" height="6.69"/><rect class="cls-6" x="210.27" y="23.89" width="33.79" height="6.69"/><rect class="cls-6" x="2.27" y="13.27" width="33.79" height="6.69"/><rect class="cls-6" x="36.94" y="13.23" width="33.79" height="6.69"/><rect class="cls-6" x="71.61" y="13.18" width="33.79" height="6.69"/><rect class="cls-6" x="106.27" y="13.14" width="33.79" height="6.69"/><rect class="cls-6" x="140.94" y="13.1" width="33.79" height="6.69"/><rect class="cls-6" x="175.6" y="13.05" width="33.79" height="6.69"/><rect class="cls-6" x="210.27" y="13.01" width="33.79" height="6.69"/><rect class="cls-6" x="2.27" y="2.4" width="33.79" height="6.69"/><rect class="cls-6" x="36.94" y="2.35" width="33.79" height="6.69"/><rect class="cls-6" x="71.61" y="2.31" width="33.79" height="6.69"/><rect class="cls-6" x="106.27" y="2.26" width="33.79" height="6.69"/><rect class="cls-6" x="140.94" y="2.22" width="33.79" height="6.69"/><rect class="cls-6" x="175.6" y="2.18" width="33.79" height="6.69"/><rect class="cls-6" x="210.27" y="2.13" width="33.79" height="6.69"/></svg>