<?xml version="1.0" encoding="utf-8"?>
<!-- Generator: Adobe Illustrator 22.1.0, SVG Export Plug-In . SVG Version: 6.00 Build 0)  -->
<svg version="1.1" xmlns="http://www.w3.org/2000/svg" xmlns:xlink="http://www.w3.org/1999/xlink" x="0px" y="0px"
	 viewBox="0 0 90.4 95.7" style="enable-background:new 0 0 90.4 95.7;" xml:space="preserve">
<style type="text/css">
	.st0{fill:none;stroke:#000000;stroke-width:3;stroke-linecap:round;stroke-miterlimit:10;}
	.st1{stroke:#000000;stroke-width:2;stroke-miterlimit:10;}
</style>
<g id="Layer_2_1_">
	<title>IECS_illustrated_whitefuel_icon</title>
</g>
<g id="Layer_4">
	<g>
		<path class="st0" d="M10.4,45.6c-2,2.3-3.8,4.6-5.4,7.2c-6.2,10.4-4,21.8,5,29.8c14.6,12.9,42,15.5,61.3,5.8
			c10.9-5.5,20.9-16.9,16.4-29.9C83.8,47.1,71.9,39.8,66.5,29c-1.5-3-2.9-6.2-3.6-9.5C62.3,16.7,68,4.6,69.4,2
			c0.1-0.2-0.1-0.5-0.3-0.5c-4.4,0.3-10.7,3.8-15,3.8c-4.5,0-4.5-3.4-9-3.4c-4.5,0-4.5,3.4-9,3.4c-4.3,0-9.3-3.2-13.6-3.4
			c-0.2,0-0.4,0.2-0.3,0.4c1.3,4,5.8,14.1,5,17.6c-0.7,3-2,6.1-3.5,9.1c-1.8,3.5-4.1,6.5-6.7,9.4"/>
		<line class="st0" x1="25.6" y1="17.3" x2="65.3" y2="17.3"/>
		<line class="st0" x1="25.6" y1="21.6" x2="65.3" y2="21.6"/>
		<g>
			<path class="st1" d="M47.3,41.5c5.7,0.7,7.8,4.7,8.1,8.2h-1.5c-0.6-5.2-4.9-6.8-7.3-6.8c-3.4,0-7.1,2.8-7.1,7.3
				c0,5.1,3.9,6.2,8.2,7.4c2.6,0.8,8.5,2.4,8.5,9.4c0,4.6-3.6,9.1-8.9,9.4v4.8h-1.5v-4.8c-5.1-0.5-8.9-4.2-9.2-9.5H38
				c0.5,5.8,4.9,8.1,8.6,8.1c4.5,0,8.1-3.6,8.1-8c0-5.9-4.6-7.2-9.2-8.5c-2.9-0.8-7.5-2.6-7.5-8.3c0-4.5,3.1-8,7.8-8.6v-4h1.5V41.5z
				"/>
		</g>
	</g>
</g>
</svg>
