<svg id="Layer_2" data-name="Layer 2" xmlns="http://www.w3.org/2000/svg" viewBox="0 0 187.74 177.73"><defs><style>.cls-1{fill:none;stroke:#4d4d4d;stroke-miterlimit:10;stroke-width:4px;}</style></defs><title>IECS_illustrated_roadcrack</title><path class="cls-1" d="M1.72,1c15.06,25.18-5.54,37.5,9.52,62.68s35.65,12.86,50.71,38a38.25,38.25,0,0,1,5.73,16.88c0,.63.09,1.27.1,1.89s0,1.07-.08,1.59c-.1,1.11-.09,2.16-.15,3.29s0,2.23,0,3.39.12,2.31.28,3.47a25.1,25.1,0,0,0,6.26,14.17,24.51,24.51,0,0,0,8.18,5.75,28.77,28.77,0,0,0,9,2.27l1.73.11.84,0h.69c29.34,0,29.34-24,58.68-24a49.38,49.38,0,0,1,5.17.26l1.2.15,1.43.22c1,.17,1.94.34,2.85.57a25.7,25.7,0,0,1,5,1.9c.74.38,1.45.75,2.12,1.18s1.29.91,1.88,1.37a24.79,24.79,0,0,1,8.37,13,71.45,71.45,0,0,1,2,13.18c.13,2.14.4,4.15.64,6.29,0,.26.08.52.13.79s.06.54.1.81.08.54.13.81.1.5.2.95a47.27,47.27,0,0,0,1.44,5"/></svg>