<?xml version="1.0" encoding="utf-8"?>
<!-- Generator: Adobe Illustrator 25.0.0, SVG Export Plug-In . SVG Version: 6.00 Build 0)  -->
<svg version="1.1" id="Layer_1" xmlns="http://www.w3.org/2000/svg" xmlns:xlink="http://www.w3.org/1999/xlink" x="0px" y="0px"
	 viewBox="0 0 540 252" style="enable-background:new 0 0 540 252;" xml:space="preserve">
<path d="M229.2,31.4c0.9,1,1.2,2,1.4,3c1,5.1,2.7,10,3.8,15c0.8,3.5,2.1,6.9,2.6,10.6c0.2,1.1,0.2,2.2-0.9,2.8
	c-1.2,0.7-2.5,0.7-3.7,0.1c-2.1-1-3.5-2.9-5-4.5c-3-3.4-6.5-6.4-9.9-9.3c-3.6-3.1-7.5-5.5-11.9-7.3c-4.2-1.7-8.6-2.5-13.1-3.2
	c-2.2-0.4-4.3-0.2-6.5-0.4c-6.9-0.5-13.8-0.4-20.7,0.1c-2.4,0.2-4.8,0.5-7.2,0.8c-1.4,0.1-1.7,0.9-1.9,2.1
	c-0.5,5.2-0.9,10.5-1.3,15.7c-0.8,9.6-0.2,19.2-0.4,28.8c0,0.2,0.1,0.3,0.1,0.4c0.5,0.6,1.1,0.6,1.7,0.6c4.4,0,8.8,0.2,13.2-0.1
	c6.5-0.4,12.7-1.8,17.3-6.9c2.8-3.1,5.1-6.5,7-10.2c0.9-1.8,2.1-3.1,4.4-2.9c1.8,0.2,2.6,1.4,2.4,3.1c-0.9,7.3-1.3,14.7-1.4,22.1
	c-0.1,6.5-1.2,14.7,1,20.9c0.5,1.6,0,2.6-1.4,3.3c-1.3,0.7-2.6,0.7-3.8-0.1c-1.2-0.8-1.9-2-2.2-3.4c-1.3-5.2-4-9.5-8.5-12.6
	c-3.4-2.3-7.2-3.8-11.3-4.8c-3.8-0.9-7.6-0.8-11.4-1.5c-1.9-0.4-4-0.1-6-0.1c-0.9,0-1.1,0.5-1.2,1.3c-0.1,2.7-0.1,5.3-0.3,8
	c-0.3,6.8-0.3,13.5-0.2,20.3c0.1,5,0.1,9.9,0.6,14.9c1,11.9,21.2,10.6,29.3,10.4c15.4-0.3,33.5-3.2,46-12.9c4.1-3.1,6.9-7.2,10-11.1
	c1.3-1.6,3-2,4.9-1.7c1.4,0.3,2.1,1.5,1.8,3.1c-0.5,2.9-1.5,5.6-2.3,8.4c-1.2,4.2-2.4,8.4-3.7,12.6c-0.7,2.4-1.4,4.9-2.1,7.3
	c-0.3,0.9-0.9,1.3-1.9,1.3c-21.7,0-43.4-0.4-65.1-0.8c-21.4-0.3-70.2,1.1-73.1,0c-1.1-0.4-2-0.7-2.2-2.1c-0.2-1.5,0.8-1.9,1.9-2.4
	c1.7-0.7,3.6-0.4,5.3-0.4c2.8,0,5.4-0.6,7.9-1.6c5.3-1.9,7.1-6.3,8-11.3c1.6-9.2,0.7-18.4,1-27.6c0.1-3.6-0.2-7.3,0.3-10.9
	c0.5-3.9,0.3-7.7,0.4-11.5c0.1-5.9,0-11.8,0-17.7c0-2.7-0.1-5.4,0-8.1c0.2-5-0.5-9.9-0.8-14.9c-0.3-4.9-4.4-8.7-9.4-9.3
	c-3-0.4-6-1-9-1.6c-1.1-0.2-1.9-0.7-1.9-2.1c0-1.3,0.7-2,1.9-2.3c6.1-1.6,14.1,0,20.4,0.1c11.7,0.1,23.4-0.1,35.1,0.1
	c12.3,0.2,24.5-0.1,36.8,0.3c5.2,0.1,10.5,0.3,15.7,0.1c4.6-0.2,9.3,0,13.9-0.2C225.6,31.4,227.5,31.4,229.2,31.4z"/>
<path d="M481.5,155.9c-7.1,0.2-14.1-0.8-21.1-2.1c-7.5-1.4-14.7-3.7-21.8-6.4c-1-0.4-1.7-0.2-2.4,0.4c-1.4,1.4-2.4,3.1-3.3,4.8
	c-0.8,1.4-1.7,2.7-3.3,3.3c-1.9,0.8-4-0.3-4.4-2.4c-0.6-3.6-0.9-7.2-1.3-10.8c-0.4-4.1-0.8-8.2-1.3-12.3c-0.4-3.9-0.8-7.7-1.3-11.6
	c-0.1-1-0.3-2.1-0.2-3.1c0-1.1-0.5-2.4,1-3.1c1.8-0.9,3.4-0.7,4.9,0.6c1.2,1,1.9,2.4,2.7,3.7c3.1,5.8,6.9,11,11.5,15.7
	c4.1,4.2,8.5,7.9,13.6,10.8c3.8,2.1,7.8,3.6,12.1,4.7c4.5,1.2,9.1,1.2,13.7,1.1c7.5-0.1,14.4-2,20.6-6.3c3.8-2.6,6.5-6,8.2-10.2
	c2.2-5.6,0.7-10.6-3.1-15c-4.1-4.8-9.6-7.2-15.3-9.3c-4.7-1.7-9.4-3.2-14.2-4.5c-4.5-1.2-9-2.3-13.4-3.5c-3.2-0.9-6.4-2-9.6-3.1
	c-5.9-2-11.7-4.3-16.8-7.8c-6.4-4.3-11.2-10-13.9-17.3c-2.5-6.6-2.1-13.1,0.8-19.6c3.3-7.4,9.2-12.2,16-16.2c5-2.9,10.4-4.7,16-5.9
	c4-0.9,8-1.3,12.1-1.5c3-0.2,6-0.5,9-0.3c5.9,0.3,11.8,0.9,17.6,2.1c5.3,1.1,10.6,2.4,15.8,3.7c1.7,0.4,2.4-0.7,3.2-1.7
	c0.6-0.7,1.1-1.6,1.6-2.4c1.3-1.9,2.9-2.6,4.8-2c1.7,0.5,2.2,1.9,2.4,3.6c0.9,5.5,2,10.9,2.8,16.4c0.6,4.1,1.3,8.1,2,12.2
	c0.3,2.1-1.5,2.8-4,2.7c-2.4-0.1-3.6-1.8-4.7-3.6c-2.7-4.2-5.6-8.1-9.3-11.4c-3.1-2.8-6.7-4.9-10.4-7c-4-2.3-8.2-4-12.7-5.1
	c-7-1.7-14-1.9-20.9,0c-6,1.6-11.3,4.4-14.7,9.9c-3.6,5.9-2.3,12.3,3,16.7c4.6,3.9,10,6.1,15.8,7.9c7.8,2.4,15.9,3.8,23.7,6
	c4.8,1.3,9.7,2.7,14.4,4.5c4.6,1.7,9,3.7,13.2,6.2c8.4,4.9,14.4,11.7,16.5,21.3c0.6,2.7,1.5,5.4,1.2,8.2c-0.6,5.8-2,11.2-5.4,16
	c-4.1,5.7-9.3,10.2-15.2,14c-4.6,2.9-9.4,5.1-14.6,6.4c-4.5,1.2-9,2.1-13.7,2.4C486.8,155.9,484.1,155.8,481.5,155.9z"/>
<path d="M385.3,39.1c2.4-1.9,4.5-4.1,6.5-6.4c1.5-1.7,3.3-2.8,5.7-2.5c1.7,0.2,2.4,1.4,2.7,2.9c0.3,2,0.6,4,0.7,6.1
	c0.1,2.7,0.6,5.4,0.7,8.1c0.1,3.2,0.4,6.5,0.8,9.7c0.5,4.2,0.6,8.5,0.8,12.7c0.1,3-0.5,3.9-2.8,4.5c-1.6,0.4-3.5-0.6-4.7-2.6
	c-2.1-3.7-4.3-7.4-7-10.7c-5-5.9-9.9-11.9-16.3-16.3c-6-4.2-12.7-6.7-20-7.7c-4.3-0.6-8.6-0.6-12.9-0.3c-8.7,0.6-16.6,3.5-23.3,9.1
	c-4.7,4-8.4,8.8-11.3,14.3c-3.3,6.4-5.1,13.3-5.8,20.4c-0.7,7.2-0.3,14.4,0.7,21.6c1.1,8.3,4,16,8.5,23c3.2,5,7.3,9.4,12.1,13
	c5.2,3.9,10.8,7,17,8.8c5.7,1.6,11.5,2.4,17.4,2c6.6-0.5,12.9-1.7,19-4.5c6.8-3.1,12.7-7.4,18.2-12.4c3-2.7,5.5-5.9,8.6-8.4
	c1.6-1.2,3.4-1.7,5.3-0.6c1.3,0.7,1.9,2.1,1.3,3.7c-0.7,1.8-1.5,3.5-2.9,4.9c-4.3,4.5-9,8.7-14.2,12.3c-3.9,2.7-7.8,5.4-12.1,7.3
	c-6,2.7-12.3,4.6-18.8,5.9c-9.4,1.9-18.9,1.9-28.3,1.6c-4.9-0.1-9.8-0.8-14.6-1.8c-5.3-1.1-10.5-2.4-15.6-4.2
	c-6.9-2.5-13.3-6-19.1-10.5c-7.6-5.9-13.9-12.8-18.3-21.2c-2.4-4.6-3.9-9.5-5-14.5c-0.8-3.9-0.6-7.8-0.8-11.7
	c-0.4-6.1,0.7-12,2.5-17.7c2.1-6.8,5.8-12.8,10.1-18.5c3.2-4.2,6.9-7.8,10.8-11.2c2.9-2.5,6.1-4.6,9.4-6.7c5.6-3.5,11.6-6,17.9-7.9
	c3.9-1.2,7.9-2,12-2.6c5.3-0.8,10.6-1.6,15.9-1.3c5.9,0.3,11.9,0.6,17.8,1.5c6.3,0.9,12.5,2.6,18.6,4.3
	C377,35.8,381,37.5,385.3,39.1z"/>
<path d="M0.5,153.4v-1.3c1.7-1.8,4-1.9,6.2-2.2c3-0.4,6-1,8.8-2.3c2.7-1.3,4.2-3.7,5.1-6.5c1.3-3.8,1.7-7.8,1.9-11.8
	c0.2-4.9,0.1-9.8,0.3-14.7c0.5-13.4,0.2-26.8,0.2-40.2c0-6.5-0.2-13-0.6-19.5c-0.3-3.9-0.7-7.9-2-11.6c-1.6-4.4-4.1-6.7-9.5-7.3
	c-2.4-0.3-4.7-0.6-7.1-0.9c-1.5-0.2-2.4-0.8-2.4-2.4c0-1.7,1.4-2.1,2.5-2.2c2.5-0.2,5.1-0.2,7.6,0c0.3,0,0.6,0.1,0.9,0.1
	c7.1,0.3,14.3,0.6,21.4,0.5c9.8-0.1,19.7,0.2,29.5-0.1c4.3-0.1,8.6-0.4,12.9-0.4c0.9,0,1.7,0.2,2.4,0.6c0.8,0.4,1.4,1,1.2,2
	c-0.2,0.9-0.8,1.7-1.8,1.9c-2.8,0.4-5.7,0.8-8.5,1.3c-7.2,1.2-9.1,3.4-10.9,9.9c-1.5,5.7-1.8,11.6-1.8,17.5
	c-0.1,6.3-0.4,12.6-0.4,18.9c0,6.7,0,13.4,0.3,20.1c0.2,4.6-0.2,9.1,0.3,13.7c0.7,5.8,0.4,11.7,1.6,17.5c0.6,2.8,1,5.7,2,8.4
	c1.1,3,3.5,5.4,6.5,6.5c3.1,1.1,6.3,1.2,9.5,1.1c1.1,0,2.1,0.4,3.1,0.9c1.3,0.7,1.1,2.7-0.3,3.5c-0.9,0.5-2,0.9-3.1,0.9
	c-21.8,0.7-43.7-2.2-65.5-0.4c-1.7,0.1-3.4,0.5-5.2,0.4C3.7,155.3,2,154.9,0.5,153.4z"/>
<rect x="237" y="227.4" width="5.6" height="5.6"/>
<g>
	<path d="M189.7,221.3c0.7,0,1.5,0,2.2,0c0.5,0,0.7,0.2,0.7,0.7c0,1,0,2,0,3c0,0.6,0.1,1.1,0.3,1.7c0.3,1,0.9,1.4,1.8,1.3
		c0.9,0,1.3-0.4,1.5-1.5c0.6-2.9,0.3-5.8-1.4-8.3c-1.6-2.3-3.2-4.6-4.8-6.9c-1.8-2.6-3.1-5.3-3.4-8.5c-0.2-1.9,0-3.8,0.8-5.7
		c1.4-3.4,4.5-4.8,8.2-4.6c0.7,0,1.4,0.1,2,0.3c3,0.8,4.8,2.9,5,6.3c0.1,1.7,0.1,3.3,0.1,5c0,0.4-0.2,0.6-0.6,0.6c-1.5,0-3,0-4.4,0
		c-0.5,0-0.6-0.2-0.6-0.6c0-1.4,0-2.9-0.1-4.3c-0.1-1.2-0.7-1.7-1.7-1.7c-1.1,0-1.7,0.6-1.9,1.8c-0.3,2.1,0.1,4,1.2,5.8
		c1.2,1.8,2.5,3.6,3.7,5.4c1.2,1.8,2.5,3.6,3.4,5.6c1.7,3.7,1.9,7.7,0.7,11.6c-1,3.3-3.5,5.1-7,5.2c-1.3,0-2.7,0-4-0.5
		c-2.6-1-3.9-3.1-4.3-5.7c-0.3-1.8-0.2-3.6-0.3-5.4c0-0.5,0.2-0.6,0.6-0.6C188.3,221.3,189,221.3,189.7,221.3z"/>
	<path d="M164.3,213c0-6.4,0-12.7,0-19.1c0-0.9,0-0.9,0.9-0.9c4,0,8,0,12.1,0c0.7,0,0.9,0.2,0.9,0.9c-0.1,1.4-0.1,2.7,0,4.1
		c0,0.7-0.2,0.9-0.9,0.9c-1.9,0-3.7,0-5.6,0c-0.6,0-0.8,0.2-0.8,0.8c0,2.9,0,5.8,0,8.7c0,0.5,0.2,0.7,0.7,0.7c1.6,0,3.1,0,4.7,0
		c0.6,0,0.8,0.2,0.8,0.8c0,1.4,0,2.9,0,4.3c0,0.6-0.2,0.7-0.7,0.7c-1.6,0-3.1,0-4.7,0c-0.6,0-0.7,0.2-0.7,0.7c0,3.7,0,7.4,0,11.1
		c0,0.6,0.2,0.8,0.8,0.7c1.9,0,3.8,0,5.7,0c0.6,0,0.9,0.2,0.8,0.8c0,1.4,0,2.8,0,4.2c0,0.5-0.2,0.7-0.7,0.7c-4.2,0-8.4,0-12.6,0
		c-0.7,0-0.7-0.3-0.7-0.8C164.3,225.8,164.3,219.4,164.3,213z"/>
	<path d="M223,215.9c0,5.4,0,10.8,0,16.2c0,0.9,0,0.9-0.9,0.9c-1.6,0-3.2,0-4.9,0c-0.9,0-0.9,0-0.9-0.9c0-5.6,0-11.3,0-16.9
		c0-5.2,0-10.4,0-15.6c0-0.9,0-0.9-0.9-0.9c-1.2,0-2.4,0-3.6,0c-0.5,0-0.7-0.2-0.7-0.7c0-1.5,0-3,0-4.4c0-0.5,0.2-0.6,0.7-0.6
		c5.2,0,10.5,0,15.7,0c0.5,0,0.7,0.2,0.6,0.7c0,1.5,0,3,0,4.4c0,0.5-0.2,0.7-0.7,0.7c-1.2,0-2.4,0-3.5,0c-1,0-1,0-1,1
		C223,205.1,223,210.5,223,215.9z"/>
</g>
<g>
	<path d="M314.9,211.9c-0.4-0.2-0.6-0.4-0.8-0.5c-1.5-1-2.5-2.4-2.5-4.2c-0.1-2.9-0.2-5.9,0-8.8c0.4-3.9,3.3-6.4,7.3-6.5
		c1.1,0,2.3,0.1,3.4,0.4c3,0.8,4.9,2.8,5.1,5.8c0.3,3.1,0.2,6.3,0,9.4c-0.1,2-1.3,3.4-3.1,4.3c-0.1,0-0.2,0.1-0.3,0.2
		c0.1,0.1,0.2,0.1,0.3,0.2c2.4,1,3.5,2.9,3.6,5.4c0.1,3.2,0.2,6.3,0,9.5c-0.3,3.7-3.2,6.5-6.9,6.9c-2.1,0.3-4.1,0.1-6-0.7
		c-2.8-1.2-4-3.6-4.2-6.5c-0.1-2.9-0.1-5.8,0-8.7C311.1,215.3,312.1,213.1,314.9,211.9z M321.3,222.3c0-1.7,0-3.4,0-5.1
		c0-0.1,0-0.1,0-0.2c-0.1-1-0.7-1.6-1.5-1.7c-1-0.1-1.8,0.4-2.1,1.3c-0.1,0.2-0.1,0.5-0.1,0.8c0,3.3,0,6.6,0,9.9
		c0,1.2,0.7,1.9,1.9,1.9c1.2,0,1.8-0.6,1.8-1.9C321.3,225.6,321.3,223.9,321.3,222.3z M321.3,203C321.3,203,321.3,203,321.3,203
		c0-1.4,0-2.8,0-4.2c0-1.1-0.6-1.6-1.7-1.6c-1.1,0-1.8,0.5-1.8,1.6c0,2.9,0,5.8,0,8.6c0,1,0.7,1.6,1.7,1.6c1.1,0,1.8-0.6,1.8-1.8
		C321.3,205.7,321.3,204.3,321.3,203z"/>
	<path d="M296.2,216.1c-1.5,1-3,1.3-4.8,1.1c-2.9-0.4-5-2.4-5.5-5.3c-0.1-0.5-0.1-1-0.1-1.6c0-3.4,0-6.8,0-10.2
		c0.1-6.2,4.9-8.6,9.3-8.1c1.7,0.2,3.2,0.6,4.6,1.6c2.1,1.6,2.9,3.8,2.9,6.4c0,3.7,0,7.5,0,11.2c0,4.7,0,9.4,0,14.1
		c0,1.9-0.3,3.7-1.4,5.3c-1.9,2.7-4.6,3.5-7.7,3.3c-2.6-0.2-4.8-1.2-6.1-3.6c-0.7-1.2-1-2.5-1-3.9c-0.1-1.3,0-2.6,0-3.9
		c0-0.5,0.2-0.7,0.7-0.7c1.7,0,3.4,0,5.1,0c0.5,0,0.7,0.2,0.7,0.7c0,1.2,0,2.4,0,3.7c0.1,1.3,0.7,1.9,2,1.9c0.8,0,1.4-0.5,1.6-1.3
		c0.1-0.3,0.1-0.6,0.1-0.9c0-3.2,0-6.4,0-9.6C296.3,216.2,296.2,216.2,296.2,216.1z M296,204.6C296,204.6,296,204.6,296,204.6
		c0-1.6,0-3.3,0-4.9c0-1.3-0.9-2.1-2.1-1.9c-0.9,0.1-1.6,0.9-1.6,2c0,1.3,0,2.7,0,4c0,1.8,0,3.5,0,5.3c0,0.8,0.1,1.7,1,2.1
		c1.3,0.7,2.6-0.1,2.7-1.6C296.1,207.9,296,206.3,296,204.6z"/>
	<path d="M350.5,206.6c0,4.4,0,8.8,0,13.2c0,1,0,1,1,1c0.6,0,1.2,0,1.7,0c0.4,0,0.6,0.1,0.6,0.6c0,1.4,0,2.8,0,4.2
		c0,0.5-0.2,0.6-0.7,0.6c-0.6,0-1.2,0-1.8,0c-0.6,0-0.8,0.2-0.8,0.8c0,1.9,0,3.8,0,5.7c0,0.6-0.1,0.8-0.8,0.8c-1.5,0-3,0-4.5,0
		c-0.5,0-0.7-0.2-0.7-0.7c0-1.9,0-3.9,0-5.8c0-0.5-0.2-0.7-0.7-0.7c-2.6,0-5.1,0-7.7,0c-1,0-0.9,0-1-1c-0.2-3.2,0.4-6.2,1.4-9.2
		c2.5-7.6,4.8-15.2,7.1-22.8c0.2-0.6,0.4-0.9,1.1-0.8c1.6,0,3.2,0,4.8,0c0.7,0,0.9,0.2,0.9,0.9C350.5,197.7,350.5,202.2,350.5,206.6
		z M344.6,205.8c0,0-0.1,0-0.1,0c-1.3,5-2.7,9.9-4,15c1.2,0,2.3,0,3.4,0c0.6,0,0.8-0.2,0.8-0.8c0-4.1,0-8.3,0-12.4
		C344.6,207,344.6,206.4,344.6,205.8z"/>
	<path d="M276.7,212.9c0,6.5,0,13,0,19.5c0,0.9,0,0.9-1,1c-1.5,0-3,0-4.5,0c-0.9,0-0.9,0-0.9-0.9c0-10.3,0-20.6,0-30.9
		c0-1.4,0.2-1.3-1.3-1.3c-1,0-2,0-3,0c-0.5,0-0.7-0.1-0.7-0.7c0-0.7,0-1.5,0-2.2c0-0.5,0.2-0.6,0.7-0.7c1.1-0.2,2.3-0.4,3.3-0.9
		c1.2-0.5,2.1-1.5,2.5-2.8c0.2-0.6,0.5-0.7,1-0.7c1,0,2,0,3,0c0.7,0,0.9,0.2,0.9,0.8c0,4.2,0,8.4,0,12.5
		C276.7,208.2,276.7,210.6,276.7,212.9z"/>
</g>
<path d="M453.6,214h-81.9c-1.8,0-3.4-1.5-3.4-3.4v0c0-1.8,1.5-3.4,3.4-3.4h81.9c1.8,0,3.4,1.5,3.4,3.4v0
	C457,212.5,455.5,214,453.6,214z"/>
<path d="M143.1,214H61.2c-1.8,0-3.4-1.5-3.4-3.4v0c0-1.8,1.5-3.4,3.4-3.4h81.9c1.8,0,3.4,1.5,3.4,3.4v0
	C146.4,212.5,144.9,214,143.1,214z"/>
</svg>
