<?xml version="1.0" encoding="utf-8"?>
<!-- Generator: Adobe Illustrator 22.1.0, SVG Export Plug-In . SVG Version: 6.00 Build 0)  -->
<svg version="1.1" xmlns="http://www.w3.org/2000/svg" xmlns:xlink="http://www.w3.org/1999/xlink" x="0px" y="0px"
	 viewBox="0 0 179.5 70" style="enable-background:new 0 0 179.5 70;" xml:space="preserve">
<style type="text/css">
	.st0{fill:none;stroke:#FFFFFF;stroke-width:3;stroke-linejoin:round;stroke-miterlimit:10;}
</style>
<g id="Layer_2_1_">
	<title>IECS_illustrated_assets</title>
</g>
<g id="Layer_4">
	<g>
		<path class="st0" d="M20.5,62c0-7.7,6.3-14,14-14c1.6,0,3.2,0.3,4.7,0.8c-1.1-3.3-1.7-6.8-1.7-10.4c0-18.3,14.8-33.1,33.1-33.1
			c7.8,0,14.9,2.7,20.6,7.2c3.3-6.5,10-10.9,17.8-10.9c11,0,20,9,20,20c0,0.2,0,0.3,0,0.5"/>
		<line class="st0" x1="1.5" y1="68.5" x2="147.5" y2="68.5"/>
		<line class="st0" x1="46" y1="58.5" x2="62" y2="58.5"/>
		<line class="st0" x1="103.5" y1="31.5" x2="178" y2="31.5"/>
		<line class="st0" x1="111.5" y1="41.5" x2="131" y2="41.5"/>
	</g>
</g>
</svg>
