<?xml version="1.0" encoding="utf-8"?>
<!-- Generator: Adobe Illustrator 22.1.0, SVG Export Plug-In . SVG Version: 6.00 Build 0)  -->
<svg version="1.1" id="Layer_2_1_" xmlns="http://www.w3.org/2000/svg" xmlns:xlink="http://www.w3.org/1999/xlink" x="0px" y="0px"
	 viewBox="0 0 632.5 273.5" style="enable-background:new 0 0 632.5 273.5;" xml:space="preserve">
<style type="text/css">
	.st0{fill:#4D4D4D;}
</style>
<title>IECS_illustrated_cityscape_</title>
<g>
	<g>
		<g>
			<path class="st0" d="M584.8,35.3c8.1,4.9,14.2,13.1,18.4,21.4c0.9,1.8,5.6,9.7,4.6,11.9c6.9-14.6,23.6-2.5,24.6,26.7
				c0.9,27-18.6,51.3-32.2,59c4.9-2.2,12-3.6,14.6,1.1c1.7,3.1,0.2,6.9-1.7,9.8c-3.3,5.1-7.9,9.3-13.3,12.2
				c10.2,4.6,15.5,16.6,14.8,27.8c-0.7,11.1-6.2,21.4-13,30.4c-2.8,3.7-5.8,7.2-9.2,10.3c-0.4-27.2-51.9,4.2-89.9-38.6
				c-26.1-29.4,21.7-55.7,18.3-59c-5.3-5.2-9.7-11.5-13.4-17.9c-16.7-28.6-4.9-67.2,19.9-87.5C542.5,30.6,567.2,24.7,584.8,35.3z"/>
		</g>
		<g>
			<path class="st0" d="M157.1,133.5c-0.9-9.4,2-19.2,6.1-27.5c0.9-1.8-9.4-28.2,13.4-46.4c21.1-16.8,52.3-15.7,66.5-9.4
				c-4.7-2.6-6.9-8.2-4.7-14.5c6-16.9,60-28.3,109.7,6.2c73.4,50.9,0.8,67.3-0.7,71.1c-8.1,3.6-17.1,5.3-25.9,4.5
				c-7.7-0.7-15.2-3.2-21.8-7.1c-5.8-3.4-13.1,0.3-14,6.9c-1,7.3-3.4,14.6-6.3,21.4c-13,30.5-51,44.1-82,36.3
				C178.6,170.2,159.1,154,157.1,133.5z"/>
		</g>
		<g>
			<path class="st0" d="M292.7,114.1c-0.9-9.4,2-19.2,6.1-27.5c0.9-1.8-9.4-28.2,13.4-46.4c21.1-16.8,52.3-15.7,66.5-9.4
				c-4.7-2.6-6.9-8.2-4.7-14.5c6-16.9,60-28.3,109.7,6.2c73.4,50.9,0.8,67.3-0.7,71.1c-8.1,3.6-17.1,5.3-25.9,4.5
				c-7.7-0.7-15.2-3.2-21.8-7.1c-5.8-3.4-13.1,0.3-14,6.9c-1,7.3-3.4,14.6-6.3,21.4c-13,30.5-51,44.1-82,36.3
				C314.1,150.8,294.7,134.6,292.7,114.1z"/>
		</g>
		<g>
			<path class="st0" d="M379.9,129c-0.9-9.4,2-19.2,6.1-27.5c0.9-1.8-9.4-28.2,13.4-46.4c21.1-16.8,52.3-15.7,66.5-9.4
				c-4.7-2.6-6.9-8.2-4.7-14.5C467,14.9,489,9.8,503.9,7.7c34.6-4.9,99.2,13,102.1,56.6c1.4,21.7-17.8,36.2-35.6,44.2
				c-8.1,3.6-17.1,5.3-25.9,4.5c-7.7-0.7-15.2-3.2-21.8-7.1c-5.8-3.4-13.1,0.3-14,6.9c-1,7.3-3.4,14.6-6.3,21.4
				c-13,30.5-51,44.1-82,36.3C401.3,165.8,381.9,149.5,379.9,129z"/>
		</g>
		<g>
			<path class="st0" d="M349,94.6c-0.4,9.4,3,19.1,7.7,27.1c1,1.7-37.2,38.5-13.4,55.4c22,15.6,62.5,15.7,76.4,8.6
				c-4.5,2.9,13.6-4.1,16.2,2c6.9,16.5,65.6,32.2,113.3-5.1c70.4-55-7.1-74.6-8.8-78.3c-8.3-3.2-17.4-4.3-26.2-3
				c-7.6,1.1-15,4-21.4,8.3c-5.6,3.7-13.1,0.5-14.4-6.1c-1.4-7.3-4.2-14.4-7.5-21c-14.7-29.7-53.4-41.2-84-31.6
				C368.3,56.7,349.8,74,349,94.6z"/>
		</g>
		<g>
			<path class="st0" d="M165.7,140.6c2.7,9,9.1,17,16.1,23.1c1.5,1.3,2,29.6,30.1,37.8c25.9,7.6,54.3-5.3,65.1-16.6
				c-3.3,4.2-3.2,10.2,1.2,15.2c12,13.3,66.2,3.4,99.1-47.5c48.5-75-24.8-62.6-27.6-65.5c-8.9-0.3-136.6-19.4-162.4-0.4
				C171.6,98.4,159.8,120.8,165.7,140.6z"/>
		</g>
		<g>
			<path class="st0" d="M595.1,208.4c-3-2.8,30.2-25.6-0.4-20.6c5.4-0.9,5.8-14.9,4.3-18.2c-3.3-7-12.2-9.9-19-11.6
				c-4.7-1.2-10.9,1.7-15.1,3.6c-7.7,3.3-15,7.7-21.8,12.7c-10.8,8-27.2,22.6-21.9,37.9c4.3,12.4,17.9,17.2,29.5,20.1
				c5.8,1.5,11.9,2.5,17.5,4.6c5.2,2,9.9,5.3,13.6,9.4c5.7,6.5,7.5,14.7,10.5,22.6c0.4,1.1,0.8,3.9,2.1,4.4c0.2,0.1,1.4-7.4,1.8-11
				c0.9-7,1.3-14.2,3.1-21c0.9-3.3,2.7-6.2,4.6-9c1.8-2.7,4.5-6.1,3.7-9.6c-0.6-2.5-2.5-4.5-4.2-6.3
				C600.8,213.7,598,211,595.1,208.4z"/>
		</g>
		<ellipse class="st0" cx="168.9" cy="127" rx="24.4" ry="23.7"/>
	</g>
	<g>
		<g>
			<path class="st0" d="M388.2,28.5c7.6,3.8,13.7,10.7,18.1,17.8c0.9,1.5,5.7,8.3,5,10.3c5.1-13.6,21-4,24,22.1
				c2.8,24.1-12.9,47.4-24.5,55.3c4.3-2.3,10.5-4.1,13.2-0.1c1.7,2.6,0.7,6.2-0.8,8.9c-2.6,4.8-6.4,9-11,12c9.5,3.4-47.7,69.6-85,34
				c-25.6-24.4,15.3-51.6,12.1-54.3c-5.1-4.2-9.6-9.6-13.4-15c-17.1-24.4-9.4-59.9,11.4-79.9C349.9,27.4,371.5,20.2,388.2,28.5z"/>
		</g>
		<g>
			<path class="st0" d="M11.9,148.3c-1.5-8.3,0.3-17.4,3.4-25.1c0.7-1.6-10.5-24.6,8.6-42.6c17.7-16.7,45.7-18,59-13.4
				c-4.4-2-6.8-6.9-5.3-12.7c4.1-15.6,51.7-29.8,98.8-2.6c69.6,40.2,5.7,60.3,4.7,63.8c-7,3.9-14.9,6-22.9,6
				c-6.9,0-13.8-1.7-20.1-4.7c-5.4-2.6-11.7,1.2-12.1,7.2c-0.3,6.6-2,13.4-4,19.7c-9.4,28.3-42.4,43.4-70.9,38.7
				C33.8,179.7,15.2,166.6,11.9,148.3z"/>
		</g>
		<g>
			<path class="st0" d="M132,120.9c-1.5-8.3,0.3-17.4,3.4-25.1c0.7-1.6-10.5-24.6,8.6-42.6c17.7-16.7,45.7-18,59-13.4
				c-4.4-2-6.8-6.9-5.3-12.7c4.1-15.6,51.7-29.8,98.8-2.6c69.6,40.2,5.7,60.3,4.7,63.8c-7,3.9-14.9,6-22.9,6
				c-6.9,0-13.8-1.7-20.1-4.7c-5.4-2.6-11.7,1.2-12.1,7.2c-0.3,6.6-2,13.4-4,19.7c-9.4,28.3-42.4,43.4-70.9,38.7
				C154,152.2,135.3,139.1,132,120.9z"/>
		</g>
		<g>
			<path class="st0" d="M211.3,127.8c-1.5-8.3,0.3-17.4,3.4-25.1c0.7-1.6-10.5-24.6,8.6-42.6c17.7-16.7,45.7-18,59-13.4
				c-4.4-2-6.8-6.9-5.3-12.7C281,19,300.3,12.7,313.6,9.7c30.7-6.9,90,4.3,95.7,43.1c2.9,19.3-13.3,33.8-28.7,42.3
				c-7,3.9-14.9,6-22.9,6c-6.9,0-13.8-1.7-20.1-4.7c-5.4-2.6-11.7,1.2-12.1,7.2c-0.3,6.6-2,13.4-4,19.7
				c-9.4,28.3-42.4,43.4-70.9,38.7C233.3,159.1,214.6,146,211.3,127.8z"/>
		</g>
		<g>
			<path class="st0" d="M181,99.2c0.4,8.5,4.2,16.9,8.9,23.8c1,1.5-30.5,37.3-7.9,50.7c20.9,12.4,57.2,9.5,69.1,2.1
				c-3.9,2.9,11.9-4.7,14.7,0.6c7.4,14.3,61.2,24,101.2-13c59.1-54.6-11.9-66.4-13.7-69.6c-7.7-2.2-15.9-2.6-23.7-0.8
				c-6.8,1.6-13.1,4.7-18.5,9c-4.7,3.8-11.7,1.4-13.3-4.4c-1.8-6.4-4.9-12.6-8.3-18.3c-15.4-25.6-50.9-32.9-77.7-22.1
				C195.6,63.8,180.3,80.7,181,99.2z"/>
		</g>
		<g>
			<path class="st0" d="M20.1,154.1c3.1,7.9,9.4,14.6,16.2,19.6c1.4,1.1,4,26.4,29.8,31.7c23.8,4.9,48.3-8.8,57.2-19.7
				c-2.7,4-2.1,9.4,2.2,13.5c11.7,11.1,59.6-1.9,85.4-49.9c38-70.9-26.9-54.3-29.6-56.7c-8,0.4-124-7.2-145.7,11.8
				C22.2,115.8,13.3,136.8,20.1,154.1z"/>
		</g>
		
			<ellipse transform="matrix(0.9966 -8.266828e-02 8.266828e-02 0.9966 -11.6382 2.3001)" class="st0" cx="22" cy="141.7" rx="22" ry="21.3"/>
	</g>
</g>
</svg>
