<?xml version="1.0" encoding="utf-8"?>
<!-- Generator: Adobe Illustrator 22.1.0, SVG Export Plug-In . SVG Version: 6.00 Build 0)  -->
<svg version="1.1" id="Layer_1" xmlns="http://www.w3.org/2000/svg" xmlns:xlink="http://www.w3.org/1999/xlink" x="0px" y="0px"
	 viewBox="0 0 395 207.2" style="enable-background:new 0 0 395 207.2;" xml:space="preserve">
<style type="text/css">
	.st0{fill:none;}
	.st1{fill:#FFBC00;}
	.st2{fill:#C0E74D;}
	.st3{fill:#017439;}
	.st4{fill:#4EAE48;}
	.st5{fill:none;stroke:#C0E74D;stroke-width:0.84;stroke-miterlimit:10;}
	.st6{fill:none;stroke:#017439;stroke-width:0.84;stroke-miterlimit:10;}
	.st7{fill:none;stroke:#F2FADB;stroke-width:0.84;stroke-miterlimit:10;}
	.st8{fill:none;stroke:#017439;stroke-width:0.77;stroke-miterlimit:10;}
	.st9{fill:#D5E0CE;}
	.st10{fill:#A46A34;}
	.st11{fill:#5A4738;}
	.st12{fill:none;stroke:#5A4738;stroke-width:0.4107;stroke-linecap:round;stroke-linejoin:round;}
	.st13{fill:none;stroke:#5A4738;stroke-width:0.1271;stroke-linecap:round;stroke-linejoin:round;}
	.st14{opacity:0.3;}
	.st15{fill:#73BFA4;}
	.st16{opacity:0.2;fill:#525252;}
	.st17{fill:#1A1A1A;}
	.st18{fill:#333333;}
	.st19{fill:#BF9726;}
	.st20{fill:#FFC933;}
	.st21{fill:#4D4D4D;}
	.st22{fill:none;stroke:#FFBC00;stroke-width:7.2098;stroke-miterlimit:10;}
	.st23{fill:url(#SVGID_1_);}
	.st24{fill:url(#SVGID_2_);}
	.st25{fill:none;stroke:#A46A34;stroke-width:3;stroke-linecap:round;stroke-miterlimit:10;}
	.st26{clip-path:url(#SVGID_4_);fill:#F2F2F2;}
	.st27{clip-path:url(#SVGID_4_);}
	.st28{fill:#FF0000;}
	.st29{fill:#EB912B;}
</style>
<pattern  x="-1090" y="-183.6" width="69.6" height="73.2" patternUnits="userSpaceOnUse" id="New_Pattern" viewBox="9.8 -79.5 69.6 73.2" style="overflow:visible;">
	<g>
		<rect x="9.8" y="-79.5" class="st0" width="69.6" height="73.2"/>
		<g>
			<polygon points="15.9,-24.6 10.7,-24.6 7,-20.9 7,-15.7 10.7,-12 15.9,-12 19.6,-15.7 19.6,-20.9 			"/>
			<polygon points="29.9,-24.6 24.7,-24.6 21,-20.9 21,-15.7 24.7,-12 29.9,-12 33.6,-15.7 33.6,-20.9 			"/>
			<polygon points="43.9,-24.6 38.7,-24.6 35,-20.9 35,-15.7 38.7,-12 43.9,-12 47.6,-15.7 47.6,-20.9 			"/>
			<polygon points="8.9,-12.6 3.7,-12.6 0,-8.9 0,-3.7 3.7,0 8.9,0 12.6,-3.7 12.6,-8.9 			"/>
			<polygon points="22.9,-12.6 17.7,-12.6 14,-8.9 14,-3.7 17.7,0 22.9,0 26.6,-3.7 26.6,-8.9 			"/>
			<polygon points="36.9,-12.6 31.7,-12.6 28,-8.9 28,-3.7 31.7,0 36.9,0 40.6,-3.7 40.6,-8.9 			"/>
		</g>
		<g>
			<polygon points="57.5,-24.6 52.3,-24.6 48.6,-20.9 48.6,-15.7 52.3,-12 57.5,-12 61.2,-15.7 61.2,-20.9 			"/>
			<polygon points="71.5,-24.6 66.3,-24.6 62.6,-20.9 62.6,-15.7 66.3,-12 71.5,-12 75.2,-15.7 75.2,-20.9 			"/>
			<polygon points="85.5,-24.6 80.3,-24.6 76.6,-20.9 76.6,-15.7 80.3,-12 85.5,-12 89.2,-15.7 89.2,-20.9 			"/>
			<polygon points="50.5,-12.6 45.3,-12.6 41.6,-8.9 41.6,-3.7 45.3,0 50.5,0 54.2,-3.7 54.2,-8.9 			"/>
			<polygon points="64.5,-12.6 59.3,-12.6 55.6,-8.9 55.6,-3.7 59.3,0 64.5,0 68.2,-3.7 68.2,-8.9 			"/>
			<polygon points="78.5,-12.6 73.3,-12.6 69.6,-8.9 69.6,-3.7 73.3,0 78.5,0 82.2,-3.7 82.2,-8.9 			"/>
		</g>
		<g>
			<polygon points="9.1,-61.2 3.9,-61.2 0.2,-57.5 0.2,-52.3 3.9,-48.6 9.1,-48.6 12.8,-52.3 12.8,-57.5 			"/>
			<polygon points="9.1,-37.2 3.9,-37.2 0.2,-33.5 0.2,-28.3 3.9,-24.6 9.1,-24.6 12.8,-28.3 12.8,-33.5 			"/>
		</g>
		<g>
			<polygon points="22.7,-61.2 17.5,-61.2 13.8,-57.5 13.8,-52.3 17.5,-48.6 22.7,-48.6 26.4,-52.3 26.4,-57.5 			"/>
			<polygon points="36.7,-61.2 31.5,-61.2 27.8,-57.5 27.8,-52.3 31.5,-48.6 36.7,-48.6 40.4,-52.3 40.4,-57.5 			"/>
			<polygon points="50.7,-61.2 45.5,-61.2 41.8,-57.5 41.8,-52.3 45.5,-48.6 50.7,-48.6 54.4,-52.3 54.4,-57.5 			"/>
			<polygon points="64.7,-61.2 59.5,-61.2 55.8,-57.5 55.8,-52.3 59.5,-48.6 64.7,-48.6 68.4,-52.3 68.4,-57.5 			"/>
			<polygon points="78.7,-61.2 73.5,-61.2 69.8,-57.5 69.8,-52.3 73.5,-48.6 78.7,-48.6 82.4,-52.3 82.4,-57.5 			"/>
			<polygon points="22.7,-37.2 17.5,-37.2 13.8,-33.5 13.8,-28.3 17.5,-24.6 22.7,-24.6 26.4,-28.3 26.4,-33.5 			"/>
			<polygon points="36.7,-37.2 31.5,-37.2 27.8,-33.5 27.8,-28.3 31.5,-24.6 36.7,-24.6 40.4,-28.3 40.4,-33.5 			"/>
			<polygon points="50.7,-37.2 45.5,-37.2 41.8,-33.5 41.8,-28.3 45.5,-24.6 50.7,-24.6 54.4,-28.3 54.4,-33.5 			"/>
			<polygon points="64.7,-37.2 59.5,-37.2 55.8,-33.5 55.8,-28.3 59.5,-24.6 64.7,-24.6 68.4,-28.3 68.4,-33.5 			"/>
			<polygon points="78.7,-37.2 73.5,-37.2 69.8,-33.5 69.8,-28.3 73.5,-24.6 78.7,-24.6 82.4,-28.3 82.4,-33.5 			"/>
			<polygon points="15.7,-49.2 10.5,-49.2 6.8,-45.5 6.8,-40.3 10.5,-36.6 15.7,-36.6 19.4,-40.3 19.4,-45.5 			"/>
			<polygon points="29.7,-49.2 24.5,-49.2 20.8,-45.5 20.8,-40.3 24.5,-36.6 29.7,-36.6 33.4,-40.3 33.4,-45.5 			"/>
			<polygon points="43.7,-49.2 38.5,-49.2 34.8,-45.5 34.8,-40.3 38.5,-36.6 43.7,-36.6 47.4,-40.3 47.4,-45.5 			"/>
			<polygon points="57.7,-49.2 52.5,-49.2 48.8,-45.5 48.8,-40.3 52.5,-36.6 57.7,-36.6 61.4,-40.3 61.4,-45.5 			"/>
			<polygon points="71.7,-49.2 66.5,-49.2 62.8,-45.5 62.8,-40.3 66.5,-36.6 71.7,-36.6 75.4,-40.3 75.4,-45.5 			"/>
		</g>
		<g>
			<polygon points="85.4,-49.2 80.1,-49.2 76.4,-45.5 76.4,-40.3 80.1,-36.6 85.4,-36.6 89,-40.3 89,-45.5 			"/>
		</g>
		<g>
			<polygon points="15.9,-73.9 10.7,-73.9 7,-70.2 7,-64.9 10.7,-61.2 15.9,-61.2 19.6,-64.9 19.6,-70.2 			"/>
			<polygon points="29.9,-73.9 24.7,-73.9 21,-70.2 21,-64.9 24.7,-61.2 29.9,-61.2 33.6,-64.9 33.6,-70.2 			"/>
			<polygon points="43.9,-73.9 38.7,-73.9 35,-70.2 35,-64.9 38.7,-61.2 43.9,-61.2 47.6,-64.9 47.6,-70.2 			"/>
			<polygon points="8.9,-85.9 3.7,-85.9 0,-82.2 0,-76.9 3.7,-73.2 8.9,-73.2 12.6,-76.9 12.6,-82.2 			"/>
			<polygon points="22.9,-85.9 17.7,-85.9 14,-82.2 14,-76.9 17.7,-73.2 22.9,-73.2 26.6,-76.9 26.6,-82.2 			"/>
			<polygon points="36.9,-85.9 31.7,-85.9 28,-82.2 28,-76.9 31.7,-73.2 36.9,-73.2 40.6,-76.9 40.6,-82.2 			"/>
		</g>
		<g>
			<polygon points="57.5,-73.9 52.3,-73.9 48.6,-70.2 48.6,-64.9 52.3,-61.2 57.5,-61.2 61.2,-64.9 61.2,-70.2 			"/>
			<polygon points="71.5,-73.9 66.3,-73.9 62.6,-70.2 62.6,-64.9 66.3,-61.2 71.5,-61.2 75.2,-64.9 75.2,-70.2 			"/>
			<polygon points="85.5,-73.9 80.3,-73.9 76.6,-70.2 76.6,-64.9 80.3,-61.2 85.5,-61.2 89.2,-64.9 89.2,-70.2 			"/>
			<polygon points="50.5,-85.9 45.3,-85.9 41.6,-82.2 41.6,-76.9 45.3,-73.2 50.5,-73.2 54.2,-76.9 54.2,-82.2 			"/>
			<polygon points="64.5,-85.9 59.3,-85.9 55.6,-82.2 55.6,-76.9 59.3,-73.2 64.5,-73.2 68.2,-76.9 68.2,-82.2 			"/>
			<polygon points="78.5,-85.9 73.3,-85.9 69.6,-82.2 69.6,-76.9 73.3,-73.2 78.5,-73.2 82.2,-76.9 82.2,-82.2 			"/>
		</g>
	</g>
</pattern>
<path class="st16" d="M369.8,40.7h-22.3v-6.8h-13.7v-4.2c0-3.4-2.8-6.2-6.2-6.2h-79.1c-3.4,0-6.2,2.8-6.2,6.2v19.3H230v-4.3
	c0-1.9-1.5-3.4-3.4-3.4h-68.2c-1.9,0-3.4,1.5-3.4,3.4v4.3h-38.2c-2.9,0-5.3,2.4-5.3,5.3v13.2H59v-4.2h26c3.1,0,5.5-2.5,5.5-5.5V43
	c0-3.1-2.5-5.5-5.5-5.5H7c-3.1,0-5.5,2.5-5.5,5.5v14.9c0,3.1,2.5,5.5,5.5,5.5h26v4.2H6v15.9H4.6c-2.5,0-4.6,2.1-4.6,4.6v55
	c0,2.5,2.1,4.6,4.6,4.6H6v15.9h27v5.8H7c-3.1,0-5.5,2.5-5.5,5.5v14.9c0,3.1,2.5,5.5,5.5,5.5H85c3.1,0,5.5-2.5,5.5-5.5V175
	c0-3.1-2.5-5.5-5.5-5.5H59v-5.8h52.5v13.2c0,2.9,2.4,5.3,5.3,5.3H156v4.9c0,1.9,1.5,3.4,3.4,3.4h68.2c1.9,0,3.4-1.5,3.4-3.4v-4.9
	h11.4v19.3c0,3.4,2.8,6.2,6.2,6.2h79.1c3.4,0,6.2-2.8,6.2-6.2v-4h13.7v-6.9h22.3c2.9,0,5.2-2.3,5.2-5.2V45.9
	C375,43,372.7,40.7,369.8,40.7z"/>
<g>
	<path class="st1" d="M299.3,154.6h-36.7c-4.2,0-7.7-3.4-7.7-7.7V44.3c0-4.2,3.4-7.7,7.7-7.7h36.7c4.2,0,7.7,3.4,7.7,7.7V147
		C307,151.2,303.6,154.6,299.3,154.6z"/>
	<g>
		<path class="st17" d="M246.6,42.4h-68.2c-1.9,0-3.4-1.5-3.4-3.4V24.8c0-1.9,1.5-3.4,3.4-3.4h68.2c1.9,0,3.4,1.5,3.4,3.4V39
			C250,40.9,248.5,42.4,246.6,42.4z"/>
		<path class="st17" d="M247.6,170.4h-68.2c-1.9,0-3.4-1.5-3.4-3.4v-14.2c0-1.9,1.5-3.4,3.4-3.4h68.2c1.9,0,3.4,1.5,3.4,3.4V167
			C251,168.9,249.5,170.4,247.6,170.4z"/>
	</g>
	<rect x="53" y="29.4" class="st18" width="26" height="130"/>
	<path class="st19" d="M140.4,127.7H24.6c-2.5,0-4.6-2.1-4.6-4.6v-55c0-2.5,2.1-4.6,4.6-4.6h115.8c2.5,0,4.6,2.1,4.6,4.6v55
		C145,125.6,142.9,127.7,140.4,127.7z"/>
	<rect x="26" y="47.6" class="st20" width="187" height="96"/>
	<path class="st21" d="M275.5,38.2L275.5,38.2c-2.6,0-5.1,0.4-7.5,1.2c9.3,3.1,16,12,16,22.3v67.7c0,10.3-6.7,19.1-16,22.3
		c2.4,0.8,4.9,1.2,7.5,1.2l0,0c12.9,0,23.5-10.6,23.5-23.5V61.8C299,48.8,288.4,38.2,275.5,38.2z"/>
	<path class="st22" d="M347.6,187.6h-79.1c-3.4,0-6.2-2.8-6.2-6.2V9.8c0-3.4,2.8-6.2,6.2-6.2h79.1c3.4,0,6.2,2.8,6.2,6.2v171.7
		C353.8,184.9,351,187.6,347.6,187.6z"/>
	<path class="st1" d="M280.5,162.1H136.8c-2.9,0-5.3-2.4-5.3-5.3V34.4c0-2.9,2.4-5.3,5.3-5.3h143.7c2.9,0,5.3,2.4,5.3,5.3v122.3
		C285.9,159.7,283.5,162.1,280.5,162.1z"/>
	<path class="st18" d="M389.8,170.5h-71.6c-2.9,0-5.2-2.3-5.2-5.2V25.9c0-2.9,2.3-5.2,5.2-5.2h71.6c2.9,0,5.2,2.3,5.2,5.2v139.4
		C395,168.2,392.7,170.5,389.8,170.5z"/>
	<rect x="340" y="13.9" class="st1" width="27.5" height="7.5"/>
	<rect x="340" y="169.9" class="st1" width="27.5" height="7.5"/>
	<g>
		<path class="st18" d="M105,43.4H27c-3.1,0-5.5-2.5-5.5-5.5V23c0-3.1,2.5-5.5,5.5-5.5H105c3.1,0,5.5,2.5,5.5,5.5v14.9
			C110.5,40.9,108,43.4,105,43.4z"/>
		<path class="st18" d="M105,43.4H27c-3.1,0-5.5-2.5-5.5-5.5V23c0-3.1,2.5-5.5,5.5-5.5H105c3.1,0,5.5,2.5,5.5,5.5v14.9
			C110.5,40.9,108,43.4,105,43.4z"/>
		<pattern  id="SVGID_1_" xlink:href="#New_Pattern" patternTransform="matrix(1 0 0 1 0 -31)">
		</pattern>
		<path class="st23" d="M105,43.4H27c-3.1,0-5.5-2.5-5.5-5.5V23c0-3.1,2.5-5.5,5.5-5.5H105c3.1,0,5.5,2.5,5.5,5.5v14.9
			C110.5,40.9,108,43.4,105,43.4z"/>
	</g>
	<g>
		<path class="st18" d="M105,175.4H27c-3.1,0-5.5-2.5-5.5-5.5V155c0-3.1,2.5-5.5,5.5-5.5H105c3.1,0,5.5,2.5,5.5,5.5v14.9
			C110.5,172.9,108,175.4,105,175.4z"/>
		<path class="st18" d="M105,175.4H27c-3.1,0-5.5-2.5-5.5-5.5V155c0-3.1,2.5-5.5,5.5-5.5H105c3.1,0,5.5,2.5,5.5,5.5v14.9
			C110.5,172.9,108,175.4,105,175.4z"/>
		<pattern  id="SVGID_2_" xlink:href="#New_Pattern" patternTransform="matrix(1 0 0 1 0 -31)">
		</pattern>
		<path class="st24" d="M105,175.4H27c-3.1,0-5.5-2.5-5.5-5.5V155c0-3.1,2.5-5.5,5.5-5.5H105c3.1,0,5.5,2.5,5.5,5.5v14.9
			C110.5,172.9,108,175.4,105,175.4z"/>
	</g>
	<circle class="st21" cx="54" cy="118.4" r="8"/>
	<circle cx="54" cy="118.4" r="5"/>
	<g>
		<line class="st25" x1="145" y1="59.9" x2="203" y2="59.9"/>
		<line class="st25" x1="145.5" y1="131.4" x2="203.5" y2="131.4"/>
		<path class="st25" d="M145.5,95.4c0,0,20,0,37,0"/>
		<path class="st25" d="M189.5,95.4c8.1,0,14,0,14,0"/>
	</g>
</g>
</svg>
