<svg id="Layer_2" data-name="Layer 2" xmlns="http://www.w3.org/2000/svg" viewBox="0 0 680.4 321.13"><defs><style>.cls-1{fill:none;stroke:#4d4d4d;stroke-miterlimit:10;stroke-width:4px;}</style></defs><title>IECS_illustrated_roadcrack</title><path class="cls-1" d="M1.93,320.62c7.1-27.05,36.36-41,62.64-50.58,52.76-19.21,29-56.19,83.79-68.33,10.27-2.28,98.39,17,108.71,15.26"/><path class="cls-1" d="M368.26,201.71c9.64-1.42,19.27-3,28.88-4.69,85.34-15.47,90.26-129.59,155.8-172.23q2.55-1.62,5-3.07c1.62-1,3.28-1.8,4.86-2.64s3.11-1.63,4.67-2.3,3.07-1.33,4.56-1.94C584,10.07,594.27,8.3,604.38,7.17s20.11-1.53,32-2.36L655.94,3.4c7.22-.46,15.23-1,24.38-1.4"/></svg>