<svg id="Layer_1" data-name="Layer 1" xmlns="http://www.w3.org/2000/svg" viewBox="0 0 8192.04 288.17"><defs><style>.cls-1{fill:#525252;opacity:0.14;isolation:isolate;}.cls-2{fill:#cc9600;}.cls-3{fill:#ffbc00;}.cls-4{fill:#e2dfe6;}.cls-5{fill:#669fcc;}.cls-6{fill:#45474a;}.cls-7{fill:#f3482a;}.cls-8{fill:#001903;}.cls-10,.cls-9{fill:none;stroke:#fff;stroke-width:2px;}.cls-9{stroke-miterlimit:10;}.cls-10{stroke-linecap:round;stroke-linejoin:round;}.cls-11{fill:#4d4d4d;}.cls-12{fill:gray;}.cls-13{fill:#ccc;}.cls-14{fill:#f5b339;}.cls-15{fill:#ffdd3e;}.cls-16{fill:#282f3a;}.cls-17{fill:#3a454f;}.cls-18{fill:#dd3e3e;}.cls-19{fill:#fff;}.cls-20{fill:#f2e5c0;}.cls-21{fill:#ec9100;}.cls-22{fill:#e6dfcc;}.cls-23{fill:#ccc3a8;}.cls-24{fill:#3c8fdf;}.cls-25{fill:#54a6ef;}.cls-26{fill:#bdd6db;}.cls-27{fill:#ffa312;}.cls-28{fill:#8e8c75;}.cls-29{fill:#aaae8b;}</style></defs><title>traffic_loop</title><path class="cls-1" d="M8007.38,346.47l-234.55,5c-30.72,0-74.94-25-74.94-55.66V204.72c0-30.82,44.22-55.76,74.94-55.76l234.55,5-3.49-14.32s11.79-2.88,14.16,14.48a49,49,0,0,0,7.56-.38l42.33-2c27.52-2.55,62.8,4.83,82.34,24.38,16.8,16.79,19.23,42.9,19.23,68.54v11.06c0,25.64-2.59,51.75-19.23,68.54-19.54,19.55-54.85,26-82.34,23.42l-42.33-1c-2.5-.23-5-.35-7.56-.38-2.37,17.36-14.16,14.48-14.16,14.48Z" transform="translate(0.04 -93.9)"/><path class="cls-2" d="M8037.19,321.9a85.94,85.94,0,0,1,10.76.38l42.32,1c27.5,2.55,62.81-3.91,82.35-23.43,16.8-16.79,19.39-42.93,19.39-68.54V220.23c0-25.63-2.59-51.75-19.39-68.54-19.54-19.54-54.84-26.95-82.35-24.42l-42.32,2a101.73,101.73,0,0,1-10.76.39l-242-5.07c-30.76,0-74.92,24.88-74.92,55.6v91.16c0,30.76,44.19,55.69,74.95,55.69Z" transform="translate(0.04 -93.9)"/><path class="cls-3" d="M8034.5,310.74c3.46-.05,6.93.07,10.38.36l40.89.86c26.59,2.28,60.68-3.42,79.55-20.69,16.25-14.87,18.75-37.94,18.75-60.59v-9.81c0-22.66-2.5-45.76-18.75-60.59-18.84-17.27-52.93-23.84-79.55-21.6l-40.89,1.92a102.75,102.75,0,0,1-10.38.34l-233.92-4.51c-29.63-.16-72.35,21.88-72.35,49V266.1c0,27.17,42.73,49.22,72.42,49.22Z" transform="translate(0.04 -93.9)"/><path class="cls-4" d="M8040.73,315.3h-9.42l-5.19,21.08S8040.73,339.93,8040.73,315.3Z" transform="translate(0.04 -93.9)"/><path class="cls-4" d="M8040.73,136.25h-9.42l-5.1-21.09S8040.73,111.6,8040.73,136.25Z" transform="translate(0.04 -93.9)"/><path class="cls-5" d="M8184.06,267.94c-8.05,30.69-24.68,37.29-35,42.84a67.87,67.87,0,0,1-17.52,6.05A312,312,0,0,1,8184.06,267.94Z" transform="translate(0.04 -93.9)"/><path class="cls-6" d="M7917.18,304.66c-.19-.71-.35-1.41-.54-2.15h54.47c27.24,0,77.44,12.82,77.44,12.82s-85.2,2.59-128.36,0A106.22,106.22,0,0,1,7917.18,304.66Z" transform="translate(0.04 -93.9)"/><path class="cls-6" d="M7914.6,315.17a368.23,368.23,0,0,1-72.19-12.66h69.21C7912.57,306.76,7913.56,311,7914.6,315.17Z" transform="translate(0.04 -93.9)"/><path class="cls-7" d="M7733.87,278.77a175.29,175.29,0,0,0,46.78,30.83,78.09,78.09,0,0,1-21.37-.84,48.34,48.34,0,0,1-20.7-18A113.84,113.84,0,0,1,7730.5,276,30.06,30.06,0,0,1,7733.87,278.77Z" transform="translate(0.04 -93.9)"/><path class="cls-5" d="M8184.06,181.36c-8.05-30.69-24.68-37.29-35-42.84a69.78,69.78,0,0,0-17.52-5.87A312.11,312.11,0,0,0,8184.06,181.36Z" transform="translate(0.04 -93.9)"/><path class="cls-6" d="M8087.57,158.61c4.33,13.17,8.29,34,8.29,66s-3.94,52.87-8.29,66.07a25.63,25.63,0,0,1-28.83,17.43l-66.08-12.91a4.86,4.86,0,0,1-3.82-4.81c.19-33.29,2.55-65.78,2.55-65.78s-2.34-32.49-2.55-65.75a4.87,4.87,0,0,1,3.82-4.84l66.08-12.81A25.63,25.63,0,0,1,8087.57,158.61Z" transform="translate(0.04 -93.9)"/><path class="cls-7" d="M7733.87,172.65a173.34,173.34,0,0,1,46.8-30.83,79.78,79.78,0,0,0-21.38.81,48.29,48.29,0,0,0-20.72,18.08,113.89,113.89,0,0,0-8.07,14.74A37.61,37.61,0,0,0,7733.87,172.65Z" transform="translate(0.04 -93.9)"/><path class="cls-6" d="M7917.18,144.64c-.19.71-.35,1.41-.54,2.15h54.47c27.24,0,77.44-12.82,77.44-12.82s-85.2-2.6-128.36,0C7919,137.4,7918.08,141.06,7917.18,144.64Z" transform="translate(0.04 -93.9)"/><path class="cls-6" d="M7914.6,134.19a368.26,368.26,0,0,0-72.19,12.6h69.21Q7913.06,140.4,7914.6,134.19Z" transform="translate(0.04 -93.9)"/><path class="cls-6" d="M7838.07,162.49a153.6,153.6,0,0,0,0,124.32c-14.58,5.11-34.1,7-44.61,7.79a11.54,11.54,0,0,1-11.15-6.38,143.88,143.88,0,0,1,0-127.14,11.6,11.6,0,0,1,11.15-6.38C7804,155.44,7823.49,157.4,7838.07,162.49Z" transform="translate(0.04 -93.9)"/><path class="cls-1" d="M5314.79,359.1h-98.67a10.48,10.48,0,0,0-10.49,10.46v0h0a10.51,10.51,0,0,1-10.5,10.52H4656.89a28,28,0,0,1-28-28h0V160.91a28,28,0,0,1,28-28h657.9a28,28,0,0,1,28,28h0V331.09a28,28,0,0,1-27.94,28Z" transform="translate(0.04 -93.9)"/><rect class="cls-8" x="4691.01" y="67.2" width="626.11" height="138.78"/><rect class="cls-8" x="4640.97" y="0.89" width="547.96" height="271.4" rx="18.5"/><path class="cls-9" d="M4674.62,124.28h413.84a10.91,10.91,0,0,1,10.91,10.9h0V336.84" transform="translate(0.04 -93.9)"/><line class="cls-10" x1="5118.44" y1="32.24" x2="5174.6" y2="32.24"/><line class="cls-10" x1="5118.44" y1="244.9" x2="5174.6" y2="244.9"/><rect class="cls-11" x="5199.63" y="28.05" width="160.87" height="217.3" rx="9.73"/><path class="cls-12" d="M5356.13,159.29H5364a3.72,3.72,0,0,1,3.73,3.72h0V298a3.73,3.73,0,0,1-3.73,3.73h-7.86V159.29Z" transform="translate(0.04 -93.9)"/><path class="cls-9" d="M5273,153.76h51a8,8,0,0,1,8,8h0V299.35a8,8,0,0,1-8,8h-51" transform="translate(0.04 -93.9)"/><path d="M5355.46,142.36h4.92v176.3h-4.92a2.09,2.09,0,0,1-2.09-2.07h0v-172a2.09,2.09,0,0,1,2-2.2Z" transform="translate(0.04 -93.9)"/><circle cx="5224.2" cy="246.97" r="11.7"/><circle cx="5224.2" cy="26.35" r="11.7"/><path class="cls-13" d="M4691.42,224.69c0,4.2.91,7.37-1.06,10.84s-5.38,4.22-8.89,6.31-5.67,7.1-9.82,7.1-8-2.46-11.43-4.46-3.56-6.47-5.6-10-9.37-5.62-9.37-9.83,3.83-8.45,5.78-12a24.9,24.9,0,0,1,8.35-9.24c3.41-2,8-5.82,12.28-5.82a31.91,31.91,0,0,1,13.79,3.27,32.74,32.74,0,0,1,10.2,9.82C4697.49,214.24,4691.42,220.44,4691.42,224.69Z" transform="translate(0.04 -93.9)"/><path class="cls-13" d="M4793.84,221.71c0,4.23.93,7.37-1,10.85s-5.38,4.25-8.89,6.29-5.68,7.1-9.83,7.1-8-2.46-11.45-4.43-3.51-6.48-5.65-10-9.36-5.61-9.36-9.83,3.88-8.45,5.85-11.84a25.25,25.25,0,0,1,8.35-9.19c3.42-2,8-5.83,12.29-5.83a31.83,31.83,0,0,1,13.61,3.19,32.91,32.91,0,0,1,10.24,9.83C4799.93,211.32,4793.84,217.63,4793.84,221.71Z" transform="translate(0.04 -93.9)"/><path class="cls-13" d="M4854.57,216.13c0-4.22-.93-7.36,1-10.84S4861,201,4864.5,199s5.67-7.11,9.82-7.11,8,2.46,11.45,4.43,3.57,6.58,5.65,10,9.37,5.6,9.37,9.82-3.89,8.46-5.85,11.84a25.29,25.29,0,0,1-8.35,9.26c-3.42,2-8,5.83-12.28,5.83a31.66,31.66,0,0,1-13.72-3.19,33,33,0,0,1-10.24-9.82C4848.48,226.55,4854.57,220.36,4854.57,216.13Z" transform="translate(0.04 -93.9)"/><path class="cls-13" d="M4947.52,217.34c0,4.2.9,7.37-1.06,10.84s-5.38,4.27-8.89,6.31-5.68,7.1-9.83,7.1-8-2.45-11.42-4.46-3.57-6.46-5.58-10-9.39-5.62-9.39-9.82,3.91-8.46,5.87-11.87a25.31,25.31,0,0,1,8.36-9.26c3.39-2,8-5.82,12.16-5.82a32,32,0,0,1,13.73,3.19,32.56,32.56,0,0,1,10.2,9.83C4953.58,206.9,4947.52,213.12,4947.52,217.34Z" transform="translate(0.04 -93.9)"/><path class="cls-13" d="M4957.17,211.57c.35-4.21-.34-7.5,1.92-10.72s5.7-3.83,9.36-5.6,6.22-6.63,10.41-6.31,7.84,3.1,11.06,5.33,3,6.73,4.79,10.4,8.93,6.31,8.57,10.51-4.54,8.13-6.78,11.37a24.88,24.88,0,0,1-9,8.55c-3.53,1.7-8.37,5.19-12.6,4.92a32.4,32.4,0,0,1-13.4-4.23A33.14,33.14,0,0,1,4952,225C4950.29,221.49,4956.85,215.77,4957.17,211.57Z" transform="translate(0.04 -93.9)"/><path class="cls-13" d="M5047.9,222.2c-1.62,3.91-2,7.38-5.11,9.63s-6.6,1.92-10.63,2.46-7.94,4.43-11.85,2.83-6.5-5.34-8.89-8.46-.83-7.37-1.38-11.37-6.55-8.75-4.91-12.65,6.83-6.31,9.83-8.72a25.35,25.35,0,0,1,11.23-5.41c3.91-.51,9.56-2.45,13.48-.76a31.78,31.78,0,0,1,11.55,8.23,32.59,32.59,0,0,1,5.7,13.07C5057.48,214.88,5049.47,218.29,5047.9,222.2Z" transform="translate(0.04 -93.9)"/><path class="cls-13" d="M5096.72,224.54c-2.46,3.49-3.47,6.66-7,8.33s-6.85.46-10.88.14-8.72,2.61-12.29.23-5.2-6.62-6.9-10.15.76-7.37,1.08-11.4-4.52-9.83-2.11-13.4,8-4.73,11.55-6.41a25,25,0,0,1,12.12-2.87c3.9.32,9.82-.27,13.31,2.13a32.16,32.16,0,0,1,9.51,10.39,33.2,33.2,0,0,1,2.9,14C5107.65,219.43,5099.12,221.08,5096.72,224.54Z" transform="translate(0.04 -93.9)"/><path class="cls-13" d="M5079.32,167.59c0,4.22.94,7.37-1,10.84s-5.38,4.28-8.89,6.32-5.68,7.1-9.83,7.1-8-2.46-11.45-4.43-3.54-6.49-5.58-10-9.38-5.61-9.38-9.83,3.91-8.45,5.87-11.85a25.32,25.32,0,0,1,8.29-9.36c3.41-2,8-5.82,12.28-5.82a31.94,31.94,0,0,1,13.6,3.33,32.92,32.92,0,0,1,10.21,9.83C5085.42,157.17,5079.32,163.36,5079.32,167.59Z" transform="translate(0.04 -93.9)"/><path class="cls-13" d="M5028.83,167.59c0,4.22.94,7.37-1,10.84s-5.38,4.28-8.89,6.32-5.68,7.1-9.83,7.1-8-2.46-11.48-4.43-3.54-6.49-5.57-10-9.37-5.61-9.37-9.83,3.89-8.45,5.85-11.85a25.31,25.31,0,0,1,8.36-9.26c3.41-2,8-5.82,12.28-5.82a32.07,32.07,0,0,1,13.57,3.23,33.13,33.13,0,0,1,10.24,9.83C5034.93,157.17,5028.83,163.36,5028.83,167.59Z" transform="translate(0.04 -93.9)"/><path class="cls-13" d="M5031.54,139c-3.42.24-6,1.15-8.87-.25s-3.76-4.13-5.63-6.85-6.06-4.23-6.31-7.65a19.56,19.56,0,0,1,2.94-9.54c1.46-3,5.07-3.24,7.82-5.1s4-7.94,7.37-8.18,7.07,2.7,10,4.1a20.46,20.46,0,0,1,8,6.26c1.8,2.65,5.16,6.12,5.41,9.57a25.85,25.85,0,0,1-1.8,11.3,26.33,26.33,0,0,1-7.41,8.77C5040.33,143.27,5035,138.7,5031.54,139Z" transform="translate(0.04 -93.9)"/><path class="cls-13" d="M4975.64,165.5c.47,4.2,1.72,7.37.13,10.89s-4.92,4.91-8.16,7.22-4.91,7.69-9.07,8.13-8.25-1.6-11.86-3.19-4.23-6.05-6.61-9.34-9.82-4.57-10.39-8.75,3-8.81,4.57-12.43a25.06,25.06,0,0,1,7.37-10.07c3.19-2.33,7.37-6.66,11.48-7.1a32.25,32.25,0,0,1,14,1.67,32.88,32.88,0,0,1,11.15,8.77C4980.59,154.47,4975.32,161.3,4975.64,165.5Z" transform="translate(0.04 -93.9)"/><path class="cls-13" d="M4922.67,169.78c.48,4.2,1.73,7.37.13,10.9s-4.91,4.92-8.15,7.22-4.92,7.66-9.07,8.14-8.26-1.6-11.87-3.19-4.23-6.07-6.61-9.34-9.82-4.57-10.36-8.77,2.94-8.82,4.54-12.41a25.16,25.16,0,0,1,7.37-10.1c3.19-2.31,7.37-6.63,11.48-7.07a31.64,31.64,0,0,1,14,1.67,32.46,32.46,0,0,1,11.22,8.77C4927.62,158.67,4922.23,165.59,4922.67,169.78Z" transform="translate(0.04 -93.9)"/><path class="cls-13" d="M4733.09,132.31c.37,3.34,1.37,5.82,0,8.7s-3.89,3.83-6.51,5.74-3.89,6.14-7.23,6.48a18.91,18.91,0,0,1-9.46-2.45c-3-1.33-3.36-4.91-5.28-7.37s-7.91-3.66-8.29-7,2.46-7,3.64-9.82a20.07,20.07,0,0,1,5.82-8c2.45-1.87,5.82-5.3,9.16-5.67a25.31,25.31,0,0,1,11.18,1.37,26.22,26.22,0,0,1,9,7C4737,123.5,4732.73,129,4733.09,132.31Z" transform="translate(0.04 -93.9)"/><path class="cls-13" d="M4798.07,126.74c.34,3.34,1.35,5.82,0,8.69s-3.91,3.82-6.54,5.74-3.88,6.11-7.22,6.48a19.25,19.25,0,0,1-9.46-2.47c-3-1.33-3.36-4.91-5.28-7.37s-7.81-3.73-8.18-7.2,2.46-7,3.63-9.83a20.1,20.1,0,0,1,5.85-8c2.46-1.84,5.8-5.28,9.14-5.65a25.48,25.48,0,0,1,11.06,1.27,26.58,26.58,0,0,1,9,7C4802,117.89,4797.7,123.34,4798.07,126.74Z" transform="translate(0.04 -93.9)"/><path class="cls-13" d="M4756,130.32a8.33,8.33,0,0,1,0,4.43c-.64,1.49-2,2-3.32,2.92s-2,3.12-3.69,3.31a9.72,9.72,0,0,1-4.91-1.27c-1.5-.64-1.72-2.46-2.7-3.78s-3.86-1.8-4.06-3.57,1.21-3.58,1.84-4.91a10.48,10.48,0,0,1,3-4.11c1.27-.93,3-2.7,4.66-2.87a12.89,12.89,0,0,1,5.68.64,13.69,13.69,0,0,1,4.57,3.56C4758,125.85,4755.79,128.6,4756,130.32Z" transform="translate(0.04 -93.9)"/><path class="cls-13" d="M4670.12,178.67a10.66,10.66,0,0,1,0,5.82c-.89,2-2.63,2.6-4.4,3.89s-2.4,4.12-4.86,4.37a13.12,13.12,0,0,1-6.38-1.72c-2-.89-2.26-3.25-3.54-4.92s-5.33-2.45-5.57-4.69,1.59-4.74,2.45-6.65a13.49,13.49,0,0,1,3.91-5.41c1.72-1.28,3.93-3.59,6.16-3.83a16.91,16.91,0,0,1,7.5.89,17.56,17.56,0,0,1,6.11,4.51C4672.77,172.75,4669.87,176.43,4670.12,178.67Z" transform="translate(0.04 -93.9)"/><path class="cls-13" d="M4690.19,142.21c.35,3.07,1.28,5.33,0,7.94s-3.46,3.61-5.85,5.25-3.56,5.74-6.6,5.92a17.53,17.53,0,0,1-8.63-2.31c-2.7-1.2-3.09-4.42-4.91-6.8s-7.22-3.32-7.54-6.38,2.16-6.42,3.31-9a18.31,18.31,0,0,1,5.34-7.37c2.31-1.7,5.3-4.92,8.35-5.18a23.28,23.28,0,0,1,10.17,1.22,23.91,23.91,0,0,1,8.18,6.38C4693.78,134.1,4689.87,139.17,4690.19,142.21Z" transform="translate(0.04 -93.9)"/><path class="cls-13" d="M4844.41,123.57c.36,3.34,1.37,5.82,0,8.69s-3.91,3.83-6.52,5.74-3.9,6.11-7.25,6.48a19.3,19.3,0,0,1-9.45-2.45c-2.95-1.33-3.37-4.92-5.29-7.37s-7.9-3.66-8.25-7,2.46-7,3.64-9.83a20,20,0,0,1,5.92-8.29c2.46-1.84,5.82-5.28,9.16-5.65a25.36,25.36,0,0,1,11.16,1.35,26.32,26.32,0,0,1,9,7C4848.34,114.77,4844,120.22,4844.41,123.57Z" transform="translate(0.04 -93.9)"/><path class="cls-13" d="M5013.28,352.12c.35,3.34,1.36,5.82,0,8.69s-3.91,3.83-6.51,5.74-3.9,6.12-7.37,6.49a19.34,19.34,0,0,1-9.46-2.46c-3-1.32-3.36-4.91-5.28-7.37s-7.91-3.63-8.29-7,2.45-7,3.63-9.82a19.91,19.91,0,0,1,6.08-8.4c2.45-1.85,5.79-5.29,9.15-5.66a25.34,25.34,0,0,1,11.13,1.33,26.26,26.26,0,0,1,9,7C5017.21,343.32,5012.91,348.78,5013.28,352.12Z" transform="translate(0.04 -93.9)"/><path class="cls-13" d="M4713.48,177.71c.37,3.34,1.37,5.82,0,8.7s-3.91,3.82-6.51,5.74-3.91,6.11-7.24,6.48a19.33,19.33,0,0,1-9.46-2.45c-3-1.33-3.37-4.92-5.29-7.38s-7.91-3.63-8.29-7,2.46-7,3.66-9.83a19.59,19.59,0,0,1,5.92-8.4c2.46-1.84,5.82-5.28,9.16-5.65a25.59,25.59,0,0,1,11.15,1.32,26.34,26.34,0,0,1,8.93,7C4717.36,168.89,4713.11,174.35,4713.48,177.71Z" transform="translate(0.04 -93.9)"/><path class="cls-13" d="M4889.54,128.82c.34,3.12,1.27,5.43,0,8.11s-3.64,3.59-6.09,5.38-3.65,5.7-6.77,6.05a17.82,17.82,0,0,1-8.82-2.47c-2.65-1.12-3.09-4.42-4.81-6.87s-7.37-3.39-7.71-6.51,2.21-6.57,3.39-9.24a18.81,18.81,0,0,1,5.43-7.52c2.45-1.72,5.43-4.91,8.55-5.28a23.85,23.85,0,0,1,10.39,1.28,24.58,24.58,0,0,1,8.37,6.53C4893.22,120.62,4889.19,125.7,4889.54,128.82Z" transform="translate(0.04 -93.9)"/><path class="cls-13" d="M4943.39,128.82c.34,3.12,1.28,5.43,0,8.11s-3.64,3.59-6.1,5.38-3.63,5.7-6.75,6.05a17.76,17.76,0,0,1-8.82-2.47c-2.75-1.19-3.15-4.49-4.91-6.95s-7.38-3.38-7.72-6.51,2.21-6.56,3.39-9.23a18.84,18.84,0,0,1,5.43-7.52c2.46-1.72,5.43-4.91,8.55-5.28a24.11,24.11,0,0,1,10.42,1.27,24.42,24.42,0,0,1,8.35,6.53C4947,120.62,4943,125.7,4943.39,128.82Z" transform="translate(0.04 -93.9)"/><path class="cls-13" d="M4996.45,126.74c.32,3.11,1.28,5.45,0,8.13s-3.63,3.58-6.06,5.35-3.64,5.74-6.76,6a17.74,17.74,0,0,1-8.82-2.45c-2.75-1.23-3.15-4.52-4.91-6.95s-7.38-3.4-7.74-6.51,2.21-6.57,3.41-9.24a18.56,18.56,0,0,1,5.45-7.52c2.47-1.72,5.44-4.92,8.56-5.28a23.6,23.6,0,0,1,10.51,1.22,24.27,24.27,0,0,1,8.36,6.54C5000.11,118.53,4996.13,123.59,4996.45,126.74Z" transform="translate(0.04 -93.9)"/><path class="cls-13" d="M4872.56,170.22c.95,4.1,2.45,7,1.42,10.84s-4.3,5.36-7.22,8.13-3.93,8.2-8,9.17-8.37-.57-12.28-1.72-4.91-5.51-7.68-8.48-10.4-3.34-11.36-7.37,1.87-9.12,3-12.87a24.87,24.87,0,0,1,6-10.92c2.88-2.7,6.45-7.49,10.55-8.45a31.82,31.82,0,0,1,14.07,0,32.54,32.54,0,0,1,12.29,7.37C4876.12,158.67,4871.6,166,4872.56,170.22Z" transform="translate(0.04 -93.9)"/><path class="cls-13" d="M4820.55,167.59c.94,4.13,2.45,7,1.43,10.84s-4.28,5.38-7.23,8.16-3.93,8.2-8,9.16-8.4-.59-12.28-1.74-4.91-5.51-7.65-8.45-10.4-3.34-11.35-7.38,1.86-9.11,3-12.87a25.09,25.09,0,0,1,6-10.91c2.87-2.68,6.44-7.36,10.54-8.42a31.57,31.57,0,0,1,14.08,0,32.8,32.8,0,0,1,12.27,7.37C4824.11,156.07,4819.59,163.59,4820.55,167.59Z" transform="translate(0.04 -93.9)"/><path class="cls-13" d="M4769,170.22c.95,4.1,2.45,7,1.42,10.84s-4.25,5.36-7.22,8.13-3.93,8.2-8,9.17-8.38-.57-12.11-1.72-4.91-5.51-7.71-8.48-10.55-3.34-11.48-7.35,1.91-9.11,3-12.87a25,25,0,0,1,6-10.88c2.87-2.7,6.43-7.5,10.54-8.46a32.16,32.16,0,0,1,14.08,0,32.65,32.65,0,0,1,12.28,7.38C4772.4,158.67,4767.87,166,4769,170.22Z" transform="translate(0.04 -93.9)"/><path class="cls-13" d="M4742.62,223.21c0,4.22.93,7.37-1,10.84s-5.38,4.28-8.9,6.32-5.67,7.1-9.82,7.1-8-2.46-11.45-4.42-3.54-6.49-5.58-10-9.36-5.61-9.36-9.83,3.88-8.45,5.87-11.87a25.09,25.09,0,0,1,8.33-9.24c3.42-2,8-5.82,12.29-5.82a31.86,31.86,0,0,1,13.7,3.19,32.94,32.94,0,0,1,10.25,9.83C4748.71,212.72,4742.62,219,4742.62,223.21Z" transform="translate(0.04 -93.9)"/><path class="cls-13" d="M4845.11,220.27c0,4.22.94,7.36-1,10.84s-5.35,4.28-8.87,6.29-5.7,7.13-9.83,7.13-8-2.47-11.45-4.47-3.66-6.48-5.65-10-9.38-5.6-9.38-9.82,3.91-8.43,5.87-11.84a25,25,0,0,1,8.43-9.24c3.41-2,8-5.82,12.28-5.82a31.31,31.31,0,0,1,13.71,3.19,32.55,32.55,0,0,1,10.24,9.82C4851.16,209.84,4845.11,216.06,4845.11,220.27Z" transform="translate(0.04 -93.9)"/><path class="cls-13" d="M5085.29,255.32c0-4.2-.91-7.37,1.06-10.84s5.38-4.27,8.89-6.31,5.67-7.1,9.83-7.1,8,2.45,11.42,4.42,3.56,6.49,5.61,10,9.35,5.62,9.35,9.83-3.9,8.45-5.87,11.86a25,25,0,0,1-8.33,9.24c-3.41,2-8,5.82-12.28,5.82a31.87,31.87,0,0,1-13.56-3.19,32.89,32.89,0,0,1-10.2-9.83C5079.22,265.76,5085.29,259.55,5085.29,255.32Z" transform="translate(0.04 -93.9)"/><path class="cls-13" d="M4982.87,258.27c0-4.23-.93-7.37,1-10.84s5.38-4.27,8.89-6.29,5.68-7.12,9.83-7.12,8,2.45,11.45,4.46,3.54,6.49,5.58,10,9.36,5.6,9.36,9.83-3.83,8.5-5.78,11.84a25.14,25.14,0,0,1-8.35,9.24c-3.41,2-8,5.85-12.28,5.85a31.91,31.91,0,0,1-13.71-3.19,33.05,33.05,0,0,1-10.25-9.83C4976.76,268.69,4982.87,262.47,4982.87,258.27Z" transform="translate(0.04 -93.9)"/><path class="cls-13" d="M4879.85,265.27c-1-4.1-2.65-7-1.52-10.78s4.23-5.44,7.17-8.24,3.86-8.22,8-9.2,8.41.51,12.17,1.64,4.91,5.48,7.76,8.43,10.42,3.24,11.4,7.37-1.82,9.14-2.93,12.89a25,25,0,0,1-6,11c-2.86,2.71-6.38,7.52-10.5,8.5a31.82,31.82,0,0,1-14.07,0,32.54,32.54,0,0,1-12.29-7.37C4876.37,276.82,4880.84,269.37,4879.85,265.27Z" transform="translate(0.04 -93.9)"/><path class="cls-13" d="M4829.2,262.66c0-4.22-.91-7.36,1.05-10.84s5.38-4.28,8.89-6.31,5.68-7.11,9.83-7.11,8.06,2.47,11.45,4.43,3.57,6.49,5.58,10,9.38,5.6,9.38,9.82-3.85,8.45-5.7,11.87a25.1,25.1,0,0,1-8.35,9.25c-3.4,2-8,5.82-12.29,5.82a31.87,31.87,0,0,1-13.76-3.19,32.34,32.34,0,0,1-10.2-9.83C4823,273.09,4829.2,266.89,4829.2,262.66Z" transform="translate(0.04 -93.9)"/><path class="cls-13" d="M4814.13,251.22c3.07,2.9,6,4.42,7.18,8.2s-.6,6.84-1.53,10.79,1.28,9-1.64,12.09-7.38,4.15-11.09,5.26-7.15-1.87-11.08-2.81-10.51,3-13.58,0-3.46-8.62-4.59-12.28a25,25,0,0,1-1-12.29c.91-3.82,1.23-9.82,4.13-12.84a31.43,31.43,0,0,1,11.74-7.81,32.67,32.67,0,0,1,14.22-.64C4810.72,239.74,4811.06,248.32,4814.13,251.22Z" transform="translate(0.04 -93.9)"/><path class="cls-13" d="M4726.76,265.62c0-4.23-.92-7.37,1.05-10.84s5.38-4.28,8.9-6.29,5.67-7.13,9.82-7.13,8,2.46,11.48,4.47,3.61,6.48,5.65,10,9.37,5.6,9.37,9.83-3.89,8.52-5.88,11.83a24.8,24.8,0,0,1-8.36,9.28c-3.42,1.94-8,5.77-12.26,5.77a31.71,31.71,0,0,1-13.73-3.19,32.49,32.49,0,0,1-10.21-9.83C4720.68,276,4726.76,269.81,4726.76,265.62Z" transform="translate(0.04 -93.9)"/><path class="cls-13" d="M4675.6,267.07c0-4.21-.94-7.38,1-10.85s5.33-4.2,8.8-6.31,5.67-7.1,9.83-7.1,8,2.46,11.48,4.47,3.66,6.48,5.74,10,9.36,5.6,9.36,9.82-3.94,8.43-5.93,12a24.91,24.91,0,0,1-8.34,9.11c-3.42,2-8,5.83-12.29,5.83a31.94,31.94,0,0,1-13.71-3.19A33,33,0,0,1,4671.3,281C4669.46,277.51,4675.6,271.29,4675.6,267.07Z" transform="translate(0.04 -93.9)"/><path class="cls-13" d="M4747.88,312.42c0-4.23-.94-7.37,1-10.84s5.31-4.25,8.92-6.29,5.68-7.1,9.83-7.1,8,2.45,11.45,4.42,3.54,6.48,5.58,10,9.36,5.6,9.36,9.83-3.83,8.4-5.74,11.84a25.23,25.23,0,0,1-8.36,9.26c-3.41,2-8,5.82-12.28,5.82a31.75,31.75,0,0,1-13.71-3.18,33.05,33.05,0,0,1-10.25-9.83C4741.78,322.83,4747.88,316.64,4747.88,312.42Z" transform="translate(0.04 -93.9)"/><path class="cls-13" d="M4803.35,310.2c-.46-4.17-1.72-7.36,0-10.88s4.91-4.91,8.16-7.22,4.91-7.66,9.09-8.13,8.25,1.6,11.84,3.19,4.22,6.06,6.63,9.33,9.83,4.57,10.37,8.77-3,8.8-4.57,12.29a25.13,25.13,0,0,1-7.37,10.07c-3.19,2.45-7.37,6.65-11.48,7.1a31.55,31.55,0,0,1-14-1.63,32.42,32.42,0,0,1-11.25-8.76C4798.42,321.24,4803.77,314.41,4803.35,310.2Z" transform="translate(0.04 -93.9)"/><path class="cls-13" d="M4854,310.2c-.44-4.17-1.7-7.36,0-10.88s4.91-4.91,8.16-7.22,4.91-7.66,9.06-8.13,8.25,1.6,11.87,3.19,4.22,6.06,6.61,9.33,9.83,4.57,10.36,8.77-2.94,8.8-4.54,12.29a25,25,0,0,1-7.37,10.07c-3.19,2.45-7.37,6.65-11.48,7.1a31.55,31.55,0,0,1-14-1.63,32.88,32.88,0,0,1-11.26-8.76C4849.09,321.24,4854.48,314.41,4854,310.2Z" transform="translate(0.04 -93.9)"/><path class="cls-13" d="M4931.64,352.59c-.36-3.35-1.37-5.83,0-8.7s3.91-3.83,6.51-5.74,3.91-6.15,7.38-6.49a19,19,0,0,1,9.45,2.46c3,1.32,3.37,4.91,5.29,7.37s7.9,3.66,8.25,7-2.46,7-3.64,9.83a19.8,19.8,0,0,1-5.82,8c-2.46,1.87-5.82,5.31-9.17,5.68a25.25,25.25,0,0,1-11.14-1.35,26.2,26.2,0,0,1-8.95-7C4927.71,361.39,4932,355.93,4931.64,352.59Z" transform="translate(0.04 -93.9)"/><path class="cls-13" d="M4887.18,351.18c-.35-3.12-1.28-5.43,0-8.1s3.63-3.59,6.09-5.38,3.63-5.7,6.76-6.05a17.68,17.68,0,0,1,8.82,2.46c2.75,1.2,3.14,4.46,4.91,6.93s7.37,3.41,7.72,6.53-2.22,6.56-3.4,9.24a18.78,18.78,0,0,1-5.42,7.37c-2.47,1.75-5.44,4.92-8.56,5.28a23.67,23.67,0,0,1-10.39-1.22,24.87,24.87,0,0,1-8.38-6.54C4883.52,359.39,4887.52,354.31,4887.18,351.18Z" transform="translate(0.04 -93.9)"/><path class="cls-13" d="M4833.4,351.18c-.35-3.12-1.28-5.43,0-8.1s3.63-3.59,6.09-5.38,3.61-5.7,6.75-6.05a17.65,17.65,0,0,1,8.82,2.46c2.76,1.2,3.13,4.46,4.92,6.93s7.37,3.41,7.71,6.53-2.2,6.56-3.38,9.24a18.83,18.83,0,0,1-5.44,7.37c-2.45,1.75-5.43,4.92-8.54,5.28a23.66,23.66,0,0,1-10.42-1.22,24.57,24.57,0,0,1-8.35-6.54C4829.74,359.39,4833.74,354.31,4833.4,351.18Z" transform="translate(0.04 -93.9)"/><path class="cls-13" d="M4780.26,353.27c-.35-3.11-1.28-5.42,0-8.1s3.66-3.59,6.09-5.36,3.63-5.74,6.75-6.07a18.1,18.1,0,0,1,8.82,2.46c2.76,1.23,3.15,4.5,4.92,6.95s7.37,3.39,7.74,6.51-2.22,6.56-3.41,9.24a18.67,18.67,0,0,1-5.44,7.52c-2.45,1.71-5.43,4.91-8.54,5.28a19.68,19.68,0,0,1-18.77-7.76C4776.6,361.48,4780.6,356.39,4780.26,353.27Z" transform="translate(0.04 -93.9)"/><path class="cls-13" d="M4700.2,310c-.35-3.12-1.28-5.42,0-8.1s3.63-3.61,6.06-5.39,3.65-5.74,6.76-6a17.75,17.75,0,0,1,8.82,2.46c2.78,1.23,3.15,4.52,4.92,7s7.37,3.39,7.71,6.51-2.21,6.56-3.39,9.24a18.81,18.81,0,0,1-5.43,7.52c-2.46,1.72-5.43,4.91-8.55,5.28a23.77,23.77,0,0,1-10.41-1.28,24.49,24.49,0,0,1-8.36-6.51C4696.43,318.22,4700.43,313.15,4700.2,310Z" transform="translate(0.04 -93.9)"/><path class="cls-13" d="M4649.68,314.31c-.34-3.12-1.28-5.43,0-8.11s3.64-3.58,6.09-5.38,3.64-5.7,6.76-6a17.56,17.56,0,0,1,8.82,2.45c2.75,1.21,3.14,4.47,4.91,6.94s7.37,3.41,7.71,6.53-2.18,6.56-3.38,9.24a18.7,18.7,0,0,1-5.44,7.36c-2.45,1.75-5.42,4.92-8.54,5.28a23.51,23.51,0,0,1-10.39-1.22,24.43,24.43,0,0,1-8.38-6.54C4646.12,322.51,4650,317.43,4649.68,314.31Z" transform="translate(0.04 -93.9)"/><path class="cls-13" d="M4675.06,348.75c-.35-3.12-1.28-5.43,0-8.1s3.63-3.59,6.07-5.39,3.63-5.69,6.75-6a17.75,17.75,0,0,1,8.82,2.46c2.78,1.22,3.15,4.52,4.91,6.95s7.38,3.41,7.72,6.54-2.21,6.55-3.39,9.23a18.56,18.56,0,0,1-5.45,7.5c-2.46,1.74-5.43,4.91-8.56,5.28a23.27,23.27,0,0,1-10.39-1.28,24.12,24.12,0,0,1-8.35-6.51C4671.37,357,4675.38,351.87,4675.06,348.75Z" transform="translate(0.04 -93.9)"/><path class="cls-13" d="M4716.6,356.25c-.39-3.74-1.52-6.52,0-9.83s4.35-4.3,7.38-6.38,4.34-6.83,8.08-7.37a21.27,21.27,0,0,1,10.53,2.85c3.3,1.45,3.76,5.38,5.9,8.29s8.82,4.06,9.22,7.79-2.64,7.83-4.06,11a22.2,22.2,0,0,1-6.8,9.21c-2.83,2.09-6.49,5.92-10.21,6.31a27.94,27.94,0,0,1-12.43-1.46,28.91,28.91,0,0,1-10-7.81C4712.23,366,4717,360,4716.6,356.25Z" transform="translate(0.04 -93.9)"/><path class="cls-13" d="M4631.38,269c-.35-3.12-1.28-5.43,0-8.11s3.63-3.58,6.09-5.37,3.54-5.74,6.66-5.93A17.91,17.91,0,0,1,4653,252c2.75,1.23,3.14,4.52,4.91,7s7.37,3.39,7.71,6.51-2.21,6.56-3.38,9.24a18.83,18.83,0,0,1-5.44,7.51c-2.45,1.73-5.42,4.92-8.54,5.29a23.72,23.72,0,0,1-10.4-1.27,24.65,24.65,0,0,1-8.37-6.73C4627.72,277.16,4631.73,272.1,4631.38,269Z" transform="translate(0.04 -93.9)"/><path class="cls-13" d="M4904.06,309.79c-1-4.11-2.46-7-1.42-10.84s4.27-5.38,7.22-8.16,3.93-8.21,8-9.16,8.38.58,12.28,1.74,4.92,5.5,7.7,8.47,10.39,3.35,11.34,7.38-1.91,9.11-3,12.87a25.05,25.05,0,0,1-6.05,10.88c-2.88,2.71-6.44,7.38-10.54,8.43a31.57,31.57,0,0,1-14.08,0,32.42,32.42,0,0,1-12.28-7.37C4900.59,321.31,4905.11,313.89,4904.06,309.79Z" transform="translate(0.04 -93.9)"/><path class="cls-13" d="M4956.16,312.39c-.93-4.1-2.45-7-1.42-10.78s4.28-5.39,7.22-8.16,3.93-8.21,8-9.16,8.41.59,12.16,1.72,4.92,5.53,7.7,8.47,10.38,3.35,11.35,7.37-1.87,9.12-3,12.88a24.89,24.89,0,0,1-6,11c-2.87,2.68-6.44,7.37-10.54,8.43a31.86,31.86,0,0,1-14.08,0,33.1,33.1,0,0,1-12.28-7.37C4952.6,323.94,4957.12,316.52,4956.16,312.39Z" transform="translate(0.04 -93.9)"/><path class="cls-13" d="M5007.88,309.79c-1-4.11-2.56-7-1.43-10.84s4.25-5.38,7.22-8.16,3.94-8.21,8-9.16,8.38.58,12.12,1.74,4.91,5.5,7.71,8.47,10.39,3.35,11.35,7.38-1.91,9.11-3,12.87a25.2,25.2,0,0,1-6,10.88c-2.88,2.71-6.44,7.38-10.55,8.43a31.52,31.52,0,0,1-14.07,0,32.42,32.42,0,0,1-12.28-7.37C5004.32,321.31,5008.84,313.89,5007.88,309.79Z" transform="translate(0.04 -93.9)"/><path class="cls-13" d="M5034.07,256.79c0-4.23-.91-7.37,1.05-10.84s5.38-4.27,9-6.22,5.68-7.1,9.83-7.1,8,2.46,11.48,4.42,3.54,6.49,5.58,10,9.36,5.61,9.36,9.83-3.88,8.45-5.87,11.84a25,25,0,0,1-8.23,9.17c-3.41,2-8,5.82-12.29,5.82a31.58,31.58,0,0,1-13.7-3.19,32.83,32.83,0,0,1-10.25-9.83C5028,267.21,5034.07,261,5034.07,256.79Z" transform="translate(0.04 -93.9)"/><path class="cls-13" d="M5059.45,305.93c0-4.23-.92-7.37,1.05-10.84s5.38-4.25,8.9-6.29,5.67-7.1,9.82-7.1,8.06,2.46,11.48,4.42,3.56,6.49,5.58,10,9.39,5.6,9.39,9.83-3.91,8.45-5.88,11.84a25.29,25.29,0,0,1-8.35,9.26c-3.39,2-8,5.83-12.29,5.83a31.9,31.9,0,0,1-13.7-3.19,32.59,32.59,0,0,1-10.21-9.83C5053.36,316.35,5059.45,310.15,5059.45,305.93Z" transform="translate(0.04 -93.9)"/><path class="cls-13" d="M5027.15,354.23c0-4.22-.91-7.37,1.05-10.84s5.38-4.25,8.9-6.29,5.67-7.1,9.83-7.1,8,2.46,11.48,4.42,3.53,6.49,5.57,10,9.36,5.61,9.36,9.83-3.88,8.45-5.87,11.84a25,25,0,0,1-8.33,9.26c-3.41,2-8,5.83-12.28,5.83a31.91,31.91,0,0,1-13.71-3.19,33.05,33.05,0,0,1-10.25-9.83C5021.05,364.65,5027.15,358.46,5027.15,354.23Z" transform="translate(0.04 -93.9)"/><path class="cls-13" d="M4930,258.88c0-4.2-.91-7.36,1.05-10.84s5.39-4.27,8.9-6.31,5.67-7.1,9.82-7.1,8,2.45,11.43,4.46,3.56,6.46,5.6,10,9.36,5.62,9.36,9.83-3.91,8.45-5.87,11.86a25.09,25.09,0,0,1-8.33,9.24c-3.41,2-8,5.82-12.28,5.82a31.76,31.76,0,0,1-13.61-3.19,32.89,32.89,0,0,1-10.21-9.82C4923.88,269.23,4930,263.11,4930,258.88Z" transform="translate(0.04 -93.9)"/><path class="cls-1" d="M4183.82,129.16l4.42,17.86c-26.79-.36-56.94-.73-87.51-.79h0a1.87,1.87,0,0,0-1.83-1.86h-11a1.86,1.86,0,0,0-1.83,1.86h-26.15a1.92,1.92,0,0,0-1.86-1.86h-10.94a1.9,1.9,0,0,0-1.86,1.86h0a.45.45,0,0,0,0,.23c-77.49.88-145.82,4.54-154.93,15.42a56.06,56.06,0,0,0-6.83,10.71h0c-.95,1.9-1.84,3.86-2.64,5.88l-.17.4c-.75,1.91-1.47,3.88-2.12,5.91a2.53,2.53,0,0,0,0,.55c-.64,2-1.24,4-1.8,6.11v.46c-.55,2.18-1.07,4.41-1.53,6.53h0a210.43,210.43,0,0,0-3.59,28h0a28.45,28.45,0,0,1-.26,4.61v36.77a39,39,0,0,0,.15,4.32V274a27.37,27.37,0,0,0,.27,4.61h0a210.43,210.43,0,0,0,3.59,28h0c.46,2.22,1,4.46,1.53,6.53v.46c.56,2.06,1.15,4.11,1.8,6.11a5,5,0,0,0,0,.55c.64,2,1.37,4,2.13,5.92l.16.38a63.05,63.05,0,0,0,9.31,17c9.13,10.71,77.47,14.53,154.84,15.41v.23h0A1.91,1.91,0,0,0,4047,361h11a1.91,1.91,0,0,0,1.87-1.85H4086a1.86,1.86,0,0,0,1.84,1.85h11a1.85,1.85,0,0,0,1.83-1.85h0c30.57,0,60.72-.43,87.51-.79l-4.42,17.86a2.89,2.89,0,0,0,2.14,3.46,2.69,2.69,0,0,0,1.13,0A14.09,14.09,0,0,0,4199,369.06a10.2,10.2,0,0,0-2.26-10.81c29.6-.39,54.49-.78,70.27-.78,52.26,0,74-2.94,87.53-16.33l1.18-1.24,1.11-1.4h0a37.52,37.52,0,0,0,2.94-4.65v-.16c.46-.78.88-1.63,1.31-2.48v-.3c.45-.91.88-1.86,1.31-2.84h0c1.34-3.07,2.61-6.53,3.79-10.12v-.27c.94-2.87,1.82-5.91,2.67-9a2.31,2.31,0,0,0,.56.19h0a2,2,0,0,0,2.42-1.4,249.88,249.88,0,0,0,8.26-54.85,250,250,0,0,0-8.26-54.85,2,2,0,0,0-2.42-1.4h0l-.56.19c-.49-1.76-1-3.53-1.5-5.25h0c-.36-1.18-.72-2.36-1.11-3.53v-.4c-.33-1.07-.69-2.12-1.05-3.26v-.36c-.81-2.29-1.66-4.46-2.51-6.54h0c-.4-.94-.82-1.82-1.21-2.67l-.29-.59c-.33-.68-.69-1.37-1-2.06-.1-.2-.21-.4-.33-.59-.35-.68-.75-1.34-1.14-2l-.2-.32c-.49-.79-1-1.51-1.43-2.16h0a18.15,18.15,0,0,0-1.15-1.47c-.42-.49-.81-.91-1.24-1.34h0c-13.59-13.26-32.66-16.33-87.54-16.33-15.78,0-40.66-.39-70.25-.78a10.24,10.24,0,0,0,2.25-10.85,14.08,14.08,0,0,0-12-10.44,2.87,2.87,0,0,0-3.32,2.33h0a3,3,0,0,0,.05,1.22Z" transform="translate(0.04 -93.9)"/><path class="cls-14" d="M4296.39,328.11c52.26,0,73.95-2.94,87.54-16.33s23.15-66.18,23.15-88.58-9.53-75.13-23.15-88.56-32.67-16.33-87.54-16.33c-75.39.16-357.64-8.75-376.68,14.11s-19.6,67.81-19.6,90.81.75,68,19.6,90.84S4221,328.11,4296.39,328.11Z" transform="translate(0.04 -93.9)"/><path class="cls-15" d="M4284.5,319c50.73,0,69.47-2.68,81.92-14.8s17.51-60.49,17.51-81-5.1-68.79-17.51-80.94-25.57-14.79-81.92-14.79a254.78,254.78,0,0,0-46.75,4.63c-14.75,6.55-39.19,10-63,12.38-3.86-2.77-11.48-4.4-19.6-4.4-11.07-3.66-34.44-.92-49,0h-4.08s-49.78-2.2-71.86,0a64.88,64.88,0,0,0-14.34,2.67c-6.72.75-34.91-8.36-40.08-7.41-10.42,1.91-34.17,1.8-36.58,4.74-17.34,20.89-18,62.08-18,83s.69,62.06,18,83c2.41,2.94,26.15,2.81,36.58,4.7,5.17.95,33.36-8.13,40.08-7.38a61.37,61.37,0,0,0,14.34,2.65c22,2.18,71.86,0,71.86,0h4.08c14.41.95,37.76,3.66,49,0,8.1,0,15.74-1.6,19.6-4.38,23.78,2.42,48.21,5.88,63,12.38A254.71,254.71,0,0,0,4284.5,319Z" transform="translate(0.04 -93.9)"/><path class="cls-16" d="M4106.35,140.23h51.25l75.12-13.92c-26.94-2.8-79.27-3-126.37-2.48Z" transform="translate(0.04 -93.9)"/><path class="cls-16" d="M4102.27,123.9c-49.26.58-91.77,2-91.77,2l20,14.34h71.86Z" transform="translate(0.04 -93.9)"/><path class="cls-16" d="M4265.49,223.23s.63-52.3-27.74-91l-63,12.38S4193,165.91,4193,223.23,4174.78,302,4174.78,302l63,12.38C4266.14,275.56,4265.49,223.23,4265.49,223.23Z" transform="translate(0.04 -93.9)"/><path class="cls-17" d="M4106.35,306.23h51.25l75.12,13.95c-26.94,2.77-79.27,3-126.37,2.45Z" transform="translate(0.04 -93.9)"/><path class="cls-17" d="M4102.27,322.6c-49.26-.64-91.76-2-91.76-2l20-14.37h71.86Z" transform="translate(0.04 -93.9)"/><path class="cls-16" d="M4016.2,303.58c-5.33-19.6-5.33-141.17,0-160.67,0,0-24.28-9.18-40.08-7.42-8.07,13.07-18.3,41.16-18.3,87.74s10.21,74.54,18.3,87.73C3991.92,312.76,4016.2,303.58,4016.2,303.58Z" transform="translate(0.04 -93.9)"/><path class="cls-15" d="M4218.58,121.43l-5.35-21.69a2.9,2.9,0,0,1,2.22-3.46,3,3,0,0,1,1,0,14,14,0,0,1,11.89,10.65C4231.93,119.26,4218.58,121.43,4218.58,121.43Z" transform="translate(0.04 -93.9)"/><path class="cls-15" d="M4218.58,325l-5.35,21.72a2.9,2.9,0,0,0,2.21,3.46h0a2.8,2.8,0,0,0,1,0,14.07,14.07,0,0,0,11.89-10.65C4231.93,327.23,4218.58,325,4218.58,325Z" transform="translate(0.04 -93.9)"/><path class="cls-17" d="M4174.78,302l63,12.38c28.38-38.67,27.73-91,27.73-91H4193C4193,280.59,4174.78,302,4174.78,302Z" transform="translate(0.04 -93.9)"/><path class="cls-17" d="M4016.2,303.58a12.78,12.78,0,0,0-.49-2.12v-.64a2.92,2.92,0,0,0-.23-1.34c-2.13-13.39-3.27-44.78-3.27-76.23h-54.39c0,46.61,10.21,74.54,18.3,87.73C3991.92,312.76,4016.2,303.58,4016.2,303.58Z" transform="translate(0.04 -93.9)"/><path class="cls-16" d="M3906.21,245.05a278.47,278.47,0,0,1,0-43.61c.17-2-2.19-3.95-5.39-4.41-.71,10-.71,19.13-.71,26.2s0,16.33.71,26.15C3904,249,3906.38,247.07,3906.21,245.05Z" transform="translate(0.04 -93.9)"/><path class="cls-18" d="M3906.38,170.22h0a4.11,4.11,0,0,0,4.86-3q2.33-9.51,5.43-18.88a4,4,0,0,0-2.47-5h-.08a4.82,4.82,0,0,0-1.14-.16,104.64,104.64,0,0,0-8.56,26.15A4.35,4.35,0,0,0,3906.38,170.22Z" transform="translate(0.04 -93.9)"/><path class="cls-18" d="M3914.19,303.19a4,4,0,0,0,2.55-5h0a169.62,169.62,0,0,1-5.42-18.89,4.09,4.09,0,0,0-4.71-3h0a4.29,4.29,0,0,0-2,1.11,103.83,103.83,0,0,0,8.56,26.15,3.63,3.63,0,0,0,1.14,0Z" transform="translate(0.04 -93.9)"/><path class="cls-16" d="M4395.26,273.4a5.2,5.2,0,0,0,3.83,6.11h0a2,2,0,0,0,2.41-1.41,249.25,249.25,0,0,0,8.3-54.84,249.25,249.25,0,0,0-8.3-54.85,2,2,0,0,0-2.41-1.45h0a5.21,5.21,0,0,0-3.83,6.11c3.59,16.34,7.22,33.42,7.22,50.15S4398.9,256.81,4395.26,273.4Z" transform="translate(0.04 -93.9)"/><path class="cls-14" d="M4127,260.46l13.43-74.8L4115.26,169a3.25,3.25,0,0,0-4.54.75h0a3.16,3.16,0,0,0-.64,2v68.92a4.57,4.57,0,0,0,1.27,3.27C4115.17,247.92,4126.73,260.4,4127,260.46Z" transform="translate(0.04 -93.9)"/><rect class="cls-19" x="4126.01" y="91.6" width="16.27" height="75.49" rx="2.58"/><rect class="cls-20" x="4130.61" y="102.08" width="7.12" height="54.49" rx="1.8"/><path class="cls-19" d="M4383.27,138.65l-1.28-3.27q4.92,12.31,9.8,24.7a3.52,3.52,0,0,0,4.57,1.95h0a1.88,1.88,0,0,0,.53-.35,85.63,85.63,0,0,0-10.65-24.4Z" transform="translate(0.04 -93.9)"/><path class="cls-21" d="M4382,135.62l1.28,3.27,3.27-1.24a24.68,24.68,0,0,0-2.46-2.84c-.61-.61-1.24-1.19-1.91-1.74A3.47,3.47,0,0,0,4382,135.62Z" transform="translate(0.04 -93.9)"/><path class="cls-19" d="M4392.52,286.53q-5.52,12.12-11.1,24.17c.49-1,1-2.05,1.44-3.07l3.26,1.54a84.25,84.25,0,0,0,10.78-24.43A3.48,3.48,0,0,0,4392.52,286.53Z" transform="translate(0.04 -93.9)"/><path class="cls-21" d="M4386.21,309.17l-3.25-1.51c-.46,1-.95,2.06-1.44,3.07a3.46,3.46,0,0,0,.2,3.26c.78-.64,1.56-1.34,2.28-2.05A23.54,23.54,0,0,0,4386.21,309.17Z" transform="translate(0.04 -93.9)"/><path class="cls-16" d="M4117.29,114.88h11a1.87,1.87,0,0,1,1.86,1.87h0a1.86,1.86,0,0,1-1.86,1.86h-11a1.86,1.86,0,0,1-1.86-1.86h0A1.87,1.87,0,0,1,4117.29,114.88Z" transform="translate(0.04 -93.9)"/><path class="cls-16" d="M4076.31,114.88h11a1.87,1.87,0,0,1,1.86,1.87h0a1.86,1.86,0,0,1-1.86,1.86h-11a1.87,1.87,0,0,1-1.86-1.86h0A1.87,1.87,0,0,1,4076.31,114.88Z" transform="translate(0.04 -93.9)"/><path class="cls-16" d="M4117.29,327.85h11a1.86,1.86,0,0,1,1.86,1.86h0a1.87,1.87,0,0,1-1.86,1.87h-11a1.87,1.87,0,0,1-1.86-1.87h0A1.86,1.86,0,0,1,4117.29,327.85Z" transform="translate(0.04 -93.9)"/><path class="cls-16" d="M4076.31,327.85h11a1.86,1.86,0,0,1,1.86,1.86h0a1.87,1.87,0,0,1-1.86,1.87h-11a1.87,1.87,0,0,1-1.86-1.87h0A1.86,1.86,0,0,1,4076.31,327.85Z" transform="translate(0.04 -93.9)"/><path class="cls-1" d="M3528.69,148.47l-252.56-5.35c-33.08,0-80.69,27-80.69,60V301.2c0,33.12,47.61,59.95,80.69,59.95l252.56-5.35-3.79,15.41s12.7,3.11,15.25-15.59a54,54,0,0,1,8.14.41l45.57,2.11c29.64,2.76,67.61-5.21,88.65-26.26,18.08-18.07,20.7-46.19,20.7-73.79V246.17c0-27.6-2.79-55.72-20.7-73.79-21-21-59-28-88.65-25.22l-45.57,1.07c-2.69.24-5.41.38-8.14.41-2.55-18.7-15.25-15.59-15.25-15.59Z" transform="translate(0.04 -93.9)"/><path class="cls-22" d="M3560.81,120.36a111.76,111.76,0,0,0,11.57-.43l45.58-1.07c29.6-2.76,67.6,4.17,88.65,25.21,18.08,18.09,20.87,46.2,20.87,73.8v11.95c0,27.6-2.79,55.71-20.87,73.79-21.05,21-59.06,29-88.65,26.26l-45.58-2.11a93.41,93.41,0,0,0-11.59-.41l-260.54,5.52c-33.12,0-80.66-26.84-80.66-59.95V174.78c0-33.08,47.54-59.86,80.66-59.86Z" transform="translate(0.04 -93.9)"/><path class="cls-23" d="M3557.88,132.33c3.73.07,7.45-.05,11.18-.35l44-1c28.64-2.41,65.35,3.73,85.67,22.33,17.49,15.94,20.18,40.85,20.18,65.23v10.56c0,24.39-2.69,49.23-20.18,65.24-20.32,18.59-57,25.63-85.67,23.22l-44-1.87q-5.58-.47-11.18-.38L3306,320.24c-32,0-78-23.74-78-53v-86.8c0-29.25,46-53,78-53Z" transform="translate(0.04 -93.9)"/><path class="cls-4" d="M3564.61,127.46h-10.14l-5.49-22.7S3564.61,100.9,3564.61,127.46Z" transform="translate(0.04 -93.9)"/><path class="cls-4" d="M3564.61,320.24h-10.14l-5.59,22.7S3564.61,346.77,3564.61,320.24Z" transform="translate(0.04 -93.9)"/><path class="cls-5" d="M3718.92,178.41c-8.66-33-26.66-40.12-37.67-46.26a75.25,75.25,0,0,0-18.87-6.31A337,337,0,0,0,3718.92,178.41Z" transform="translate(0.04 -93.9)"/><path class="cls-6" d="M3431.58,139.06c-.21.76-.38,1.52-.59,2.28h58.68c29.34,0,83.38-13.8,83.38-13.8s-91.73-2.76-138.2,0A96.22,96.22,0,0,0,3431.58,139.06Z" transform="translate(0.04 -93.9)"/><path class="cls-6" d="M3428.79,127.58a400.92,400.92,0,0,0-77.72,13.61h74.49C3426.61,136.64,3427.68,132.15,3428.79,127.58Z" transform="translate(0.04 -93.9)"/><path class="cls-7" d="M3234.21,166.65a186.84,186.84,0,0,1,50.39-33.16,85.69,85.69,0,0,0-23,.86,52,52,0,0,0-22.29,19.46,122.16,122.16,0,0,0-8.71,15.87A41.78,41.78,0,0,0,3234.21,166.65Z" transform="translate(0.04 -93.9)"/><path class="cls-5" d="M3718.92,271.67c-8.66,33-26.66,40.12-37.67,46.12a74.88,74.88,0,0,1-18.87,6.32A337.79,337.79,0,0,1,3718.92,271.67Z" transform="translate(0.04 -93.9)"/><path class="cls-6" d="M3615.05,296.16C3619.7,282,3624,259.56,3624,225s-4.14-56.89-8.93-71.1A27.43,27.43,0,0,0,3584,135.15l-71.13,13.91a5.2,5.2,0,0,0-4.14,5.17c.21,35.85,2.73,70.8,2.73,70.8s-2.55,35-2.73,70.83a5.2,5.2,0,0,0,4.14,5.34L3584,315A27.44,27.44,0,0,0,3615.05,296.16Z" transform="translate(0.04 -93.9)"/><path class="cls-7" d="M3234.21,280.91a188.26,188.26,0,0,0,50.39,33.16,84.09,84.09,0,0,1-23-.89,52.15,52.15,0,0,1-22.29-19.43,121.38,121.38,0,0,1-8.69-15.86A30.46,30.46,0,0,1,3234.21,280.91Z" transform="translate(0.04 -93.9)"/><path class="cls-6" d="M3431.58,311.17c-.21-.76-.38-1.52-.59-2.28h58.68c29.34,0,83.38,14,83.38,14s-91.73,2.76-138.2,0C3433.51,319.14,3432.55,315,3431.58,311.17Z" transform="translate(0.04 -93.9)"/><path class="cls-6" d="M3428.79,322.52a399.63,399.63,0,0,1-77.72-13.81h74.49C3426.61,313.44,3427.68,318,3428.79,322.52Z" transform="translate(0.04 -93.9)"/><path class="cls-6" d="M3346.4,292a165.51,165.51,0,0,1,0-133.9c-15.7-5.48-36.71-7.59-48-8.35a12.43,12.43,0,0,0-12,6.91,154.88,154.88,0,0,0,0,136.86,12.42,12.42,0,0,0,12,6.91C3309.69,299.58,3330.66,297.47,3346.4,292Z" transform="translate(0.04 -93.9)"/><path class="cls-1" d="M2384.59,359.1h-98.67a10.48,10.48,0,0,0-10.49,10.48h0a10.51,10.51,0,0,1-10.51,10.51H1726.7a28,28,0,0,1-28-28h0V160.91a28,28,0,0,1,28-28h657.89a28,28,0,0,1,28,28h0V331.09a28,28,0,0,1-27.93,28h0Z" transform="translate(0.04 -93.9)"/><rect class="cls-8" x="1760.81" y="67.2" width="626.11" height="138.78"/><rect class="cls-8" x="1710.77" y="0.89" width="547.96" height="271.4" rx="18.5"/><path class="cls-9" d="M1744.42,124.28h413.84a10.9,10.9,0,0,1,10.91,10.89h0V336.84" transform="translate(0.04 -93.9)"/><line class="cls-10" x1="2188.25" y1="32.24" x2="2244.41" y2="32.24"/><line class="cls-10" x1="2188.25" y1="244.9" x2="2244.41" y2="244.9"/><rect class="cls-11" x="2269.44" y="28.05" width="160.87" height="217.3" rx="9.73"/><path class="cls-12" d="M2425.93,159.29h7.86a3.71,3.71,0,0,1,3.73,3.71h0V298a3.72,3.72,0,0,1-3.72,3.73h-7.87Z" transform="translate(0.04 -93.9)"/><path class="cls-9" d="M2342.81,153.76h51a8,8,0,0,1,8,8v0h0V299.35a8,8,0,0,1-8,8h-51" transform="translate(0.04 -93.9)"/><path d="M2425.25,142.36h4.91v176.3h-4.91a2.1,2.1,0,0,1-2.1-2.08h0v-172a2.09,2.09,0,0,1,2-2.2Z" transform="translate(0.04 -93.9)"/><circle cx="2294.01" cy="246.97" r="11.7"/><circle cx="2294.01" cy="26.35" r="11.7"/><path class="cls-13" d="M1761.22,224.69c0,4.2.91,7.37-1.06,10.84s-5.38,4.22-8.92,6.31-5.67,7.1-9.83,7.1-8-2.46-11.42-4.46-3.56-6.47-5.6-10-9.37-5.62-9.37-9.83,3.83-8.45,5.78-12a25,25,0,0,1,8.33-9.24c3.41-2,8-5.82,12.28-5.82a31.91,31.91,0,0,1,13.79,3.27,32.64,32.64,0,0,1,10.2,9.82C1767.29,214.24,1761.22,220.44,1761.22,224.69Z" transform="translate(0.04 -93.9)"/><path class="cls-13" d="M1863.64,221.71c0,4.23.94,7.37-1,10.85s-5.38,4.25-8.89,6.29-5.66,7.1-9.83,7.1-8-2.46-11.45-4.43-3.51-6.48-5.65-10-9.35-5.61-9.35-9.82,3.89-8.45,5.85-11.84a25.28,25.28,0,0,1,8.36-9.19c3.41-2,8-5.82,12.28-5.82a31.47,31.47,0,0,1,13.61,3.19,32.66,32.66,0,0,1,10.24,9.82C1869.74,211.32,1863.64,217.63,1863.64,221.71Z" transform="translate(0.04 -93.9)"/><path class="cls-13" d="M1924.37,216.13c0-4.22-.93-7.36,1-10.84s5.38-4.28,8.89-6.31,5.67-7.11,9.83-7.11,8,2.46,11.44,4.43,3.57,6.58,5.65,10,9.37,5.6,9.37,9.82-3.91,8.46-5.82,11.84a25.12,25.12,0,0,1-8.35,9.26c-3.42,2-8,5.83-12.28,5.83a31.62,31.62,0,0,1-13.71-3.19,32.91,32.91,0,0,1-10.25-9.82C1918.28,226.55,1924.37,220.36,1924.37,216.13Z" transform="translate(0.04 -93.9)"/><path class="cls-13" d="M2017.32,217.34c0,4.2.9,7.37-1.06,10.84s-5.38,4.27-8.89,6.31-5.68,7.1-9.83,7.1-8-2.45-11.42-4.46-3.57-6.46-5.58-10-9.39-5.62-9.39-9.82,3.9-8.46,5.87-11.87a25.31,25.31,0,0,1,8.35-9.24c3.39-2,8-5.82,12.16-5.82a32,32,0,0,1,13.73,3.19,32.38,32.38,0,0,1,10.21,9.83C2023.38,206.9,2017.32,213.12,2017.32,217.34Z" transform="translate(0.04 -93.9)"/><path class="cls-13" d="M2027,211.57c.35-4.21-.34-7.5,1.92-10.72s5.7-3.83,9.36-5.6,6.22-6.63,10.41-6.31,7.84,3.1,11.06,5.33,3,6.73,4.79,10.4,8.93,6.31,8.57,10.51-4.54,8.13-6.78,11.37a24.77,24.77,0,0,1-9.05,8.56c-3.54,1.69-8.38,5.18-12.6,4.91a32.34,32.34,0,0,1-13.4-4.22,33.24,33.24,0,0,1-9.43-10.79C2020.09,221.49,2026.63,215.77,2027,211.57Z" transform="translate(0.04 -93.9)"/><path class="cls-13" d="M2117.7,222.2c-1.62,3.91-2,7.38-5.11,9.63s-6.6,1.92-10.63,2.46-7.94,4.43-11.85,2.83-6.5-5.34-8.89-8.46-.83-7.37-1.38-11.37-6.55-8.75-4.91-12.65,6.83-6.31,9.83-8.72a25.51,25.51,0,0,1,11.23-5.41c3.91-.51,9.56-2.45,13.49-.76A31.74,31.74,0,0,1,2121,198a32.39,32.39,0,0,1,5.7,13.07C2127.28,214.88,2119.27,218.29,2117.7,222.2Z" transform="translate(0.04 -93.9)"/><path class="cls-13" d="M2166.52,224.54c-2.46,3.49-3.47,6.66-7,8.33s-6.85.46-10.88.14-8.72,2.61-12.29.23-5.2-6.62-6.9-10.15.76-7.37,1.08-11.4-4.52-9.83-2.11-13.4,8-4.73,11.55-6.41a25,25,0,0,1,12.12-2.87c3.9.32,9.82-.27,13.31,2.13a32,32,0,0,1,9.51,10.39,33.2,33.2,0,0,1,2.9,14C2177.45,219.43,2168.92,221.08,2166.52,224.54Z" transform="translate(0.04 -93.9)"/><path class="cls-13" d="M2149.12,167.59c0,4.22.94,7.37-1,10.84s-5.38,4.28-8.89,6.32-5.68,7.1-9.83,7.1-8-2.46-11.45-4.43-3.54-6.49-5.57-10-9.39-5.61-9.39-9.83,3.91-8.45,5.87-11.85a25.41,25.41,0,0,1,8.29-9.36c3.41-2,8-5.82,12.29-5.82A31.93,31.93,0,0,1,2143,143.9a32.92,32.92,0,0,1,10.21,9.83C2155.22,157.17,2149.12,163.36,2149.12,167.59Z" transform="translate(0.04 -93.9)"/><path class="cls-13" d="M2098.63,167.59c0,4.22.94,7.37-1,10.84s-5.38,4.28-8.89,6.32-5.68,7.1-9.83,7.1-8-2.46-11.48-4.43-3.54-6.49-5.57-10-9.37-5.61-9.37-9.83,3.89-8.45,5.85-11.85a25.31,25.31,0,0,1,8.36-9.26c3.41-2,8-5.82,12.28-5.82a31.92,31.92,0,0,1,13.57,3.23,33.13,33.13,0,0,1,10.24,9.83C2104.73,157.17,2098.63,163.36,2098.63,167.59Z" transform="translate(0.04 -93.9)"/><path class="cls-13" d="M2101.34,139c-3.41.24-6,1.15-8.87-.25s-3.76-4.13-5.63-6.85-6.06-4.23-6.31-7.65a19.56,19.56,0,0,1,2.94-9.57c1.46-3,5.07-3.25,7.82-5.1s4-7.94,7.37-8.18,7.07,2.69,10,4.1a20.37,20.37,0,0,1,8,6.26c1.8,2.65,5.16,6.12,5.41,9.57a25.7,25.7,0,0,1-1.8,11.3,26.33,26.33,0,0,1-7.41,8.77C2110.13,143.27,2104.75,138.7,2101.34,139Z" transform="translate(0.04 -93.9)"/><path class="cls-13" d="M2045.44,165.5c.47,4.2,1.72,7.37.13,10.89s-4.92,4.91-8.16,7.22-4.91,7.69-9.07,8.13-8.25-1.6-11.86-3.19-4.23-6.05-6.61-9.34-9.82-4.57-10.39-8.75,3-8.81,4.57-12.43a25.23,25.23,0,0,1,7.37-10.07c3.19-2.33,7.37-6.66,11.48-7.1a32.25,32.25,0,0,1,14,1.67A32.75,32.75,0,0,1,2048,151.3C2050.39,154.47,2045.13,161.3,2045.44,165.5Z" transform="translate(0.04 -93.9)"/><path class="cls-13" d="M1992.48,169.78c.47,4.2,1.72,7.37.12,10.9s-4.91,4.92-8.15,7.22-4.92,7.66-9.07,8.14-8.26-1.6-11.87-3.19-4.22-6.07-6.61-9.34-9.82-4.57-10.36-8.77,2.94-8.82,4.54-12.41a25.23,25.23,0,0,1,7.37-10.1c3.19-2.31,7.37-6.63,11.48-7.07a31.6,31.6,0,0,1,14,1.67,32.37,32.37,0,0,1,11.23,8.77C1997.42,158.67,1992,165.59,1992.48,169.78Z" transform="translate(0.04 -93.9)"/><path class="cls-13" d="M1802.89,132.31c.37,3.34,1.37,5.82,0,8.7s-3.88,3.83-6.51,5.74-3.89,6.14-7.23,6.48a18.91,18.91,0,0,1-9.46-2.45c-3-1.33-3.36-4.91-5.28-7.37s-7.91-3.66-8.29-7,2.46-7,3.64-9.82a20.23,20.23,0,0,1,5.82-8c2.45-1.87,5.82-5.3,9.16-5.67a25.31,25.31,0,0,1,11.18,1.37,26.13,26.13,0,0,1,9,7C1806.82,123.5,1802.54,129,1802.89,132.31Z" transform="translate(0.04 -93.9)"/><path class="cls-13" d="M1867.87,126.74c.34,3.34,1.35,5.82,0,8.69s-3.91,3.82-6.53,5.74-3.89,6.11-7.23,6.48a19.25,19.25,0,0,1-9.46-2.47c-3-1.33-3.36-4.91-5.28-7.37s-7.81-3.73-8.18-7.2,2.46-7,3.63-9.83a20.19,20.19,0,0,1,5.85-8c2.46-1.84,5.8-5.28,9.14-5.65a25.48,25.48,0,0,1,11.06,1.27,26.26,26.26,0,0,1,9,7C1871.81,117.89,1867.5,123.34,1867.87,126.74Z" transform="translate(0.04 -93.9)"/><path class="cls-13" d="M1825.79,130.32a8.33,8.33,0,0,1,0,4.43c-.64,1.49-2,2-3.32,2.92s-2,3.12-3.69,3.31a9.72,9.72,0,0,1-4.91-1.27c-1.5-.64-1.72-2.46-2.7-3.78s-3.83-1.8-4.06-3.57,1.21-3.58,1.84-4.91a10.48,10.48,0,0,1,3-4.11c1.27-.93,3-2.7,4.67-2.87a12.71,12.71,0,0,1,5.67.64,13.69,13.69,0,0,1,4.57,3.56C1827.81,125.85,1825.59,128.6,1825.79,130.32Z" transform="translate(0.04 -93.9)"/><path class="cls-13" d="M1739.92,178.67a10.66,10.66,0,0,1,0,5.82c-.89,2-2.63,2.6-4.4,3.89s-2.4,4.12-4.86,4.37a13.12,13.12,0,0,1-6.38-1.72c-2-.89-2.26-3.25-3.54-4.92s-5.33-2.45-5.57-4.69,1.59-4.74,2.45-6.65a13.68,13.68,0,0,1,3.91-5.41c1.72-1.28,3.93-3.59,6.17-3.83a16.8,16.8,0,0,1,7.47.89,17.69,17.69,0,0,1,6.12,4.51C1742.57,172.75,1739.67,176.43,1739.92,178.67Z" transform="translate(0.04 -93.9)"/><path class="cls-13" d="M1760,142.21c.35,3.07,1.28,5.33,0,7.94s-3.46,3.61-5.85,5.25-3.55,5.74-6.6,5.92a17.53,17.53,0,0,1-8.63-2.31c-2.7-1.2-3.09-4.42-4.91-6.8s-7.22-3.32-7.54-6.38,2.16-6.42,3.31-9a18.31,18.31,0,0,1,5.34-7.37c2.31-1.7,5.3-4.92,8.35-5.18a23.28,23.28,0,0,1,10.17,1.22,23.91,23.91,0,0,1,8.18,6.38C1763.58,134.1,1759.67,139.17,1760,142.21Z" transform="translate(0.04 -93.9)"/><path class="cls-13" d="M1914.21,123.57c.36,3.34,1.37,5.82,0,8.69s-3.91,3.83-6.51,5.74-3.91,6.11-7.26,6.48A19.3,19.3,0,0,1,1891,142c-3-1.31-3.39-4.92-5.3-7.37s-7.91-3.66-8.26-7,2.46-7,3.64-9.83a20.09,20.09,0,0,1,5.92-8.29c2.46-1.84,5.82-5.28,9.16-5.65a25.36,25.36,0,0,1,11.16,1.35,26.32,26.32,0,0,1,9,7C1918.14,114.77,1913.84,120.22,1914.21,123.57Z" transform="translate(0.04 -93.9)"/><path class="cls-13" d="M2083.08,352.12c.35,3.34,1.36,5.82,0,8.69s-3.91,3.83-6.51,5.74-3.9,6.12-7.37,6.49a19.34,19.34,0,0,1-9.46-2.46c-3-1.32-3.36-4.91-5.28-7.37s-7.91-3.63-8.29-7,2.46-7,3.63-9.82a20,20,0,0,1,6.08-8.4c2.45-1.85,5.79-5.29,9.16-5.66a25.32,25.32,0,0,1,11.12,1.33,26.26,26.26,0,0,1,9,7C2087,343.32,2082.71,348.78,2083.08,352.12Z" transform="translate(0.04 -93.9)"/><path class="cls-13" d="M1783.28,177.71c.37,3.34,1.38,5.82,0,8.7s-3.91,3.82-6.51,5.74-3.91,6.11-7.24,6.48a19.32,19.32,0,0,1-9.49-2.43c-3-1.32-3.36-4.92-5.28-7.37s-7.91-3.64-8.29-7,2.45-7,3.66-9.83a19.78,19.78,0,0,1,5.91-8.4c2.47-1.84,5.83-5.28,9.17-5.65a25.6,25.6,0,0,1,11.15,1.33,26,26,0,0,1,8.93,7C1787.16,168.89,1782.91,174.35,1783.28,177.71Z" transform="translate(0.04 -93.9)"/><path class="cls-13" d="M1959.34,128.82c.34,3.12,1.27,5.43,0,8.11s-3.64,3.59-6.09,5.38-3.65,5.7-6.77,6.05a17.82,17.82,0,0,1-8.82-2.47c-2.65-1.12-3.09-4.42-4.81-6.87s-7.37-3.41-7.71-6.51,2.21-6.57,3.39-9.24a18.81,18.81,0,0,1,5.43-7.52c2.45-1.72,5.43-4.91,8.55-5.28a23.85,23.85,0,0,1,10.39,1.28,24.62,24.62,0,0,1,8.38,6.53C1963,120.62,1959,125.7,1959.34,128.82Z" transform="translate(0.04 -93.9)"/><path class="cls-13" d="M2013.19,128.82c.34,3.12,1.28,5.43,0,8.11s-3.64,3.59-6.1,5.38-3.63,5.7-6.75,6.05a17.76,17.76,0,0,1-8.82-2.47c-2.75-1.19-3.15-4.49-4.91-6.95s-7.38-3.38-7.72-6.51,2.21-6.56,3.39-9.23a19,19,0,0,1,5.45-7.52c2.46-1.72,5.43-4.91,8.55-5.28a24.11,24.11,0,0,1,10.42,1.27,24.42,24.42,0,0,1,8.35,6.53C2016.77,120.62,2012.76,125.7,2013.19,128.82Z" transform="translate(0.04 -93.9)"/><path class="cls-13" d="M2066.25,126.74c.32,3.11,1.28,5.45,0,8.13s-3.63,3.58-6.06,5.35-3.64,5.74-6.76,6a17.84,17.84,0,0,1-8.82-2.45c-2.75-1.23-3.15-4.52-4.91-6.95s-7.38-3.4-7.74-6.51,2.21-6.57,3.41-9.24a18.56,18.56,0,0,1,5.46-7.52c2.46-1.72,5.43-4.92,8.55-5.28a23.6,23.6,0,0,1,10.51,1.22,24.06,24.06,0,0,1,8.36,6.54C2069.91,118.53,2065.91,123.59,2066.25,126.74Z" transform="translate(0.04 -93.9)"/><path class="cls-13" d="M1942.36,170.22c1,4.1,2.45,7,1.42,10.84s-4.3,5.36-7.22,8.13-3.93,8.2-8,9.17-8.38-.57-12.29-1.72-4.91-5.51-7.65-8.48-10.4-3.34-11.35-7.37,1.86-9.12,3-12.87a25,25,0,0,1,6-10.89c2.87-2.7,6.44-7.49,10.54-8.45a31.86,31.86,0,0,1,14.08,0A32.42,32.42,0,0,1,1943.2,156C1945.92,158.67,1941.4,166,1942.36,170.22Z" transform="translate(0.04 -93.9)"/><path class="cls-13" d="M1890.35,167.59c.94,4.13,2.45,7,1.43,10.84s-4.28,5.38-7.23,8.16-3.93,8.2-8,9.16-8.4-.59-12.28-1.74-4.91-5.51-7.68-8.45-10.4-3.34-11.36-7.38,1.87-9.11,3-12.87a25.09,25.09,0,0,1,6-10.91c2.87-2.68,6.44-7.36,10.54-8.42a31.52,31.52,0,0,1,14.07,0,32.79,32.79,0,0,1,12.29,7.37C1893.91,156.07,1889.39,163.59,1890.35,167.59Z" transform="translate(0.04 -93.9)"/><path class="cls-13" d="M1838.76,170.22c1,4.1,2.45,7,1.42,10.84s-4.25,5.36-7.22,8.13-3.93,8.2-8,9.17-8.38-.57-12.11-1.72-4.91-5.51-7.71-8.48-10.55-3.34-11.48-7.35,1.91-9.11,3-12.87a25,25,0,0,1,6-10.88c2.87-2.7,6.43-7.5,10.54-8.46a32.16,32.16,0,0,1,14.08,0,32.65,32.65,0,0,1,12.28,7.38C1842.2,158.67,1837.67,166,1838.76,170.22Z" transform="translate(0.04 -93.9)"/><path class="cls-13" d="M1812.42,223.21c0,4.22.94,7.37-1,10.84s-5.38,4.28-8.93,6.32-5.67,7.1-9.83,7.1-8-2.46-11.48-4.42-3.54-6.49-5.57-10-9.36-5.61-9.36-9.83,3.88-8.45,5.87-11.87a25.17,25.17,0,0,1,8.36-9.24c3.41-2,8-5.82,12.29-5.82a31.86,31.86,0,0,1,13.7,3.19,32.69,32.69,0,0,1,10.24,9.83C1818.51,212.72,1812.42,219,1812.42,223.21Z" transform="translate(0.04 -93.9)"/><path class="cls-13" d="M1914.91,220.27c0,4.22.94,7.36-1.05,10.84s-5.35,4.28-8.87,6.29-5.7,7.13-9.83,7.13-8-2.47-11.48-4.47-3.66-6.48-5.65-10-9.38-5.6-9.38-9.82,3.9-8.43,5.87-11.84a25,25,0,0,1,8.43-9.24c3.41-2,8-5.82,12.28-5.82a31.34,31.34,0,0,1,13.71,3.19,32.44,32.44,0,0,1,10.24,9.82C1921,209.84,1914.91,216.06,1914.91,220.27Z" transform="translate(0.04 -93.9)"/><path class="cls-13" d="M2155.09,255.32c0-4.2-.91-7.37,1.06-10.84s5.38-4.27,8.89-6.31,5.67-7.1,9.83-7.1,8,2.45,11.42,4.42,3.56,6.49,5.61,10,9.35,5.62,9.35,9.83-3.9,8.45-5.87,11.86a25,25,0,0,1-8.33,9.24c-3.41,2-8,5.82-12.28,5.82a31.87,31.87,0,0,1-13.56-3.19,33,33,0,0,1-10.2-9.83C2149,265.76,2155.09,259.55,2155.09,255.32Z" transform="translate(0.04 -93.9)"/><path class="cls-13" d="M2052.67,258.27c0-4.23-.93-7.37,1-10.84s5.38-4.27,8.89-6.29,5.68-7.12,9.83-7.12,8,2.45,11.45,4.46,3.54,6.49,5.58,10,9.36,5.6,9.36,9.83-3.83,8.5-5.74,11.84a25.09,25.09,0,0,1-8.36,9.24c-3.41,2-8,5.85-12.28,5.85a31.91,31.91,0,0,1-13.71-3.19,33.16,33.16,0,0,1-10.25-9.83C2046.57,268.69,2052.67,262.47,2052.67,258.27Z" transform="translate(0.04 -93.9)"/><path class="cls-13" d="M1949.65,265.27c-1-4.1-2.65-7-1.52-10.78s4.23-5.44,7.18-8.24,3.85-8.22,8-9.2,8.41.51,12.17,1.64,4.91,5.48,7.76,8.43,10.42,3.24,11.4,7.37-1.82,9.14-2.92,12.89a25.13,25.13,0,0,1-6,11c-2.86,2.71-6.38,7.52-10.5,8.5a31.82,31.82,0,0,1-14.07,0,32.5,32.5,0,0,1-12.3-7.37C1946.17,276.82,1950.64,269.37,1949.65,265.27Z" transform="translate(0.04 -93.9)"/><path class="cls-13" d="M1899,262.66c0-4.22-.91-7.36,1-10.84s5.38-4.28,8.9-6.31,5.67-7.11,9.82-7.11,8.06,2.47,11.45,4.43,3.57,6.49,5.58,10,9.38,5.6,9.38,9.82-3.85,8.45-5.7,11.87a25,25,0,0,1-8.35,9.25c-3.4,2-8,5.82-12.29,5.82a31.84,31.84,0,0,1-13.76-3.19,32.34,32.34,0,0,1-10.2-9.83C1892.8,273.09,1899,266.89,1899,262.66Z" transform="translate(0.04 -93.9)"/><path class="cls-13" d="M1883.93,251.22c3.07,2.9,6,4.42,7.18,8.2s-.6,6.84-1.53,10.79,1.28,9-1.64,12.09-7.38,4.15-11.09,5.26-7.15-1.87-11.08-2.81-10.51,3-13.58,0-3.46-8.62-4.59-12.28a25.26,25.26,0,0,1-1-12.29c.91-3.82,1.23-9.82,4.13-12.84a31.68,31.68,0,0,1,11.72-7.81,32.67,32.67,0,0,1,14.22-.64C1880.52,239.74,1880.86,248.32,1883.93,251.22Z" transform="translate(0.04 -93.9)"/><path class="cls-13" d="M1796.56,265.62c0-4.23-.92-7.37,1-10.84s5.38-4.28,8.9-6.29,5.67-7.13,9.82-7.13,8,2.46,11.45,4.47,3.61,6.48,5.65,10,9.36,5.6,9.36,9.83-3.88,8.52-5.87,11.83a24.8,24.8,0,0,1-8.33,9.28c-3.42,1.91-8,5.74-12.26,5.74a31.71,31.71,0,0,1-13.73-3.19,32.6,32.6,0,0,1-10.21-9.83C1790.48,276,1796.56,269.81,1796.56,265.62Z" transform="translate(0.04 -93.9)"/><path class="cls-13" d="M1745.37,267.07c0-4.21-.93-7.38,1-10.85s5.33-4.2,8.79-6.31,5.68-7.1,9.83-7.1,8,2.46,11.45,4.47,3.66,6.48,5.74,10,9.36,5.6,9.36,9.82-3.93,8.43-5.92,12a24.94,24.94,0,0,1-8.35,9.11c-3.42,2-8,5.83-12.29,5.83a31.94,31.94,0,0,1-13.71-3.19,33,33,0,0,1-10.2-9.79C1739.26,277.51,1745.37,271.29,1745.37,267.07Z" transform="translate(0.04 -93.9)"/><path class="cls-13" d="M1817.68,312.42c0-4.23-.94-7.37,1-10.84s5.31-4.25,8.89-6.29,5.68-7.1,9.83-7.1,8,2.45,11.45,4.42,3.54,6.48,5.57,10,9.37,5.6,9.37,9.83-3.83,8.4-5.78,11.84a25.2,25.2,0,0,1-8.35,9.26c-3.41,2-8,5.82-12.28,5.82a31.8,31.8,0,0,1-13.72-3.18,33.13,33.13,0,0,1-10.24-9.83C1811.58,322.83,1817.68,316.64,1817.68,312.42Z" transform="translate(0.04 -93.9)"/><path class="cls-13" d="M1873.15,310.2c-.46-4.17-1.72-7.36,0-10.88s4.91-4.91,8.16-7.22,4.91-7.66,9.09-8.13,8.25,1.6,11.84,3.19,4.22,6.06,6.64,9.33,9.82,4.57,10.36,8.77-3,8.8-4.57,12.29a25,25,0,0,1-7.37,10.07c-3.19,2.45-7.37,6.65-11.48,7.1a31.55,31.55,0,0,1-14-1.63,32.51,32.51,0,0,1-11.25-8.76C1868.24,321.24,1873.57,314.41,1873.15,310.2Z" transform="translate(0.04 -93.9)"/><path class="cls-13" d="M1923.81,310.2c-.44-4.17-1.69-7.36,0-10.88s4.91-4.91,8.16-7.22,4.91-7.66,9.06-8.13,8.25,1.6,11.87,3.19,4.22,6.06,6.61,9.33,9.83,4.57,10.36,8.77-2.94,8.8-4.54,12.29a24.9,24.9,0,0,1-7.37,10.07c-3.19,2.45-7.37,6.65-11.48,7.1a31.55,31.55,0,0,1-14-1.63,33,33,0,0,1-11.26-8.76C1918.89,321.24,1924.28,314.41,1923.81,310.2Z" transform="translate(0.04 -93.9)"/><path class="cls-13" d="M2001.44,352.59c-.36-3.35-1.37-5.83,0-8.7s3.91-3.83,6.51-5.74,3.91-6.15,7.38-6.49a19,19,0,0,1,9.45,2.46c3,1.32,3.37,4.91,5.29,7.37s7.9,3.66,8.25,7-2.46,7-3.64,9.83a19.8,19.8,0,0,1-5.82,8c-2.46,1.87-5.82,5.31-9.16,5.68a25.3,25.3,0,0,1-11.15-1.35,26.27,26.27,0,0,1-9-7C1997.51,361.39,2001.81,355.93,2001.44,352.59Z" transform="translate(0.04 -93.9)"/><path class="cls-13" d="M1957,351.18c-.35-3.12-1.28-5.43,0-8.1s3.63-3.59,6.09-5.38,3.63-5.7,6.76-6.05a17.68,17.68,0,0,1,8.82,2.46c2.75,1.2,3.14,4.46,4.91,6.93s7.37,3.41,7.72,6.53-2.22,6.56-3.4,9.24a18.69,18.69,0,0,1-5.42,7.37c-2.47,1.75-5.44,4.92-8.56,5.28a23.67,23.67,0,0,1-10.39-1.22,24.87,24.87,0,0,1-8.38-6.54C1953.29,359.39,1957.32,354.31,1957,351.18Z" transform="translate(0.04 -93.9)"/><path class="cls-13" d="M1903.2,351.18c-.35-3.12-1.28-5.43,0-8.1s3.63-3.59,6.09-5.38,3.61-5.7,6.75-6.05a17.65,17.65,0,0,1,8.82,2.46c2.76,1.2,3.13,4.46,4.92,6.93s7.37,3.41,7.71,6.53-2.2,6.56-3.38,9.24a18.73,18.73,0,0,1-5.44,7.37c-2.45,1.75-5.43,4.92-8.54,5.28a23.66,23.66,0,0,1-10.42-1.22,24.57,24.57,0,0,1-8.35-6.54C1899.54,359.39,1903.54,354.31,1903.2,351.18Z" transform="translate(0.04 -93.9)"/><path class="cls-13" d="M1850.06,353.27c-.35-3.11-1.28-5.42,0-8.1s3.66-3.59,6.09-5.36,3.64-5.74,6.75-6.07a18.1,18.1,0,0,1,8.82,2.46c2.76,1.23,3.15,4.5,4.92,6.95s7.37,3.39,7.74,6.51-2.21,6.56-3.41,9.24a18.6,18.6,0,0,1-5.44,7.52c-2.45,1.71-5.43,4.91-8.54,5.28a19.71,19.71,0,0,1-18.77-7.76C1846.4,361.48,1850.4,356.39,1850.06,353.27Z" transform="translate(0.04 -93.9)"/><path class="cls-13" d="M1770,310c-.35-3.12-1.28-5.42,0-8.1s3.63-3.61,6.06-5.39,3.64-5.74,6.76-6a17.75,17.75,0,0,1,8.82,2.46c2.78,1.23,3.15,4.52,4.91,7s7.38,3.39,7.72,6.51-2.21,6.56-3.39,9.24a18.74,18.74,0,0,1-5.43,7.52c-2.46,1.72-5.43,4.91-8.55,5.28a23.84,23.84,0,0,1-10.42-1.28,24.68,24.68,0,0,1-8.35-6.51C1766.23,318.22,1770.25,313.15,1770,310Z" transform="translate(0.04 -93.9)"/><path class="cls-13" d="M1719.48,314.31c-.34-3.12-1.27-5.43,0-8.11s3.64-3.58,6.09-5.38,3.64-5.7,6.76-6a17.54,17.54,0,0,1,8.82,2.45c2.75,1.21,3.14,4.47,4.91,6.94s7.37,3.41,7.71,6.53-2.18,6.56-3.38,9.24a18.54,18.54,0,0,1-5.44,7.36c-2.45,1.75-5.42,4.92-8.54,5.28a23.53,23.53,0,0,1-10.39-1.22,24.68,24.68,0,0,1-8.38-6.54C1715.92,322.51,1719.83,317.43,1719.48,314.31Z" transform="translate(0.04 -93.9)"/><path class="cls-13" d="M1744.86,348.75c-.35-3.12-1.28-5.43,0-8.1s3.63-3.59,6.07-5.39,3.63-5.69,6.75-6a17.75,17.75,0,0,1,8.82,2.46c2.78,1.22,3.15,4.52,4.91,6.95s7.38,3.41,7.72,6.54-2.21,6.55-3.39,9.23a18.56,18.56,0,0,1-5.45,7.5c-2.46,1.74-5.43,4.91-8.56,5.28a23.27,23.27,0,0,1-10.39-1.28,24.24,24.24,0,0,1-8.35-6.51C1741.17,357,1745.18,351.87,1744.86,348.75Z" transform="translate(0.04 -93.9)"/><path class="cls-13" d="M1786.4,356.25c-.39-3.74-1.52-6.52,0-9.83s4.35-4.3,7.38-6.38,4.34-6.83,8.08-7.37a21.27,21.27,0,0,1,10.53,2.85c3.3,1.45,3.77,5.38,5.9,8.29s8.82,4.06,9.22,7.79-2.64,7.83-4.06,11a22,22,0,0,1-6.8,9.21c-2.83,2.09-6.49,5.92-10.21,6.31a27.94,27.94,0,0,1-12.43-1.46,29.14,29.14,0,0,1-10-7.81C1782,366,1786.83,360,1786.4,356.25Z" transform="translate(0.04 -93.9)"/><path class="cls-13" d="M1701.18,269c-.35-3.12-1.28-5.43,0-8.11s3.63-3.58,6.09-5.37,3.54-5.74,6.66-5.93a17.91,17.91,0,0,1,8.82,2.46c2.75,1.23,3.14,4.52,4.91,7s7.37,3.39,7.71,6.51-2.21,6.56-3.38,9.24a18.57,18.57,0,0,1-5.44,7.51c-2.45,1.73-5.42,4.92-8.54,5.29a23.72,23.72,0,0,1-10.4-1.27,24.65,24.65,0,0,1-8.37-6.73C1697.54,277.16,1701.53,272.1,1701.18,269Z" transform="translate(0.04 -93.9)"/><path class="cls-13" d="M1973.86,309.79c-1-4.11-2.46-7-1.42-10.84s4.27-5.38,7.22-8.16,3.93-8.21,8-9.16,8.38.58,12.29,1.74,4.91,5.5,7.69,8.47,10.39,3.35,11.34,7.38-1.91,9.11-3,12.87a25,25,0,0,1-6,10.88c-2.88,2.71-6.43,7.38-10.54,8.43a31.57,31.57,0,0,1-14.08,0,32.67,32.67,0,0,1-12.27-7.37C1970.39,321.31,1974.91,313.89,1973.86,309.79Z" transform="translate(0.04 -93.9)"/><path class="cls-13" d="M2026,312.39c-.94-4.1-2.46-7-1.43-10.78s4.28-5.39,7.22-8.16,3.93-8.21,8-9.16,8.41.59,12.17,1.72,4.91,5.53,7.69,8.47,10.39,3.35,11.35,7.37-1.87,9.12-3,12.88a25,25,0,0,1-6.05,11c-2.87,2.68-6.43,7.37-10.53,8.43a31.91,31.91,0,0,1-14.09,0,33.31,33.31,0,0,1-12.28-7.37C2022.4,323.94,2026.92,316.52,2026,312.39Z" transform="translate(0.04 -93.9)"/><path class="cls-13" d="M2077.66,309.79c-1-4.11-2.55-7-1.43-10.84s4.25-5.38,7.22-8.16,3.94-8.21,8-9.16,8.38.58,12.12,1.74,4.91,5.5,7.72,8.47,10.38,3.35,11.34,7.38-1.91,9.11-3,12.87a25,25,0,0,1-6,10.88c-2.88,2.71-6.44,7.38-10.54,8.43a31.57,31.57,0,0,1-14.08,0,32.42,32.42,0,0,1-12.28-7.37C2074.12,321.31,2078.64,313.89,2077.66,309.79Z" transform="translate(0.04 -93.9)"/><path class="cls-13" d="M2103.87,256.79c0-4.23-.91-7.37,1.05-10.84s5.38-4.27,9-6.22,5.68-7.1,9.83-7.1,8,2.46,11.45,4.42,3.54,6.49,5.58,10,9.36,5.61,9.36,9.83-3.88,8.45-5.87,11.84a25,25,0,0,1-8.23,9.17c-3.42,2-8,5.82-12.29,5.82a31.72,31.72,0,0,1-13.7-3.19,32.94,32.94,0,0,1-10.25-9.83C2097.8,267.21,2103.87,261,2103.87,256.79Z" transform="translate(0.04 -93.9)"/><path class="cls-13" d="M2129.25,305.93c0-4.23-.92-7.37,1.06-10.84s5.37-4.25,8.89-6.29,5.67-7.1,9.82-7.1,8.06,2.46,11.45,4.42,3.56,6.49,5.58,10,9.38,5.6,9.38,9.83-3.91,8.45-5.87,11.84a25.29,25.29,0,0,1-8.35,9.26c-3.4,2-8,5.83-12.29,5.83a32.09,32.09,0,0,1-13.71-3.19,32.45,32.45,0,0,1-10.2-9.83C2123.16,316.35,2129.25,310.15,2129.25,305.93Z" transform="translate(0.04 -93.9)"/><path class="cls-13" d="M2097,354.23c0-4.22-.91-7.37,1.05-10.84s5.38-4.25,8.93-6.29,5.68-7.1,9.83-7.1,8,2.46,11.48,4.42,3.53,6.49,5.57,10,9.37,5.61,9.37,9.83-3.89,8.45-5.88,11.84a25,25,0,0,1-8.33,9.26c-3.41,2-8,5.83-12.28,5.83A31.94,31.94,0,0,1,2103,378a33.16,33.16,0,0,1-10.25-9.83C2090.85,364.65,2097,358.46,2097,354.23Z" transform="translate(0.04 -93.9)"/><path class="cls-13" d="M1999.75,258.88c0-4.2-.91-7.36,1-10.84s5.39-4.27,8.9-6.31,5.67-7.1,9.82-7.1,8,2.45,11.43,4.46,3.56,6.46,5.6,10,9.36,5.62,9.36,9.83-3.91,8.45-5.87,11.86a25.18,25.18,0,0,1-8.3,9.24c-3.42,2-8,5.82-12.29,5.82a31.83,31.83,0,0,1-13.61-3.19,32.86,32.86,0,0,1-10.2-9.82C1993.68,269.23,1999.75,263.11,1999.75,258.88Z" transform="translate(0.04 -93.9)"/><path class="cls-1" d="M6148.38,369.2c1.82-6.61.74-10.67-1-13.18,29.23-.4,53.45-.78,68.39-.78,42,0,68-2,83.16-10.16h0a27.08,27.08,0,0,0,2.74-1.63l.69-.47,2-1.42a29,29,0,0,0,2.4-2.17h0a18.85,18.85,0,0,0,2.71-3.39l.34-.58c.51-.84,1-1.72,1.46-2.67h0c.58-1.22,1.12-2.55,1.66-3.93h0v-.41h0c.37-1,.74-2.1,1.09-3.38l.19-.64c.35-1.12.69-2.24,1-3.39h0c1-3.79,1.91-8,2.64-12.29h0v-.95h0c.68-4.14,1.28-8.4,1.76-12.76h0c.81-7,1.35-14.13,1.73-20.73V229.5a300.5,300.5,0,0,0-3.93-35.91v-.24a13.89,13.89,0,0,0-.44-2.4h0c-.51-2.41-1-4.74-1.59-7a1.22,1.22,0,0,0,0-.27,8.08,8.08,0,0,0-.44-1.69l-.24-.85a4.93,4.93,0,0,0-.44-1.46l-.31-1-.4-1.27a4.75,4.75,0,0,0-.37-1.12l-.41-1.12-.64-1.52-.44-1-.64-1.42c0-.27-.23-.51-.37-.75s-.37-.75-.57-1.12l-.41-.67-.64-1-.4-.64c-.2-.34-.48-.64-.71-1a5.12,5.12,0,0,0-.34-.44c-.37-.44-.72-.85-1.12-1.28h0a25,25,0,0,0-2.3-2.06h0c-13.55-11.32-38.69-13.89-88.75-13.89-14.81,0-38.79-.37-67.76-.78a16.23,16.23,0,0,0,.31-12c-2.4-8.65-6.77-11.77-9.82-12.84a2.37,2.37,0,0,0-3,1.47h0a2.38,2.38,0,0,0,0,1.35l5.25,21.84c-25.81-.34-55.12-.67-85.17-.78a1.72,1.72,0,0,0-1.73-1.62h-10.2a1.72,1.72,0,0,0-1.76,1.62h-25.34a1.77,1.77,0,0,0-1.76-1.63h-10.6a1.76,1.76,0,0,0-1.76,1.73c-83.61.57-160.09,4-169.14,15.24a60,60,0,0,0-6.61,10.57h0c-.91,1.91-1.76,3.83-2.55,5.86a2.28,2.28,0,0,0,0,.37c-.75,1.92-1.42,3.83-2,5.83a4.86,4.86,0,0,0,0,.54c-.63,2-1.18,4-1.72,6h0v.44a177.31,177.31,0,0,0-4.6,25.35v1.1c0,1.46-.27,2.88-.37,4.3v1.44a20.9,20.9,0,0,1-.27,4v47.73a20.9,20.9,0,0,0,.27,4v1.42c0,1.43.24,2.85.37,4.3v1.13a179.24,179.24,0,0,0,4.2,25.3v.4h0c.54,2,1.12,4.07,1.73,6a2.44,2.44,0,0,0,0,.54c.64,2,1.27,3.93,2,5.83V325a62.08,62.08,0,0,0,9.15,16.39c9.07,11.21,85.53,14.67,169.14,15.35a1.77,1.77,0,0,0,1.76,1.72h10.6a1.75,1.75,0,0,0,1.76-1.65H6041a1.77,1.77,0,0,0,1.76,1.62h10.6a1.77,1.77,0,0,0,1.73-1.66c30.15,0,59.55-.44,85.46-.77L6135,379.1a2.38,2.38,0,0,0,1.7,2.9,2.48,2.48,0,0,0,1.35-.05C6141.7,381,6145.9,377.84,6148.38,369.2Z" transform="translate(0.04 -93.9)"/><path class="cls-24" d="M6242.44,326.65c50.47,0,77.91-2.91,91.06-16s15.65-65.34,15.65-87.47-2.48-74.53-15.6-87.42-38.11-16-91.13-16c-72.59,0-364.59-8.8-382.78,13.75s-19,67-19,89.7.68,67.31,18.9,89.71S6169.85,326.65,6242.44,326.65Z" transform="translate(0.04 -93.9)"/><path class="cls-25" d="M6231,317.74c48.85,0,66.91-2.64,78.87-14.66s16.94-59.69,16.94-79.92-4.92-67.95-16.94-79.94-24.63-14.6-78.87-14.6a240.09,240.09,0,0,0-45.05,4.7c-14.23,6.38-37.73,9.83-60.63,12.23a35.2,35.2,0,0,0-18.9-4.34c-10.64-3.62-47.26-.91-61,0h-3.92s-47.94-2.16-69.08,0a60.78,60.78,0,0,0-13.82,2.61c-6.5.75-33.6-8.23-38.61-7.28-10.17,1.86-38.91,1.76-41.26,4.64-16.87,20.56-17.41,61.23-17.41,82s.67,61.34,17.37,82c2.34,2.88,31.25,2.78,41.26,4.64,5,.95,32.12-8.06,38.62-7.32a57.07,57.07,0,0,0,13.82,2.65c21.14,2.16,69.07,0,69.07,0h3.93c13.89.91,50.51,3.62,61,0a35.42,35.42,0,0,0,18.91-4.34c22.89,2.37,46.4,5.83,60.63,12.19A238.8,238.8,0,0,0,6231,317.74Z" transform="translate(0.04 -93.9)"/><polygon class="cls-24" points="6284.86 159.72 6190.04 177.64 6188.99 170.82 6284.86 159.72"/><polygon class="cls-24" points="6284.86 98.85 6188.99 87.7 6190.04 80.92 6284.86 98.85"/><path class="cls-16" d="M6045.27,141.22h63.35l72.5-13.78c-25.95-2.75-90.45-3-135.85-2.41Z" transform="translate(0.04 -93.9)"/><path class="cls-16" d="M6041.36,125.07c-47.42.63-88.37,2-88.37,2l19.3,14.19h69.07Z" transform="translate(0.04 -93.9)"/><path class="cls-24" d="M6215.21,223.16s.64-52.47-26.72-91.2l-60.64,12.4s17.51,21.34,17.51,78.82S6127.85,302,6127.85,302l60.67,12.44C6215.88,275.64,6215.21,223.16,6215.21,223.16Z" transform="translate(0.04 -93.9)"/><path class="cls-16" d="M6212.7,223.16s.64-51.66-26.73-89.83l-60.63,12.23s17.51,21,17.51,77.6-17.51,77.64-17.51,77.64L6186,313C6213.35,274.86,6212.7,223.16,6212.7,223.16Z" transform="translate(0.04 -93.9)"/><path class="cls-17" d="M6045.27,305.14h63.35L6181,318.92c-25.94,2.74-90.44,2.94-135.85,2.44Z" transform="translate(0.04 -93.9)"/><path class="cls-17" d="M6041.36,321.26c-47.42-.57-88.37-1.91-88.37-1.91l19.3-14.19h69.07Z" transform="translate(0.04 -93.9)"/><path class="cls-16" d="M5958.47,302.5c-5.15-19.24-5.15-139.4,0-158.67,0,0-23.37-9.05-38.62-7.28-7.75,13-17.57,40.65-17.57,86.61s9.89,73.61,17.57,86.66C5935.1,311.58,5958.47,302.5,5958.47,302.5Z" transform="translate(0.04 -93.9)"/><path class="cls-17" d="M6125.34,300.8,6186,313c27.38-38.14,26.73-89.84,26.73-89.84h-69.85C6142.85,279.8,6125.34,300.8,6125.34,300.8Z" transform="translate(0.04 -93.9)"/><path class="cls-17" d="M5958.47,302.5c-.16-.64-.31-1.36-.44-2.07,0-.22,0-.45,0-.68l-.2-1.32c-2-13.21-3.08-44.2-3.08-75.26h-52.47c0,46,9.82,73.62,17.57,86.66C5935.1,311.58,5958.47,302.5,5958.47,302.5Z" transform="translate(0.04 -93.9)"/><path class="cls-16" d="M6341.79,260c1.7,2,3.4,4,4.92,6.06a390.45,390.45,0,0,0,0-85.91c-1.59,2.07-3.19,4.1-4.92,6.07C6340.78,187.5,6340.78,258.87,6341.79,260Z" transform="translate(0.04 -93.9)"/><path class="cls-26" d="M6322.71,128.42a3.94,3.94,0,0,0-3.39,2.61,4.8,4.8,0,0,0-.21.91,3.92,3.92,0,0,0,2.68,4.17c17.22,4.87,19.21,28.38,20.06,30.48.54,1.28,2.3,1.87,3,1-2.33-14.09-5.95-26.38-11.48-31.84A36.1,36.1,0,0,0,6322.71,128.42Z" transform="translate(0.04 -93.9)"/><path class="cls-21" d="M6329.5,140.1a10.89,10.89,0,0,0,3.76-4.6,36.68,36.68,0,0,0-10.55-7.08,3.94,3.94,0,0,0-3.39,2.61,4.8,4.8,0,0,0-.21.91,3.94,3.94,0,0,0,2.68,4.17A21.42,21.42,0,0,1,6329.5,140.1Z" transform="translate(0.04 -93.9)"/><path class="cls-26" d="M6319.44,315.4a3.93,3.93,0,0,0,3,2.55,35.69,35.69,0,0,0,11.08-7.14,16.36,16.36,0,0,0,1.18-1.32h0a27.13,27.13,0,0,0,3.19-5.22h0a43.6,43.6,0,0,0,1.73-4v-.41a74.64,74.64,0,0,0,2.27-7.32,1.49,1.49,0,0,1,.27-1c.34-1.35.68-2.74,1-4.16l.3-1.42.51-2.48c.2-1.08.4-2.17.57-3.38v-1c-.71-.77-2.44,0-3,1.06-.85,2-2.81,25.54-20.05,30.48a4,4,0,0,0-2.68,4.17A4,4,0,0,0,6319.44,315.4Z" transform="translate(0.04 -93.9)"/><path class="cls-21" d="M6320.45,316.9l.2.2a5.7,5.7,0,0,0,.81.5h0a4.06,4.06,0,0,0,.95.31h0a36.36,36.36,0,0,0,10.84-7.11,10.71,10.71,0,0,0-3.73-4.51,19.71,19.71,0,0,1-2.7,1.83l-1.28.71-.95.44a20.42,20.42,0,0,1-2.64,1,3.33,3.33,0,0,0-2.06,1.59,4.27,4.27,0,0,0-.64,2.55,5.8,5.8,0,0,0,.2.92,4.34,4.34,0,0,0,.51,1Z" transform="translate(0.04 -93.9)"/><path class="cls-16" d="M5840.62,223.16a337.43,337.43,0,0,0,1.92,39.44l1.08-.21a6.77,6.77,0,0,0,5.28-6.77,632.63,632.63,0,0,1,0-65.18,6.54,6.54,0,0,0-5.28-6.78l-1.08-.19A337.24,337.24,0,0,0,5840.62,223.16Z" transform="translate(0.04 -93.9)"/><path class="cls-18" d="M5846.69,170.79h0a4,4,0,0,0,4.67-3q2.24-9.44,5.22-18.67a3.91,3.91,0,0,0-2.44-5h0a3,3,0,0,0-1.11,0,104.51,104.51,0,0,0-8.24,25.61A3.63,3.63,0,0,0,5846.69,170.79Z" transform="translate(0.04 -93.9)"/><path class="cls-18" d="M5854.23,302.13a4,4,0,0,0,2.44-4.88q-3-9.24-5.22-18.63a3.91,3.91,0,0,0-4.67-3h0a3.59,3.59,0,0,0-1.92,1.08,104.42,104.42,0,0,0,8.23,25.62,3,3,0,0,0,1.12,0Z" transform="translate(0.04 -93.9)"/><path class="cls-16" d="M6173.81,121.1l-8.84-.64a2.16,2.16,0,0,0-1.91,1l-1.07,1.71,15,1.75-1.45-2.67A2.06,2.06,0,0,0,6173.81,121.1Z" transform="translate(0.04 -93.9)"/><path class="cls-25" d="M6167.85,120.57l-5.65-23.71A2.4,2.4,0,0,1,6164,94h0a2.49,2.49,0,0,1,1.27.05c3.12,1.09,7.39,4.2,9.79,12.84s-.23,13-2.81,15.14a2.76,2.76,0,0,1-4.4-1.42Z" transform="translate(0.04 -93.9)"/><path class="cls-16" d="M6173.81,326.45l-8.84.61a2.13,2.13,0,0,1-1.91-.92l-1.09-1.69,15-1.79-1.45,2.71A2.11,2.11,0,0,1,6173.81,326.45Z" transform="translate(0.04 -93.9)"/><path class="cls-25" d="M6167.85,327l-5.65,23.71a2.4,2.4,0,0,0,1.77,2.9h0a2.49,2.49,0,0,0,1.27-.05c3.12-1.12,7.39-4.24,9.79-12.84s-.23-13-2.81-15.14a2.76,2.76,0,0,0-3.89.43,2.67,2.67,0,0,0-.51,1Z" transform="translate(0.04 -93.9)"/><path class="cls-27" d="M5846.69,170.79h0a4,4,0,0,0,4.67-3c.37-1.57.81-3.09,1.22-4.65l-6.29-.51c-.58,2.31-1.09,4.65-1.56,7A3.55,3.55,0,0,0,5846.69,170.79Z" transform="translate(0.04 -93.9)"/><path class="cls-27" d="M5846.75,275.55h0a3.56,3.56,0,0,0-1.91,1.08c.47,2.38,1,4.71,1.55,7l6.31-.51c-.41-1.56-.85-3.11-1.22-4.64a3.94,3.94,0,0,0-4.71-3Z" transform="translate(0.04 -93.9)"/><rect class="cls-24" x="6019.92" y="86.31" width="66.8" height="85.91" rx="6.27"/><path class="cls-16" d="M6255.53,257.82V188.54a5.87,5.87,0,0,1,5.8-5.92h50.57a5.87,5.87,0,0,1,5.83,5.89v69.31a5.85,5.85,0,0,1-5.78,5.92h-50.59a5.84,5.84,0,0,1-5.82-5.88h0Z" transform="translate(0.04 -93.9)"/><path class="cls-17" d="M6084.38,257.82V223.16h-62.19v34.66a5.87,5.87,0,0,0,5.79,5.92h50.58a5.85,5.85,0,0,0,5.83-5.88h0Z" transform="translate(0.04 -93.9)"/><path class="cls-16" d="M6070,116.42h10.57a1.8,1.8,0,0,1,1.8,1.8h0a1.79,1.79,0,0,1-1.79,1.79H6070a1.77,1.77,0,0,1-1.79-1.78h0a1.79,1.79,0,0,1,1.79-1.81Z" transform="translate(0.04 -93.9)"/><path class="cls-16" d="M6030.52,116.42h10.58a1.8,1.8,0,0,1,1.79,1.8h0a1.79,1.79,0,0,1-1.79,1.79h-10.57a1.8,1.8,0,0,1-1.8-1.79h0a1.8,1.8,0,0,1,1.79-1.8Z" transform="translate(0.04 -93.9)"/><path class="cls-16" d="M6070,326.35h10.57a1.78,1.78,0,0,1,1.8,1.78h0a1.8,1.8,0,0,1-1.8,1.8H6070a1.8,1.8,0,0,1-1.79-1.8h0a1.79,1.79,0,0,1,1.79-1.79Z" transform="translate(0.04 -93.9)"/><path class="cls-16" d="M6030.52,326.35h10.58a1.79,1.79,0,0,1,1.79,1.79h0a1.79,1.79,0,0,1-1.78,1.8h-10.58a1.8,1.8,0,0,1-1.8-1.79h0A1.8,1.8,0,0,1,6030.52,326.35Z" transform="translate(0.04 -93.9)"/><path class="cls-1" d="M303.08,366.43a10,10,0,0,0-2.14-10.5c27.93-.39,51.55-.77,66.71-.77,49.75,0,76.84-2.87,89.76-15.8,10.29-10.28,13.92-45.17,15.07-69.78h0c.16-3.67.26-7.12.32-10.24V247.09c0-3.19,0-6.58-.32-10.25h0c-1.05-24.74-4.69-59.5-15-69.78-12.93-12.93-37.51-15.8-89.76-15.8-15.16,0-38.78-.38-66.71-.76A10,10,0,0,0,303.17,140a13.51,13.51,0,0,0-11.29-10.37,2.78,2.78,0,0,0-3.23,2.22h0a2.81,2.81,0,0,0,0,1.19l4.18,17.33c-25.51-.35-54.26-.7-83-.76a1.77,1.77,0,0,0-1.73-1.57H197.58a1.74,1.74,0,0,0-1.72,1.57H170.94a1.77,1.77,0,0,0-1.76-1.7H158.7a1.78,1.78,0,0,0-1.76,1.76h0c-69.46,1-129.85,4.63-138.21,15A56.1,56.1,0,0,0,12.35,175h0c-.9,1.85-1.76,3.76-2.55,5.74v.38c-.7,1.92-1.4,3.83-2,5.74l-.16.55c-.63,2-1.18,3.92-1.69,5.94v.45c-.54,2.13-1,4.3-1.47,6.37h0A278.86,278.86,0,0,0,0,253.15a278.62,278.62,0,0,0,4.08,52.7h0c.44,2.17.92,4.34,1.47,6.38v.44c.51,2,1.09,4,1.69,5.94l.18.55c.64,1.91,1.28,3.9,2,5.74a2.41,2.41,0,0,0,0,.38,62.64,62.64,0,0,0,9.07,16.2c8.36,10.31,68.75,14,138.21,14.94h0a1.75,1.75,0,0,0,1.76,1.75h10.72a1.72,1.72,0,0,0,1.76-1.69h24.93a1.73,1.73,0,0,0,1.73,1.56h10.46a1.76,1.76,0,0,0,1.73-1.56c28.92,0,57.45-.41,83-.76l-4.18,17.33a2.79,2.79,0,0,0,2,3.38h0a2.93,2.93,0,0,0,1.18,0A13.43,13.43,0,0,0,303.08,366.43Z" transform="translate(0.04 -93.9)"/><path class="cls-28" d="M395.56,325.12c49.74,0,76.86-2.84,89.76-15.76s15.35-64.42,15.35-86.19-2.43-73.42-15.35-86.19-37.51-15.83-89.76-15.83c-71.58,0-330.9-8.68-348.87,13.44S28,200.76,28,223.14s.79,66.16,18.7,88.42S324,325.12,395.56,325.12Z" transform="translate(0.04 -93.9)"/><path class="cls-29" d="M384.29,316.54c48.13,0,65.94-2.62,77.75-14.43s16.83-59,16.83-79-4.85-67-16.67-78.78-24.27-14.43-77.75-14.43a235,235,0,0,0-44.57,4.66c-14,6.37-37.18,9.56-59.79,12a34.58,34.58,0,0,0-18.6-4.27c-10.51-3.55-32.69-.9-46.35,0h-3.9s-47.24-2.14-68.12,0a59.93,59.93,0,0,0-13.59,2.55c-6.38.73-33.14-8.11-38-7.18-9.9,1.85-23.79,1.72-26.08,4.56C49,162.65,48.29,202.64,48.29,223.1s.63,60.5,17.11,80.83c2.29,2.87,16.18,2.74,26.08,4.6,4.91.92,31.66-8,38.05-7.22a58.24,58.24,0,0,0,13.59,2.62c20.88,2.1,68.12,0,68.12,0h3.9c13.66.89,35.84,3.54,46.35,0a34.68,34.68,0,0,0,18.6-4.28c22.61,2.33,45.78,5.74,59.79,12A237.61,237.61,0,0,0,384.29,316.54Z" transform="translate(0.04 -93.9)"/><path class="cls-16" d="M215.14,142.35h48.68l71.43-13.57c-25.51-2.71-75.26-2.91-120-2.4Z" transform="translate(0.04 -93.9)"/><path class="cls-16" d="M211.24,126.45c-46.76.57-87.11,1.91-87.11,1.91l19.13,14h68Z" transform="translate(0.04 -93.9)"/><path class="cls-16" d="M366.22,223.14s.64-51.08-26.34-88.55l-59.79,12s17.27,20.75,17.27,76.61-17.27,76.61-17.27,76.61l59.79,12C366.86,274.08,366.22,223.14,366.22,223.14Z" transform="translate(0.04 -93.9)"/><path class="cls-17" d="M215.14,304h48.68l71.43,13.57c-25.51,2.68-75.26,2.9-120,2.36Z" transform="translate(0.04 -93.9)"/><path class="cls-17" d="M211.24,319.73c-46.76-.61-87.11-1.92-87.11-1.92l19.15-14h68Z" transform="translate(0.04 -93.9)"/><path class="cls-16" d="M129.53,301.34c-5.11-19-5.11-137.26,0-156.41,0,0-23-8.93-38-7.18-7.66,12.76-17.37,40.06-17.37,85.39s9.57,72.55,17.37,85.42C106.52,310.15,129.53,301.34,129.53,301.34Z" transform="translate(0.04 -93.9)"/><path class="cls-29" d="M321.69,124.06l-5.1-21.14a2.77,2.77,0,0,1,2-3.37h0a2.81,2.81,0,0,1,1.19,0,13.48,13.48,0,0,1,11.29,10.37C334.36,121.82,321.69,124.06,321.69,124.06Z" transform="translate(0.04 -93.9)"/><path class="cls-29" d="M321.69,322.25l-5.1,21.13a2.74,2.74,0,0,0,1.94,3.35,2.78,2.78,0,0,0,1.25,0,13.46,13.46,0,0,0,11.29-10.34C334.36,324.39,321.69,322.25,321.69,322.25Z" transform="translate(0.04 -93.9)"/><path class="cls-17" d="M280.09,299.68l59.79,12c27-37.63,26.34-88.58,26.34-88.58H297.34C297.36,279,280.09,299.68,280.09,299.68Z" transform="translate(0.04 -93.9)"/><path class="cls-17" d="M129.53,301.34c-.16-.64-.32-1.31-.45-2v-.67a3.12,3.12,0,0,0-.22-1.28c-2-13-3.19-43.6-3.19-74.21H74.11c0,45.35,9.57,72.55,17.37,85.42C106.52,310.15,129.53,301.34,129.53,301.34Z" transform="translate(0.04 -93.9)"/><path class="cls-16" d="M492.28,247.94l7,3.42h.39c.79-11,1.05-21.27,1.05-28.35s-.26-17.31-1.05-28.31h-.39l-7,3.73a3.63,3.63,0,0,0-2.08,3.19v43A3.66,3.66,0,0,0,492.28,247.94Z" transform="translate(0.04 -93.9)"/><path class="cls-26" d="M463.26,135.7a3.62,3.62,0,0,1,3.61-3.64,3.69,3.69,0,0,1,.87.1c12.76,3,20,12.76,22.82,31a3.68,3.68,0,0,1-7.25,1.11c-3-19.13-10.78-23.43-17.26-25A3.7,3.7,0,0,1,463.26,135.7Z" transform="translate(0.04 -93.9)"/><path class="cls-21" d="M476.31,135.7a26.52,26.52,0,0,0-8.55-3.54,3.64,3.64,0,0,0-4.4,2.68h0a3.7,3.7,0,0,0,2.71,4.45,18.77,18.77,0,0,1,6.57,2.8A10.59,10.59,0,0,0,476.31,135.7Z" transform="translate(0.04 -93.9)"/><path class="cls-26" d="M463.26,310.57a3.1,3.1,0,0,0,0,.86,3.67,3.67,0,0,0,4.4,2.71c12.76-3.19,20-12.76,22.82-31a3.68,3.68,0,0,0-7.27-1.15h0c-3,19.13-10.78,23.46-17.26,25A3.65,3.65,0,0,0,463.26,310.57Z" transform="translate(0.04 -93.9)"/><path class="cls-21" d="M476.31,310.57a27.14,27.14,0,0,1-8.55,3.57,3.68,3.68,0,0,1-4.41-2.71,4.12,4.12,0,0,1,0-.86A3.65,3.65,0,0,1,466.1,307a19.31,19.31,0,0,0,6.58-2.81A10.71,10.71,0,0,1,476.31,310.57Z" transform="translate(0.04 -93.9)"/><path class="cls-29" d="M30.35,223.14a326.52,326.52,0,0,0,2,39.54l4.4-.86A6.39,6.39,0,0,0,42,255.44a631.81,631.81,0,0,1,0-64.26,6.38,6.38,0,0,0-5.24-6.59l-4.4-.83A327.77,327.77,0,0,0,30.35,223.14Z" transform="translate(0.04 -93.9)"/><path class="cls-18" d="M33.92,171.52h0a3.82,3.82,0,0,0,4.59-2.87h0q2.19-9.28,5.17-18.39a3.92,3.92,0,0,0-2.43-4.91h0a2.86,2.86,0,0,0-1.09,0A101.81,101.81,0,0,0,32,170.47,4,4,0,0,0,33.92,171.52Z" transform="translate(0.04 -93.9)"/><path class="cls-18" d="M41.36,301a3.91,3.91,0,0,0,2.43-4.88q-3-9.1-5.17-18.38a3.91,3.91,0,0,0-4.6-2.94h0a3.84,3.84,0,0,0-1.85,1.09,102.62,102.62,0,0,0,8.11,25.28,3.91,3.91,0,0,0,1.08,0Z" transform="translate(0.04 -93.9)"/><rect class="cls-16" x="223.79" y="24" width="13.98" height="3.55" rx="1.75"/><rect class="cls-16" x="184.92" y="24" width="13.98" height="3.55" rx="1.75"/><rect class="cls-16" x="223.79" y="230.93" width="13.98" height="3.55" rx="1.75"/><rect class="cls-16" x="184.92" y="230.93" width="13.98" height="3.55" rx="1.75"/><path class="cls-1" d="M1312.83,369.2c1.82-6.61.74-10.67-1-13.18,29.24-.4,53.46-.78,68.4-.78,42,0,68-2,83.16-10.16h0a27.08,27.08,0,0,0,2.74-1.63l.68-.47,2-1.42a27.6,27.6,0,0,0,2.41-2.17h0a19.3,19.3,0,0,0,2.71-3.39l.34-.58c.51-.84,1-1.72,1.45-2.67h0c.58-1.22,1.12-2.55,1.67-3.93h0v-.41h0c.37-1,.74-2.1,1.08-3.38l.2-.64c.34-1.12.68-2.24,1-3.39h0c1-3.79,1.91-8,2.65-12.29h0v-.95h0c.67-4.14,1.27-8.4,1.76-12.76h0c.81-7,1.35-14.13,1.73-20.73V229.5a300.5,300.5,0,0,0-3.93-35.91v-.24a14.92,14.92,0,0,0-.44-2.4h0c-.51-2.41-1-4.74-1.6-7a.61.61,0,0,0,0-.27,7.51,7.51,0,0,0-.44-1.69l-.23-.85a4.93,4.93,0,0,0-.44-1.46l-.31-1-.41-1.27a4.33,4.33,0,0,0-.37-1.12l-.41-1.12-.63-1.52-.44-1-.64-1.42c0-.27-.24-.51-.37-.75s-.37-.75-.58-1.12l-.4-.67-.64-1-.4-.64c-.21-.34-.48-.64-.72-1a2.87,2.87,0,0,0-.34-.44c-.37-.44-.71-.85-1.11-1.28h0a26.54,26.54,0,0,0-2.31-2.06h0C1455,151,1429.89,148.4,1379.82,148.4c-14.8,0-38.79-.37-67.75-.78a16.33,16.33,0,0,0,.31-12c-2.41-8.65-6.78-11.77-9.83-12.84a2.36,2.36,0,0,0-3,1.47h0a2.38,2.38,0,0,0,0,1.35l5.25,21.84c-25.81-.34-55.12-.67-85.16-.78a1.73,1.73,0,0,0-1.73-1.62h-10.2a1.73,1.73,0,0,0-1.77,1.62h-25.34a1.77,1.77,0,0,0-1.76-1.63h-10.6a1.76,1.76,0,0,0-1.76,1.73c-83.6.57-160.08,4-169.14,15.24a60.57,60.57,0,0,0-6.61,10.57h0c-.91,1.91-1.76,3.83-2.55,5.86v.37c-.74,1.92-1.42,3.83-2,5.83a4.86,4.86,0,0,0,0,.54c-.64,2-1.19,4-1.73,6h0v.44a178.69,178.69,0,0,0-4.59,25.35v1.1c0,1.46-.28,2.88-.38,4.3v1.44a19.42,19.42,0,0,1-.27,4v47.73a22.63,22.63,0,0,0,.27,4v1.42c0,1.43.24,2.85.38,4.3v1.13a177.81,177.81,0,0,0,4.2,25.3v.4h0c.54,2,1.12,4.07,1.72,6a2.44,2.44,0,0,0,0,.54c.64,2,1.28,3.93,2,5.83V325a62.05,62.05,0,0,0,9.14,16.39c9.08,11.21,85.54,14.67,169.14,15.35a1.78,1.78,0,0,0,1.76,1.72h10.6a1.74,1.74,0,0,0,1.76-1.65h25.34a1.77,1.77,0,0,0,1.76,1.62h10.61a1.77,1.77,0,0,0,1.73-1.66c30.14,0,59.55-.44,85.46-.77l-5.56,23.06a2.39,2.39,0,0,0,1.71,2.9,2.44,2.44,0,0,0,1.34-.05C1306.15,381,1310.36,377.84,1312.83,369.2Z" transform="translate(0.04 -93.9)"/><path class="cls-24" d="M1406.9,326.65c50.47,0,77.91-2.91,91-16s15.65-65.34,15.65-87.47-2.47-74.53-15.6-87.42-38.1-16-91.12-16c-72.59,0-364.59-8.8-382.78,13.75s-19,67-19,89.7.67,67.31,18.9,89.71S1334.3,326.65,1406.9,326.65Z" transform="translate(0.04 -93.9)"/><path class="cls-25" d="M1395.48,317.74c48.85,0,66.9-2.64,78.86-14.66s16.94-59.69,16.94-79.92-4.91-67.95-16.94-79.94-24.62-14.6-78.86-14.6a240,240,0,0,0-45,4.7c-14.23,6.38-37.74,9.83-60.64,12.23a35.2,35.2,0,0,0-18.9-4.34c-10.64-3.62-47.25-.91-61,0H1206s-47.94-2.16-69.07,0a60.78,60.78,0,0,0-13.82,2.61c-6.51.75-33.61-8.23-38.62-7.28-10.17,1.86-38.9,1.76-41.26,4.64-16.87,20.56-17.41,61.23-17.41,82s.68,61.34,17.38,82c2.34,2.88,31.25,2.78,41.26,4.64,5,.95,32.11-8.06,38.61-7.32a57.07,57.07,0,0,0,13.82,2.65c21.14,2.16,69.07,0,69.07,0h3.93c13.89.91,50.51,3.62,61,0a35.38,35.38,0,0,0,18.9-4.34c22.9,2.37,46.41,5.83,60.64,12.19A238.72,238.72,0,0,0,1395.48,317.74Z" transform="translate(0.04 -93.9)"/><polygon class="cls-24" points="1449.31 159.72 1354.49 177.64 1353.45 170.82 1449.31 159.72"/><polygon class="cls-24" points="1449.31 98.85 1353.45 87.7 1354.49 80.92 1449.31 98.85"/><path class="cls-16" d="M1209.73,141.22h63.34l72.5-13.78c-26-2.75-90.45-3-135.84-2.41Z" transform="translate(0.04 -93.9)"/><path class="cls-16" d="M1205.82,125.07c-47.43.63-88.38,2-88.38,2l19.31,14.19h69.07Z" transform="translate(0.04 -93.9)"/><path class="cls-24" d="M1379.67,223.16s.64-52.47-26.72-91.2l-60.64,12.4s17.51,21.34,17.51,78.82S1292.31,302,1292.31,302L1353,314.45C1380.34,275.64,1379.67,223.16,1379.67,223.16Z" transform="translate(0.04 -93.9)"/><path class="cls-16" d="M1377.16,223.16s.63-51.66-26.73-89.83l-60.64,12.23s17.52,21,17.52,77.6-17.52,77.64-17.52,77.64l60.64,12.2C1377.8,274.86,1377.16,223.16,1377.16,223.16Z" transform="translate(0.04 -93.9)"/><path class="cls-17" d="M1209.73,305.14h63.34l72.38,13.78c-26,2.74-90.45,2.94-135.85,2.44Z" transform="translate(0.04 -93.9)"/><path class="cls-17" d="M1205.82,321.26c-47.43-.57-88.38-1.91-88.38-1.91l19.31-14.19h69.07Z" transform="translate(0.04 -93.9)"/><path class="cls-16" d="M1122.93,302.5c-5.15-19.24-5.15-139.4,0-158.67,0,0-23.38-9.05-38.62-7.28-7.76,13-17.58,40.65-17.58,86.61s9.89,73.61,17.58,86.66C1099.55,311.58,1122.93,302.5,1122.93,302.5Z" transform="translate(0.04 -93.9)"/><path class="cls-17" d="M1289.79,300.8l60.64,12.2c27.37-38.14,26.73-89.84,26.73-89.84h-69.85C1307.31,279.8,1289.79,300.8,1289.79,300.8Z" transform="translate(0.04 -93.9)"/><path class="cls-17" d="M1122.93,302.5c-.17-.64-.31-1.36-.44-2.07a3.86,3.86,0,0,1,0-.68l-.21-1.32c-2-13.21-3.08-44.2-3.08-75.26h-52.47c0,46,9.82,73.62,17.58,86.66C1099.55,311.58,1122.93,302.5,1122.93,302.5Z" transform="translate(0.04 -93.9)"/><path class="cls-16" d="M1506.25,260c1.7,2,3.39,4,4.92,6.06a391.69,391.69,0,0,0,0-85.91c-1.6,2.07-3.19,4.1-4.92,6.07C1505.24,187.5,1505.24,258.87,1506.25,260Z" transform="translate(0.04 -93.9)"/><path class="cls-26" d="M1487.16,128.42a4,4,0,0,0-3.39,2.61,5.69,5.69,0,0,0-.2.91,3.91,3.91,0,0,0,2.68,4.17c17.22,4.87,19.2,28.38,20,30.48.54,1.28,2.3,1.87,3,1-2.34-14.09-6-26.38-11.48-31.84A36.27,36.27,0,0,0,1487.16,128.42Z" transform="translate(0.04 -93.9)"/><path class="cls-21" d="M1494,140.1a10.91,10.91,0,0,0,3.77-4.6,36.73,36.73,0,0,0-10.56-7.08,4,4,0,0,0-3.39,2.61,5.69,5.69,0,0,0-.2.91,3.93,3.93,0,0,0,2.68,4.17A21.37,21.37,0,0,1,1494,140.1Z" transform="translate(0.04 -93.9)"/><path class="cls-26" d="M1483.9,315.4a3.93,3.93,0,0,0,3,2.55,35.58,35.58,0,0,0,11.08-7.14,16.48,16.48,0,0,0,1.19-1.32h0a27.13,27.13,0,0,0,3.19-5.22h0c.63-1.28,1.18-2.61,1.73-4v-.41c.88-2.4,1.63-4.84,2.27-7.32a1.49,1.49,0,0,1,.27-1c.34-1.35.68-2.74,1-4.16l.3-1.42.51-2.48c.21-1.08.41-2.17.58-3.38v-1c-.71-.77-2.44,0-3,1.06-.85,2-2.82,25.54-20,30.48a3.94,3.94,0,0,0-2.68,4.17A3.64,3.64,0,0,0,1483.9,315.4Z" transform="translate(0.04 -93.9)"/><path class="cls-21" d="M1484.9,316.9l.21.2a4.76,4.76,0,0,0,.81.5h0a3.92,3.92,0,0,0,.95.31h0a36.36,36.36,0,0,0,10.84-7.11,10.86,10.86,0,0,0-3.73-4.51,19.81,19.81,0,0,1-2.71,1.83l-1.27.71-1,.44a21,21,0,0,1-2.64,1,3.35,3.35,0,0,0-2.07,1.59,4.42,4.42,0,0,0-.64,2.55,4.9,4.9,0,0,0,.21.92,4.34,4.34,0,0,0,.51,1Z" transform="translate(0.04 -93.9)"/><path class="cls-16" d="M1005.08,223.16A335.25,335.25,0,0,0,1007,262.6l1.08-.21a6.76,6.76,0,0,0,5.29-6.77,632.63,632.63,0,0,1,0-65.18,6.56,6.56,0,0,0-5.29-6.78l-1.08-.19A339.4,339.4,0,0,0,1005.08,223.16Z" transform="translate(0.04 -93.9)"/><path class="cls-18" d="M1011.14,170.79h0a4,4,0,0,0,4.68-3q2.23-9.44,5.21-18.67a3.89,3.89,0,0,0-2.43-5h0a3,3,0,0,0-1.12,0,104.06,104.06,0,0,0-8.23,25.61A3.64,3.64,0,0,0,1011.14,170.79Z" transform="translate(0.04 -93.9)"/><path class="cls-18" d="M1018.69,302.13a4,4,0,0,0,2.43-4.88q-3-9.24-5.21-18.63a3.92,3.92,0,0,0-4.68-3h0a3.6,3.6,0,0,0-1.91,1.08,104,104,0,0,0,8.23,25.62,3,3,0,0,0,1.11,0Z" transform="translate(0.04 -93.9)"/><path class="cls-16" d="M1338.27,121.1l-8.84-.64a2.19,2.19,0,0,0-1.92,1l-1.07,1.71,15,1.75L1340,122.2A2,2,0,0,0,1338.27,121.1Z" transform="translate(0.04 -93.9)"/><path class="cls-25" d="M1332.31,120.57l-5.66-23.71a2.41,2.41,0,0,1,1.77-2.9h0a2.52,2.52,0,0,1,1.28.05c3.12,1.09,7.39,4.2,9.79,12.84s-.24,13-2.81,15.14a2.76,2.76,0,0,1-3.89-.42,2.79,2.79,0,0,1-.51-1Z" transform="translate(0.04 -93.9)"/><path class="cls-16" d="M1338.27,326.45l-8.84.61a2.14,2.14,0,0,1-1.92-.92l-1.08-1.69,15-1.79-1.46,2.71A2.11,2.11,0,0,1,1338.27,326.45Z" transform="translate(0.04 -93.9)"/><path class="cls-25" d="M1332.31,327l-5.66,23.71a2.41,2.41,0,0,0,1.77,2.9h0a2.52,2.52,0,0,0,1.28-.05c3.12-1.12,7.39-4.24,9.79-12.84s-.24-13-2.81-15.14a2.76,2.76,0,0,0-3.89.43,2.67,2.67,0,0,0-.51,1Z" transform="translate(0.04 -93.9)"/><path class="cls-27" d="M1011.14,170.79h0a4,4,0,0,0,4.68-3c.37-1.57.81-3.09,1.22-4.65l-6.3-.51c-.57,2.31-1.08,4.65-1.56,7A3.55,3.55,0,0,0,1011.14,170.79Z" transform="translate(0.04 -93.9)"/><path class="cls-27" d="M1011.21,275.55h0a3.59,3.59,0,0,0-1.92,1.08c.48,2.38,1,4.71,1.56,7l6.3-.51c-.41-1.56-.85-3.11-1.22-4.64a3.93,3.93,0,0,0-4.7-3Z" transform="translate(0.04 -93.9)"/><rect class="cls-24" x="1184.38" y="86.31" width="66.8" height="85.91" rx="6.27"/><path class="cls-16" d="M1420,257.82V188.54a5.87,5.87,0,0,1,5.79-5.92h50.58a5.87,5.87,0,0,1,5.83,5.89v69.31a5.86,5.86,0,0,1-5.79,5.92h-50.58a5.84,5.84,0,0,1-5.82-5.88h0Z" transform="translate(0.04 -93.9)"/><path class="cls-17" d="M1248.84,257.82V223.16h-62.19v34.66a5.85,5.85,0,0,0,5.79,5.92H1243a5.84,5.84,0,0,0,5.83-5.88h0Z" transform="translate(0.04 -93.9)"/><path class="cls-16" d="M1234.41,116.42H1245a1.81,1.81,0,0,1,1.8,1.8h0A1.8,1.8,0,0,1,1245,120h-10.57a1.78,1.78,0,0,1-1.8-1.78h0a1.81,1.81,0,0,1,1.79-1.81Z" transform="translate(0.04 -93.9)"/><path class="cls-16" d="M1195,116.42h10.58a1.8,1.8,0,0,1,1.79,1.8h0a1.79,1.79,0,0,1-1.79,1.79H1195a1.79,1.79,0,0,1-1.79-1.79h0a1.8,1.8,0,0,1,1.79-1.8Z" transform="translate(0.04 -93.9)"/><path class="cls-16" d="M1234.41,326.35H1245a1.79,1.79,0,0,1,1.8,1.78h0a1.81,1.81,0,0,1-1.8,1.8h-10.57a1.81,1.81,0,0,1-1.8-1.8h0a1.79,1.79,0,0,1,1.79-1.79Z" transform="translate(0.04 -93.9)"/><path class="cls-16" d="M1195,326.35h10.58a1.79,1.79,0,0,1,1.79,1.79h0a1.8,1.8,0,0,1-1.79,1.8H1195a1.79,1.79,0,0,1-1.79-1.79h0A1.8,1.8,0,0,1,1195,326.35Z" transform="translate(0.04 -93.9)"/><path class="cls-1" d="M7114.4,148.47l-252.56-5.35c-33.08,0-80.69,27-80.69,60V301.2c0,33.12,47.61,59.95,80.69,59.95l252.56-5.35-3.8,15.41s12.7,3.11,15.25-15.59a54.15,54.15,0,0,1,8.15.41l45.57,2.11c29.63,2.76,67.6-5.21,88.65-26.26,18.08-18.07,20.7-46.19,20.7-73.79V246.17c0-27.6-2.79-55.72-20.7-73.79-21.05-21-59-28-88.65-25.22L7134,148.23q-4,.36-8.15.41c-2.55-18.7-15.25-15.59-15.25-15.59Z" transform="translate(0.04 -93.9)"/><path class="cls-22" d="M7146.52,120.36a111.76,111.76,0,0,0,11.57-.43l45.57-1.07c29.6-2.76,67.61,4.17,88.65,25.21,18.08,18.09,20.88,46.2,20.88,73.8v11.95c0,27.6-2.8,55.71-20.88,73.79-21,21-59.06,29-88.65,26.26l-45.57-2.11a93.64,93.64,0,0,0-11.6-.41L6886,332.87c-33.12,0-80.66-26.84-80.66-59.95V174.78c0-33.08,47.54-59.86,80.66-59.86Z" transform="translate(0.04 -93.9)"/><path class="cls-23" d="M7143.59,132.33c3.72.07,7.45-.05,11.17-.35l44-1c28.64-2.41,65.35,3.73,85.67,22.33,17.48,15.94,20.17,40.85,20.17,65.23v10.56c0,24.39-2.69,49.23-20.17,65.24-20.32,18.59-57,25.63-85.67,23.22l-44-1.87c-3.71-.31-7.44-.44-11.17-.38l-251.85,4.9c-32,0-78-23.74-78-53v-86.8c0-29.25,46-53,78-53Z" transform="translate(0.04 -93.9)"/><path class="cls-4" d="M7150.31,127.46h-10.14l-5.48-22.7S7150.31,100.9,7150.31,127.46Z" transform="translate(0.04 -93.9)"/><path class="cls-4" d="M7150.31,320.24h-10.14l-5.59,22.7S7150.31,346.77,7150.31,320.24Z" transform="translate(0.04 -93.9)"/><path class="cls-5" d="M7304.63,178.41c-8.66-33-26.67-40.12-37.68-46.26a75.12,75.12,0,0,0-18.87-6.31A337.44,337.44,0,0,0,7304.63,178.41Z" transform="translate(0.04 -93.9)"/><path class="cls-6" d="M7017.28,139.06c-.2.76-.37,1.52-.58,2.28h58.67c29.34,0,83.39-13.8,83.39-13.8s-91.74-2.76-138.2,0A96.27,96.27,0,0,0,7017.28,139.06Z" transform="translate(0.04 -93.9)"/><path class="cls-6" d="M7014.49,127.58a400.82,400.82,0,0,0-77.71,13.61h74.49C7012.31,136.64,7013.39,132.15,7014.49,127.58Z" transform="translate(0.04 -93.9)"/><path class="cls-7" d="M6819.92,166.65a186.64,186.64,0,0,1,50.38-33.16,85.72,85.72,0,0,0-23,.86A52.07,52.07,0,0,0,6825,153.81a121,121,0,0,0-8.72,15.87A40.46,40.46,0,0,0,6819.92,166.65Z" transform="translate(0.04 -93.9)"/><path class="cls-5" d="M7304.63,271.67c-8.66,33-26.67,40.12-37.68,46.12a74.74,74.74,0,0,1-18.87,6.32A337.86,337.86,0,0,1,7304.63,271.67Z" transform="translate(0.04 -93.9)"/><path class="cls-6" d="M7200.75,296.16c4.66-14.21,8.93-36.6,8.93-71.14s-4.14-56.89-8.93-71.1a27.42,27.42,0,0,0-31.05-18.77l-71.14,13.91a5.21,5.21,0,0,0-4.14,5.17c.21,35.85,2.73,70.8,2.73,70.8s-2.55,35-2.73,70.83a5.2,5.2,0,0,0,4.14,5.34L7169.67,315A27.43,27.43,0,0,0,7200.75,296.16Z" transform="translate(0.04 -93.9)"/><path class="cls-7" d="M6819.92,280.91a188.05,188.05,0,0,0,50.38,33.16,84.1,84.1,0,0,1-23-.89A52.13,52.13,0,0,1,6825,293.75a121.44,121.44,0,0,1-8.7-15.86A30.56,30.56,0,0,1,6819.92,280.91Z" transform="translate(0.04 -93.9)"/><path class="cls-6" d="M7017.28,311.17c-.2-.76-.37-1.52-.58-2.28h58.67c29.34,0,83.39,14,83.39,14s-91.74,2.76-138.2,0C7019.22,319.14,7018.25,315,7017.28,311.17Z" transform="translate(0.04 -93.9)"/><path class="cls-6" d="M7014.49,322.52a399.4,399.4,0,0,1-77.71-13.81h74.49C7012.31,313.44,7013.39,318,7014.49,322.52Z" transform="translate(0.04 -93.9)"/><path class="cls-6" d="M6932.11,292a165.51,165.51,0,0,1,0-133.9c-15.7-5.48-36.71-7.59-48-8.35a12.44,12.44,0,0,0-12,6.91,154.88,154.88,0,0,0,0,136.86,12.43,12.43,0,0,0,12,6.91C6895.4,299.58,6916.37,297.47,6932.11,292Z" transform="translate(0.04 -93.9)"/></svg>